<?xml version="1.0" standalone="no"?>
<!DOCTYPE svg PUBLIC "-//W3C//DTD SVG 20010904//EN"
 "http://www.w3.org/TR/2001/REC-SVG-20010904/DTD/svg10.dtd">
<svg version="1.0" xmlns="http://www.w3.org/2000/svg"
 width="16.000000pt" height="16.000000pt" viewBox="0 0 16.000000 16.000000"
 preserveAspectRatio="xMidYMid meet">
<metadata>
Created by potrace 1.11, written by Peter Selinger 2001-2013
</metadata>
<g transform="translate(0.000000,16.000000) scale(0.011594,-0.011594)"
fill="#000000" stroke="none">
<path d="M190 1070 l0 -310 68 0 67 0 0 113 0 112 103 3 102 3 0 69 0 68 -67
0 c-38 0 -84 0 -104 1 l-36 1 2 53 c2 28 3 54 4 57 1 3 54 5 119 5 64 -1 122
0 128 2 6 2 10 30 10 66 l-1 62 -197 3 -198 2 0 -310z"/>
<path d="M792 1313 l3 -68 125 0 125 0 1 -553 1 -552 -358 0 -359 0 -2 242 -3
242 -65 0 -65 0 -3 -310 -2 -311 500 0 500 0 0 688 0 689 -200 0 -201 0 3 -67z"/>
</g>
</svg>
