<?xml version="1.0" standalone="no"?>
<!DOCTYPE svg PUBLIC "-//W3C//DTD SVG 1.1//EN" "http://www.w3.org/Graphics/SVG/1.1/DTD/svg11.dtd" >
<svg>
<metadata>
Created by FontForge 20090622 at Wed Jun 29 10:48:15 2016
 By ffonts
Font data copyright Google 2014, Design modifications and new weights 2015-2016, Cannot Into Space Fonts
</metadata>
<defs>
<font id="AsimovProUlt" horiz-adv-x="568" >
  <font-face 
    font-family="Asimov Pro"
    font-weight="900"
    font-stretch="normal"
    units-per-em="1000"
    panose-1="0 0 0 0 0 0 0 0 0 0"
    ascent="750"
    descent="-250"
    x-height="528"
    cap-height="711"
    bbox="16 -271 1502 1056"
    underline-thickness="48"
    underline-position="-97"
    stemh="114"
    stemv="141"
    unicode-range="U+0002-U+FFFD"
  />
<missing-glyph horiz-adv-x="89" 
 />
    <glyph glyph-name="fi" unicode="fi" horiz-adv-x="625" 
d="M24 400v128h78v10c0 149 97 222 245 222c65 0 113 -14 164 -30l10 -3l-25 -141l-14 5c-39 12 -77 21 -126 21c-58 0 -86 -22 -86 -74v-10h104v-128h-104v-400h-168v400h-78zM418 0v528h168v-528h-168z" />
    <glyph glyph-name=".notdef" horiz-adv-x="89" 
 />
    <glyph glyph-name="uni0009" horiz-adv-x="89" 
 />
    <glyph glyph-name="uni0009" horiz-adv-x="89" 
 />
    <glyph glyph-name="uni0002" horiz-adv-x="89" 
 />
    <glyph glyph-name="nonmarkingreturn" unicode="&#xd;" horiz-adv-x="89" 
 />
    <glyph glyph-name="space" unicode=" " horiz-adv-x="89" 
 />
    <glyph glyph-name="exclam" unicode="!" horiz-adv-x="239" 
d="M29 78c0 54 38 88 91 88c54 0 91 -34 91 -88s-39 -86 -91 -86c-53 0 -91 33 -91 86zM32 711h176l-17 -518h-141z" />
    <glyph glyph-name="quotedbl" unicode="&#x22;" horiz-adv-x="343" 
d="M32 551v199h125l-43 -284zM190 551v199h126l-43 -284z" />
    <glyph glyph-name="numbersign" unicode="#" horiz-adv-x="619" 
d="M24 192v104h128l20 114h-110v110h130l36 191h113l-35 -203h69l35 203h116l-36 -195h104v-106h-124l-20 -113l108 -1v-108h-126l-35 -188h-116l35 200h-68l-35 -200h-115l35 192h-109zM267 296h68l20 115l-68 -1z" />
    <glyph glyph-name="dollar" unicode="$" horiz-adv-x="556" 
d="M22 236v12h166v-12c0 -71 30 -108 95 -108c51 0 81 23 81 69c0 58 -41 75 -94 94c-105 38 -220 86 -220 230c0 94 53 153 121 182c22 10 46 16 71 19v111l104 -60v-55c115 -20 184 -103 184 -230v-12h-166v12c0 63 -24 100 -77 100c-48 0 -71 -24 -71 -70
c0 -38 18 -54 46 -70c36 -19 96 -40 135 -60c71 -35 133 -90 133 -194c0 -123 -86 -184 -194 -200v-108l-104 60v47c-94 12 -160 61 -192 138c-13 30 -18 65 -18 105z" />
    <glyph glyph-name="percent" unicode="%" horiz-adv-x="722" 
d="M24 531v36c0 96 68 154 166 154c100 0 168 -58 168 -154v-36c0 -96 -68 -153 -167 -153c-79 0 -134 37 -157 94c-8 19 -10 39 -10 59zM132 85l361 578l91 -49l-361 -578zM142 532c0 -31 17 -48 49 -48c31 0 47 18 47 48v34c0 31 -17 49 -48 49c-30 0 -48 -19 -48 -49v-34
zM364 143v37c0 73 40 119 95 141c21 8 46 13 72 13c100 0 167 -59 167 -154v-37c0 -72 -40 -119 -95 -141c-21 -9 -45 -12 -71 -12c-99 0 -168 57 -168 153zM482 144c0 -28 20 -48 50 -48c34 0 46 15 46 48v35c0 31 -16 47 -47 47c-33 0 -49 -16 -49 -47v-35z" />
    <glyph glyph-name="ampersand" unicode="&#x26;" horiz-adv-x="692" 
d="M23 196c0 97 67 140 124 182c-19 25 -32 47 -43 69c-13 26 -19 53 -19 81c0 119 83 193 206 193c89 0 153 -44 180 -106c9 -21 14 -43 14 -67c0 -81 -53 -128 -101 -161l-34 -23l104 -118c26 29 37 50 48 83l137 -5l-2 -13c-9 -74 -42 -127 -82 -179l118 -132h-194
l-32 38c-49 -30 -105 -48 -179 -48c-110 0 -193 45 -227 123c-12 26 -18 54 -18 83zM189 212c0 -51 34 -83 86 -83c27 0 53 7 77 19l-123 142c-23 -20 -40 -41 -40 -78zM235 524c0 -29 20 -56 34 -77l28 19c26 18 46 33 46 68c0 29 -22 48 -53 48c-36 0 -55 -21 -55 -58z
" />
    <glyph glyph-name="quotesingle" unicode="'" horiz-adv-x="184" 
d="M32 551v199h125l-43 -284z" />
    <glyph glyph-name="parenleft" unicode="(" horiz-adv-x="345" 
d="M26 278v11c0 176 51 313 133 410c32 37 71 71 117 90l12 5l36 -95l-7 -6c-101 -74 -147 -222 -147 -403v-13c0 -149 32 -273 94 -353c20 -24 37 -42 60 -56l-36 -95l-12 5c-76 33 -129 97 -169 165c-50 87 -81 201 -81 335z" />
    <glyph glyph-name="parenright" unicode=")" horiz-adv-x="352" 
d="M20 -133l7 6c99 75 146 221 146 404v13c0 149 -32 272 -95 353c-21 26 -39 40 -58 57l35 94l12 -5c78 -33 132 -100 173 -169c50 -86 85 -196 85 -331v-11c0 -175 -57 -311 -138 -408c-32 -38 -72 -73 -120 -92l-12 -5z" />
    <glyph glyph-name="asterisk" unicode="*" horiz-adv-x="511" 
d="M22 517l37 101l146 -52l-9 145h122l-9 -149l142 51l37 -101l-151 -42l99 -126l-100 -70l-84 137l-84 -132l-100 68l102 129z" />
    <glyph glyph-name="plus" unicode="+" horiz-adv-x="567" 
d="M27 258v152h178v179h158v-179h176v-152h-176v-200h-158v200h-178z" />
    <glyph glyph-name="comma" unicode="," horiz-adv-x="260" 
d="M26 -158l6 11c24 47 49 84 49 151v116h146l-2 -109c0 -70 -28 -126 -59 -167c-14 -19 -30 -34 -47 -49z" />
    <glyph glyph-name="hyphen" unicode="-" horiz-adv-x="373" 
d="M36 236v138h300v-138h-300z" />
    <glyph glyph-name="period" unicode="." horiz-adv-x="247" 
d="M32 56c0 53 38 89 91 89s93 -35 93 -89s-41 -86 -93 -86c-53 0 -91 33 -91 86z" />
    <glyph glyph-name="slash" unicode="/" horiz-adv-x="439" 
d="M18 -61l269 772h131l-269 -772h-131z" />
    <glyph glyph-name="zero" unicode="0" horiz-adv-x="562" 
d="M27 296v119c0 177 72 306 253 306c131 0 205 -69 236 -169c13 -38 17 -84 17 -137v-119c0 -175 -69 -306 -252 -306c-132 0 -203 71 -235 170c-13 38 -19 84 -19 136zM195 279c0 -86 14 -150 86 -150s86 64 86 150v155c0 86 -13 147 -87 147c-71 0 -85 -62 -85 -147v-155
z" />
    <glyph glyph-name="one" unicode="1" horiz-adv-x="376" 
d="M25 442v161l150 109h164v-712h-166v535z" />
    <glyph glyph-name="two" unicode="2" horiz-adv-x="575" 
d="M24 462v12c0 116 67 192 152 227c32 13 68 20 108 20c113 0 194 -41 229 -121c11 -26 15 -55 15 -86c0 -57 -19 -99 -44 -137c-32 -50 -74 -94 -117 -136l-105 -107h290v-134h-514v110l234 238c29 29 53 58 71 89c12 19 19 36 19 59c0 54 -28 86 -80 86
c-61 0 -90 -42 -90 -108v-12h-168z" />
    <glyph glyph-name="three" unicode="3" horiz-adv-x="566" 
d="M23 208v12h166v-12c0 -49 39 -79 91 -79c58 0 95 28 95 79c0 62 -36 88 -104 88h-88v134h88c62 0 94 27 94 79c0 48 -30 73 -85 73c-49 0 -83 -20 -83 -57v-11h-166v12c0 99 72 156 151 180c29 9 62 15 95 15c113 0 196 -40 234 -118c13 -26 20 -57 20 -90
c0 -73 -46 -118 -92 -147c63 -29 102 -82 102 -162c0 -111 -72 -174 -160 -200c-32 -9 -67 -14 -104 -14c-108 0 -191 46 -232 120c-15 28 -22 61 -22 98z" />
    <glyph glyph-name="four" unicode="4" horiz-adv-x="587" 
d="M24 142v115l295 454h163v-431h80v-138h-80v-142h-166v142h-292zM192 280h124v203z" />
    <glyph glyph-name="five" unicode="5" horiz-adv-x="554" 
d="M22 223h164l1 -11c5 -51 35 -83 89 -83c63 0 86 46 86 113c0 68 -31 106 -101 106c-47 0 -69 -18 -91 -40l-131 33l44 370h423v-143h-285l-14 -107c26 11 57 19 92 19c153 0 229 -100 229 -246c0 -113 -57 -189 -141 -224c-32 -13 -69 -20 -111 -20
c-109 0 -190 53 -229 127c-15 28 -23 58 -24 93z" />
    <glyph glyph-name="six" unicode="6" horiz-adv-x="565" 
d="M26 276v53c0 179 82 307 216 361c47 19 100 28 158 28h32v-141h-20c-116 0 -186 -46 -211 -127c32 23 74 38 124 38c112 0 176 -69 202 -152c9 -30 13 -63 13 -96c0 -117 -62 -194 -148 -230c-31 -13 -66 -20 -104 -20c-131 0 -212 75 -245 171c-13 35 -17 73 -17 115z
M192 259c0 -62 18 -105 55 -122c11 -5 25 -8 38 -8c46 0 70 30 82 66c5 14 7 27 7 44c0 53 -21 88 -54 103c-11 5 -24 8 -38 8c-46 0 -74 -24 -90 -53v-38z" />
    <glyph glyph-name="seven" unicode="7" horiz-adv-x="575" 
d="M24 572v139h526v-91l-279 -620h-177l275 572h-345z" />
    <glyph glyph-name="eight" unicode="8" horiz-adv-x="554" 
d="M24 200c0 79 45 135 99 166c-47 31 -83 80 -83 150c0 104 60 166 142 191c29 10 61 14 95 14c106 0 186 -42 220 -117c12 -26 17 -56 17 -88c0 -70 -38 -120 -84 -150c56 -32 100 -86 100 -166c0 -109 -66 -172 -153 -197c-30 -9 -64 -13 -100 -13
c-112 0 -195 42 -234 119c-13 26 -19 57 -19 91zM190 211c0 -52 32 -82 87 -82s85 30 85 82c0 53 -30 83 -86 83c-55 0 -86 -30 -86 -83zM206 509c0 -46 25 -75 71 -75s71 29 71 75s-25 73 -71 73c-48 0 -71 -26 -71 -73z" />
    <glyph glyph-name="nine" unicode="9" horiz-adv-x="555" 
d="M24 463c0 117 62 199 147 237c31 14 65 21 104 21c129 0 204 -78 235 -174c11 -36 18 -75 18 -118v-49c0 -239 -130 -387 -375 -387h-23v143h22c116 0 184 36 203 117c-30 -21 -67 -35 -111 -35c-112 0 -180 64 -206 148c-9 29 -14 63 -14 97zM190 465
c0 -66 26 -115 88 -115c40 0 71 23 84 48v53c0 62 -18 106 -54 124c-10 5 -22 7 -34 7c-57 0 -84 -54 -84 -117z" />
    <glyph glyph-name="colon" unicode=":" horiz-adv-x="245" 
d="M31 82c0 53 39 88 92 88s92 -34 92 -88s-40 -87 -92 -87c-53 0 -92 34 -92 87zM31 456c0 53 39 89 92 89s92 -35 92 -89s-40 -86 -92 -86c-53 0 -92 33 -92 86z" />
    <glyph glyph-name="semicolon" unicode=";" horiz-adv-x="262" 
d="M21 -145l6 11c24 47 49 84 49 151v115h146l-2 -108c0 -70 -29 -127 -60 -168c-14 -18 -30 -33 -46 -49zM50 456c0 53 39 89 92 89s92 -35 92 -89s-40 -86 -92 -86c-53 0 -92 33 -92 86z" />
    <glyph glyph-name="less" unicode="&#x3c;" horiz-adv-x="511" 
d="M30 224v132l446 189v-164l-255 -91l255 -90v-164z" />
    <glyph glyph-name="equal" unicode="=" horiz-adv-x="535" 
d="M36 140v140h462v-140h-462zM36 352v140h462v-140h-462z" />
    <glyph glyph-name="greater" unicode="&#x3e;" horiz-adv-x="516" 
d="M35 35v164l257 91l-257 91v163l450 -188v-132z" />
    <glyph glyph-name="question" unicode="?" horiz-adv-x="510" 
d="M22 497v13c0 140 98 211 234 211c135 0 230 -67 230 -205c0 -49 -17 -85 -38 -114c-24 -35 -55 -61 -85 -89c-21 -20 -37 -41 -42 -74c-1 -12 -2 -21 -3 -34v-12h-150v13c0 65 12 116 42 155c35 45 87 73 104 121c4 9 6 17 6 28c0 49 -18 70 -64 70
c-43 0 -68 -25 -68 -70v-13h-166zM154 80c0 53 40 89 92 89c53 0 92 -35 92 -89s-40 -86 -92 -86c-43 0 -70 22 -84 52c-5 11 -8 21 -8 34z" />
    <glyph glyph-name="at" unicode="@" horiz-adv-x="890" 
d="M27 226c8 214 108 370 264 441c53 24 113 37 179 37c134 0 233 -49 299 -123c66 -75 101 -183 95 -319c-4 -127 -53 -235 -155 -273c-22 -8 -45 -11 -71 -11c-55 0 -97 22 -120 59c-30 -34 -70 -59 -126 -59c-5 0 -9 1 -14 1c-112 8 -148 118 -139 232
c13 118 63 219 153 264c28 14 57 21 87 21c79 0 118 -30 163 -60l-26 -289c-1 -7 -1 -12 -1 -18c0 -32 12 -49 41 -49c31 0 49 23 65 50c34 60 38 189 18 271c-31 124 -115 199 -271 199c-105 0 -179 -45 -229 -105c-53 -63 -86 -158 -91 -270c-8 -164 45 -269 159 -314
c37 -14 80 -22 129 -22c60 0 114 14 157 32l13 6l24 -98l-8 -5c-47 -31 -116 -45 -188 -45h-24c-264 9 -393 179 -383 447zM372 183c0 -57 14 -91 54 -91c37 0 54 35 68 71l19 219c-9 2 -15 2 -25 2c-79 0 -106 -78 -115 -175c-1 -9 -1 -18 -1 -26z" />
    <glyph glyph-name="A" unicode="A" horiz-adv-x="744" 
d="M20 0l274 711h154l275 -711h-183l-49 146h-239l-49 -146h-183zM300 278h143l-72 213z" />
    <glyph glyph-name="B" unicode="B" horiz-adv-x="621" 
d="M36 0v711h262c119 0 215 -30 257 -112c13 -25 19 -55 19 -88c0 -68 -34 -117 -81 -144c60 -26 97 -77 97 -153c0 -151 -113 -214 -269 -214h-285zM208 143h113c61 0 97 24 97 74c0 57 -27 81 -91 81h-119v-155zM208 426h96c63 1 98 20 98 69c0 56 -33 72 -104 72h-90
v-141z" />
    <glyph glyph-name="C" unicode="C" horiz-adv-x="665" 
d="M28 333v44c0 156 65 271 181 320c38 16 80 24 126 24c179 0 280 -101 298 -262l2 -14h-173v12c-5 81 -41 119 -127 119c-104 0 -135 -77 -135 -198v-45c0 -115 25 -198 133 -198c86 0 123 36 128 115v12h172l-1 -13c-9 -124 -78 -204 -178 -240c-36 -13 -76 -19 -121 -19
c-156 0 -247 87 -285 202c-15 42 -20 89 -20 141z" />
    <glyph glyph-name="D" unicode="D" horiz-adv-x="639" 
d="M36 0v711h232c163 0 266 -86 313 -202c17 -42 25 -88 25 -139v-30c0 -160 -81 -269 -202 -316c-42 -16 -88 -24 -137 -24h-231zM208 143h59c116 0 165 76 165 197v31c0 122 -47 196 -164 196h-60v-424z" />
    <glyph glyph-name="E" unicode="E" horiz-adv-x="569" 
d="M36 0v711h502v-144h-330v-131h282v-140h-282v-153h330v-143h-502z" />
    <glyph glyph-name="F" unicode="F" horiz-adv-x="550" 
d="M36 0v711h488v-144h-316v-145h282v-144h-282v-278h-172z" />
    <glyph glyph-name="G" unicode="G" horiz-adv-x="671" 
d="M28 335v40c0 160 62 274 182 323c39 15 81 23 128 23c176 0 275 -89 294 -247l2 -14h-168l-1 11c-10 68 -45 107 -123 107c-105 0 -140 -82 -140 -202v-41c0 -123 41 -202 154 -202c45 0 87 9 104 25v96h-132v132h304v-391h-136v16c-45 -14 -93 -21 -148 -21
c-158 0 -257 84 -298 200c-16 42 -22 91 -22 145z" />
    <glyph glyph-name="H" unicode="H" horiz-adv-x="634" 
d="M36 0v711h172v-271h214v271h172v-711h-172v290h-214v-290h-172z" />
    <glyph glyph-name="I" unicode="I" horiz-adv-x="248" 
d="M36 0v711h172v-711h-172z" />
    <glyph glyph-name="J" unicode="J" horiz-adv-x="566" 
d="M25 222v13h172v-13c0 -62 20 -89 78 -89c52 0 80 36 80 94v484h172v-487c0 -112 -66 -186 -154 -217c-30 -10 -62 -17 -98 -17c-149 0 -250 80 -250 232z" />
    <glyph glyph-name="K" unicode="K" horiz-adv-x="670" 
d="M36 0v711h172v-288l213 288h213l-280 -353l296 -358h-215l-227 291v-291h-172z" />
    <glyph glyph-name="L" unicode="L" horiz-adv-x="549" 
d="M36 0v711h172v-568h312v-143h-484z" />
    <glyph glyph-name="M" unicode="M" horiz-adv-x="850" 
d="M36 0v711h214l174 -491l172 491h214v-711h-172v207l11 255l-167 -462h-118l-167 460l11 -253v-207h-172z" />
    <glyph glyph-name="N" unicode="N" horiz-adv-x="680" 
d="M36 0v711h167l267 -437v437h170v-711h-166l-266 436v-436h-172z" />
    <glyph glyph-name="O" unicode="O" horiz-adv-x="692" 
d="M28 340v30c0 161 69 275 187 326c39 16 81 25 128 25c102 0 177 -40 227 -95c54 -60 88 -147 88 -256v-30c0 -162 -69 -275 -187 -326c-39 -16 -80 -24 -127 -24c-100 0 -178 39 -228 94c-54 59 -88 148 -88 256zM200 340c0 -93 26 -163 84 -192c17 -8 37 -13 60 -13
c103 0 140 87 140 205v31c0 118 -37 204 -141 204c-103 0 -143 -86 -143 -204v-31z" />
    <glyph glyph-name="P" unicode="P" horiz-adv-x="635" 
d="M36 0v711h291c129 0 222 -54 261 -145c13 -30 18 -62 18 -96c0 -119 -69 -187 -162 -216c-35 -11 -74 -16 -117 -16h-119v-238h-172zM208 382h119c69 0 107 27 107 87c0 62 -39 98 -107 98h-119v-185z" />
    <glyph glyph-name="Q" unicode="Q" horiz-adv-x="692" 
d="M28 340v30c0 161 69 275 187 326c39 16 81 25 128 25c102 0 177 -40 227 -95c54 -60 88 -147 88 -256v-31c0 -126 -43 -220 -114 -281l117 -89l-112 -100l-155 125c-17 -3 -33 -3 -49 -4h-1c-102 0 -177 41 -228 95c-56 59 -88 146 -88 255zM200 340
c0 -93 26 -163 84 -192c17 -8 37 -13 60 -13c103 0 140 87 140 205v31c0 118 -37 204 -141 204c-103 0 -143 -86 -143 -204v-31z" />
    <glyph glyph-name="R" unicode="R" horiz-adv-x="639" 
d="M36 0v711h278c122 0 215 -39 255 -125c13 -28 19 -60 19 -95c0 -105 -50 -162 -122 -197l150 -272v-22h-178l-133 248h-97v-248h-172zM208 392h106c66 0 104 28 104 86c0 60 -35 89 -104 89h-106v-175z" />
    <glyph glyph-name="S" unicode="S" horiz-adv-x="625" 
d="M23 236v13h172v-13c0 -78 46 -105 128 -105c59 0 98 19 98 66c0 42 -23 55 -61 71c-17 7 -40 15 -69 24c-90 28 -182 63 -226 142c-13 24 -20 53 -20 84c0 107 81 162 165 187c33 10 70 16 110 16c123 0 212 -53 253 -139c13 -29 20 -60 20 -94v-12h-170v12
c0 61 -39 91 -106 91c-60 0 -100 -20 -100 -68c0 -17 8 -32 30 -46s56 -28 102 -41c95 -28 189 -66 228 -152c11 -24 16 -51 16 -80c0 -107 -73 -164 -160 -188c-33 -9 -70 -14 -110 -14c-140 0 -249 61 -287 169c-8 23 -13 49 -13 77z" />
    <glyph glyph-name="T" unicode="T" horiz-adv-x="653" 
d="M23 567v144h604v-144h-218v-567h-172v567h-214z" />
    <glyph glyph-name="U" unicode="U" horiz-adv-x="642" 
d="M33 246v465h172v-462c0 -79 36 -116 113 -116c78 0 113 37 113 116v462h172v-465c0 -129 -70 -208 -172 -239c-34 -11 -73 -17 -113 -17c-132 0 -222 54 -263 146c-14 32 -22 69 -22 110z" />
    <glyph glyph-name="V" unicode="V" horiz-adv-x="725" 
d="M20 711h190l151 -504l152 504h190l-256 -711h-171z" />
    <glyph glyph-name="W" unicode="W" horiz-adv-x="918" 
d="M21 711h172l87 -457l106 457h144l106 -458l87 458h172l-164 -711h-167l-106 436l-106 -436h-167z" />
    <glyph glyph-name="X" unicode="X" horiz-adv-x="698" 
d="M19 0l219 358l-214 353h198l126 -231l126 231h198l-214 -353l219 -358h-199l-130 236l-130 -236h-199z" />
    <glyph glyph-name="Y" unicode="Y" horiz-adv-x="698" 
d="M20 711h189l139 -303l140 303h189l-243 -453v-258h-174v258z" />
    <glyph glyph-name="Z" unicode="Z" horiz-adv-x="623" 
d="M28 0v98l340 469h-340v144h558v-96l-338 -472h346v-143h-566z" />
    <glyph glyph-name="bracketleft" unicode="[" horiz-adv-x="295" 
d="M37 -191v1018h236v-134h-70v-750h70v-134h-236z" />
    <glyph glyph-name="backslash" unicode="\" horiz-adv-x="516" 
d="M20 711h171l306 -772h-172z" />
    <glyph glyph-name="bracketright" unicode="]" horiz-adv-x="295" 
d="M21 -57h70v750h-70v134h236v-1018h-236v134z" />
    <glyph glyph-name="asciicircum" unicode="^" horiz-adv-x="482" 
d="M24 356l157 355h119l157 -355h-140l-76 200l-76 -200h-141z" />
    <glyph glyph-name="underscore" unicode="_" horiz-adv-x="543" 
d="M36 0h470v-135h-470v135z" />
    <glyph glyph-name="grave" unicode="`" horiz-adv-x="358" 
d="M26 750h189l113 -176h-145z" />
    <glyph glyph-name="a" unicode="a" horiz-adv-x="548" 
d="M27 155c0 137 122 181 257 181h51v14c0 39 -20 59 -66 59c-40 0 -64 -18 -64 -51v-13h-166v13c0 58 32 100 66 127c42 33 101 53 172 53c101 0 174 -37 207 -107c12 -24 17 -52 17 -83v-214c0 -46 6 -80 20 -109l2 -3v-22h-163c-5 10 -12 23 -15 34
c-30 -27 -71 -44 -125 -44c-85 0 -148 42 -177 99c-10 20 -16 42 -16 66zM193 166c0 -26 24 -43 58 -43c40 0 70 16 84 37v68h-46c-59 0 -96 -18 -96 -62z" />
    <glyph glyph-name="b" unicode="b" horiz-adv-x="570" 
d="M36 0v750h166v-251c30 25 66 39 116 39c118 0 182 -72 206 -162c8 -33 12 -68 12 -106v-10c0 -116 -36 -208 -121 -249c-28 -14 -60 -21 -96 -21c-56 0 -98 21 -128 50l-5 -40h-150zM202 171c15 -27 37 -42 81 -42c71 0 87 53 87 130v10c0 75 -17 129 -88 129
c-45 0 -65 -15 -80 -42v-185z" />
    <glyph glyph-name="c" unicode="c" horiz-adv-x="551" 
d="M28 257v13c0 159 90 268 255 268c108 0 182 -50 215 -128c12 -28 18 -57 18 -90v-13h-158v13c0 48 -30 79 -77 79c-70 0 -87 -54 -87 -129v-12c0 -76 15 -129 88 -129c48 0 74 24 77 67v12h157v-12c0 -65 -33 -117 -69 -149c-38 -34 -95 -57 -163 -57
c-130 0 -210 68 -241 163c-10 32 -15 68 -15 104z" />
    <glyph glyph-name="d" unicode="d" 
d="M28 258v9c0 116 40 209 125 250c28 14 59 21 94 21c50 0 87 -16 115 -40v252h166v-750h-150l-5 40c-31 -30 -71 -50 -127 -50c-75 0 -128 34 -162 77c-36 47 -56 114 -56 191zM194 258c0 -73 21 -129 88 -129c42 0 66 17 80 42v185c-15 26 -37 42 -79 42
c-68 0 -89 -57 -89 -130v-10z" />
    <glyph glyph-name="e" unicode="e" horiz-adv-x="566" 
d="M28 246v18c0 123 58 214 151 253c32 14 68 21 108 21c164 0 245 -108 245 -263v-69h-334c12 -47 49 -77 114 -77c56 0 92 21 117 54l9 12l86 -97l-6 -8c-43 -59 -114 -100 -216 -100c-132 0 -219 66 -256 158c-13 31 -18 63 -18 98zM200 314h168c0 55 -28 85 -82 85
c-53 0 -77 -35 -86 -85z" />
    <glyph glyph-name="f" unicode="f" horiz-adv-x="418" 
d="M24 400v128h80v34c0 128 79 198 206 198c28 0 52 -5 74 -10l10 -3l-2 -134l-15 3c-10 3 -24 4 -40 5c-45 0 -67 -19 -67 -59v-34h104v-128h-104v-400h-166v400h-80z" />
    <glyph glyph-name="g" unicode="g" horiz-adv-x="589" 
d="M18 -66c0 64 46 97 86 120c-10 15 -16 32 -16 54c0 40 23 68 47 87c-49 29 -91 79 -91 149v9c0 62 30 105 67 134c42 32 103 51 175 51c29 0 59 -3 84 -10h188l2 -97h-52c12 -22 20 -48 20 -80v-9c0 -60 -30 -104 -67 -133c-42 -33 -102 -53 -174 -53c-24 0 -47 2 -66 6
c-3 -4 -5 -7 -5 -12c0 -11 16 -14 49 -14h90c112 0 201 -48 201 -160c0 -58 -39 -103 -75 -130c-50 -37 -122 -60 -208 -60c-76 0 -139 13 -187 42c-35 20 -68 55 -68 106zM174 -32c0 -35 46 -50 99 -50c54 0 95 12 113 36c4 5 6 11 6 16c0 25 -20 34 -58 34h-95
c-14 0 -31 0 -43 2c-13 -8 -22 -20 -22 -38zM210 342c0 -35 33 -56 77 -56s75 22 75 56v9c0 35 -31 55 -76 55c-46 0 -76 -19 -76 -55v-9z" />
    <glyph glyph-name="h" unicode="h" horiz-adv-x="555" 
d="M36 0v750h166v-260c32 29 74 48 129 48c133 0 187 -83 187 -208v-330h-166v326c0 53 -18 72 -72 72c-40 0 -63 -15 -78 -37v-361h-166z" />
    <glyph glyph-name="i" unicode="i" horiz-adv-x="246" 
d="M28 652c0 51 40 86 92 86s92 -33 92 -86s-40 -85 -92 -85c-51 0 -92 31 -92 85zM38 0v528h166v-528h-166z" />
    <glyph glyph-name="j" unicode="j" horiz-adv-x="333" 
d="M18 -65l15 -3c13 -3 26 -5 41 -5c37 0 52 17 52 57v544h166v-544c0 -123 -70 -197 -193 -197c-30 0 -58 3 -81 11v137zM114 652c0 52 40 86 92 86s92 -34 92 -86c0 -54 -41 -85 -92 -85s-92 31 -92 85z" />
    <glyph glyph-name="k" unicode="k" horiz-adv-x="573" 
d="M36 0v762h166v-407l133 173h198l-205 -246l225 -282h-198l-153 206v-206h-166z" />
    <glyph glyph-name="l" unicode="l" horiz-adv-x="242" 
d="M36 0v750h166v-750h-166z" />
    <glyph glyph-name="m" unicode="m" horiz-adv-x="857" 
d="M35 0v528h158l3 -42c34 31 80 52 141 52c66 0 114 -25 142 -69c35 43 84 69 157 69c131 0 183 -81 183 -205v-333h-168v328c0 52 -15 70 -67 70c-40 0 -61 -20 -75 -47v-351h-166v327c0 57 -18 71 -67 71c-39 0 -61 -15 -75 -37v-361h-166z" />
    <glyph glyph-name="n" unicode="n" horiz-adv-x="555" 
d="M35 0v528h158l3 -43c34 32 81 53 141 53c130 0 180 -84 180 -205v-333h-166v329c0 51 -19 69 -72 69c-38 0 -63 -17 -78 -39v-359h-166z" />
    <glyph glyph-name="o" unicode="o" horiz-adv-x="588" 
d="M28 259v9c0 123 58 210 151 249c33 15 70 21 111 21c130 0 212 -69 246 -163c11 -33 18 -68 18 -106v-9c0 -123 -58 -210 -151 -249c-33 -15 -71 -21 -112 -21c-130 0 -213 69 -247 163c-12 33 -16 68 -16 106zM194 259c0 -76 24 -130 97 -130c71 0 97 55 97 130v10
c0 75 -27 130 -98 130s-96 -56 -96 -130v-10z" />
    <glyph glyph-name="p" unicode="p" horiz-adv-x="571" 
d="M35 -203v731h155l4 -35c31 28 69 45 124 45c118 0 179 -72 204 -160c9 -33 15 -69 15 -108v-10c0 -115 -43 -206 -124 -248c-27 -15 -60 -22 -94 -22c-50 0 -90 17 -118 40v-233h-166zM201 168c14 -24 38 -39 81 -39c67 0 89 58 89 130v10c0 72 -23 129 -90 129
c-43 0 -65 -14 -80 -37v-193z" />
    <glyph glyph-name="q" unicode="q" 
d="M28 259v9c0 115 40 208 124 249c28 14 60 21 96 21c57 0 98 -20 127 -49l6 39h147v-731h-166v231c-29 -23 -67 -38 -115 -38c-118 0 -179 76 -205 163c-9 33 -14 68 -14 106zM194 259c0 -74 21 -130 89 -130c43 0 64 15 79 39v194c-15 24 -36 37 -78 37
c-67 0 -90 -57 -90 -130v-10z" />
    <glyph glyph-name="r" unicode="r" horiz-adv-x="391" 
d="M35 0v528h159l2 -39c26 29 60 49 107 49c16 0 35 -3 47 -6l10 -3l-3 -159l-13 1c-15 1 -36 4 -50 4c-51 0 -77 -15 -93 -42v-333h-166z" />
    <glyph glyph-name="s" unicode="s" horiz-adv-x="530" 
d="M23 180v13h158v-12c3 -45 34 -66 85 -66c44 0 69 14 69 41c0 24 -16 30 -45 40c-13 4 -30 8 -52 12c-75 15 -149 42 -183 101c-10 18 -16 39 -16 62c0 52 29 92 61 118c39 31 95 49 163 49c103 0 180 -37 216 -109c11 -23 18 -46 18 -73v-13h-166v13c0 38 -23 57 -69 57
c-39 0 -61 -16 -61 -43c0 -20 17 -29 43 -37c34 -11 88 -18 126 -30c48 -15 87 -40 111 -79c11 -19 18 -43 18 -69c0 -55 -31 -93 -66 -118c-42 -29 -100 -47 -170 -47c-107 0 -189 46 -224 121c-11 23 -16 46 -16 69z" />
    <glyph glyph-name="t" unicode="t" horiz-adv-x="395" 
d="M25 400v128h78v130h166v-130h90v-128h-90v-230c0 -31 8 -39 41 -39c15 0 29 1 39 4l16 4v-133l-10 -3c-26 -7 -54 -13 -89 -13c-108 0 -163 57 -163 159v251h-78z" />
    <glyph glyph-name="u" unicode="u" horiz-adv-x="555" 
d="M33 190v338h166v-334c0 -44 19 -65 63 -65c45 0 71 16 87 39v360h166v-528h-157l-2 38c-33 -29 -78 -48 -135 -48c-129 0 -188 78 -188 200z" />
    <glyph glyph-name="v" unicode="v" horiz-adv-x="570" 
d="M21 528h175l88 -321l88 321h175l-187 -528h-152z" />
    <glyph glyph-name="w" unicode="w" horiz-adv-x="782" 
d="M21 528h162l61 -296l85 296h120l86 -296l61 296h162l-141 -528h-137l-91 302l-91 -302h-137z" />
    <glyph glyph-name="x" unicode="x" horiz-adv-x="579" 
d="M21 0l165 270l-158 258h180l80 -144l82 144h180l-158 -258l164 -270h-180l-87 153l-87 -153h-181z" />
    <glyph glyph-name="y" unicode="y" horiz-adv-x="578" 
d="M20 528h179l89 -297l89 297h178l-217 -599c-26 -74 -74 -142 -181 -142c-29 0 -53 5 -75 13v128h13c8 0 15 -1 21 -1c49 0 69 14 80 48v1l15 36z" />
    <glyph glyph-name="z" unicode="z" horiz-adv-x="522" 
d="M28 0v97l237 292h-229v139h448v-95l-238 -300h246v-133h-464z" />
    <glyph glyph-name="braceleft" unicode="{" horiz-adv-x="364" 
d="M24 238v128h13c55 0 75 27 75 85v97c0 134 75 202 185 232l11 3l35 -100l-12 -4c-48 -17 -67 -61 -67 -133v-97c0 -69 -29 -118 -75 -148c47 -32 75 -82 75 -150v-99c0 -73 19 -120 67 -137l12 -4l-35 -102l-11 3c-110 31 -185 101 -185 240v99c0 57 -22 87 -75 87h-13z
" />
    <glyph glyph-name="bar" unicode="|" horiz-adv-x="183" 
d="M36 -157v868h110v-868h-110z" />
    <glyph glyph-name="braceright" unicode="}" horiz-adv-x="363" 
d="M20 -89l12 4c48 17 68 65 68 137v99c0 71 30 120 75 149c-49 30 -75 81 -75 149v97c0 71 -20 116 -68 133l-12 4l35 100l11 -3c110 -30 186 -98 186 -232v-97c0 -58 19 -85 74 -85h12v-128h-12c-55 0 -74 -28 -74 -87v-99c0 -139 -76 -209 -186 -240l-11 -3z" />
    <glyph glyph-name="asciitilde" unicode="~" horiz-adv-x="633" 
d="M32 191v12c0 94 35 166 103 198c22 10 45 15 70 15c29 0 55 -5 78 -17c22 -12 44 -28 68 -50h1c21 -21 37 -37 66 -37c34 0 54 32 54 76v13l128 -2v-12c0 -94 -37 -167 -103 -200c-22 -11 -46 -17 -71 -17c-71 0 -111 36 -146 69c-20 18 -38 37 -68 37
c-33 0 -50 -32 -50 -74v-13z" />
    <glyph glyph-name="nonbreakingspace" unicode="&#xa0;" horiz-adv-x="89" 
 />
    <glyph glyph-name="exclamdown" unicode="&#xa1;" horiz-adv-x="242" 
d="M29 450c0 53 41 88 93 88c42 0 70 -23 84 -53c5 -11 7 -22 7 -35c0 -52 -40 -87 -91 -87c-43 0 -71 23 -85 53c-5 11 -8 21 -8 34zM34 -192l17 517l142 -1l17 -516h-176z" />
    <glyph glyph-name="cent" unicode="&#xa2;" horiz-adv-x="539" 
d="M25 257v14c0 112 44 196 116 241c23 15 51 27 80 33v111h122v-112c77 -17 132 -64 157 -133c8 -24 13 -50 13 -79v-12h-156v12c0 48 -30 80 -78 80c-70 0 -88 -59 -88 -141v-14c0 -83 16 -141 89 -141c48 0 74 25 77 68v12h156v-13c0 -88 -50 -144 -108 -176
c-19 -10 -41 -18 -62 -22v-117h-122v116c-126 26 -196 127 -196 273z" />
    <glyph glyph-name="sterling" unicode="&#xa3;" horiz-adv-x="598" 
d="M29 268v140h76l-4 95c0 107 57 174 141 202c29 11 60 15 94 15c110 0 186 -47 218 -128c11 -27 15 -57 15 -88v-12h-164v12c0 49 -23 73 -70 73c-41 0 -62 -30 -62 -79l4 -95h152v-135h-147l3 -50c0 -31 -7 -55 -19 -75h307v-143h-542v143h56c18 6 24 33 24 68l-2 57h-80
z" />
    <glyph glyph-name="currency" unicode="&#xa4;" horiz-adv-x="695" 
d="M21 67l66 66c-27 44 -45 96 -45 162c0 69 20 126 50 169l-71 70l85 88l71 -72c45 31 100 53 169 53s126 -23 169 -54l71 74l88 -89l-75 -72c30 -45 49 -100 49 -167c0 -65 -18 -119 -44 -161l70 -67l-88 -85l-65 66c-45 -34 -103 -58 -175 -58c-73 0 -132 25 -176 58
l-64 -67zM158 297c0 -58 24 -104 55 -135c30 -30 75 -54 133 -54s102 24 132 54c31 31 54 77 54 135c0 87 -48 147 -113 174c-22 10 -48 14 -73 14c-58 0 -103 -24 -133 -54c-31 -31 -55 -76 -55 -134z" />
    <glyph glyph-name="yen" unicode="&#xa5;" horiz-adv-x="674" 
d="M20 711h190l127 -278l127 278h190l-184 -337h107v-110h-156v-30h156v-110h-156v-124h-172v124h-164v110h164v30h-164v110h118z" />
    <glyph glyph-name="brokenbar" unicode="&#xa6;" horiz-adv-x="225" 
d="M36 -144v412h152v-412h-152zM36 316v395h152v-395h-152z" />
    <glyph glyph-name="section" unicode="&#xa7;" horiz-adv-x="605" 
d="M24 -4v12h166v-12c0 -58 44 -77 112 -77c58 0 98 16 98 53c0 20 -8 28 -24 39c-29 18 -63 27 -109 40c-91 24 -184 52 -225 131c-12 22 -18 51 -18 81c0 61 31 103 71 130c-36 31 -57 73 -57 135c0 103 77 157 158 180c32 9 67 13 107 13c119 0 209 -41 248 -127
c13 -28 19 -60 19 -94v-13h-166v13c0 54 -41 82 -101 82c-49 0 -81 -12 -94 -36c-4 -9 -5 -15 -5 -21c0 -38 23 -47 62 -60c125 -40 314 -55 314 -231c0 -61 -30 -104 -70 -130c36 -31 56 -73 56 -135c0 -103 -73 -157 -157 -178c-32 -8 -68 -12 -107 -12
c-152 0 -278 59 -278 217zM190 275c0 -41 24 -53 63 -67c33 -12 94 -27 133 -42c18 12 30 29 30 55c0 38 -30 51 -68 66c-34 13 -93 28 -132 43c-16 -11 -26 -28 -26 -55z" />
    <glyph glyph-name="dieresis" unicode="&#xa8;" horiz-adv-x="460" 
d="M30 654c0 46 37 75 80 75c44 0 80 -30 80 -75c0 -46 -37 -74 -80 -74c-44 0 -80 27 -80 74zM268 654c0 46 37 75 80 75c44 0 80 -30 80 -75s-36 -75 -80 -75c-45 0 -80 29 -80 75z" />
    <glyph glyph-name="copyright" unicode="&#xa9;" horiz-adv-x="768" 
d="M24 356c0 114 46 199 105 259c41 42 94 74 158 92c31 9 63 14 96 14c113 0 196 -48 254 -105c60 -61 105 -145 105 -260c0 -112 -45 -201 -105 -261c-58 -58 -144 -105 -254 -105c-113 0 -197 47 -254 105c-59 61 -105 147 -105 261zM108 356c0 -130 74 -218 168 -259
c33 -15 68 -21 107 -21c87 0 150 35 194 80c46 47 79 111 79 200c0 118 -59 197 -136 242c-36 21 -82 37 -137 37c-85 0 -149 -37 -194 -81c-46 -45 -81 -112 -81 -198zM192 327v58c0 91 41 157 107 186c23 10 48 15 77 15c107 0 176 -57 176 -166v-12h-100v12
c0 55 -23 76 -76 76c-57 0 -82 -46 -82 -111v-58c0 -67 24 -111 82 -111c55 0 74 19 74 75v13h102v-13c0 -109 -69 -165 -176 -165c-91 0 -148 51 -171 120c-8 24 -13 52 -13 81z" />
    <glyph glyph-name="ordfeminine" unicode="&#xaa;" horiz-adv-x="396" 
d="M26 462c0 96 83 125 178 125h38v7c0 20 -13 29 -44 29c-37 0 -56 -11 -56 -35v-14l-108 9v11c0 89 83 127 164 127c93 0 154 -48 154 -135v-140c0 -33 4 -59 12 -86l5 -16h-111c-3 6 -6 13 -8 21c-23 -17 -53 -28 -91 -28c-79 0 -133 45 -133 125zM136 464
c0 -22 12 -31 44 -31c22 0 48 12 62 23v48h-37c-36 0 -57 -9 -66 -26c-3 -7 -3 -9 -3 -14z" />
    <glyph glyph-name="guillemotleft" unicode="&#xab;" horiz-adv-x="504" 
d="M27 247v18l142 186h119l-124 -195l124 -195h-119zM215 247v18l142 186h119l-124 -195l124 -195h-119z" />
    <glyph glyph-name="logicalnot" unicode="&#xac;" horiz-adv-x="503" 
d="M34 298v108h432v-236h-122v128h-310z" />
    <glyph glyph-name="uni00AD" unicode="&#xad;" horiz-adv-x="373" 
d="M36 236v138h300v-138h-300z" />
    <glyph glyph-name="registered" unicode="&#xae;" horiz-adv-x="767" 
d="M24 356c0 115 46 200 105 260c57 58 140 105 254 105c113 0 196 -48 254 -105c43 -43 73 -96 91 -161c8 -31 14 -64 14 -99c0 -112 -45 -200 -105 -260c-58 -58 -144 -106 -254 -106c-113 0 -197 48 -254 106c-59 61 -105 145 -105 260zM108 356c0 -130 74 -218 168 -259
c33 -15 68 -21 107 -21c87 0 150 35 194 80c46 47 79 111 79 200c0 118 -59 197 -136 242c-36 21 -82 37 -137 37c-85 0 -149 -36 -194 -80c-46 -45 -81 -113 -81 -199zM226 142v440h150c94 0 172 -41 172 -141c0 -40 -22 -67 -46 -85c31 -24 44 -59 44 -105v-27
c0 -23 -2 -49 8 -59v-23h-97c-7 19 -11 44 -11 68v41c0 42 -12 55 -56 55h-66v-164h-98zM324 396h55c40 0 69 16 69 45c0 44 -19 51 -72 51h-52v-96z" />
    <glyph glyph-name="macron" unicode="&#xaf;" horiz-adv-x="477" 
d="M25 580v131h407v-131h-407z" />
    <glyph glyph-name="macron" unicode="&#x2c9;" horiz-adv-x="477" 
d="M25 580v131h407v-131h-407z" />
    <glyph glyph-name="degree" unicode="&#xb0;" horiz-adv-x="345" 
d="M27 586c0 62 40 103 88 123c18 8 36 12 56 12c66 0 114 -40 133 -83c8 -16 11 -33 11 -51c0 -61 -40 -103 -88 -122c-17 -8 -36 -12 -56 -12c-67 0 -112 39 -133 81c-8 16 -11 33 -11 52zM123 586c0 -21 23 -36 48 -36c29 0 48 14 48 36s-19 37 -48 37
c-28 0 -48 -16 -48 -37z" />
    <glyph glyph-name="plusminus" unicode="&#xb1;" horiz-adv-x="526" 
d="M27 330v142h164v168h148v-168h160v-142h-160v-178h-148v178h-164zM39 0v141h446v-141h-446z" />
    <glyph glyph-name="twosuperior" unicode="&#xb2;" horiz-adv-x="392" 
d="M26 558v12c0 69 43 116 95 135c21 8 42 11 66 11c91 0 163 -36 163 -120c0 -53 -33 -83 -63 -107c-13 -12 -29 -24 -47 -38l-26 -20h148v-105h-328v85l145 115c17 14 29 27 36 37c7 11 11 19 11 23c0 17 -10 25 -34 25c-26 0 -42 -16 -42 -41v-12h-124z" />
    <glyph glyph-name="threesuperior" unicode="&#xb3;" horiz-adv-x="394" 
d="M26 452v13h126v-13c0 -16 18 -27 46 -27c29 0 42 12 42 31c0 26 -13 32 -49 32h-55v92h55c30 0 43 6 43 17c0 9 -13 13 -39 13c-24 0 -37 -8 -37 -16v-13h-126v13c0 67 52 101 101 115c18 5 38 7 59 7c84 0 166 -27 166 -108c0 -34 -21 -57 -46 -71c33 -17 54 -46 54 -91
c0 -92 -91 -126 -174 -126c-87 0 -166 40 -166 132z" />
    <glyph glyph-name="acute" unicode="&#xb4;" horiz-adv-x="356" 
d="M28 574l113 176h188l-157 -176h-144z" />
    <glyph glyph-name="mu" unicode="&#xb5;" 
d="M36 -203v731h166v-296c0 -69 15 -103 76 -103c47 0 73 15 88 40v359h166v-528h-155l-2 20c-27 -19 -59 -30 -100 -30c-27 0 -52 5 -73 14v-207h-166z" />
    <glyph glyph-name="paragraph" unicode="&#xb6;" horiz-adv-x="607" 
d="M24 478c0 112 58 183 144 216c32 12 68 17 108 17h160v-711h-132v245h-28c-120 0 -204 53 -237 141c-11 29 -15 59 -15 92zM438 0v711h132v-711h-132z" />
    <glyph glyph-name="periodcentered" unicode="&#xb7;" horiz-adv-x="249" 
d="M32 352c0 53 39 89 92 89s92 -35 92 -89c0 -53 -40 -87 -92 -87c-51 0 -92 33 -92 87z" />
    <glyph glyph-name="cedilla" unicode="&#xb8;" horiz-adv-x="275" 
d="M30 -74l20 77h130l-6 -27c42 -9 71 -39 71 -85c0 -63 -51 -96 -105 -109c-23 -6 -48 -8 -77 -8h-12l-5 107h13c29 0 42 7 42 23s-16 18 -57 21z" />
    <glyph glyph-name="onesuperior" unicode="&#xb9;" horiz-adv-x="277" 
d="M25 556v95l193 59h23v-384h-124v249z" />
    <glyph glyph-name="ordmasculine" unicode="&#xba;" horiz-adv-x="416" 
d="M26 522v33c0 77 41 129 105 152c23 10 49 14 76 14c88 0 145 -42 169 -100c9 -20 12 -43 12 -66v-33c0 -86 -41 -145 -105 -171c-23 -9 -47 -14 -75 -14c-89 0 -145 46 -170 111c-9 23 -12 48 -12 74zM136 522c0 -56 22 -89 72 -89c48 0 70 35 70 89v30
c0 43 -23 71 -71 71c-49 0 -71 -27 -71 -71v-30z" />
    <glyph glyph-name="guillemotright" unicode="&#xbb;" horiz-adv-x="510" 
d="M28 61l124 194l-124 196h119l143 -187v-17l-143 -186h-119zM220 61l124 194l-124 196h119l143 -187v-17l-143 -186h-119z" />
    <glyph glyph-name="onequarter" unicode="&#xbc;" horiz-adv-x="702" 
d="M23 544v102l193 62h23v-409h-124v265zM123 89l361 578l91 -49l-362 -578zM335 160l174 241v9h126v-226h44v-106h-44v-78h-126v78h-166zM469 171l40 1v51z" />
    <glyph glyph-name="onehalf" unicode="&#xbd;" horiz-adv-x="751" 
d="M23 547v102l193 62h23v-409h-124v265zM111 89l361 578l91 -49l-362 -578zM391 244v13c0 70 44 115 96 135c21 8 41 12 66 12c91 0 164 -40 164 -130c0 -56 -34 -91 -64 -116c-13 -12 -29 -24 -47 -37l-26 -19h147v-102h-326v82l144 124c17 15 29 28 36 40
c8 13 10 22 10 24c0 19 -9 28 -33 28c-27 0 -41 -16 -41 -41v-13h-126z" />
    <glyph glyph-name="threequarters" unicode="&#xbe;" horiz-adv-x="785" 
d="M24 441v13h126v-13c0 -16 19 -27 47 -27c29 0 43 11 43 30c0 26 -14 32 -50 32h-56v92h56c29 0 42 8 42 23c0 13 -12 20 -38 20c-24 0 -38 -9 -38 -17v-12h-124v12c0 68 50 100 99 115c19 5 39 8 60 8c84 0 167 -31 167 -120c0 -38 -22 -63 -47 -78c33 -16 53 -45 53 -89
c0 -89 -90 -122 -173 -122c-69 0 -123 24 -151 71c-10 17 -16 38 -16 62zM208 89l361 578l91 -49l-362 -578zM418 160l174 241v9h126v-226h44v-106h-44v-78h-126v78h-166zM552 171l40 1v51z" />
    <glyph glyph-name="questiondown" unicode="&#xbf;" horiz-adv-x="515" 
d="M25 3c0 50 17 86 39 116c25 35 57 63 87 91c28 24 40 50 40 104v12h150v-12c0 -93 -26 -148 -76 -193c-28 -27 -56 -50 -69 -85c-3 -10 -5 -20 -5 -32c0 -44 20 -64 62 -64c46 0 70 24 70 71v13h168v-13c0 -140 -99 -211 -235 -211s-231 64 -231 203zM175 450
c0 54 38 88 92 88c53 0 92 -34 92 -88c0 -53 -39 -86 -92 -86s-92 33 -92 86z" />
    <glyph glyph-name="Agrave" unicode="&#xc0;" horiz-adv-x="744" 
d="M20 0l274 711h154l275 -711h-183l-49 146h-239l-49 -146h-183zM164 901h189l113 -176h-145zM300 278h143l-72 213z" />
    <glyph glyph-name="Aacute" unicode="&#xc1;" horiz-adv-x="744" 
d="M20 0l274 711h154l275 -711h-183l-49 146h-239l-49 -146h-183zM282 725l113 176h188l-157 -176h-144zM300 278h143l-72 213z" />
    <glyph glyph-name="Acircumflex" unicode="&#xc2;" horiz-adv-x="744" 
d="M20 0l274 711h154l275 -711h-183l-49 146h-239l-49 -146h-183zM174 733v26l153 142h92l153 -144v-24h-129l-70 66l-71 -66h-128zM300 278h143l-72 213z" />
    <glyph glyph-name="Atilde" unicode="&#xc3;" horiz-adv-x="744" 
d="M20 0l274 711h154l275 -711h-183l-49 146h-239l-49 -146h-183zM176 740v12c0 61 30 109 73 131c16 8 33 12 50 12c63 0 88 -42 134 -42c18 0 29 13 29 35v13l108 -8v-11c0 -62 -32 -110 -74 -132c-15 -8 -32 -11 -50 -11c-49 0 -77 24 -105 37c-9 4 -17 5 -29 5
c-18 0 -28 -13 -28 -35v-13zM300 278h143l-72 213z" />
    <glyph glyph-name="Adieresis" unicode="&#xc4;" horiz-adv-x="744" 
d="M20 0l274 711h154l275 -711h-183l-49 146h-239l-49 -146h-183zM172 806c0 46 38 74 81 74c44 0 79 -29 79 -74c0 -46 -36 -75 -79 -75c-44 0 -81 28 -81 75zM300 278h143l-72 213zM410 806c0 46 38 74 81 74c44 0 79 -29 79 -74s-35 -76 -79 -76c-45 0 -81 30 -81 76z
" />
    <glyph glyph-name="Aring" unicode="&#xc5;" horiz-adv-x="744" 
d="M20 0l274 711h154l275 -711h-183l-49 146h-239l-49 -146h-183zM252 832c0 54 35 89 73 104c15 6 31 9 48 9c66 0 121 -44 121 -113s-55 -110 -121 -110c-54 0 -93 28 -111 66c-7 13 -10 28 -10 44zM300 278h143l-72 213zM332 832c0 -22 18 -39 41 -39c24 0 41 16 41 39
c0 25 -16 41 -41 41s-41 -16 -41 -41z" />
    <glyph glyph-name="AE" unicode="&#xc6;" horiz-adv-x="991" 
d="M19 0l398 711h516v-140h-292l6 -143h246v-134h-240l7 -160h303v-134h-463l-7 163h-198l-81 -163h-195zM368 296h119l-9 217z" />
    <glyph glyph-name="Ccedilla" unicode="&#xc7;" horiz-adv-x="665" 
d="M28 333v44c0 156 65 271 181 320c38 16 80 24 126 24c179 0 280 -101 298 -262l2 -14h-173v12c-5 81 -41 119 -127 119c-104 0 -135 -77 -135 -198v-45c0 -115 25 -198 133 -198c86 0 123 36 128 115v12h172l-1 -13c-9 -124 -78 -204 -178 -240c-16 -6 -34 -10 -51 -13
c39 -12 65 -44 65 -92c0 -71 -53 -107 -107 -122c-23 -6 -48 -8 -76 -8h-12l-5 107h13c29 0 43 7 43 27s-17 23 -58 26l-14 1l13 61c-117 22 -185 99 -217 196c-14 42 -20 89 -20 141z" />
    <glyph glyph-name="Egrave" unicode="&#xc8;" 
d="M35 0v711h502v-144h-330v-131h282v-140h-282v-153h330v-143h-502zM86 903h189l113 -176h-145z" />
    <glyph glyph-name="Eacute" unicode="&#xc9;" 
d="M35 0v711h502v-144h-330v-131h282v-140h-282v-153h330v-143h-502zM204 727l113 176h188l-157 -176h-144z" />
    <glyph glyph-name="Ecircumflex" unicode="&#xca;" 
d="M35 0v711h502v-144h-330v-131h282v-140h-282v-153h330v-143h-502zM97 735v26l152 142h92l154 -144v-24h-130l-70 66l-71 -66h-127z" />
    <glyph glyph-name="Edieresis" unicode="&#xcb;" 
d="M35 0v711h502v-144h-330v-131h282v-140h-282v-153h330v-143h-502zM95 808c0 46 38 74 81 74c44 0 79 -29 79 -74c0 -46 -36 -75 -79 -75c-44 0 -81 28 -81 75zM333 808c0 46 38 74 81 74c44 0 79 -29 79 -74s-35 -76 -79 -76c-45 0 -81 30 -81 76z" />
    <glyph glyph-name="Igrave" unicode="&#xcc;" horiz-adv-x="353" 
d="M18 903h189l113 -176h-145zM142 0v711h170v-711h-170z" />
    <glyph glyph-name="Iacute" unicode="&#xcd;" horiz-adv-x="352" 
d="M31 727l113 176h188l-157 -176h-144zM37 0v711h172v-711h-172z" />
    <glyph glyph-name="Icircumflex" unicode="&#xce;" horiz-adv-x="436" 
d="M18 735v26l152 142h92l154 -144v-24h-130l-70 66l-71 -66h-127zM130 0v711h172v-711h-172z" />
    <glyph glyph-name="Idieresis" unicode="&#xcf;" horiz-adv-x="436" 
d="M18 808c0 46 37 74 80 74c44 0 80 -29 80 -74c0 -46 -37 -75 -80 -75c-44 0 -80 28 -80 75zM132 0v711h170v-711h-170zM256 808c0 46 37 74 80 74c44 0 80 -29 80 -74s-36 -76 -80 -76c-45 0 -80 30 -80 76z" />
    <glyph glyph-name="Eth" unicode="&#xd0;" horiz-adv-x="701" 
d="M26 300v116h72v295h232c163 0 267 -86 313 -202c17 -42 25 -88 25 -139v-30c0 -159 -82 -269 -202 -316c-42 -16 -88 -24 -138 -24h-230v300h-72zM270 143h58c116 0 166 76 166 197v31c0 121 -48 196 -164 196h-60v-151h122v-116h-122v-157z" />
    <glyph glyph-name="Ntilde" unicode="&#xd1;" horiz-adv-x="679" 
d="M35 0v711h167l267 -437v437h170v-711h-166l-266 436v-436h-172zM143 740v12c0 61 29 109 72 131c16 8 33 12 50 12c63 0 88 -42 134 -42c18 0 30 13 30 35v13l106 -8v-11c0 -62 -31 -110 -73 -132c-15 -8 -32 -11 -50 -11c-49 0 -77 24 -105 37c-9 4 -17 5 -29 5
c-18 0 -29 -13 -29 -35v-13z" />
    <glyph glyph-name="Ograve" unicode="&#xd2;" horiz-adv-x="691" 
d="M28 340v30c0 161 69 275 187 326c39 16 81 25 128 25c102 0 177 -40 227 -95c54 -60 88 -147 88 -256v-30c0 -162 -69 -275 -187 -326c-39 -16 -80 -24 -127 -24c-101 0 -178 40 -228 95c-54 59 -88 147 -88 255zM134 901h189l113 -176h-145zM200 340
c0 -93 26 -163 84 -192c17 -8 37 -13 60 -13c103 0 140 87 140 205v31c0 118 -37 204 -141 204c-103 0 -143 -86 -143 -204v-31z" />
    <glyph glyph-name="Oacute" unicode="&#xd3;" horiz-adv-x="691" 
d="M28 340v30c0 161 69 275 187 326c39 16 81 25 128 25c102 0 177 -40 227 -95c54 -60 88 -147 88 -256v-30c0 -162 -69 -275 -187 -326c-39 -16 -80 -24 -127 -24c-101 0 -178 40 -228 95c-54 59 -88 147 -88 255zM200 340c0 -93 26 -163 84 -192c17 -8 37 -13 60 -13
c103 0 140 87 140 205v31c0 118 -37 204 -141 204c-103 0 -143 -86 -143 -204v-31zM252 725l113 176h188l-157 -176h-144z" />
    <glyph glyph-name="Ocircumflex" unicode="&#xd4;" horiz-adv-x="691" 
d="M28 340v30c0 161 69 275 187 326c39 16 81 25 128 25c102 0 177 -40 227 -95c54 -60 88 -147 88 -256v-30c0 -162 -69 -275 -187 -326c-39 -16 -80 -24 -127 -24c-101 0 -178 40 -228 95c-54 59 -88 147 -88 255zM144 733v26l153 142h92l153 -144v-24h-129l-70 66
l-71 -66h-128zM200 340c0 -93 26 -163 84 -192c17 -8 37 -13 60 -13c103 0 140 87 140 205v31c0 118 -37 204 -141 204c-103 0 -143 -86 -143 -204v-31z" />
    <glyph glyph-name="Otilde" unicode="&#xd5;" horiz-adv-x="691" 
d="M28 340v30c0 161 69 275 187 326c39 16 81 25 128 25c102 0 177 -40 227 -95c54 -60 88 -147 88 -256v-30c0 -162 -69 -275 -187 -326c-39 -16 -80 -24 -127 -24c-101 0 -178 40 -228 95c-54 59 -88 147 -88 255zM146 740v12c0 61 32 109 74 131c16 8 32 12 49 12
c32 0 55 -13 74 -22c20 -10 38 -20 60 -20c18 0 29 13 29 35v13l108 -8v-11c0 -62 -32 -110 -74 -132c-15 -8 -32 -11 -50 -11c-49 0 -77 24 -105 37c-9 4 -17 5 -29 5c-18 0 -28 -13 -28 -35v-13zM200 340c0 -93 26 -163 84 -192c17 -8 37 -13 60 -13c103 0 140 87 140 205
v31c0 118 -37 204 -141 204c-103 0 -143 -86 -143 -204v-31z" />
    <glyph glyph-name="Odieresis" unicode="&#xd6;" horiz-adv-x="691" 
d="M28 340v30c0 161 69 275 187 326c39 16 81 25 128 25c102 0 177 -40 227 -95c54 -60 88 -147 88 -256v-30c0 -162 -69 -275 -187 -326c-39 -16 -80 -24 -127 -24c-101 0 -178 40 -228 95c-54 59 -88 147 -88 255zM142 806c0 46 38 74 81 74c44 0 79 -29 79 -74
c0 -46 -36 -75 -79 -75c-44 0 -81 28 -81 75zM200 340c0 -93 26 -163 84 -192c17 -8 37 -13 60 -13c103 0 140 87 140 205v31c0 118 -37 204 -141 204c-103 0 -143 -86 -143 -204v-31zM380 806c0 46 38 74 81 74c44 0 79 -29 79 -74s-35 -76 -79 -76c-45 0 -81 30 -81 76z
" />
    <glyph glyph-name="multiply" unicode="&#xd7;" horiz-adv-x="546" 
d="M22 182l150 153l-150 144l101 100l148 -152l149 152l101 -100l-150 -144l150 -153l-101 -91l-149 142l-148 -142z" />
    <glyph glyph-name="Oslash" unicode="&#xd8;" horiz-adv-x="691" 
d="M28 339v31c0 160 71 275 188 326c39 16 80 25 127 25c59 0 111 -14 150 -36l33 56h120l-73 -118c54 -61 85 -144 85 -252v-31c0 -161 -68 -275 -186 -326c-39 -16 -81 -24 -128 -24c-50 0 -98 10 -139 30l-39 -66h-121l76 124c-59 62 -93 149 -93 261zM202 326
c0 -43 5 -81 14 -110l200 337c-21 14 -45 21 -73 22c-103 0 -141 -91 -141 -215v-34zM282 150c18 -10 38 -15 62 -15c103 0 140 93 140 217v32c0 35 -3 67 -9 93z" />
    <glyph glyph-name="Ugrave" unicode="&#xd9;" horiz-adv-x="641" 
d="M33 246v465h172v-462c0 -79 36 -116 113 -116c78 0 113 37 113 116v462h172v-465c0 -129 -70 -208 -172 -239c-34 -11 -73 -17 -113 -17c-132 0 -222 54 -263 146c-14 32 -22 69 -22 110zM108 901h189l113 -176h-145z" />
    <glyph glyph-name="Uacute" unicode="&#xda;" horiz-adv-x="641" 
d="M33 246v465h172v-462c0 -79 36 -116 113 -116c78 0 113 37 113 116v462h172v-465c0 -129 -70 -208 -172 -239c-34 -11 -73 -17 -113 -17c-132 0 -222 54 -263 146c-14 32 -22 69 -22 110zM225 725l113 176h188l-157 -176h-144z" />
    <glyph glyph-name="Ucircumflex" unicode="&#xdb;" horiz-adv-x="641" 
d="M33 246v465h172v-462c0 -79 36 -116 113 -116c78 0 113 37 113 116v462h172v-465c0 -129 -70 -208 -172 -239c-34 -11 -73 -17 -113 -17c-132 0 -222 54 -263 146c-14 32 -22 69 -22 110zM119 733v26l152 142h92l154 -144v-24h-130l-70 66l-71 -66h-127z" />
    <glyph glyph-name="Udieresis" unicode="&#xdc;" horiz-adv-x="641" 
d="M33 246v465h172v-462c0 -79 36 -116 113 -116c78 0 113 37 113 116v462h172v-465c0 -129 -70 -208 -172 -239c-34 -11 -73 -17 -113 -17c-132 0 -222 54 -263 146c-14 32 -22 69 -22 110zM117 806c0 46 37 74 80 74c44 0 80 -29 80 -74c0 -46 -37 -75 -80 -75
c-44 0 -80 28 -80 75zM355 806c0 46 37 74 80 74c44 0 80 -29 80 -74s-36 -76 -80 -76c-45 0 -80 30 -80 76z" />
    <glyph glyph-name="Yacute" unicode="&#xdd;" horiz-adv-x="697" 
d="M19 711h189l139 -303l140 303h189l-242 -453v-258h-174v258zM257 725l113 176h188l-157 -176h-144z" />
    <glyph glyph-name="Thorn" unicode="&#xde;" horiz-adv-x="605" 
d="M36 0v711h166v-117h97c125 0 217 -50 256 -141c13 -29 19 -60 19 -93c0 -117 -70 -186 -159 -216c-35 -12 -73 -16 -116 -16h-97v-128h-166zM202 266h97c68 0 109 31 109 93s-42 95 -109 95h-97v-188z" />
    <glyph glyph-name="germandbls" unicode="&#xdf;" horiz-adv-x="622" 
d="M35 0v526c0 154 92 235 244 235c97 0 169 -39 201 -109c12 -25 17 -54 17 -84c0 -43 -9 -71 -26 -97c-14 -21 -26 -40 -26 -71c0 -20 18 -36 35 -52c34 -32 76 -64 100 -113c8 -17 13 -36 13 -58c0 -130 -99 -187 -231 -187c-58 0 -112 11 -150 35l33 135l14 -7
c23 -12 61 -24 100 -24c43 0 68 18 68 51c0 24 -16 39 -34 54c-43 38 -114 74 -114 162c0 82 54 100 54 164c0 39 -24 63 -64 63c-53 0 -68 -35 -68 -99v-524h-166z" />
    <glyph glyph-name="agrave" unicode="&#xe0;" horiz-adv-x="544" 
d="M25 155c0 137 121 181 256 181h50v14c0 39 -19 59 -65 59c-40 0 -63 -18 -63 -51v-13h-166v13c0 58 31 100 65 127c42 33 101 53 172 53c101 0 174 -37 207 -107c12 -24 18 -52 18 -83v-214c0 -46 5 -80 19 -109l1 -3v-22h-162c-5 10 -12 23 -15 34
c-30 -27 -71 -44 -125 -44c-85 0 -148 42 -177 99c-10 20 -15 42 -15 66zM64 750h189l113 -176h-145zM191 166c0 -26 23 -43 57 -43c40 0 69 16 83 37v68h-45c-59 0 -95 -18 -95 -62z" />
    <glyph glyph-name="aacute" unicode="&#xe1;" horiz-adv-x="545" 
d="M26 155c0 137 121 181 256 181h50v14c0 39 -19 59 -65 59c-40 0 -63 -18 -63 -51v-13h-166v13c0 58 31 100 65 127c42 33 101 53 172 53c101 0 174 -37 207 -107c12 -24 18 -52 18 -83v-214c0 -46 5 -80 19 -109l1 -3v-22h-162c-5 10 -12 23 -15 34
c-30 -27 -71 -44 -125 -44c-85 0 -148 42 -177 99c-10 20 -15 42 -15 66zM183 574l113 176h188l-157 -176h-144zM192 166c0 -26 23 -43 57 -43c40 0 69 16 83 37v68h-45c-59 0 -95 -18 -95 -62z" />
    <glyph glyph-name="acircumflex" unicode="&#xe2;" horiz-adv-x="544" 
d="M25 155c0 137 121 181 256 181h50v14c0 39 -19 59 -65 59c-40 0 -63 -18 -63 -51v-13h-166v13c0 58 31 100 65 127c42 33 101 53 172 53c101 0 174 -37 207 -107c12 -24 18 -52 18 -83v-214c0 -46 5 -80 19 -109l1 -3v-22h-162c-5 10 -12 23 -15 34
c-30 -27 -71 -44 -125 -44c-85 0 -148 42 -177 99c-10 20 -15 42 -15 66zM75 582v26l152 142h92l154 -144v-24h-130l-70 66l-71 -66h-127zM191 166c0 -26 23 -43 57 -43c40 0 69 16 83 37v68h-45c-59 0 -95 -18 -95 -62z" />
    <glyph glyph-name="atilde" unicode="&#xe3;" horiz-adv-x="544" 
d="M25 155c0 137 121 181 256 181h50v14c0 39 -19 59 -65 59c-40 0 -63 -18 -63 -51v-13h-166v13c0 58 31 100 65 127c42 33 101 53 172 53c101 0 174 -37 207 -107c12 -24 18 -52 18 -83v-214c0 -46 5 -80 19 -109l1 -3v-22h-162c-5 10 -12 23 -15 34
c-30 -27 -71 -44 -125 -44c-85 0 -148 42 -177 99c-10 20 -15 42 -15 66zM77 590v12c0 61 31 109 73 131c16 8 32 12 49 12c32 0 55 -13 74 -22c20 -10 38 -20 60 -20c18 0 30 13 30 35v13l106 -8v-11c0 -62 -31 -110 -73 -132c-15 -8 -32 -11 -50 -11c-49 0 -77 24 -105 37
c-9 4 -17 5 -29 5c-18 0 -29 -13 -29 -35v-13zM191 166c0 -26 23 -43 57 -43c40 0 69 16 83 37v68h-45c-59 0 -95 -18 -95 -62z" />
    <glyph glyph-name="adieresis" unicode="&#xe4;" horiz-adv-x="544" 
d="M25 155c0 137 121 181 256 181h50v14c0 39 -19 59 -65 59c-40 0 -63 -18 -63 -51v-13h-166v13c0 58 31 100 65 127c42 33 101 53 172 53c101 0 174 -37 207 -107c12 -24 18 -52 18 -83v-214c0 -46 5 -80 19 -109l1 -3v-22h-162c-5 10 -12 23 -15 34
c-30 -27 -71 -44 -125 -44c-85 0 -148 42 -177 99c-10 20 -15 42 -15 66zM73 654c0 46 38 75 81 75c44 0 79 -30 79 -75c0 -46 -36 -74 -79 -74c-44 0 -81 27 -81 74zM191 166c0 -26 23 -43 57 -43c40 0 69 16 83 37v68h-45c-59 0 -95 -18 -95 -62zM311 654
c0 46 38 75 81 75c44 0 79 -30 79 -75s-35 -75 -79 -75c-45 0 -81 29 -81 75z" />
    <glyph glyph-name="aring" unicode="&#xe5;" horiz-adv-x="544" 
d="M25 155c0 137 121 181 256 181h50v14c0 39 -19 59 -65 59c-40 0 -63 -18 -63 -51v-13h-166v13c0 58 31 100 65 127c42 33 101 53 172 53c101 0 174 -37 207 -107c12 -24 18 -52 18 -83v-214c0 -46 5 -80 19 -109l1 -3v-22h-162c-5 10 -12 23 -15 34
c-30 -27 -71 -44 -125 -44c-85 0 -148 42 -177 99c-10 20 -15 42 -15 66zM153 680c0 54 35 89 73 104c15 6 31 9 48 9c66 0 121 -44 121 -113s-55 -110 -121 -110c-54 0 -93 28 -111 66c-7 13 -10 28 -10 44zM191 166c0 -26 23 -43 57 -43c40 0 69 16 83 37v68h-45
c-59 0 -95 -18 -95 -62zM233 680c0 -22 18 -39 41 -39c24 0 41 16 41 39c0 25 -16 41 -41 41s-41 -16 -41 -41z" />
    <glyph glyph-name="ae" unicode="&#xe6;" horiz-adv-x="873" 
d="M26 158c0 124 121 164 255 164h67v14c0 41 -22 63 -64 63c-37 0 -59 -11 -70 -31c-3 -5 -4 -10 -4 -16v-14l-166 11v11c0 60 32 102 68 129c43 31 102 49 173 49c67 0 121 -17 160 -50c40 32 92 51 159 50c116 0 189 -58 219 -143c10 -29 15 -62 15 -99v-88h-324
c10 -51 47 -79 116 -79c60 0 98 16 139 36l11 6l47 -114l-7 -5c-49 -37 -121 -62 -205 -62c-82 0 -144 26 -188 67c-44 -42 -109 -67 -192 -67c-94 0 -165 33 -194 99c-10 20 -15 44 -15 69zM192 166c0 -33 23 -47 69 -47c36 0 66 14 87 32v74h-66c-43 0 -71 -15 -84 -39
c-4 -7 -6 -13 -6 -20zM516 314h158v2c0 54 -20 83 -70 83c-55 0 -78 -35 -88 -85z" />
    <glyph glyph-name="ccedilla" unicode="&#xe7;" horiz-adv-x="550" 
d="M28 257v13c0 159 90 268 255 268c108 0 182 -50 215 -128c12 -28 18 -57 18 -90v-13h-158v13c0 48 -30 79 -77 79c-70 0 -87 -55 -87 -132v-13c0 -78 15 -133 88 -133c48 0 74 23 77 64v11h157v-12c0 -61 -33 -110 -69 -140c-26 -22 -63 -39 -102 -47
c41 -11 69 -44 69 -93c0 -71 -53 -107 -107 -122c-23 -6 -48 -8 -76 -8h-12l-5 107h13c29 0 43 7 43 27s-17 23 -58 26l-14 1l13 63c-89 21 -143 80 -168 155c-10 32 -15 68 -15 104z" />
    <glyph glyph-name="egrave" unicode="&#xe8;" horiz-adv-x="566" 
d="M27 246v18c0 123 60 214 153 253c32 14 67 21 107 21c164 0 246 -108 246 -263v-69h-335c12 -47 49 -77 114 -77c56 0 92 21 117 54l9 12l86 -97l-6 -8c-43 -59 -114 -100 -216 -100c-132 0 -219 65 -256 157c-13 31 -19 64 -19 99zM62 750h189l113 -176h-145zM200 314
h168c0 55 -28 85 -82 85c-53 0 -77 -35 -86 -85z" />
    <glyph glyph-name="eacute" unicode="&#xe9;" horiz-adv-x="566" 
d="M27 246v18c0 123 60 214 153 253c32 14 67 21 107 21c164 0 246 -108 246 -263v-69h-335c12 -47 49 -77 114 -77c56 0 92 21 117 54l9 12l86 -97l-6 -8c-43 -59 -114 -100 -216 -100c-132 0 -219 65 -256 157c-13 31 -19 64 -19 99zM179 574l113 176h188l-157 -176h-144z
M200 314h168c0 55 -28 85 -82 85c-53 0 -77 -35 -86 -85z" />
    <glyph glyph-name="ecircumflex" unicode="&#xea;" horiz-adv-x="566" 
d="M27 246v18c0 123 60 214 153 253c32 14 67 21 107 21c164 0 246 -108 246 -263v-69h-335c12 -47 49 -77 114 -77c56 0 92 21 117 54l9 12l86 -97l-6 -8c-43 -59 -114 -100 -216 -100c-132 0 -219 65 -256 157c-13 31 -19 64 -19 99zM73 582v26l152 142h92l154 -144v-24
h-130l-70 66l-71 -66h-127zM200 314h168c0 55 -28 85 -82 85c-53 0 -77 -35 -86 -85z" />
    <glyph glyph-name="edieresis" unicode="&#xeb;" horiz-adv-x="566" 
d="M27 246v18c0 123 60 214 153 253c32 14 67 21 107 21c164 0 246 -108 246 -263v-69h-335c12 -47 49 -77 114 -77c56 0 92 21 117 54l9 12l86 -97l-6 -8c-43 -59 -114 -100 -216 -100c-132 0 -219 65 -256 157c-13 31 -19 64 -19 99zM71 654c0 46 37 75 80 75
c44 0 80 -30 80 -75c0 -46 -37 -74 -80 -74c-44 0 -80 27 -80 74zM200 314h168c0 55 -28 85 -82 85c-53 0 -77 -35 -86 -85zM309 654c0 46 37 75 80 75c44 0 80 -30 80 -75s-36 -75 -80 -75c-45 0 -80 29 -80 75z" />
    <glyph glyph-name="igrave" unicode="&#xec;" horiz-adv-x="350" 
d="M18 743h189l113 -176h-145zM142 0v528h166v-528h-166z" />
    <glyph glyph-name="iacute" unicode="&#xed;" horiz-adv-x="350" 
d="M29 567l113 176h188l-157 -176h-144zM36 0v528h166v-528h-166z" />
    <glyph glyph-name="icircumflex" unicode="&#xee;" horiz-adv-x="440" 
d="M20 575v26l153 142h92l153 -144v-24h-129l-70 66l-71 -66h-128zM134 0v528h166v-528h-166z" />
    <glyph glyph-name="idieresis" unicode="&#xef;" horiz-adv-x="442" 
d="M21 648c0 46 38 74 81 74c44 0 79 -29 79 -74c0 -46 -36 -75 -79 -75c-44 0 -81 28 -81 75zM137 0v528h166v-528h-166zM259 648c0 46 38 74 81 74c44 0 79 -29 79 -74s-35 -76 -79 -76c-45 0 -81 30 -81 76z" />
    <glyph glyph-name="eth" unicode="&#xf0;" horiz-adv-x="585" 
d="M27 230c0 144 84 245 234 245c37 0 68 -8 95 -20c-15 32 -36 58 -59 81l-94 -62l-54 77l69 43c-33 18 -69 32 -108 43l-14 4l53 132l10 -2c76 -15 145 -44 202 -85l87 55l50 -76l-65 -43c70 -74 118 -172 118 -305v-34c0 -132 -62 -228 -159 -271
c-33 -14 -68 -22 -106 -22c-122 0 -203 63 -240 147c-13 29 -19 60 -19 93zM193 242c0 -52 23 -87 56 -104c11 -6 23 -9 39 -9c70 0 97 68 97 151v52c-19 20 -49 32 -93 32c-68 0 -99 -46 -99 -122z" />
    <glyph glyph-name="ntilde" unicode="&#xf1;" horiz-adv-x="551" 
d="M34 0v528h157l3 -43c34 32 81 53 141 53c130 0 179 -84 179 -205v-333h-166v329c0 51 -18 69 -71 69c-38 0 -62 -17 -77 -39v-359h-166zM80 590v12c0 61 31 109 73 131c16 8 32 12 49 12c32 0 55 -13 74 -22c20 -10 38 -20 60 -20c18 0 30 13 30 35v13l106 -8v-11
c0 -62 -31 -110 -73 -132c-15 -8 -32 -11 -50 -11c-49 0 -77 24 -105 37c-9 4 -17 5 -29 5c-18 0 -29 -13 -29 -35v-13z" />
    <glyph glyph-name="ograve" unicode="&#xf2;" horiz-adv-x="586" 
d="M27 259v9c0 123 59 210 152 249c33 15 70 21 111 21c130 0 212 -69 246 -163c11 -33 17 -68 17 -106v-9c0 -123 -57 -210 -150 -249c-33 -15 -71 -21 -112 -21c-130 0 -213 69 -247 163c-12 33 -17 68 -17 106zM81 750h189l113 -176h-145zM193 259c0 -76 25 -130 98 -130
c71 0 96 55 96 130v10c0 75 -26 130 -97 130s-97 -56 -97 -130v-10z" />
    <glyph glyph-name="oacute" unicode="&#xf3;" horiz-adv-x="586" 
d="M27 259v9c0 123 59 210 152 249c33 15 70 21 111 21c130 0 212 -69 246 -163c11 -33 17 -68 17 -106v-9c0 -123 -57 -210 -150 -249c-33 -15 -71 -21 -112 -21c-130 0 -213 69 -247 163c-12 33 -17 68 -17 106zM193 259c0 -76 25 -130 98 -130c71 0 96 55 96 130v10
c0 75 -26 130 -97 130s-97 -56 -97 -130v-10zM198 574l113 176h188l-157 -176h-144z" />
    <glyph glyph-name="ocircumflex" unicode="&#xf4;" horiz-adv-x="586" 
d="M27 259v9c0 123 59 210 152 249c33 15 70 21 111 21c130 0 212 -69 246 -163c11 -33 17 -68 17 -106v-9c0 -123 -57 -210 -150 -249c-33 -15 -71 -21 -112 -21c-130 0 -213 69 -247 163c-12 33 -17 68 -17 106zM91 582v26l153 142h92l153 -144v-24h-129l-70 66l-71 -66
h-128zM193 259c0 -76 25 -130 98 -130c71 0 96 55 96 130v10c0 75 -26 130 -97 130s-97 -56 -97 -130v-10z" />
    <glyph glyph-name="otilde" unicode="&#xf5;" horiz-adv-x="586" 
d="M27 259v9c0 123 59 210 152 249c33 15 70 21 111 21c130 0 212 -69 246 -163c11 -33 17 -68 17 -106v-9c0 -123 -57 -210 -150 -249c-33 -15 -71 -21 -112 -21c-130 0 -213 69 -247 163c-12 33 -17 68 -17 106zM93 590v12c0 61 31 109 73 131c16 8 32 12 49 12
c32 0 55 -13 74 -22c20 -10 38 -20 60 -20c18 0 30 13 30 35v13l106 -8v-11c0 -62 -31 -110 -73 -132c-15 -8 -32 -11 -50 -11c-49 0 -77 24 -105 37c-9 4 -17 5 -29 5c-18 0 -29 -13 -29 -35v-13zM193 259c0 -76 25 -130 98 -130c71 0 96 55 96 130v10
c0 75 -26 130 -97 130s-97 -56 -97 -130v-10z" />
    <glyph glyph-name="odieresis" unicode="&#xf6;" horiz-adv-x="586" 
d="M27 259v9c0 123 59 210 152 249c33 15 70 21 111 21c130 0 212 -69 246 -163c11 -33 17 -68 17 -106v-9c0 -123 -57 -210 -150 -249c-33 -15 -71 -21 -112 -21c-130 0 -213 69 -247 163c-12 33 -17 68 -17 106zM89 654c0 46 38 75 81 75c44 0 79 -30 79 -75
c0 -46 -36 -74 -79 -74c-44 0 -81 27 -81 74zM193 259c0 -76 25 -130 98 -130c71 0 96 55 96 130v10c0 75 -26 130 -97 130s-97 -56 -97 -130v-10zM327 654c0 46 38 75 81 75c44 0 79 -30 79 -75s-35 -75 -79 -75c-45 0 -81 29 -81 75z" />
    <glyph glyph-name="divide" unicode="&#xf7;" horiz-adv-x="592" 
d="M29 266v138h528v-138h-528zM201 135c0 54 40 87 92 87s92 -33 92 -87c0 -55 -40 -85 -92 -85s-92 31 -92 85zM201 520c0 54 40 86 92 86s92 -32 92 -86s-40 -87 -92 -87s-92 33 -92 87z" />
    <glyph glyph-name="oslash" unicode="&#xf8;" horiz-adv-x="586" 
d="M27 258v9c0 124 59 210 152 249c33 15 70 22 111 22c30 0 60 -4 84 -11l33 67h106l-54 -107c59 -47 94 -122 94 -217v-9c0 -124 -57 -211 -150 -250c-33 -15 -71 -21 -112 -21c-28 0 -55 3 -79 10l-34 -69h-107l54 107c-62 46 -98 123 -98 220zM193 246
c0 -26 3 -51 9 -70l108 221c-7 1 -13 2 -20 2c-71 0 -97 -62 -97 -143v-10zM275 130c6 -1 10 -1 16 -1c71 0 96 61 96 143v10c0 24 -2 46 -7 63z" />
    <glyph glyph-name="ugrave" unicode="&#xf9;" horiz-adv-x="552" 
d="M32 190v338h166v-334c0 -44 18 -65 62 -65c45 0 70 16 86 39v360h166v-528h-156l-2 38c-33 -29 -78 -48 -135 -48c-129 0 -187 78 -187 200zM64 750h189l113 -176h-145z" />
    <glyph glyph-name="uacute" unicode="&#xfa;" horiz-adv-x="551" 
d="M32 190v338h166v-334c0 -44 18 -65 62 -65c45 0 70 16 86 39v360h166v-528h-156l-2 38c-33 -29 -78 -48 -135 -48c-129 0 -187 78 -187 200zM181 574l113 176h188l-157 -176h-144z" />
    <glyph glyph-name="ucircumflex" unicode="&#xfb;" horiz-adv-x="551" 
d="M32 190v338h166v-334c0 -44 18 -65 62 -65c45 0 70 16 86 39v360h166v-528h-156l-2 38c-33 -29 -78 -48 -135 -48c-129 0 -187 78 -187 200zM74 582v26l153 142h92l153 -144v-24h-129l-70 66l-71 -66h-128z" />
    <glyph glyph-name="udieresis" unicode="&#xfc;" horiz-adv-x="551" 
d="M32 190v338h166v-334c0 -44 18 -65 62 -65c45 0 70 16 86 39v360h166v-528h-156l-2 38c-33 -29 -78 -48 -135 -48c-129 0 -187 78 -187 200zM72 654c0 46 38 75 81 75c44 0 79 -30 79 -75c0 -46 -36 -74 -79 -74c-44 0 -81 27 -81 74zM310 654c0 46 38 75 81 75
c44 0 79 -30 79 -75s-35 -75 -79 -75c-45 0 -81 29 -81 75z" />
    <glyph glyph-name="yacute" unicode="&#xfd;" horiz-adv-x="577" 
d="M20 528h179l89 -297l89 297h178l-217 -599c-26 -74 -74 -142 -181 -142c-29 0 -53 5 -75 13v128h13c8 0 15 -1 21 -1c49 0 69 14 80 48v1l15 36zM200 574l113 176h188l-157 -176h-144z" />
    <glyph glyph-name="thorn" unicode="&#xfe;" horiz-adv-x="572" 
d="M36 -203v953h168v-250c30 24 66 38 115 38c118 0 180 -72 205 -160c9 -33 14 -69 14 -108v-10c0 -115 -41 -207 -124 -249c-28 -15 -60 -21 -94 -21c-49 0 -87 15 -116 38v-28h-2v-203h-166zM204 167c14 -24 36 -38 79 -38c67 0 89 58 89 130v10c0 72 -23 129 -90 129
c-41 0 -64 -15 -78 -36v-195z" />
    <glyph glyph-name="ydieresis" unicode="&#xff;" horiz-adv-x="576" 
d="M19 528h179l89 -297l89 297h178l-217 -599c-26 -74 -74 -142 -181 -142c-29 0 -53 5 -75 13v128h13c8 0 15 -1 21 -1c49 0 69 14 80 48v1l15 36zM89 654c0 46 38 75 81 75c44 0 79 -30 79 -75c0 -46 -36 -74 -79 -74c-44 0 -81 27 -81 74zM327 654c0 46 38 75 81 75
c44 0 79 -30 79 -75s-35 -75 -79 -75c-45 0 -81 29 -81 75z" />
    <glyph glyph-name="Amacron" unicode="&#x100;" horiz-adv-x="744" 
d="M20 0l274 711h154l275 -711h-183l-49 146h-239l-49 -146h-183zM182 755v106h382v-106h-382zM300 278h143l-72 213z" />
    <glyph glyph-name="amacron" unicode="&#x101;" horiz-adv-x="545" 
d="M26 155c0 137 121 181 256 181h50v14c0 39 -19 59 -65 59c-40 0 -63 -18 -63 -51v-13h-166v13c0 58 31 100 65 127c42 33 101 53 172 53c101 0 174 -37 207 -107c12 -24 18 -52 18 -83v-214c0 -46 5 -80 19 -109l1 -3v-22h-162c-5 10 -12 23 -15 34
c-30 -27 -71 -44 -125 -44c-85 0 -148 42 -177 99c-10 20 -15 42 -15 66zM84 605v106h382v-106h-382zM192 166c0 -26 23 -43 57 -43c40 0 69 16 83 37v68h-45c-59 0 -95 -18 -95 -62z" />
    <glyph glyph-name="Abreve" unicode="&#x102;" horiz-adv-x="744" 
d="M20 0l274 711h154l275 -711h-183l-49 146h-239l-49 -146h-183zM192 884v12h126v-12c0 -36 18 -52 56 -52s56 18 56 52v12h126v-12c0 -79 -50 -126 -109 -146c-22 -7 -47 -12 -73 -12c-80 0 -143 35 -168 95c-9 19 -14 40 -14 63zM300 278h143l-72 213z" />
    <glyph glyph-name="abreve" unicode="&#x103;" horiz-adv-x="544" 
d="M25 155c0 137 121 181 256 181h50v14c0 39 -19 59 -65 59c-40 0 -63 -18 -63 -51v-13h-166v13c0 58 31 100 65 127c42 33 101 53 172 53c101 0 174 -37 207 -107c12 -24 18 -52 18 -83v-214c0 -46 5 -80 19 -109l1 -3v-22h-162c-5 10 -12 23 -15 34
c-30 -27 -71 -44 -125 -44c-85 0 -148 42 -177 99c-10 20 -15 42 -15 66zM93 732v13h124v-13c0 -36 19 -51 57 -51s55 17 55 51v13h126v-13c0 -79 -48 -125 -107 -145c-22 -7 -48 -12 -74 -12c-101 0 -181 53 -181 157zM191 166c0 -26 23 -43 57 -43c40 0 69 16 83 37v68
h-45c-59 0 -95 -18 -95 -62z" />
    <glyph glyph-name="Aogonek" unicode="&#x104;" horiz-adv-x="745" 
d="M21 0l274 711h154l275 -711h-56c-22 -13 -38 -25 -49 -36s-17 -25 -17 -38c0 -15 4 -19 20 -19c14 0 23 4 34 9l14 7l19 -102c-25 -13 -51 -27 -94 -27c-71 0 -123 40 -123 114c0 53 26 89 61 114l-41 124h-239l-49 -146h-183zM301 278h143l-72 213z" />
    <glyph glyph-name="aogonek" unicode="&#x105;" horiz-adv-x="547" 
d="M26 155c0 137 122 181 257 181h51v14c0 39 -20 59 -66 59c-40 0 -64 -18 -64 -51v-13h-166v13c0 58 32 100 66 127c42 33 101 53 172 53c101 0 174 -37 207 -107c12 -24 17 -52 17 -83v-214c0 -46 6 -80 20 -109l2 -3v-22h-34c-22 -13 -38 -25 -49 -36s-17 -25 -17 -38
c0 -15 5 -19 21 -19c14 0 23 4 34 9l14 7l19 -102c-27 -13 -52 -27 -95 -27c-70 0 -123 40 -123 114c0 52 25 86 58 111c-2 6 -4 11 -5 15c-31 -28 -72 -44 -126 -44c-85 0 -148 42 -177 99c-10 20 -16 42 -16 66zM192 166c0 -26 24 -43 58 -43c40 0 70 16 84 37v68h-46
c-59 0 -96 -18 -96 -62z" />
    <glyph glyph-name="Cacute" unicode="&#x106;" horiz-adv-x="665" 
d="M28 333v44c0 156 65 271 181 320c38 16 80 24 126 24c179 0 280 -101 298 -262l2 -14h-173v12c-5 81 -41 119 -127 119c-104 0 -135 -77 -135 -198v-45c0 -115 25 -198 133 -198c86 0 123 36 128 115v12h172l-1 -13c-9 -124 -78 -204 -178 -240c-36 -13 -76 -19 -121 -19
c-156 0 -247 87 -285 202c-15 42 -20 89 -20 141zM243 729l113 176h188l-157 -176h-144z" />
    <glyph glyph-name="cacute" unicode="&#x107;" horiz-adv-x="548" 
d="M27 257v13c0 120 53 208 144 247c32 15 70 21 112 21c108 0 182 -50 215 -128c12 -28 17 -57 17 -90v-13h-156v13c0 48 -31 79 -78 79c-70 0 -88 -54 -88 -129v-12c0 -76 16 -129 89 -129c48 0 74 24 77 67v12h156v-12c0 -65 -32 -117 -68 -149c-38 -34 -95 -57 -163 -57
c-130 0 -210 68 -241 163c-10 32 -16 68 -16 104zM178 574l113 176h188l-157 -176h-144z" />
    <glyph glyph-name="Ccircumflex" unicode="&#x108;" horiz-adv-x="665" 
d="M28 333v44c0 156 65 271 181 320c38 16 80 24 126 24c179 0 280 -101 298 -262l2 -14h-173v12c-5 81 -41 119 -127 119c-104 0 -135 -77 -135 -198v-45c0 -115 25 -198 133 -198c86 0 123 36 128 115v12h172l-1 -13c-9 -124 -78 -204 -178 -240c-36 -13 -76 -19 -121 -19
c-156 0 -247 87 -285 202c-15 42 -20 89 -20 141zM136 737v26l152 142h92l154 -144v-24h-130l-70 66l-71 -66h-127z" />
    <glyph glyph-name="ccircumflex" unicode="&#x109;" horiz-adv-x="548" 
d="M27 257v13c0 120 53 208 144 247c32 15 70 21 112 21c108 0 182 -50 215 -128c12 -28 17 -57 17 -90v-13h-156v13c0 48 -31 79 -78 79c-70 0 -88 -54 -88 -129v-12c0 -76 16 -129 89 -129c48 0 74 24 77 67v12h156v-12c0 -65 -32 -117 -68 -149c-38 -34 -95 -57 -163 -57
c-130 0 -210 68 -241 163c-10 32 -16 68 -16 104zM71 582v26l152 142h92l154 -144v-24h-130l-70 66l-71 -66h-127z" />
    <glyph glyph-name="uni010A" unicode="&#x10a;" horiz-adv-x="665" 
d="M28 333v44c0 156 65 271 181 320c38 16 80 24 126 24c179 0 280 -101 298 -262l2 -14h-173v12c-5 81 -41 119 -127 119c-104 0 -135 -77 -135 -198v-45c0 -115 25 -198 133 -198c86 0 123 36 128 115v12h172l-1 -13c-9 -124 -78 -204 -178 -240c-36 -13 -76 -19 -121 -19
c-156 0 -247 87 -285 202c-15 42 -20 89 -20 141zM250 822c0 49 36 80 84 80c49 0 84 -32 84 -80s-35 -79 -84 -79c-48 0 -84 32 -84 79z" />
    <glyph glyph-name="uni010B" unicode="&#x10b;" horiz-adv-x="549" 
d="M27 257v13c0 120 53 208 144 247c32 15 70 21 112 21c108 0 182 -50 215 -128c12 -28 17 -57 17 -90v-13h-156v13c0 48 -31 79 -78 79c-70 0 -88 -54 -88 -129v-12c0 -76 16 -129 89 -129c48 0 74 24 77 67v12h156v-12c0 -65 -32 -117 -68 -149c-38 -34 -95 -57 -163 -57
c-130 0 -210 68 -241 163c-10 32 -16 68 -16 104zM183 666c0 49 37 80 85 80c49 0 85 -32 85 -80s-36 -79 -85 -79c-48 0 -85 32 -85 79z" />
    <glyph glyph-name="Ccaron" unicode="&#x10c;" horiz-adv-x="665" 
d="M28 333v44c0 156 65 271 181 320c38 16 80 24 126 24c179 0 280 -101 298 -262l2 -14h-173v12c-5 81 -41 119 -127 119c-104 0 -135 -77 -135 -198v-45c0 -115 25 -198 133 -198c86 0 123 36 128 115v12h172l-1 -13c-9 -124 -78 -204 -178 -240c-36 -13 -76 -19 -121 -19
c-156 0 -247 87 -285 202c-15 42 -20 89 -20 141zM130 883v22h137l67 -64l66 64h138v-23l-155 -144h-99z" />
    <glyph glyph-name="ccaron" unicode="&#x10d;" horiz-adv-x="549" 
d="M27 257v13c0 120 53 208 144 247c32 15 70 21 112 21c108 0 182 -50 215 -128c12 -28 17 -57 17 -90v-13h-156v13c0 48 -31 79 -78 79c-70 0 -88 -54 -88 -129v-12c0 -76 16 -129 89 -129c48 0 74 24 77 67v12h156v-12c0 -65 -32 -117 -68 -149c-38 -34 -95 -57 -163 -57
c-130 0 -210 68 -241 163c-10 32 -16 68 -16 104zM65 728v22h137l67 -64l66 64h138v-23l-155 -144h-99z" />
    <glyph glyph-name="Dcaron" unicode="&#x10e;" horiz-adv-x="638" 
d="M35 0v711h232c163 0 266 -86 313 -202c17 -42 25 -88 25 -139v-30c0 -160 -81 -269 -202 -316c-42 -16 -88 -24 -137 -24h-231zM37 881v22h138l67 -64l66 64h139v-23l-156 -144h-99zM207 143h59c116 0 165 76 165 197v31c0 122 -47 196 -164 196h-60v-424z" />
    <glyph glyph-name="dcaron" unicode="&#x10f;" horiz-adv-x="761" 
d="M28 258v9c0 116 41 209 126 250c28 14 58 21 93 21c50 0 87 -16 115 -40v252h166v-750h-150l-5 40c-31 -30 -71 -50 -127 -50c-75 0 -128 34 -162 77c-36 47 -56 114 -56 191zM194 258c0 -73 21 -129 88 -129c42 0 66 17 80 42v185c-15 26 -37 42 -79 42
c-68 0 -89 -57 -89 -130v-10zM551 514l6 11c23 38 43 78 43 137v88h136v-88c0 -41 -13 -75 -27 -104c-16 -33 -40 -64 -66 -87l-6 -6z" />
    <glyph glyph-name="Dcroat" unicode="&#x110;" horiz-adv-x="701" 
d="M26 300v116h72v295h232c163 0 267 -86 313 -202c17 -42 25 -88 25 -139v-30c0 -159 -82 -269 -202 -316c-42 -16 -88 -24 -138 -24h-230v300h-72zM270 143h58c116 0 166 76 166 197v31c0 121 -48 196 -164 196h-60v-151h122v-116h-122v-157z" />
    <glyph glyph-name="dcroat" unicode="&#x111;" horiz-adv-x="630" 
d="M27 258v9c0 116 41 209 126 250c28 14 59 21 94 21c50 0 88 -16 116 -40v72h-124v115h124v65h166v-65h76v-115h-76v-570h-151l-5 40c-31 -30 -71 -50 -127 -50c-75 0 -128 34 -162 77c-36 47 -57 114 -57 191zM193 258c0 -73 22 -129 89 -129c42 0 67 17 81 42v185
c-15 26 -38 42 -80 42c-68 0 -90 -57 -90 -130v-10z" />
    <glyph glyph-name="Emacron" unicode="&#x112;" 
d="M35 0v711h502v-144h-330v-131h282v-140h-282v-153h330v-143h-502zM105 757v106h382v-106h-382z" />
    <glyph glyph-name="emacron" unicode="&#x113;" horiz-adv-x="566" 
d="M27 246v18c0 123 60 214 153 253c32 14 67 21 107 21c164 0 246 -108 246 -263v-69h-335c12 -47 49 -77 114 -77c56 0 92 21 117 54l9 12l86 -97l-6 -8c-43 -59 -114 -100 -216 -100c-132 0 -219 65 -256 157c-13 31 -19 64 -19 99zM81 605v106h382v-106h-382zM200 314
h168c0 55 -28 85 -82 85c-53 0 -77 -35 -86 -85z" />
    <glyph glyph-name="Ebreve" unicode="&#x114;" 
d="M35 0v711h502v-144h-330v-131h282v-140h-282v-153h330v-143h-502zM115 886v12h124v-12c0 -36 19 -52 57 -52s55 18 55 52v12h126v-12c0 -79 -49 -126 -108 -146c-22 -7 -47 -12 -73 -12c-80 0 -143 35 -168 95c-9 19 -13 40 -13 63z" />
    <glyph glyph-name="ebreve" unicode="&#x115;" horiz-adv-x="566" 
d="M27 246v18c0 123 60 214 153 253c32 14 67 21 107 21c164 0 246 -108 246 -263v-69h-335c12 -47 49 -77 114 -77c56 0 92 21 117 54l9 12l86 -97l-6 -8c-43 -59 -114 -100 -216 -100c-132 0 -219 65 -256 157c-13 31 -19 64 -19 99zM89 732v13h126v-13
c0 -36 18 -51 56 -51s56 17 56 51v13h126v-13c0 -79 -49 -125 -108 -145c-22 -7 -48 -12 -74 -12c-101 0 -182 53 -182 157zM200 314h168c0 55 -28 85 -82 85c-53 0 -77 -35 -86 -85z" />
    <glyph glyph-name="Edotaccent" unicode="&#x116;" 
d="M35 0v711h502v-144h-330v-131h282v-140h-282v-153h330v-143h-502zM211 820c0 49 36 79 84 79c49 0 84 -31 84 -79s-35 -80 -84 -80c-48 0 -84 33 -84 80z" />
    <glyph glyph-name="edotaccent" unicode="&#x117;" horiz-adv-x="566" 
d="M27 246v18c0 123 60 214 153 253c32 14 67 21 107 21c164 0 246 -108 246 -263v-69h-335c12 -47 49 -77 114 -77c56 0 92 21 117 54l9 12l86 -97l-6 -8c-43 -59 -114 -100 -216 -100c-132 0 -219 65 -256 157c-13 31 -19 64 -19 99zM185 666c0 49 37 80 85 80
c49 0 85 -32 85 -80s-36 -79 -85 -79c-48 0 -85 32 -85 79zM200 314h168c0 55 -28 85 -82 85c-53 0 -77 -35 -86 -85z" />
    <glyph glyph-name="Eogonek" unicode="&#x118;" 
d="M35 0v711h502v-144h-330v-131h282v-140h-282v-153h330v-143h-83c-22 -13 -39 -25 -50 -36s-15 -24 -15 -38c0 -15 3 -19 19 -19c14 0 23 4 34 9l14 7l19 -102c-25 -13 -51 -27 -94 -27c-71 0 -124 40 -124 114c0 39 15 69 36 92h-258z" />
    <glyph glyph-name="eogonek" unicode="&#x119;" horiz-adv-x="566" 
d="M28 246v19c0 123 58 213 151 252c32 14 68 21 108 21c164 0 245 -108 245 -263v-69h-334c12 -52 49 -85 114 -85c56 0 92 20 117 51l9 12l86 -92c-25 -34 -53 -59 -96 -78c-24 -13 -40 -24 -52 -35c-11 -11 -16 -24 -16 -37c0 -15 4 -20 20 -20c14 0 23 4 34 9l14 7
l19 -101c-27 -13 -52 -28 -95 -28c-70 0 -124 41 -124 115c0 29 9 53 21 71c-103 16 -176 75 -206 158c-11 29 -15 60 -15 93zM200 314h168c0 55 -28 85 -82 85c-53 0 -77 -35 -86 -85z" />
    <glyph glyph-name="Ecaron" unicode="&#x11a;" 
d="M35 0v711h502v-144h-330v-131h282v-140h-282v-153h330v-143h-502zM91 881v22h137l67 -64l66 64h138v-23l-155 -144h-99z" />
    <glyph glyph-name="ecaron" unicode="&#x11b;" horiz-adv-x="566" 
d="M27 246v18c0 123 60 214 153 253c32 14 67 21 107 21c164 0 246 -108 246 -263v-69h-335c12 -47 49 -77 114 -77c56 0 92 21 117 54l9 12l86 -97l-6 -8c-43 -59 -114 -100 -216 -100c-132 0 -219 65 -256 157c-13 31 -19 64 -19 99zM67 728v22h137l67 -64l66 64h138v-23
l-155 -144h-99zM200 314h168c0 55 -28 85 -82 85c-53 0 -77 -35 -86 -85z" />
    <glyph glyph-name="Gcircumflex" unicode="&#x11c;" horiz-adv-x="670" 
d="M28 335v40c0 160 62 274 182 323c39 15 81 23 128 23c176 0 275 -89 294 -247l2 -14h-168l-1 11c-10 68 -45 107 -123 107c-105 0 -140 -82 -140 -202v-41c0 -123 41 -202 154 -202c45 0 87 9 104 25v96h-132v132h304v-291l-3 -4c-58 -66 -156 -101 -281 -101
c-158 0 -257 84 -298 200c-16 42 -22 91 -22 145zM136 737v26l152 142h92l154 -144v-24h-130l-70 66l-71 -66h-127z" />
    <glyph glyph-name="gcircumflex" unicode="&#x11d;" horiz-adv-x="574" 
d="M27 258v9c0 118 44 209 131 250c28 14 61 21 96 21c55 0 97 -18 126 -44l4 34h151v-505c0 -115 -68 -187 -159 -215c-32 -10 -69 -16 -107 -16c-89 0 -164 36 -207 88l-6 7l77 107l10 -12c27 -31 65 -55 119 -55c68 0 105 35 106 101c-29 -23 -67 -38 -115 -38
c-76 0 -131 35 -166 77c-38 46 -60 113 -60 191zM79 582v26l152 142h92l154 -144v-24h-130l-70 66l-71 -66h-127zM193 258c0 -58 18 -101 53 -120c12 -6 26 -9 43 -9c41 0 65 15 80 37v196c-16 23 -39 36 -79 36c-70 0 -97 -57 -97 -130v-10z" />
    <glyph glyph-name="Gbreve" unicode="&#x11e;" horiz-adv-x="670" 
d="M28 335v40c0 160 62 274 182 323c39 15 81 23 128 23c176 0 275 -89 294 -247l2 -14h-168l-1 11c-10 68 -45 107 -123 107c-105 0 -140 -82 -140 -202v-41c0 -123 41 -202 154 -202c45 0 87 9 104 25v96h-132v132h304v-291l-3 -4c-58 -66 -156 -101 -281 -101
c-158 0 -257 84 -298 200c-16 42 -22 91 -22 145zM152 888v12h126v-12c0 -36 18 -52 56 -52s56 18 56 52v12h126v-12c0 -79 -49 -126 -108 -146c-22 -7 -48 -12 -74 -12c-101 0 -182 55 -182 158z" />
    <glyph glyph-name="gbreve" unicode="&#x11f;" horiz-adv-x="574" 
d="M27 258v9c0 118 44 209 131 250c28 14 61 21 96 21c55 0 97 -18 126 -44l4 34h151v-505c0 -115 -68 -187 -159 -215c-32 -10 -69 -16 -107 -16c-89 0 -164 36 -207 88l-6 7l77 107l10 -12c27 -31 65 -55 119 -55c68 0 105 35 106 101c-29 -23 -67 -38 -115 -38
c-76 0 -131 35 -166 77c-38 46 -60 113 -60 191zM95 732v13h126v-13c0 -36 18 -51 56 -51s56 17 56 51v13h126v-13c0 -79 -50 -125 -109 -145c-22 -7 -47 -12 -73 -12c-80 0 -143 34 -168 94c-9 20 -14 40 -14 63zM193 258c0 -58 18 -101 53 -120c12 -6 26 -9 43 -9
c41 0 65 15 80 37v196c-16 23 -39 36 -79 36c-70 0 -97 -57 -97 -130v-10z" />
    <glyph glyph-name="uni0120" unicode="&#x120;" horiz-adv-x="670" 
d="M28 335v40c0 160 62 274 182 323c39 15 81 23 128 23c176 0 275 -89 294 -247l2 -14h-168l-1 11c-10 68 -45 107 -123 107c-105 0 -140 -82 -140 -202v-41c0 -123 41 -202 154 -202c45 0 87 9 104 25v96h-132v132h304v-291l-3 -4c-58 -66 -156 -101 -281 -101
c-158 0 -257 84 -298 200c-16 42 -22 91 -22 145zM248 822c0 49 37 80 85 80c49 0 85 -32 85 -80s-36 -79 -85 -79c-48 0 -85 32 -85 79z" />
    <glyph glyph-name="uni0121" unicode="&#x121;" horiz-adv-x="574" 
d="M27 258v9c0 118 44 209 131 250c28 14 61 21 96 21c55 0 97 -18 126 -44l4 34h151v-505c0 -115 -68 -187 -159 -215c-32 -10 -69 -16 -107 -16c-89 0 -164 36 -207 88l-6 7l77 107l10 -12c27 -31 65 -55 119 -55c68 0 105 35 106 101c-29 -23 -67 -38 -115 -38
c-76 0 -131 35 -166 77c-38 46 -60 113 -60 191zM191 666c0 49 37 80 85 80c49 0 85 -32 85 -80s-36 -79 -85 -79c-48 0 -85 32 -85 79zM193 258c0 -58 18 -101 53 -120c12 -6 26 -9 43 -9c41 0 65 15 80 37v196c-16 23 -39 36 -79 36c-70 0 -97 -57 -97 -130v-10z" />
    <glyph glyph-name="Gcedilla" unicode="&#x122;" horiz-adv-x="670" 
d="M28 335v40c0 160 62 274 182 323c39 15 81 23 128 23c176 0 275 -89 294 -247l2 -14h-168l-1 11c-10 68 -45 107 -123 107c-105 0 -140 -82 -140 -202v-41c0 -123 41 -202 154 -202c45 0 87 9 104 25v96h-132v132h304v-291l-3 -4c-58 -66 -156 -101 -281 -101
c-158 0 -257 84 -298 200c-16 42 -22 91 -22 145zM234 -206l7 11c20 33 35 66 35 119v55h130v-47c0 -58 -22 -108 -45 -144c-12 -18 -23 -30 -37 -44z" />
    <glyph glyph-name="gcedilla" unicode="&#x123;" horiz-adv-x="574" 
d="M27 258v9c0 118 44 209 131 250c28 14 61 21 96 21c55 0 97 -18 126 -44l4 34h151v-505c0 -115 -68 -187 -159 -215c-32 -10 -69 -16 -107 -16c-89 0 -164 36 -207 88l-6 7l77 107l10 -12c27 -31 65 -55 119 -55c68 0 105 35 106 101c-29 -23 -67 -38 -115 -38
c-76 0 -131 35 -166 77c-38 46 -60 113 -60 191zM193 258c0 -58 18 -101 53 -120c12 -6 26 -9 43 -9c41 0 65 15 80 37v196c-16 23 -39 36 -79 36c-70 0 -97 -57 -97 -130v-10zM207 590v80c0 77 32 140 81 172l91 -47l-6 -12c-17 -29 -32 -71 -32 -119v-74h-134z" />
    <glyph glyph-name="Hcircumflex" unicode="&#x124;" horiz-adv-x="679" 
d="M35 0v711h172v-275h262v275h170v-711h-170v292h-262v-292h-172zM139 735v26l153 142h92l153 -144v-24h-129l-70 66l-71 -66h-128z" />
    <glyph glyph-name="hcircumflex" unicode="&#x125;" horiz-adv-x="554" 
d="M35 0v750h166v-260c32 29 74 48 129 48c133 0 187 -83 187 -208v-330h-166v326c0 53 -18 72 -72 72c-40 0 -63 -15 -78 -37v-361h-166zM55 768v26l152 142h92l154 -144v-24h-130l-70 66l-71 -66h-127z" />
    <glyph glyph-name="Hbar" unicode="&#x126;" horiz-adv-x="767" 
d="M23 496v106h56v109h172v-113h260v113h172v-109h58v-106h-58v-496h-172v292h-260v-292h-172v496h-56zM251 436h260v64h-260v-64z" />
    <glyph glyph-name="hbar" unicode="&#x127;" horiz-adv-x="616" 
d="M21 569v114h76v67h168v-67h122v-114h-122v-79c32 29 73 48 128 48c132 0 186 -83 186 -208v-330h-166v326c0 53 -17 72 -72 72c-39 0 -62 -15 -76 -37v-361h-168v569h-76z" />
    <glyph glyph-name="Itilde" unicode="&#x128;" horiz-adv-x="430" 
d="M18 742v12c0 61 29 109 72 131c16 8 33 12 50 12c63 0 88 -42 134 -42c18 0 30 13 30 35v13l106 -8v-11c0 -62 -31 -110 -73 -132c-15 -8 -32 -11 -50 -11c-49 0 -77 24 -105 37c-9 4 -17 5 -29 5c-18 0 -29 -13 -29 -35v-13zM128 0v711h172v-711h-172z" />
    <glyph glyph-name="itilde" unicode="&#x129;" horiz-adv-x="436" 
d="M21 582v12c0 61 31 109 73 131c16 8 32 12 49 12c32 0 55 -13 74 -22c20 -10 38 -20 60 -20c18 0 30 13 30 35v13l106 -8v-11c0 -62 -31 -110 -73 -132c-15 -8 -32 -11 -50 -11c-49 0 -77 24 -105 37c-9 4 -17 5 -29 5c-18 0 -29 -13 -29 -35v-13zM133 0v528h166v-528
h-166z" />
    <glyph glyph-name="Imacron" unicode="&#x12a;" horiz-adv-x="420" 
d="M18 757v106h382v-106h-382zM122 0v711h172v-711h-172z" />
    <glyph glyph-name="imacron" unicode="&#x12b;" horiz-adv-x="429" 
d="M22 597v106h382v-106h-382zM126 0v528h168v-528h-168z" />
    <glyph glyph-name="Ibreve" unicode="&#x12c;" horiz-adv-x="400" 
d="M18 886v12h124v-12c0 -36 19 -52 57 -52s55 18 55 52v12h126v-12c0 -79 -49 -126 -108 -146c-22 -7 -47 -12 -73 -12c-80 0 -143 35 -168 95c-9 19 -13 40 -13 63zM112 0v711h172v-711h-172z" />
    <glyph glyph-name="ibreve" unicode="&#x12d;" horiz-adv-x="405" 
d="M21 726v12h124v-12c0 -36 19 -52 57 -52s55 18 55 52v12h126v-12c0 -79 -48 -126 -107 -146c-22 -7 -48 -12 -74 -12c-101 0 -181 54 -181 158zM117 0v528h166v-528h-166z" />
    <glyph glyph-name="Iogonek" unicode="&#x12e;" horiz-adv-x="292" 
d="M18 -92c0 55 31 89 64 112v691h170v-711h-38c-22 -13 -39 -25 -50 -36s-16 -24 -16 -38s5 -19 20 -19c14 0 24 4 35 9l14 7l19 -102c-27 -13 -52 -27 -95 -27c-70 0 -123 40 -123 114z" />
    <glyph glyph-name="iogonek" unicode="&#x12f;" horiz-adv-x="285" 
d="M18 -92c0 51 25 85 60 109v511h166v-528h-30c-22 -13 -38 -25 -49 -36s-17 -25 -17 -38c0 -14 5 -19 20 -19c14 0 23 4 34 9l14 7l19 -102c-27 -13 -51 -27 -94 -27c-71 0 -123 40 -123 114zM70 652c0 51 39 86 91 86s91 -33 91 -86s-39 -85 -91 -85c-51 0 -91 31 -91 85
z" />
    <glyph glyph-name="Idotaccent" unicode="&#x130;" horiz-adv-x="247" 
d="M35 0v711h172v-711h-172zM35 820c0 49 37 79 85 79c49 0 85 -31 85 -79s-36 -80 -85 -80c-48 0 -85 33 -85 80z" />
    <glyph glyph-name="dotlessi" unicode="&#x131;" horiz-adv-x="243" 
d="M35 0v528h168v-528h-168z" />
    <glyph glyph-name="IJ" unicode="&#x132;" horiz-adv-x="817" 
d="M36 0v711h172v-711h-172zM276 222v13h172v-13c0 -62 20 -89 78 -89c52 0 80 36 80 94v484h172v-487c0 -112 -66 -186 -154 -217c-30 -10 -62 -17 -98 -17c-149 0 -250 80 -250 232z" />
    <glyph glyph-name="ij" unicode="&#x133;" horiz-adv-x="510" 
d="M28 652c0 51 40 86 92 86s92 -33 92 -86s-40 -85 -92 -85c-51 0 -92 31 -92 85zM38 0v528h166v-528h-166zM194 -65l16 -3c13 -3 26 -5 41 -5c37 0 51 17 51 57v544h168v-544c0 -123 -71 -197 -194 -197c-27 0 -50 3 -72 8l-10 3v137zM292 652c0 52 39 86 91 86
s91 -34 91 -86c0 -54 -40 -85 -91 -85s-91 31 -91 85z" />
    <glyph glyph-name="Jcircumflex" unicode="&#x134;" horiz-adv-x="653" 
d="M25 222v13h172v-13c0 -62 20 -89 78 -89c52 0 80 36 80 94v484h172v-487c0 -112 -66 -186 -154 -217c-30 -10 -62 -17 -98 -17c-149 0 -250 80 -250 232zM235 733v26l153 142h92l153 -144v-24h-129l-70 66l-71 -66h-128z" />
    <glyph glyph-name="jcircumflex" unicode="&#x135;" horiz-adv-x="440" 
d="M20 569v26l152 142h92l154 -144v-24h-130l-70 66l-71 -66h-127zM29 -202l8 138l15 -4c13 -4 28 -6 45 -6c33 0 47 26 47 70v532h166v-532c0 -128 -69 -209 -198 -209c-29 0 -48 2 -73 8z" />
    <glyph glyph-name="Kcedilla" unicode="&#x136;" horiz-adv-x="672" 
d="M35 0v711h172v-296c74 101 150 194 224 291l4 5h212l-264 -318l268 -393h-204l-178 277l-62 -66v-211h-172zM197 -175l7 11c20 33 35 67 35 120v54h130v-48c0 -58 -22 -106 -45 -142c-11 -18 -23 -31 -37 -45z" />
    <glyph glyph-name="kcedilla" unicode="&#x137;" horiz-adv-x="583" 
d="M36 0v750h166v-393c48 60 98 113 145 171h202l-202 -223l216 -305h-193l-131 205l-37 -37v-168h-166zM164 -186l7 11c20 33 35 66 35 119v55h130v-47c0 -58 -22 -108 -45 -144c-12 -18 -23 -30 -37 -44z" />
    <glyph glyph-name="kra" unicode="&#x138;" horiz-adv-x="602" 
d="M35 0v528h168v-198h22l138 198h210l-196 -255l203 -273h-212l-128 195h-37v-195h-168z" />
    <glyph glyph-name="Lacute" unicode="&#x139;" horiz-adv-x="549" 
d="M34 725l113 176h188l-157 -176h-144zM36 0v711h172v-568h312v-143h-484z" />
    <glyph glyph-name="lacute" unicode="&#x13a;" horiz-adv-x="350" 
d="M29 765l113 176h188l-157 -176h-144zM37 0v750h166v-750h-166z" />
    <glyph glyph-name="Lcedilla" unicode="&#x13b;" horiz-adv-x="548" 
d="M35 0v711h172v-568h312v-143h-484zM172 -200l7 11c20 33 36 66 36 119v55h128v-47c0 -58 -21 -108 -44 -144c-12 -18 -23 -30 -37 -44z" />
    <glyph glyph-name="lcedilla" unicode="&#x13c;" horiz-adv-x="250" 
d="M20 -200l7 11c20 33 35 66 35 119v55h130v-47c0 -58 -22 -108 -45 -144c-12 -18 -23 -30 -37 -44zM44 0v750h166v-750h-166z" />
    <glyph glyph-name="Lcaron" unicode="&#x13d;" horiz-adv-x="549" 
d="M36 0v711h172v-568h312v-143h-484zM286 475l6 11c23 38 42 77 42 136v89h138v-89c0 -41 -14 -75 -28 -104c-16 -34 -40 -63 -66 -86l-6 -6z" />
    <glyph glyph-name="lcaron" unicode="&#x13e;" horiz-adv-x="437" 
d="M36 0v750h166v-750h-166zM226 514l6 11c23 38 42 78 42 137v88h138v-88c0 -41 -14 -75 -28 -104c-16 -33 -40 -64 -66 -87l-6 -6z" />
    <glyph glyph-name="Ldot" unicode="&#x13f;" horiz-adv-x="549" 
d="M36 0v711h172v-568h312v-143h-484zM262 405c0 49 37 79 85 79c49 0 85 -31 85 -79s-36 -79 -85 -79c-48 0 -85 32 -85 79z" />
    <glyph glyph-name="ldot" unicode="&#x140;" horiz-adv-x="422" 
d="M36 0v750h166v-750h-166zM226 378c0 49 36 80 84 80c49 0 84 -32 84 -80s-35 -80 -84 -80c-48 0 -84 33 -84 80z" />
    <glyph glyph-name="Lslash" unicode="&#x141;" horiz-adv-x="601" 
d="M26 265v119l64 19v308h172v-259l106 29v-117l-106 -29v-192h310v-143h-482v284z" />
    <glyph glyph-name="lslash" unicode="&#x142;" horiz-adv-x="355" 
d="M26 265v120l64 20v345h166v-292l70 23v-119l-70 -22v-340h-166v286z" />
    <glyph glyph-name="Nacute" unicode="&#x143;" horiz-adv-x="679" 
d="M35 0v711h167l267 -437v437h170v-711h-166l-266 436v-436h-172zM248 725l113 176h188l-157 -176h-144z" />
    <glyph glyph-name="nacute" unicode="&#x144;" horiz-adv-x="554" 
d="M35 0v528h158l3 -43c34 32 81 53 141 53c130 0 180 -84 180 -205v-333h-166v329c0 51 -19 69 -72 69c-38 0 -63 -17 -78 -39v-359h-166zM187 574l113 176h188l-157 -176h-144z" />
    <glyph glyph-name="Ncedilla" unicode="&#x145;" horiz-adv-x="679" 
d="M35 0v711h167l267 -437v437h170v-711h-166l-266 436v-436h-172zM232 -204l7 11c20 33 36 66 36 119v55h128v-47c0 -58 -21 -108 -44 -144c-12 -18 -23 -30 -37 -44z" />
    <glyph glyph-name="ncedilla" unicode="&#x146;" horiz-adv-x="555" 
d="M35 0v528h158l3 -43c34 32 81 53 141 53c130 0 180 -84 180 -205v-333h-166v329c0 51 -19 69 -72 69c-38 0 -63 -17 -78 -39v-359h-166zM170 -200l7 11c20 33 36 66 36 119v55h128v-47c0 -58 -21 -108 -44 -144c-12 -18 -23 -30 -37 -44z" />
    <glyph glyph-name="Ncaron" unicode="&#x147;" horiz-adv-x="679" 
d="M35 0v711h167l267 -437v437h170v-711h-166l-266 436v-436h-172zM135 879v22h138l67 -64l66 64h139v-23l-156 -144h-99z" />
    <glyph glyph-name="ncaron" unicode="&#x148;" horiz-adv-x="552" 
d="M35 0v528h157l3 -43c34 32 81 53 141 53c130 0 179 -84 179 -205v-333h-166v329c0 51 -18 69 -71 69c-38 0 -62 -17 -77 -39v-359h-166zM73 728v22h137l67 -64l66 64h138v-23l-155 -144h-99z" />
    <glyph glyph-name="napostrophe" unicode="&#x149;" horiz-adv-x="633" 
d="M19 514l6 11c23 38 42 78 42 137v88h138v-88c0 -55 -23 -98 -45 -134h112l3 -43c34 32 81 53 141 53c130 0 179 -84 179 -205v-333h-166v329c0 51 -18 69 -71 69c-38 0 -62 -17 -77 -39v-359h-166v476c-1 -1 -3 -1 -4 -2l-6 -6z" />
    <glyph glyph-name="Eng" unicode="&#x14a;" horiz-adv-x="679" 
d="M35 0v711h167l265 -445v445h172v-711c0 -130 -70 -213 -201 -213c-29 0 -50 2 -75 8l-10 3l8 142l15 -4c14 -4 27 -6 45 -6c33 0 46 26 46 70v9l-260 437v-446h-172z" />
    <glyph glyph-name="eng" unicode="&#x14b;" horiz-adv-x="557" 
d="M35 0v528h156l4 -53c32 37 78 63 141 63c135 0 183 -92 183 -218v-324c0 -129 -69 -209 -199 -209c-29 0 -48 2 -73 8l-10 3l8 139l15 -4c14 -4 29 -6 46 -6c33 0 47 25 47 69v319c0 56 -16 83 -68 83c-39 0 -68 -13 -84 -32v-366h-166z" />
    <glyph glyph-name="Omacron" unicode="&#x14c;" horiz-adv-x="691" 
d="M28 340v30c0 161 69 275 187 326c39 16 81 25 128 25c102 0 177 -40 227 -95c54 -60 88 -147 88 -256v-30c0 -162 -69 -275 -187 -326c-39 -16 -80 -24 -127 -24c-101 0 -178 40 -228 95c-54 59 -88 147 -88 255zM152 755v106h382v-106h-382zM200 340
c0 -93 26 -163 84 -192c17 -8 37 -13 60 -13c103 0 140 87 140 205v31c0 118 -37 204 -141 204c-103 0 -143 -86 -143 -204v-31z" />
    <glyph glyph-name="omacron" unicode="&#x14d;" horiz-adv-x="586" 
d="M27 259v9c0 123 59 210 152 249c33 15 70 21 111 21c130 0 212 -69 246 -163c11 -33 17 -68 17 -106v-9c0 -123 -57 -210 -150 -249c-33 -15 -71 -21 -112 -21c-130 0 -213 69 -247 163c-12 33 -17 68 -17 106zM99 605v106h382v-106h-382zM193 259c0 -76 25 -130 98 -130
c71 0 96 55 96 130v10c0 75 -26 130 -97 130s-97 -56 -97 -130v-10z" />
    <glyph glyph-name="Obreve" unicode="&#x14e;" horiz-adv-x="691" 
d="M28 340v30c0 161 69 275 187 326c39 16 81 25 128 25c102 0 177 -40 227 -95c54 -60 88 -147 88 -256v-30c0 -162 -69 -275 -187 -326c-39 -16 -80 -24 -127 -24c-101 0 -178 40 -228 95c-54 59 -88 147 -88 255zM162 884v12h126v-12c0 -36 18 -52 56 -52s56 18 56 52v12
h126v-12c0 -79 -49 -126 -108 -146c-22 -7 -48 -12 -74 -12c-101 0 -182 55 -182 158zM200 340c0 -93 26 -163 84 -192c17 -8 37 -13 60 -13c103 0 140 87 140 205v31c0 118 -37 204 -141 204c-103 0 -143 -86 -143 -204v-31z" />
    <glyph glyph-name="obreve" unicode="&#x14f;" horiz-adv-x="586" 
d="M27 259v9c0 123 59 210 152 249c33 15 70 21 111 21c130 0 212 -69 246 -163c11 -33 17 -68 17 -106v-9c0 -123 -57 -210 -150 -249c-33 -15 -71 -21 -112 -21c-130 0 -213 69 -247 163c-12 33 -17 68 -17 106zM109 732v13h124v-13c0 -36 19 -51 57 -51s55 17 55 51v13
h126v-13c0 -79 -48 -125 -107 -145c-22 -7 -48 -12 -74 -12c-101 0 -181 53 -181 157zM193 259c0 -76 25 -130 98 -130c71 0 96 55 96 130v10c0 75 -26 130 -97 130s-97 -56 -97 -130v-10z" />
    <glyph glyph-name="Ohungarumlaut" unicode="&#x150;" horiz-adv-x="691" 
d="M28 340v30c0 161 69 275 187 326c39 16 81 25 128 25c102 0 177 -40 227 -95c54 -60 88 -147 88 -256v-30c0 -162 -69 -275 -187 -326c-39 -16 -80 -24 -127 -24c-101 0 -178 40 -228 95c-54 59 -88 147 -88 255zM172 729l106 172h156l-131 -172h-131zM200 340
c0 -93 26 -163 84 -192c17 -8 37 -13 60 -13c103 0 140 87 140 205v31c0 118 -37 204 -141 204c-103 0 -143 -86 -143 -204v-31zM341 729l129 172h160l-152 -172h-137z" />
    <glyph glyph-name="ohungarumlaut" unicode="&#x151;" horiz-adv-x="596" 
d="M27 259v9c0 123 59 210 152 249c33 15 70 21 111 21c130 0 212 -69 246 -163c11 -33 17 -68 17 -106v-9c0 -123 -57 -210 -150 -249c-33 -15 -71 -21 -112 -21c-130 0 -213 69 -247 163c-12 33 -17 68 -17 106zM118 578l106 172h156l-131 -172h-131zM193 259
c0 -76 25 -130 98 -130c71 0 96 55 96 130v10c0 75 -26 130 -97 130s-97 -56 -97 -130v-10zM287 578l129 172h160l-152 -172h-137z" />
    <glyph glyph-name="OE" unicode="&#x152;" horiz-adv-x="954" 
d="M29 283v144c0 139 77 232 183 272c38 15 80 22 125 22c49 0 101 -5 142 -10h444v-144h-330v-131h282v-140h-282v-153h330v-143h-444c-44 -5 -91 -10 -141 -10c-96 0 -172 34 -223 82s-86 120 -86 211zM195 285c0 -97 45 -156 143 -156c29 0 57 1 83 4v444
c-27 3 -55 5 -84 5c-97 0 -142 -59 -142 -155v-142z" />
    <glyph glyph-name="oe" unicode="&#x153;" horiz-adv-x="911" 
d="M28 259v9c0 123 56 210 149 249c33 15 70 21 111 21c79 0 139 -26 181 -67c40 40 95 68 170 67c118 0 191 -57 222 -143c11 -29 15 -62 15 -99v-88h-317c11 -47 45 -79 107 -79s103 13 141 36l12 8l48 -114c-50 -43 -124 -69 -215 -69c-79 0 -140 28 -182 68
c-43 -41 -102 -68 -181 -68c-130 0 -213 68 -245 163c-11 33 -16 68 -16 106zM194 259c0 -76 22 -130 95 -130c72 0 95 55 95 130v10c0 59 -17 102 -52 121c-11 6 -27 9 -44 9c-71 0 -94 -56 -94 -130v-10zM561 328h151c0 46 -22 71 -73 71c-47 0 -69 -31 -78 -71z" />
    <glyph glyph-name="Racute" unicode="&#x154;" horiz-adv-x="638" 
d="M35 0v711h278c122 0 215 -39 255 -125c13 -28 19 -60 19 -95c0 -105 -50 -162 -122 -197l150 -272v-22h-178l-133 248h-97v-248h-172zM186 725l113 176h188l-157 -176h-144zM207 392h106c66 0 104 28 104 86c0 60 -35 89 -104 89h-106v-175z" />
    <glyph glyph-name="racute" unicode="&#x155;" horiz-adv-x="422" 
d="M34 0v528h158l2 -39c26 29 60 49 107 49c16 0 35 -3 47 -6l10 -3l-3 -159l-13 1c-15 1 -36 4 -50 4c-51 0 -76 -15 -92 -42v-333h-166zM101 574l113 176h188l-157 -176h-144z" />
    <glyph glyph-name="Rcedilla" unicode="&#x156;" horiz-adv-x="638" 
d="M35 0v711h278c122 0 215 -39 255 -125c13 -28 19 -60 19 -95c0 -105 -50 -162 -122 -197l150 -272v-22h-178l-133 248h-97v-248h-172zM178 -200l7 11c20 33 36 66 36 119v55h128v-47c0 -58 -21 -108 -44 -144c-12 -18 -23 -30 -37 -44zM207 392h106c66 0 104 28 104 86
c0 60 -35 89 -104 89h-106v-175z" />
    <glyph glyph-name="rcedilla" unicode="&#x157;" horiz-adv-x="398" 
d="M22 -200l7 11c20 33 35 66 35 119v55h130v-47c0 -58 -22 -108 -45 -144c-12 -18 -23 -30 -37 -44zM42 0v528h159l2 -39c26 29 60 49 107 49c16 0 35 -3 47 -6l10 -3l-3 -159l-13 1c-15 1 -36 4 -50 4c-51 0 -77 -15 -93 -42v-333h-166z" />
    <glyph glyph-name="Rcaron" unicode="&#x158;" horiz-adv-x="638" 
d="M35 0v711h278c122 0 215 -39 255 -125c13 -28 19 -60 19 -95c0 -105 -50 -162 -122 -197l150 -272v-22h-178l-133 248h-97v-248h-172zM73 879v22h137l67 -64l66 64h138v-23l-155 -144h-99zM207 392h106c66 0 104 28 104 86c0 60 -35 89 -104 89h-106v-175z" />
    <glyph glyph-name="rcaron" unicode="&#x159;" horiz-adv-x="446" 
d="M18 728v22h137l67 -64l66 64h138v-23l-155 -144h-99zM62 0v528h159l2 -39c26 29 60 49 107 49c16 0 35 -3 47 -6l10 -3l-3 -159l-13 1c-15 1 -36 4 -50 4c-51 0 -77 -15 -93 -42v-333h-166z" />
    <glyph glyph-name="Sacute" unicode="&#x15a;" horiz-adv-x="625" 
d="M23 236v13h172v-13c0 -78 46 -105 128 -105c59 0 98 19 98 66c0 42 -22 54 -60 70c-17 7 -41 16 -70 25c-90 28 -182 63 -226 142c-13 24 -20 53 -20 84c0 107 81 162 165 187c33 10 70 16 110 16c123 0 212 -53 253 -139c13 -29 20 -60 20 -94v-12h-170v12
c0 61 -39 91 -106 91c-60 0 -100 -20 -100 -68c0 -17 8 -32 30 -46s56 -28 102 -41c95 -28 189 -66 228 -152c11 -24 16 -51 16 -80c0 -107 -73 -164 -160 -188c-33 -9 -70 -14 -110 -14c-140 0 -249 61 -287 169c-8 23 -13 49 -13 77zM227 725l113 176h188l-157 -176h-144z
" />
    <glyph glyph-name="sacute" unicode="&#x15b;" horiz-adv-x="530" 
d="M23 180v13h158v-12c3 -45 34 -66 85 -66c44 0 69 14 69 41c0 24 -16 30 -45 40c-13 4 -30 8 -52 12c-75 15 -149 42 -183 101c-10 18 -16 39 -16 62c0 52 29 92 61 118c39 31 95 49 163 49c103 0 180 -37 216 -109c11 -23 18 -46 18 -73v-13h-166v13c0 38 -23 57 -69 57
c-39 0 -61 -16 -61 -43c0 -20 17 -29 43 -37c34 -11 88 -18 126 -30c48 -15 87 -41 111 -80c11 -19 18 -42 18 -68c0 -55 -31 -94 -66 -119c-42 -29 -100 -46 -170 -46c-107 0 -189 46 -224 121c-11 23 -16 46 -16 69zM175 574l113 176h188l-157 -176h-144z" />
    <glyph glyph-name="Scircumflex" unicode="&#x15c;" horiz-adv-x="625" 
d="M23 236v13h172v-13c0 -78 46 -105 128 -105c59 0 98 19 98 66c0 42 -22 54 -60 70c-17 7 -41 16 -70 25c-90 28 -182 63 -226 142c-13 24 -20 53 -20 84c0 107 81 162 165 187c33 10 70 16 110 16c123 0 212 -53 253 -139c13 -29 20 -60 20 -94v-12h-170v12
c0 61 -39 91 -106 91c-60 0 -100 -20 -100 -68c0 -17 8 -32 30 -46s56 -28 102 -41c95 -28 189 -66 228 -152c11 -24 16 -51 16 -80c0 -107 -73 -164 -160 -188c-33 -9 -70 -14 -110 -14c-140 0 -249 61 -287 169c-8 23 -13 49 -13 77zM121 733v26l152 142h92l154 -144v-24
h-130l-70 66l-71 -66h-127z" />
    <glyph glyph-name="scircumflex" unicode="&#x15d;" horiz-adv-x="530" 
d="M23 180v13h159v-12c3 -45 34 -66 85 -66c44 0 70 14 70 41c0 24 -17 30 -46 40c-13 4 -30 8 -52 12c-75 15 -149 42 -183 101c-10 18 -15 39 -15 62c0 52 28 92 60 118c39 31 95 49 163 49c103 0 180 -37 216 -109c11 -23 17 -46 17 -73v-13h-166v13c0 38 -22 57 -68 57
c-39 0 -62 -16 -62 -43c0 -20 18 -29 44 -37c34 -11 88 -18 126 -30c48 -15 87 -41 111 -80c11 -19 17 -42 17 -68c0 -55 -30 -94 -65 -119c-42 -29 -100 -46 -170 -46c-107 0 -189 46 -224 121c-11 23 -17 46 -17 69zM69 582v26l153 142h92l153 -144v-24h-129l-70 66
l-71 -66h-128z" />
    <glyph glyph-name="Scedilla" unicode="&#x15e;" horiz-adv-x="573" 
d="M22 224h122c5 -85 67 -118 152 -118c63 0 124 23 124 89c0 55 -38 76 -76 92c-19 8 -43 16 -72 25c-90 28 -174 62 -212 130c-11 20 -16 44 -16 72c0 94 67 144 147 168c31 10 64 14 102 14c115 0 196 -48 231 -123c10 -21 15 -43 17 -67h-121c-6 65 -59 98 -130 98
c-64 0 -126 -24 -126 -92c0 -27 16 -50 42 -67s61 -29 108 -43c95 -28 181 -65 214 -140c9 -20 14 -43 14 -70c0 -112 -87 -166 -199 -176l-10 -1l-6 -38l12 -2c38 -5 63 -27 63 -71c0 -75 -69 -101 -146 -105l-3 58c28 3 55 16 55 51c0 40 -37 47 -67 50l13 59l-13 2
c-105 14 -179 67 -208 149c-6 17 -10 34 -11 56z" />
    <glyph glyph-name="scedilla" unicode="&#x15f;" horiz-adv-x="476" 
d="M21 157h110c9 -51 53 -74 108 -74c46 0 95 17 95 65c0 41 -36 54 -63 63c-15 5 -34 9 -56 13c-73 15 -137 41 -165 90c-8 14 -12 31 -12 51c0 45 23 79 51 102c33 28 83 46 147 46c97 0 164 -34 194 -94c8 -15 12 -30 14 -48h-116c-5 43 -43 67 -93 67
c-45 0 -87 -22 -87 -67c0 -38 37 -53 61 -60c38 -12 92 -19 126 -30c44 -14 77 -36 97 -69c9 -15 14 -34 14 -57c0 -46 -24 -79 -55 -101c-27 -19 -65 -34 -109 -39l-8 -42l13 -2c38 -5 63 -27 63 -71c0 -75 -69 -101 -146 -105l-3 58c28 3 55 16 55 51c0 40 -37 47 -67 50
l14 59l-13 2c-76 11 -130 47 -156 99c-7 15 -11 28 -13 43z" />
    <glyph glyph-name="Scaron" unicode="&#x160;" horiz-adv-x="625" 
d="M23 236v13h172v-13c0 -78 46 -105 128 -105c59 0 98 19 98 66c0 42 -22 54 -60 70c-17 7 -41 16 -70 25c-90 28 -182 63 -226 142c-13 24 -20 53 -20 84c0 107 81 162 165 187c33 10 70 16 110 16c123 0 212 -53 253 -139c13 -29 20 -60 20 -94v-12h-170v12
c0 61 -39 91 -106 91c-60 0 -100 -20 -100 -68c0 -17 8 -32 30 -46s56 -28 102 -41c95 -28 189 -66 228 -152c11 -24 16 -51 16 -80c0 -107 -73 -164 -160 -188c-33 -9 -70 -14 -110 -14c-140 0 -249 61 -287 169c-8 23 -13 49 -13 77zM115 879v22h137l67 -64l66 64h138v-23
l-155 -144h-99z" />
    <glyph glyph-name="scaron" unicode="&#x161;" horiz-adv-x="530" 
d="M23 180v13h159v-12c3 -45 34 -66 85 -66c44 0 70 14 70 41c0 24 -17 30 -46 40c-13 4 -30 8 -52 12c-75 15 -149 42 -183 101c-10 18 -15 39 -15 62c0 52 28 92 60 118c39 31 95 49 163 49c103 0 180 -37 216 -109c11 -23 17 -46 17 -73v-13h-166v13c0 38 -22 57 -68 57
c-39 0 -62 -16 -62 -43c0 -20 18 -29 44 -37c34 -11 88 -18 126 -30c48 -15 87 -41 111 -80c11 -19 17 -42 17 -68c0 -55 -30 -94 -65 -119c-42 -29 -100 -46 -170 -46c-107 0 -189 46 -224 121c-11 23 -17 46 -17 69zM63 728v22h137l67 -64l66 64h138v-23l-155 -144h-99z
" />
    <glyph glyph-name="Tcedilla" unicode="&#x162;" horiz-adv-x="653" 
d="M23 567v144h604v-144h-218v-567h-21c41 -11 69 -44 69 -94c0 -71 -52 -105 -106 -120c-22 -6 -47 -9 -76 -9h-12l-5 107h13c29 0 42 8 42 28s-16 22 -57 25l-14 1l13 62h-18v567h-214z" />
    <glyph glyph-name="tcedilla" unicode="&#x163;" horiz-adv-x="401" 
d="M24 400v128h78v130h166v-130h90v-128h-90v-236c0 -32 8 -40 41 -40c15 0 29 1 39 3l16 4v-125l-10 -3c-12 -3 -24 -6 -37 -8c38 -13 61 -44 61 -91c0 -70 -51 -107 -105 -122c-23 -6 -48 -8 -77 -8h-12l-5 107h13c29 0 42 7 42 27s-16 23 -57 26l-14 1l16 72
c-53 25 -77 73 -77 142v251h-78z" />
    <glyph glyph-name="Tcaron" unicode="&#x164;" horiz-adv-x="653" 
d="M23 567v144h604v-144h-218v-567h-172v567h-214zM119 879v22h137l67 -64l66 64h138v-23l-155 -144h-99z" />
    <glyph glyph-name="tcaron" unicode="&#x165;" horiz-adv-x="511" 
d="M24 400v128h78v130h166v-130h90v-128h-90v-230c0 -31 8 -39 41 -39c15 0 29 1 39 4l16 4v-133l-10 -3c-26 -7 -54 -13 -89 -13c-108 0 -163 57 -163 159v251h-78zM303 577l6 11c23 38 43 77 43 136v89h136v-89c0 -41 -13 -75 -27 -104c-16 -34 -40 -63 -66 -86l-6 -6z
" />
    <glyph glyph-name="Tbar" unicode="&#x166;" horiz-adv-x="653" 
d="M23 567v144h604v-144h-218v-99h90v-114h-90v-354h-172v354h-104v114h104v99h-214z" />
    <glyph glyph-name="tbar" unicode="&#x167;" horiz-adv-x="427" 
d="M27 248v114h96v38h-76v128h76v130h166v-130h90v-128h-90v-38h104v-114h-104v-79c0 -31 9 -38 42 -38c15 0 29 1 39 4l15 4v-133c-28 -9 -59 -16 -98 -16c-108 0 -164 58 -164 161v97h-96z" />
    <glyph glyph-name="Utilde" unicode="&#x168;" horiz-adv-x="641" 
d="M33 246v465h172v-462c0 -79 36 -116 113 -116c78 0 113 37 113 116v462h172v-465c0 -129 -70 -208 -172 -239c-34 -11 -73 -17 -113 -17c-132 0 -222 54 -263 146c-14 32 -22 69 -22 110zM119 740v12c0 61 32 109 74 131c16 8 32 12 49 12c32 0 55 -13 74 -22
c20 -10 38 -20 60 -20c18 0 29 13 29 35v13l108 -8v-11c0 -62 -32 -110 -74 -132c-15 -8 -32 -11 -50 -11c-49 0 -77 24 -105 37c-9 4 -17 5 -29 5c-18 0 -28 -13 -28 -35v-13z" />
    <glyph glyph-name="utilde" unicode="&#x169;" horiz-adv-x="551" 
d="M32 190v338h166v-334c0 -44 18 -65 62 -65c45 0 70 16 86 39v360h166v-528h-156l-2 38c-33 -29 -78 -48 -135 -48c-129 0 -187 78 -187 200zM76 590v12c0 61 31 109 73 131c16 8 32 12 49 12c32 0 55 -13 74 -22c20 -10 38 -20 60 -20c18 0 30 13 30 35v13l106 -8v-11
c0 -62 -31 -110 -73 -132c-15 -8 -32 -11 -50 -11c-49 0 -77 24 -105 37c-9 4 -17 5 -29 5c-18 0 -29 -13 -29 -35v-13z" />
    <glyph glyph-name="Umacron" unicode="&#x16a;" horiz-adv-x="641" 
d="M33 246v465h172v-462c0 -79 36 -116 113 -116c78 0 113 37 113 116v462h172v-465c0 -129 -70 -208 -172 -239c-34 -11 -73 -17 -113 -17c-132 0 -222 54 -263 146c-14 32 -22 69 -22 110zM127 755v106h382v-106h-382z" />
    <glyph glyph-name="umacron" unicode="&#x16b;" horiz-adv-x="552" 
d="M32 190v338h166v-334c0 -44 18 -65 62 -65c45 0 70 16 86 39v360h166v-528h-156l-2 38c-33 -29 -78 -48 -135 -48c-129 0 -187 78 -187 200zM82 605v106h382v-106h-382z" />
    <glyph glyph-name="Ubreve" unicode="&#x16c;" horiz-adv-x="641" 
d="M33 246v465h172v-462c0 -79 36 -116 113 -116c78 0 113 37 113 116v462h172v-465c0 -129 -70 -208 -172 -239c-34 -11 -73 -17 -113 -17c-132 0 -222 54 -263 146c-14 32 -22 69 -22 110zM135 884v12h126v-12c0 -36 18 -52 56 -52s56 18 56 52v12h126v-12
c0 -79 -49 -126 -108 -146c-22 -7 -48 -12 -74 -12c-101 0 -182 55 -182 158z" />
    <glyph glyph-name="ubreve" unicode="&#x16d;" horiz-adv-x="551" 
d="M32 190v338h166v-334c0 -44 18 -65 62 -65c45 0 70 16 86 39v360h166v-528h-156l-2 38c-33 -29 -78 -48 -135 -48c-129 0 -187 78 -187 200zM92 732v13h124v-13c0 -36 19 -51 57 -51s55 17 55 51v13h126v-13c0 -79 -48 -125 -107 -145c-22 -7 -48 -12 -74 -12
c-101 0 -181 53 -181 157z" />
    <glyph glyph-name="Uring" unicode="&#x16e;" horiz-adv-x="641" 
d="M33 246v465h172v-462c0 -79 36 -116 113 -116c78 0 113 37 113 116v462h172v-465c0 -129 -70 -208 -172 -239c-34 -11 -73 -17 -113 -17c-132 0 -222 54 -263 146c-14 32 -22 69 -22 110zM195 832c0 54 36 89 74 104c15 6 31 9 48 9c66 0 122 -44 122 -113
s-56 -110 -122 -110c-54 0 -93 28 -111 66c-7 13 -11 28 -11 44zM277 832c0 -22 17 -39 40 -39c24 0 40 16 40 39c0 25 -15 41 -40 41s-40 -16 -40 -41z" />
    <glyph glyph-name="uring" unicode="&#x16f;" horiz-adv-x="551" 
d="M32 190v338h166v-334c0 -44 18 -65 62 -65c45 0 70 16 86 39v360h166v-528h-156l-2 38c-33 -29 -78 -48 -135 -48c-129 0 -187 78 -187 200zM152 680c0 54 35 89 73 104c15 6 31 9 48 9c66 0 121 -44 121 -113s-55 -110 -121 -110c-54 0 -93 28 -111 66
c-7 13 -10 28 -10 44zM232 680c0 -22 18 -39 41 -39c24 0 41 16 41 39c0 25 -16 41 -41 41s-41 -16 -41 -41z" />
    <glyph glyph-name="Uhungarumlaut" unicode="&#x170;" horiz-adv-x="641" 
d="M33 246v465h172v-462c0 -79 36 -116 113 -116c78 0 113 37 113 116v462h172v-465c0 -129 -70 -208 -172 -239c-34 -11 -73 -17 -113 -17c-132 0 -222 54 -263 146c-14 32 -22 69 -22 110zM145 729l106 172h156l-131 -172h-131zM314 729l129 172h160l-152 -172h-137z" />
    <glyph glyph-name="uhungarumlaut" unicode="&#x171;" horiz-adv-x="580" 
d="M32 190v338h166v-334c0 -44 18 -65 62 -65c45 0 70 16 86 39v360h166v-528h-156l-2 38c-33 -29 -78 -48 -135 -48c-129 0 -187 78 -187 200zM102 578l106 172h156l-131 -172h-131zM271 578l129 172h160l-152 -172h-137z" />
    <glyph glyph-name="Uogonek" unicode="&#x172;" horiz-adv-x="641" 
d="M33 246v465h172v-462c0 -79 36 -116 113 -116c78 0 113 37 113 116v462h172v-465c0 -112 -55 -187 -133 -225c-18 -11 -28 -20 -37 -30c-8 -10 -12 -19 -12 -31c0 -14 4 -20 19 -20c14 0 23 4 34 9l14 7l19 -102c-27 -13 -51 -27 -94 -27c-71 0 -124 40 -124 115
c0 18 3 34 9 48c-122 5 -204 59 -243 146c-14 32 -22 69 -22 110z" />
    <glyph glyph-name="uogonek" unicode="&#x173;" horiz-adv-x="553" 
d="M33 190v338h166v-334c0 -44 18 -65 62 -65c45 0 70 16 86 39v360h166v-528h-24c-22 -13 -38 -25 -49 -36s-17 -25 -17 -38c0 -14 5 -19 20 -19c14 0 23 4 34 9l14 7l19 -102c-27 -13 -51 -27 -94 -27c-71 0 -123 40 -123 114c0 54 25 89 62 115l-1 14
c-34 -30 -77 -47 -134 -47c-129 0 -187 78 -187 200z" />
    <glyph glyph-name="Wcircumflex" unicode="&#x174;" horiz-adv-x="916" 
d="M20 711h172l87 -457l106 457h144l106 -458l87 458h172l-164 -711h-167l-106 436l-106 -436h-167zM262 733v26l152 142h92l154 -144v-24h-130l-70 66l-71 -66h-127z" />
    <glyph glyph-name="wcircumflex" unicode="&#x175;" horiz-adv-x="781" 
d="M21 528h162l61 -296l85 296h120l86 -296l61 296h162l-141 -528h-137l-91 302l-91 -302h-137zM190 582v26l153 142h92l153 -144v-24h-129l-70 66l-71 -66h-128z" />
    <glyph glyph-name="Ycircumflex" unicode="&#x176;" horiz-adv-x="697" 
d="M19 711h189l139 -303l140 303h189l-242 -453v-258h-174v258zM150 733v26l152 142h92l154 -144v-24h-130l-70 66l-71 -66h-127z" />
    <glyph glyph-name="ycircumflex" unicode="&#x177;" horiz-adv-x="576" 
d="M19 528h179l89 -297l89 297h178l-217 -599c-26 -74 -74 -142 -181 -142c-29 0 -53 5 -75 13v128h13c8 0 15 -1 21 -1c49 0 69 14 80 48v1l15 36zM91 582v26l153 142h92l153 -144v-24h-129l-70 66l-71 -66h-128z" />
    <glyph glyph-name="Ydieresis" unicode="&#x178;" horiz-adv-x="697" 
d="M19 711h189l139 -303l140 303h189l-242 -453v-258h-174v258zM148 806c0 46 38 74 81 74c44 0 79 -29 79 -74c0 -46 -36 -75 -79 -75c-44 0 -81 28 -81 75zM386 806c0 46 38 74 81 74c44 0 79 -29 79 -74s-35 -76 -79 -76c-45 0 -81 30 -81 76z" />
    <glyph glyph-name="Zacute" unicode="&#x179;" horiz-adv-x="623" 
d="M28 0v98l340 469h-340v144h558v-96l-338 -472h346v-143h-566zM221 725l113 176h188l-157 -176h-144z" />
    <glyph glyph-name="zacute" unicode="&#x17a;" horiz-adv-x="520" 
d="M27 0v97l237 292h-229v139h448v-95l-238 -300h246v-133h-464zM168 574l113 176h188l-157 -176h-144z" />
    <glyph glyph-name="Zdotaccent" unicode="&#x17b;" horiz-adv-x="623" 
d="M28 0v98l340 469h-340v144h558v-96l-338 -472h346v-143h-566zM228 818c0 49 36 80 84 80c49 0 84 -32 84 -80s-35 -79 -84 -79c-48 0 -84 32 -84 79z" />
    <glyph glyph-name="zdotaccent" unicode="&#x17c;" horiz-adv-x="520" 
d="M27 0v97l237 292h-229v139h448v-95l-238 -300h246v-133h-464zM175 666c0 49 36 80 84 80c49 0 84 -32 84 -80s-35 -79 -84 -79c-48 0 -84 32 -84 79z" />
    <glyph glyph-name="Zcaron" unicode="&#x17d;" horiz-adv-x="623" 
d="M28 0v98l340 469h-340v144h558v-96l-338 -472h346v-143h-566zM108 879v22h137l67 -64l66 64h138v-23l-155 -144h-99z" />
    <glyph glyph-name="zcaron" unicode="&#x17e;" horiz-adv-x="520" 
d="M27 0v97l237 292h-229v139h448v-95l-238 -300h246v-133h-464zM55 728v22h137l67 -64l66 64h138v-23l-155 -144h-99z" />
    <glyph glyph-name="longs" unicode="&#x17f;" horiz-adv-x="357" 
d="M35 0v562c0 129 80 198 207 198c30 0 56 -5 81 -10l12 -2l-15 -134l-13 2c-16 3 -26 5 -45 5c-41 0 -61 -18 -61 -59v-562h-166z" />
    <glyph glyph-name="uni0189" unicode="&#x189;" horiz-adv-x="701" 
d="M26 300v116h72v295h232c163 0 267 -86 313 -202c17 -42 25 -88 25 -139v-30c0 -159 -82 -269 -202 -316c-42 -16 -88 -24 -138 -24h-230v300h-72zM270 143h58c116 0 166 76 166 197v31c0 121 -48 196 -164 196h-60v-151h122v-116h-122v-157z" />
    <glyph glyph-name="uni0190" unicode="&#x190;" horiz-adv-x="574" 
d="M26 205c0 81 41 132 102 161c-45 30 -92 72 -92 147c0 33 7 64 20 90c38 78 121 118 234 118c33 0 66 -6 95 -15c79 -26 151 -86 151 -192v-12h-166v12c0 44 -34 68 -83 68c-55 0 -85 -25 -85 -73c0 -52 32 -79 94 -79h88v-134h-88c-68 0 -104 -26 -104 -88
c0 -51 37 -79 95 -79c52 0 91 30 91 79v12h166v-12c0 -37 -7 -70 -22 -98c-41 -74 -124 -120 -232 -120c-37 0 -72 6 -104 15c-88 26 -160 89 -160 200z" />
    <glyph glyph-name="florin" unicode="&#x192;" horiz-adv-x="447" 
d="M18 -202l9 138l15 -5c10 -3 26 -5 41 -5c34 0 42 17 42 62v412h-78v128h78v34c0 129 80 198 208 198c30 0 54 -5 79 -10l12 -2l-14 -134l-13 2c-15 3 -28 5 -47 5c-41 0 -59 -18 -59 -59v-34h102v-128h-102v-412c0 -123 -66 -201 -190 -201c-29 0 -49 2 -73 8z" />
    <glyph glyph-name="Ohorn" unicode="&#x1a0;" horiz-adv-x="752" 
d="M28 340v30c0 161 70 275 188 326c39 16 80 25 127 25c97 0 171 -39 221 -90c36 13 46 56 46 121v13h120v-13c0 -101 -32 -175 -108 -206c24 -50 36 -106 36 -175v-31c0 -161 -69 -275 -187 -326c-39 -16 -80 -24 -127 -24c-101 0 -177 40 -228 94c-56 59 -88 147 -88 256
zM202 340c0 -95 24 -163 82 -192c17 -8 37 -13 60 -13c103 0 140 87 140 205v31c0 118 -37 204 -141 204c-103 0 -141 -87 -141 -204v-31z" />
    <glyph glyph-name="ohorn" unicode="&#x1a1;" horiz-adv-x="635" 
d="M28 259v9c0 123 57 210 150 248c33 15 71 22 111 22c82 0 143 -28 185 -71c19 19 26 54 26 99v12h110v-12c0 -79 -27 -139 -83 -170c16 -36 25 -78 25 -126v-10c0 -123 -57 -210 -150 -249c-33 -15 -71 -21 -112 -21c-130 0 -211 69 -245 163c-11 33 -17 68 -17 106z
M194 259c0 -76 24 -130 96 -130c71 0 96 55 96 130v10c0 75 -26 130 -97 130c-70 0 -95 -56 -95 -130v-10z" />
    <glyph glyph-name="Uhorn" unicode="&#x1af;" horiz-adv-x="816" 
d="M33 246v465h172v-462c0 -79 36 -116 113 -116c78 0 113 37 113 116v462h172v-110c60 9 70 55 70 137v12h120v-12c0 -138 -54 -222 -190 -231v-261c0 -129 -70 -208 -172 -239c-34 -11 -73 -17 -113 -17c-132 0 -222 54 -263 146c-14 32 -22 69 -22 110z" />
    <glyph glyph-name="uhorn" unicode="&#x1b0;" horiz-adv-x="685" 
d="M33 190v338h166v-334c0 -44 18 -65 62 -65c45 0 70 16 86 39v360h166v-63c29 12 36 41 36 97v13h110v-13c0 -107 -45 -171 -146 -184v-378h-156l-2 38c-33 -29 -78 -48 -135 -48c-129 0 -187 78 -187 200z" />
    <glyph glyph-name="uni01B7" unicode="&#x1b7;" horiz-adv-x="574" 
d="M25 208v12h166v-12c0 -49 39 -79 91 -79c58 0 95 28 95 79c0 58 -54 88 -179 88h-13v130l14 -1s7 -1 19 -1c50 0 149 11 149 83c0 50 -30 75 -85 75h-204l-50 139h291c169 0 214 -129 214 -208c0 -73 -46 -118 -92 -147c63 -29 102 -81 102 -161
c0 -111 -72 -174 -160 -200c-32 -9 -67 -15 -104 -15c-108 0 -191 46 -232 120c-15 28 -22 61 -22 98z" />
    <glyph glyph-name="uni01B8" unicode="&#x1b8;" horiz-adv-x="574" 
d="M26 205c0 81 41 132 102 161c-45 30 -92 72 -92 147c0 79 45 208 214 208h291l-50 -139h-204c-55 0 -85 -25 -85 -75c0 -92 163 -82 168 -82l14 1v-130h-13c-125 0 -179 -30 -179 -88c0 -51 37 -79 95 -79c52 0 91 30 91 79v12h166v-12c0 -37 -7 -70 -22 -98
c-41 -74 -124 -120 -232 -120c-37 0 -72 6 -104 15c-88 26 -160 89 -160 200z" />
    <glyph glyph-name="uni01F0" unicode="&#x1f0;" horiz-adv-x="447" 
d="M19 715v22h137l67 -64l66 64h138v-23l-155 -144h-99zM35 -202l8 138l15 -4c13 -4 28 -6 45 -6c33 0 46 26 46 70v532h166v-532c0 -128 -68 -209 -197 -209c-29 0 -48 2 -73 8z" />
    <glyph glyph-name="Aringacute" unicode="&#x1fa;" horiz-adv-x="744" 
d="M20 0l274 711h154l275 -711h-183l-49 146h-239l-49 -146h-183zM262 820c0 50 32 83 67 97c2 1 3 1 5 2h-24l113 126h171l-164 -126h-19c42 -14 71 -47 71 -99c0 -63 -49 -101 -109 -101c-50 0 -85 25 -102 60c-6 13 -9 26 -9 41zM300 278h143l-72 213zM342 820
c0 -18 12 -30 31 -30c18 0 29 12 29 30c0 21 -11 33 -29 33c-19 0 -31 -13 -31 -33z" />
    <glyph glyph-name="aringacute" unicode="&#x1fb;" horiz-adv-x="544" 
d="M25 155c0 137 121 181 256 181h50v14c0 39 -19 59 -65 59c-40 0 -63 -18 -63 -51v-13h-166v13c0 58 31 100 65 127c42 33 101 53 172 53c101 0 174 -37 207 -107c12 -24 18 -52 18 -83v-214c0 -46 5 -80 19 -109l1 -3v-22h-162c-5 10 -12 23 -15 34
c-30 -27 -71 -44 -125 -44c-85 0 -148 42 -177 99c-10 20 -15 42 -15 66zM161 640c0 53 37 85 76 98h-27l113 126h171l-164 -126h-20c30 -10 52 -32 63 -57c6 -12 10 -26 10 -41c0 -63 -50 -102 -110 -102c-50 0 -85 25 -102 60c-6 13 -10 27 -10 42zM191 166
c0 -26 23 -43 57 -43c40 0 69 16 83 37v68h-45c-59 0 -95 -18 -95 -62zM241 640c0 -18 13 -31 32 -31c18 0 30 13 30 31c0 21 -12 32 -30 32c-19 0 -32 -12 -32 -32z" />
    <glyph glyph-name="AEacute" unicode="&#x1fc;" horiz-adv-x="991" 
d="M19 0l398 711h516v-140h-292l6 -143h246v-134h-240l7 -160h303v-134h-463l-7 163h-198l-81 -163h-195zM368 296h119l-9 217zM404 731l113 176h188l-157 -176h-144z" />
    <glyph glyph-name="aeacute" unicode="&#x1fd;" horiz-adv-x="871" 
d="M25 158c0 124 120 164 254 164h68v14c0 41 -23 63 -65 63c-37 0 -59 -11 -70 -31c-3 -5 -5 -10 -5 -16v-14l-166 11v11c0 60 33 102 69 129c43 31 102 49 173 49c67 0 121 -17 160 -50c40 32 92 51 159 50c116 0 189 -58 219 -143c10 -29 16 -62 16 -99v-88h-325
c10 -51 47 -79 116 -79c60 0 98 16 139 36l11 6l47 -114l-7 -5c-49 -37 -121 -62 -205 -62c-82 0 -144 26 -188 67c-44 -42 -109 -67 -192 -67c-94 0 -165 33 -194 99c-10 20 -14 44 -14 69zM191 166c0 -33 22 -47 68 -47c36 0 67 14 88 32v74h-67c-43 0 -71 -15 -84 -39
c-4 -7 -5 -13 -5 -20zM334 574l113 176h188l-157 -176h-144zM514 314h159v2c0 54 -21 83 -71 83c-55 0 -78 -35 -88 -85z" />
    <glyph glyph-name="Oslashacute" unicode="&#x1fe;" horiz-adv-x="692" 
d="M27 339v31c0 160 72 275 189 326c39 16 80 25 127 25c59 0 111 -14 150 -36l33 56h120l-73 -118c54 -61 86 -144 86 -252v-31c0 -161 -69 -275 -187 -326c-39 -16 -81 -24 -128 -24c-50 0 -98 10 -139 30l-39 -66h-121l76 124c-59 62 -94 149 -94 261zM201 326
c0 -43 6 -81 15 -110l200 337c-21 14 -45 21 -73 22c-103 0 -142 -91 -142 -215v-34zM253 762l113 176h188l-157 -176h-144zM282 150c18 -10 38 -15 62 -15c103 0 141 93 141 217v32c0 35 -4 67 -10 93z" />
    <glyph glyph-name="oslashacute" unicode="&#x1ff;" horiz-adv-x="585" 
d="M27 258v9c0 124 59 211 152 250c33 15 70 21 111 21c30 0 60 -4 84 -11l33 67h106l-54 -107c59 -47 94 -122 94 -217v-9c0 -124 -57 -211 -150 -250c-33 -15 -71 -21 -112 -21c-28 0 -55 3 -79 10l-34 -69h-107l54 107c-62 46 -98 123 -98 220zM180 572l113 176h188
l-157 -176h-144zM193 246c0 -26 3 -51 9 -70l108 221c-7 1 -13 2 -20 2c-71 0 -97 -62 -97 -143v-10zM275 130c6 -1 10 -1 16 -1c71 0 96 61 96 143v10c0 24 -2 46 -7 63z" />
    <glyph glyph-name="uni0218" unicode="&#x218;" horiz-adv-x="625" 
d="M23 236v13h172v-13c0 -78 46 -105 128 -105c59 0 98 19 98 66c0 42 -22 54 -60 70c-17 7 -41 16 -70 25c-90 28 -182 63 -226 142c-13 24 -20 53 -20 84c0 107 81 162 165 187c33 10 70 16 110 16c123 0 212 -53 253 -139c13 -29 20 -60 20 -94v-12h-170v12
c0 61 -39 91 -106 91c-60 0 -100 -20 -100 -68c0 -17 8 -32 30 -46s56 -28 102 -41c95 -28 189 -66 228 -152c11 -24 16 -51 16 -80c0 -107 -73 -164 -160 -188c-33 -9 -70 -14 -110 -14c-140 0 -249 61 -287 169c-8 23 -13 49 -13 77zM213 -205l7 11c20 33 35 67 35 120v54
h130v-48c0 -58 -22 -106 -45 -142c-11 -18 -23 -31 -37 -45z" />
    <glyph glyph-name="uni0219" unicode="&#x219;" horiz-adv-x="530" 
d="M23 180v13h158v-12c3 -45 34 -66 85 -66c44 0 69 14 69 41c0 24 -16 30 -45 40c-13 4 -30 8 -52 12c-75 15 -149 42 -183 101c-10 18 -16 39 -16 62c0 52 29 92 61 118c39 31 95 49 163 49c103 0 180 -37 216 -109c11 -23 18 -46 18 -73v-13h-166v13c0 38 -23 57 -69 57
c-39 0 -61 -16 -61 -43c0 -20 17 -29 43 -37c34 -11 88 -18 126 -30c48 -15 87 -41 111 -80c11 -19 18 -42 18 -68c0 -55 -31 -94 -66 -119c-42 -29 -100 -46 -170 -46c-107 0 -189 46 -224 121c-11 23 -16 46 -16 69zM160 -210l7 11c20 33 36 66 36 119v55h128v-47
c0 -58 -21 -108 -44 -144c-12 -18 -23 -30 -37 -44z" />
    <glyph glyph-name="uni021A" unicode="&#x21a;" horiz-adv-x="653" 
d="M23 567v144h604v-144h-218v-567h-172v567h-214zM216 -202l7 11c20 33 36 66 36 119v55h128v-47c0 -58 -21 -108 -44 -144c-12 -18 -23 -30 -37 -44z" />
    <glyph glyph-name="uni021B" unicode="&#x21b;" horiz-adv-x="394" 
d="M24 400v128h78v130h166v-130h90v-128h-90v-230c0 -31 8 -39 41 -39c15 0 29 1 39 4l16 4v-133l-10 -3c-26 -7 -54 -13 -89 -13c-108 0 -163 57 -163 159v251h-78zM137 -205l7 11c20 33 36 67 36 120v54h128v-48c0 -58 -21 -106 -44 -142c-11 -18 -23 -31 -37 -45z" />
    <glyph glyph-name="uni0237" unicode="&#x237;" horiz-adv-x="339" 
d="M18 -202l8 138l15 -4c13 -4 28 -6 45 -6c33 0 47 26 47 70v532h166v-532c0 -128 -69 -209 -198 -209c-29 0 -48 2 -73 8z" />
    <glyph glyph-name="schwa" unicode="&#x259;" horiz-adv-x="548" 
d="M28 232v90h316c-11 47 -44 78 -107 78c-46 0 -81 -8 -111 -22c-10 -5 -20 -10 -31 -15l-12 -5l-46 111c50 43 125 70 215 70c127 0 210 -67 245 -158c12 -32 17 -65 17 -101v-18c0 -121 -56 -212 -145 -251c-31 -15 -66 -21 -104 -20c-154 0 -237 94 -237 241zM192 212
c0 -54 23 -83 73 -83c47 0 69 37 78 83h-151z" />
    <glyph glyph-name="uni02BC" unicode="&#x2bc;" horiz-adv-x="242" 
d="M26 539l6 10c23 34 43 69 43 122v79h136v-81c0 -37 -13 -68 -27 -94c-16 -30 -40 -58 -66 -79l-6 -6z" />
    <glyph glyph-name="circumflex" unicode="&#x2c6;" horiz-adv-x="461" 
d="M30 582v26l152 142h92l154 -144v-24h-130l-70 66l-71 -66h-127z" />
    <glyph glyph-name="caron" unicode="&#x2c7;" horiz-adv-x="466" 
d="M29 728v22h137l67 -64l66 64h138v-23l-155 -144h-99z" />
    <glyph glyph-name="breve" unicode="&#x2d8;" horiz-adv-x="426" 
d="M32 733v12h124v-10c0 -29 19 -41 57 -41s55 13 55 41v10h126v-12c0 -73 -49 -116 -108 -135c-22 -7 -47 -10 -73 -10c-80 0 -143 31 -168 86c-9 18 -13 38 -13 59z" />
    <glyph glyph-name="dotaccent" unicode="&#x2d9;" horiz-adv-x="230" 
d="M30 658c0 49 36 80 84 80c49 0 84 -32 84 -80s-35 -79 -84 -79c-48 0 -84 32 -84 79z" />
    <glyph glyph-name="ring" unicode="&#x2da;" horiz-adv-x="300" 
d="M28 641c0 51 35 83 73 97c15 6 31 9 48 9c54 0 96 -28 113 -66c6 -13 8 -26 8 -40c0 -65 -55 -105 -121 -105c-54 0 -94 27 -112 63c-7 13 -9 28 -9 42zM108 641c0 -19 18 -33 41 -33c24 0 41 13 41 33c0 21 -16 34 -41 34s-41 -13 -41 -34z" />
    <glyph glyph-name="ogonek" unicode="&#x2db;" horiz-adv-x="280" 
d="M29 -104c0 49 29 80 62 102c16 12 36 23 59 32l100 -40l-22 -10c-23 -11 -40 -21 -52 -30c-11 -8 -17 -18 -17 -28c0 -11 5 -15 20 -15c14 0 24 4 33 9l15 7l20 -102c-27 -13 -52 -27 -95 -27c-71 0 -123 36 -123 102z" />
    <glyph glyph-name="tilde" unicode="&#x2dc;" horiz-adv-x="456" 
d="M32 590v12c0 61 29 109 72 131c16 8 33 12 50 12c58 0 82 -29 134 -29c18 0 30 8 30 22v13l106 -8v-11c0 -57 -31 -100 -73 -120c-15 -7 -32 -10 -50 -10c-49 0 -77 16 -105 25c-9 2 -17 4 -29 4c-18 0 -29 -13 -29 -35v-13z" />
    <glyph glyph-name="hungarumlaut" unicode="&#x2dd;" horiz-adv-x="513" 
d="M28 578l106 172h156l-131 -172h-131zM197 578l129 172h160l-152 -172h-137z" />
    <glyph glyph-name="uni02F3" unicode="&#x2f3;" horiz-adv-x="287" 
d="M40 -112c0 59 48 96 104 96c57 0 102 -37 102 -96s-46 -96 -102 -96c-57 0 -104 36 -104 96zM120 -112c0 -14 11 -24 24 -24c14 0 22 9 22 24c0 16 -7 24 -22 24s-24 -8 -24 -24z" />
    <glyph glyph-name="gravecomb" unicode="&#x300;" horiz-adv-x="270" 
d="M27 750h142l70 -169h-111z" />
    <glyph glyph-name="acutecomb" unicode="&#x301;" horiz-adv-x="275" 
d="M30 581l74 169h143l-107 -169h-110z" />
    <glyph glyph-name="tildecomb" unicode="&#x303;" horiz-adv-x="456" 
d="M32 590v12c0 61 31 109 73 131c16 8 32 12 49 12c58 0 82 -29 134 -29c18 0 30 8 30 22v13l106 -8v-11c0 -57 -31 -100 -73 -120c-15 -7 -32 -10 -50 -10c-49 0 -77 16 -105 25c-9 2 -17 4 -29 4c-18 0 -29 -13 -29 -35v-13z" />
    <glyph glyph-name="hook" unicode="&#x309;" horiz-adv-x="280" 
d="M32 725l5 90h12c62 0 110 -8 144 -27c34 -17 54 -42 54 -75c0 -46 -38 -68 -74 -76v-31h-130l-10 81l13 1c39 2 55 6 55 18c0 14 -21 19 -56 19h-13z" />
    <glyph glyph-name="uni030F" unicode="&#x30f;" horiz-adv-x="541" 
d="M28 741h178l141 -155h-149zM224 741h170l116 -155h-145z" />
    <glyph glyph-name="dotbelow" unicode="&#x323;" horiz-adv-x="264" 
d="M40 -114c0 52 43 80 91 80s91 -27 91 -80c0 -52 -42 -80 -91 -80c-41 0 -70 18 -84 47c-5 10 -7 21 -7 33z" />
    <glyph glyph-name="tonos" unicode="&#x384;" horiz-adv-x="256" 
d="M30 588l41 194h158l-92 -194h-107z" />
    <glyph glyph-name="dieresistonos" unicode="&#x385;" horiz-adv-x="526" 
d="M32 667c0 46 37 75 80 75c44 0 80 -30 80 -75c0 -46 -37 -75 -80 -75c-44 0 -80 28 -80 75zM207 668l24 187h157l-87 -187h-94zM332 667c0 45 37 75 80 75s80 -29 80 -75s-35 -75 -80 -75c-44 0 -80 29 -80 75z" />
    <glyph glyph-name="Alphatonos" unicode="&#x386;" horiz-adv-x="741" 
d="M19 0l274 711h154l275 -711h-183l-49 146h-239l-49 -146h-183zM61 588l41 194h158l-92 -194h-107zM299 278h143l-72 213z" />
    <glyph glyph-name="anoteleia" unicode="&#x387;" horiz-adv-x="243" 
d="M28 352c0 53 39 89 92 89s92 -35 92 -89c0 -53 -40 -87 -92 -87c-51 0 -92 33 -92 87z" />
    <glyph glyph-name="Epsilontonos" unicode="&#x388;" horiz-adv-x="739" 
d="M20 588l41 194h158l-92 -194h-107zM207 0v711h502v-144h-330v-131h282v-140h-282v-153h330v-143h-502z" />
    <glyph glyph-name="Etatonos" unicode="&#x389;" horiz-adv-x="848" 
d="M20 587l41 194h158l-92 -194h-107zM205 0v711h172v-275h262v275h170v-711h-170v292h-262v-292h-172z" />
    <glyph glyph-name="Iotatonos" unicode="&#x38a;" horiz-adv-x="424" 
d="M20 589l41 194h158l-92 -194h-107zM215 0v711h170v-711h-170z" />
    <glyph glyph-name="Omicrontonos" unicode="&#x38c;" horiz-adv-x="767" 
d="M20 588l41 194h158l-92 -194h-107zM107 340v30c0 161 70 275 188 326c39 16 81 25 128 25c102 0 177 -40 227 -95c54 -60 87 -147 87 -256v-30c0 -162 -68 -275 -186 -326c-39 -16 -80 -24 -127 -24c-101 0 -178 40 -228 95c-54 59 -89 147 -89 255zM281 340
c0 -93 25 -163 83 -192c17 -8 37 -13 60 -13c103 0 141 87 141 205v31c0 118 -38 204 -142 204c-103 0 -142 -86 -142 -204v-31z" />
    <glyph glyph-name="Upsilontonos" unicode="&#x38e;" horiz-adv-x="857" 
d="M21 588l41 194h158l-34 -71h183l139 -303l140 303h189l-243 -453v-258h-174v258l-237 446l-55 -116h-107z" />
    <glyph glyph-name="Omegatonos" unicode="&#x38f;" horiz-adv-x="723" 
d="M20 588l41 194h158l-92 -194h-107zM103 380v40c0 138 71 236 175 278c37 15 77 22 120 22c142 0 234 -79 274 -181c15 -37 21 -77 21 -121v-41c0 -105 -44 -181 -97 -238h87v-139h-270v136l7 3c67 28 83 127 83 235v41c0 94 -28 161 -105 161c-76 0 -107 -68 -107 -161
v-41c0 -92 13 -170 54 -212c14 -15 24 -20 42 -26v-136h-276v144h88c-41 42 -72 97 -87 161c-6 25 -9 50 -9 75z" />
    <glyph glyph-name="iotadieresistonos" unicode="&#x390;" horiz-adv-x="506" 
d="M21 644c0 46 38 75 81 75c44 0 79 -30 79 -75c0 -46 -36 -74 -79 -74c-44 0 -81 27 -81 74zM157 155v373h168l-2 -353c0 -32 9 -40 43 -40c8 0 14 1 21 2l32 3v-130c-30 -7 -58 -15 -97 -15c-108 0 -165 56 -165 160zM197 658l24 187h157l-87 -187h-94zM323 644
c0 45 36 75 79 75s81 -29 81 -75s-36 -75 -81 -75c-44 0 -79 29 -79 75z" />
    <glyph glyph-name="Alpha" unicode="&#x391;" horiz-adv-x="741" 
d="M19 0l274 711h154l275 -711h-183l-49 146h-239l-49 -146h-183zM299 278h143l-72 213z" />
    <glyph glyph-name="Beta" unicode="&#x392;" horiz-adv-x="616" 
d="M35 0v711h262c119 0 215 -30 257 -112c13 -25 19 -55 19 -88c0 -68 -34 -117 -81 -144c60 -26 97 -77 97 -153c0 -151 -113 -214 -269 -214h-285zM207 143h113c61 0 97 24 97 74c0 57 -27 81 -91 81h-119v-155zM207 426h96c63 1 98 20 98 69c0 56 -33 72 -104 72h-90
v-141z" />
    <glyph glyph-name="Gamma" unicode="&#x393;" horiz-adv-x="554" 
d="M35 0v711h492v-144h-320v-567h-172z" />
    <glyph glyph-name="Delta" unicode="&#x394;" horiz-adv-x="827" 
d="M77 0l303 711h186l300 -711h-789zM348 143h247l-122 328z" />
    <glyph glyph-name="Delta" unicode="&#x2206;" horiz-adv-x="827" 
d="M77 0l303 711h186l300 -711h-789zM348 143h247l-122 328z" />
    <glyph glyph-name="Epsilon" unicode="&#x395;" horiz-adv-x="567" 
d="M35 0v711h502v-144h-330v-131h282v-140h-282v-153h330v-143h-502z" />
    <glyph glyph-name="Zeta" unicode="&#x396;" horiz-adv-x="620" 
d="M27 0v98l340 469h-340v144h558v-96l-338 -472h346v-143h-566z" />
    <glyph glyph-name="Eta" unicode="&#x397;" horiz-adv-x="678" 
d="M35 0v711h172v-275h262v275h170v-711h-170v292h-262v-292h-172z" />
    <glyph glyph-name="Theta" unicode="&#x398;" horiz-adv-x="689" 
d="M27 340v30c0 161 70 275 188 326c39 16 81 25 128 25c102 0 177 -40 227 -95c54 -60 89 -147 89 -256v-30c0 -161 -70 -275 -188 -326c-39 -16 -80 -24 -127 -24c-102 0 -177 41 -228 95c-56 59 -89 146 -89 255zM201 340c0 -93 25 -163 83 -192c17 -8 37 -13 60 -13
c103 0 141 87 141 205v31c0 118 -38 204 -142 204c-103 0 -142 -86 -142 -204v-31zM241 284v138h212v-138h-212z" />
    <glyph glyph-name="Iota" unicode="&#x399;" horiz-adv-x="246" 
d="M35 0v711h172v-711h-172z" />
    <glyph glyph-name="Kappa" unicode="&#x39a;" horiz-adv-x="670" 
d="M35 0v711h172v-296c74 101 150 194 224 291l4 5h212l-264 -318l268 -393h-204l-178 277l-62 -66v-211h-172z" />
    <glyph glyph-name="Lambda" unicode="&#x39b;" horiz-adv-x="704" 
d="M20 0l247 711h170l247 -711h-185l-147 479l-147 -479h-185z" />
    <glyph glyph-name="Mu" unicode="&#x39c;" horiz-adv-x="848" 
d="M35 0v711h214l174 -491l172 491h214v-711h-172v207l11 255l-167 -462h-118l-167 460l11 -253v-207h-172z" />
    <glyph glyph-name="Nu" unicode="&#x39d;" horiz-adv-x="678" 
d="M35 0v711h167l267 -437v437h170v-711h-166l-266 436v-436h-172z" />
    <glyph glyph-name="Xi" unicode="&#x39e;" horiz-adv-x="560" 
d="M27 0v143h506v-143h-506zM39 567v144h474v-144h-474zM85 290v138h392v-138h-392z" />
    <glyph glyph-name="Omicron" unicode="&#x39f;" horiz-adv-x="687" 
d="M27 340v30c0 161 70 275 188 326c39 16 81 25 128 25c102 0 177 -40 227 -95c54 -60 87 -147 87 -256v-30c0 -162 -68 -275 -186 -326c-39 -16 -80 -24 -127 -24c-101 0 -178 40 -228 95c-54 59 -89 147 -89 255zM201 340c0 -93 25 -163 83 -192c17 -8 37 -13 60 -13
c103 0 141 87 141 205v31c0 118 -38 204 -142 204c-103 0 -142 -86 -142 -204v-31z" />
    <glyph glyph-name="Pi" unicode="&#x3a0;" horiz-adv-x="678" 
d="M35 0v711h604v-711h-172v567h-260v-567h-172z" />
    <glyph glyph-name="Rho" unicode="&#x3a1;" horiz-adv-x="632" 
d="M35 0v711h291c129 0 222 -54 261 -145c13 -30 18 -62 18 -96c0 -119 -69 -187 -162 -216c-35 -11 -74 -16 -117 -16h-119v-238h-172zM207 382h119c69 0 107 27 107 87c0 62 -39 98 -107 98h-119v-185z" />
    <glyph glyph-name="Sigma" unicode="&#x3a3;" horiz-adv-x="583" 
d="M26 0v88l211 271l-211 264v88h518v-144h-280l156 -204v-15l-159 -211h295v-137h-530z" />
    <glyph glyph-name="Tau" unicode="&#x3a4;" horiz-adv-x="654" 
d="M23 567v144h604v-144h-218v-567h-172v567h-214z" />
    <glyph glyph-name="Upsilon" unicode="&#x3a5;" horiz-adv-x="696" 
d="M19 711h189l139 -303l140 303h189l-242 -453v-258h-174v258z" />
    <glyph glyph-name="Phi" unicode="&#x3a6;" horiz-adv-x="783" 
d="M26 350c0 132 73 222 174 259c32 12 67 19 104 21v81h172v-81c128 -7 217 -71 257 -165c15 -35 21 -73 21 -114c0 -130 -75 -215 -173 -252c-32 -12 -67 -19 -105 -21v-78h-172v78c-128 7 -216 69 -257 162c-15 33 -21 70 -21 110zM194 350c0 -78 40 -122 110 -129v267
c-72 -8 -110 -57 -110 -138zM476 221c71 8 108 52 108 130c0 82 -37 129 -108 137v-267z" />
    <glyph glyph-name="Chi" unicode="&#x3a7;" horiz-adv-x="697" 
d="M19 0l219 358l-214 353h198l126 -231l126 231h198l-214 -353l219 -358h-199l-130 236l-130 -236h-199z" />
    <glyph glyph-name="Psi" unicode="&#x3a8;" horiz-adv-x="759" 
d="M27 481v230h172v-239c0 -88 33 -140 96 -158v397h170v-398c63 18 90 68 90 159v239h172v-230c0 -174 -103 -274 -262 -296v-185h-170v185c-125 13 -211 77 -248 176c-14 35 -20 75 -20 120z" />
    <glyph glyph-name="Omega" unicode="&#x3a9;" horiz-adv-x="672" 
d="M37 383v39c0 137 74 234 182 276c38 15 80 22 125 22c148 0 244 -80 285 -182c15 -38 22 -79 22 -122v-39c0 -93 -36 -164 -82 -218h73v-159h-296v150l15 6c57 23 76 109 76 214v39c0 89 -27 142 -93 142c-65 0 -94 -54 -94 -142v-39c0 -87 13 -159 50 -195
c10 -10 19 -16 28 -19l17 -5v-151h-300v169h72c-34 40 -58 86 -71 139c-7 25 -9 50 -9 75z" />
    <glyph glyph-name="Omega" unicode="&#x2126;" horiz-adv-x="672" 
d="M37 383v39c0 137 74 234 182 276c38 15 80 22 125 22c148 0 244 -80 285 -182c15 -38 22 -79 22 -122v-39c0 -93 -36 -164 -82 -218h73v-159h-296v150l15 6c57 23 76 109 76 214v39c0 89 -27 142 -93 142c-65 0 -94 -54 -94 -142v-39c0 -87 13 -159 50 -195
c10 -10 19 -16 28 -19l17 -5v-151h-300v169h72c-34 40 -58 86 -71 139c-7 25 -9 50 -9 75z" />
    <glyph glyph-name="Iotadieresis" unicode="&#x3aa;" horiz-adv-x="434" 
d="M18 808c0 46 38 74 81 74c44 0 79 -29 79 -74c0 -46 -36 -75 -79 -75c-44 0 -81 28 -81 75zM132 0v711h172v-711h-172zM256 808c0 46 38 74 81 74c44 0 79 -29 79 -74s-35 -76 -79 -76c-45 0 -81 30 -81 76z" />
    <glyph glyph-name="Upsilondieresis" unicode="&#x3ab;" horiz-adv-x="696" 
d="M19 711h189l139 -303l140 303h189l-242 -453v-258h-174v258zM148 806c0 46 38 74 81 74c44 0 79 -29 79 -74c0 -46 -36 -75 -79 -75c-44 0 -81 28 -81 75zM386 806c0 46 38 74 81 74c44 0 79 -29 79 -74s-35 -76 -79 -76c-45 0 -81 30 -81 76z" />
    <glyph glyph-name="alphatonos" unicode="&#x3ac;" horiz-adv-x="598" 
d="M26 250v10c0 119 39 214 124 257c28 15 60 21 95 21c55 0 93 -23 120 -54l7 44h146v-348c0 -33 4 -49 22 -49h4l17 11l15 -135c-22 -13 -44 -17 -74 -17c-60 0 -101 27 -124 68c-30 -39 -70 -68 -134 -68c-115 0 -180 72 -205 158c-9 32 -13 65 -13 102zM192 251
c0 -71 20 -122 87 -122c39 0 59 13 73 34v198c-15 24 -34 38 -72 38c-69 0 -88 -64 -88 -139v-9zM237 588l41 194h158l-92 -194h-107z" />
    <glyph glyph-name="epsilontonos" unicode="&#x3ad;" horiz-adv-x="551" 
d="M24 154c0 60 36 99 81 119c-39 22 -71 55 -71 105c0 91 74 133 149 150c30 7 63 10 99 10c98 0 177 -36 216 -100c13 -22 20 -47 20 -74v-13h-166v13c0 29 -34 42 -78 42c-41 0 -74 -9 -74 -39c0 -25 28 -37 75 -37h103v-120h-103c-53 0 -85 -10 -85 -44
c0 -30 38 -45 84 -45c40 0 68 13 81 32c3 6 5 9 5 15v13h166v-13c0 -66 -37 -110 -80 -136c-41 -25 -101 -42 -164 -42c-104 0 -194 30 -237 93c-15 20 -21 45 -21 71zM208 588l41 194h158l-92 -194h-107z" />
    <glyph glyph-name="etatonos" unicode="&#x3ae;" horiz-adv-x="549" 
d="M34 0v528h155l3 -47c35 34 81 57 142 57c130 0 182 -82 182 -206v-535h-166v531c0 49 -20 71 -67 71c-40 0 -66 -14 -83 -35v-364h-166zM208 588l41 194h158l-92 -194h-107z" />
    <glyph glyph-name="iotatonos" unicode="&#x3af;" horiz-adv-x="319" 
d="M32 155v373h168l-2 -353c0 -32 9 -40 43 -40c8 0 14 1 21 2l32 3v-130c-30 -7 -58 -15 -97 -15c-108 0 -165 56 -165 160zM56 578l41 194h158l-92 -194h-107z" />
    <glyph glyph-name="upsilondieresistonos" unicode="&#x3b0;" horiz-adv-x="538" 
d="M31 206v322h168v-318c0 -50 11 -81 48 -81c34 0 55 21 70 45c16 26 26 65 26 105c-1 87 -22 163 -49 233l-6 16h161l3 -7c35 -66 57 -147 57 -246c0 -166 -83 -285 -257 -285c-143 0 -221 78 -221 216zM37 652c0 46 38 75 81 75c44 0 79 -30 79 -75
c0 -46 -36 -74 -79 -74c-44 0 -81 27 -81 74zM213 666l24 187h157l-87 -187h-94zM339 652c0 45 36 75 79 75s81 -29 81 -75s-36 -75 -81 -75c-44 0 -79 29 -79 75z" />
    <glyph glyph-name="alpha" unicode="&#x3b1;" horiz-adv-x="601" 
d="M27 250v10c0 119 40 214 125 257c28 15 60 21 95 21c55 0 93 -23 120 -54l7 44h145v-348c0 -33 5 -49 23 -49h4l17 11l15 -135c-22 -13 -44 -17 -74 -17c-60 0 -101 27 -124 68c-30 -39 -70 -68 -134 -68c-114 0 -180 70 -205 157c-9 32 -14 66 -14 103zM193 251
c0 -71 21 -122 88 -122c39 0 59 13 73 34c0 5 -1 10 -1 16v182c-15 24 -33 38 -71 38c-69 0 -89 -64 -89 -139v-9z" />
    <glyph glyph-name="beta" unicode="&#x3b2;" horiz-adv-x="583" 
d="M34 -198v694c0 72 34 126 75 162s102 63 175 63c108 0 187 -40 223 -118c12 -26 19 -54 19 -87c0 -65 -35 -113 -79 -143c65 -29 109 -84 109 -168c0 -136 -90 -215 -230 -215c-47 0 -91 11 -126 28v-216h-166zM200 150c24 -14 55 -21 94 -21c59 0 96 29 96 82
c0 61 -30 93 -93 93h-59v128h44c57 0 78 25 78 79c0 44 -28 70 -76 70c-53 0 -84 -32 -84 -85v-346z" />
    <glyph glyph-name="gamma" unicode="&#x3b3;" horiz-adv-x="570" 
d="M20 528h174l92 -326l88 326h175l-182 -518v-214h-166v218z" />
    <glyph glyph-name="delta" unicode="&#x3b4;" horiz-adv-x="582" 
d="M25 251v9c0 106 62 180 139 212c-42 26 -77 66 -77 126c0 120 97 170 212 170c57 0 98 -11 140 -25v-136l-16 6c-33 11 -69 22 -111 22c-40 0 -67 -13 -67 -35c0 -18 13 -27 31 -37v-1c8 -5 22 -10 39 -16c130 -45 238 -120 238 -279v-10c0 -122 -61 -208 -153 -246
c-33 -15 -70 -21 -110 -21c-129 0 -212 65 -247 158c-11 32 -18 66 -18 103zM191 274c0 -65 19 -114 55 -135c12 -7 27 -10 44 -10c70 0 97 65 97 145v10c0 56 -26 100 -59 124c-13 9 -25 15 -39 18c-54 -1 -79 -39 -91 -87c-5 -17 -7 -35 -7 -55v-10z" />
    <glyph glyph-name="epsilon" unicode="&#x3b5;" horiz-adv-x="555" 
d="M26 154c0 60 36 99 81 119c-39 22 -71 55 -71 105c0 91 74 133 149 150c30 7 63 10 99 10c98 0 177 -36 216 -100c13 -22 20 -47 20 -74v-13h-166v13c0 29 -34 42 -78 42c-41 0 -74 -9 -74 -39c0 -25 28 -37 75 -37h103v-120h-103c-53 0 -85 -10 -85 -44
c0 -30 38 -45 84 -45c40 0 68 13 81 32c3 6 5 9 5 15v13h166v-13c0 -66 -37 -110 -80 -136c-41 -25 -101 -42 -164 -42c-104 0 -194 30 -237 93c-15 20 -21 45 -21 71z" />
    <glyph glyph-name="zeta" unicode="&#x3b6;" horiz-adv-x="507" 
d="M22 573v138h460v-98l-178 -204c-49 -55 -96 -103 -96 -197c0 -52 24 -66 69 -80l38 -11c67 -19 153 -39 153 -133c0 -40 -22 -74 -40 -98c-24 -32 -55 -60 -87 -83l-91 69l10 10c14 15 26 31 33 44s10 22 9 28l-1 1l1 1c1 19 -14 26 -45 34l-37 9
c-95 24 -178 69 -178 188c0 94 37 160 79 217c16 22 35 47 56 72l83 93h-238z" />
    <glyph glyph-name="eta" unicode="&#x3b7;" horiz-adv-x="551" 
d="M34 0v528h155l3 -47c35 34 81 57 142 57c130 0 182 -82 182 -206v-535h-166v531c0 49 -20 71 -67 71c-40 0 -66 -14 -83 -35v-364h-166z" />
    <glyph glyph-name="theta" unicode="&#x3b8;" horiz-adv-x="565" 
d="M28 299v114c0 140 42 246 148 288c32 13 66 20 103 20c132 0 205 -75 236 -178c13 -38 17 -83 17 -134v-113c0 -174 -72 -306 -252 -306c-132 0 -204 74 -235 173c-13 38 -17 84 -17 136zM194 279c0 -69 12 -123 51 -142c10 -5 22 -8 35 -8c70 0 86 69 86 150v11h-172
v-11zM194 424h172v10c0 82 -16 147 -87 147c-70 0 -85 -66 -85 -147v-10z" />
    <glyph glyph-name="iota" unicode="&#x3b9;" horiz-adv-x="322" 
d="M33 155v373h167l-1 -353c0 -32 8 -40 42 -40c8 0 14 1 21 2l33 3v-130c-31 -7 -58 -15 -98 -15c-108 0 -164 56 -164 160z" />
    <glyph glyph-name="kappa" unicode="&#x3ba;" horiz-adv-x="599" 
d="M35 0v528h166v-198h23l138 198h210l-196 -255l203 -273h-212l-128 195h-38v-195h-166z" />
    <glyph glyph-name="lambda" unicode="&#x3bb;" horiz-adv-x="616" 
d="M19 0l192 506l-33 74c-11 26 -21 36 -52 36c-10 0 -17 -1 -27 -2l-13 -1l-4 128l10 3c24 6 53 11 82 11c78 0 121 -36 144 -93l204 -489c10 -23 19 -43 39 -43h11l17 9l2 -142l-11 -2c-14 -2 -32 -3 -54 -4h-1c-91 0 -135 50 -158 117l-69 190l-99 -298h-180z" />
    <glyph glyph-name="uni03BC" unicode="&#x3bc;" horiz-adv-x="565" 
d="M35 -203v731h166v-296c0 -69 14 -103 75 -103c47 0 72 15 87 40v359h166v-528h-154l-2 20c-27 -19 -59 -30 -100 -30c-27 0 -51 5 -72 14v-207h-166z" />
    <glyph glyph-name="nu" unicode="&#x3bd;" 
d="M20 528h175l88 -321l88 321h175l-187 -528h-152z" />
    <glyph glyph-name="xi" unicode="&#x3be;" horiz-adv-x="519" 
d="M23 221c0 92 55 147 127 177c-47 23 -85 60 -85 122c0 103 66 163 145 187c29 9 64 14 101 14c60 0 107 -10 151 -26l10 -4l-26 -133l-13 3c-36 10 -65 18 -107 18c-59 0 -95 -16 -95 -55c0 -36 40 -48 99 -48h87v-142h-83c-91 0 -145 -29 -145 -106
c0 -61 51 -85 110 -98l47 -11c58 -14 114 -31 141 -81c8 -16 12 -33 11 -52c0 -41 -22 -74 -40 -98c-22 -29 -49 -58 -79 -78l-7 -5l-92 69l10 10c15 16 26 30 33 43c7 12 10 22 10 31c0 18 -18 27 -46 35l-31 8c-118 34 -233 64 -233 220z" />
    <glyph glyph-name="omicron" unicode="&#x3bf;" horiz-adv-x="583" 
d="M27 259v9c0 123 59 210 152 249c33 15 70 21 111 21c130 0 212 -69 246 -163c11 -33 17 -68 17 -106v-9c0 -123 -57 -210 -150 -249c-33 -15 -71 -21 -112 -21c-130 0 -213 69 -247 163c-12 33 -17 68 -17 106zM193 259c0 -76 25 -130 98 -130c71 0 96 55 96 130v10
c0 75 -26 130 -97 130s-97 -56 -97 -130v-10z" />
    <glyph glyph-name="pi" unicode="&#x3c0;" horiz-adv-x="676" 
d="M24 396v132h612v-132h-84v-225c0 -32 7 -39 42 -39c14 0 29 2 38 4l16 4v-133c-31 -7 -58 -16 -98 -16c-108 0 -164 57 -164 159v246h-110v-396h-166v396h-86z" />
    <glyph glyph-name="rho" unicode="&#x3c1;" horiz-adv-x="562" 
d="M32 -203v481c0 119 59 203 148 240c32 14 67 20 105 20c129 0 202 -72 231 -167c10 -34 16 -70 16 -110v-10c0 -113 -40 -200 -123 -240c-28 -14 -59 -21 -94 -21c-51 0 -88 16 -117 41v-234h-166zM198 161c15 -20 40 -32 80 -32c66 0 88 51 88 122v9
c0 61 -15 108 -49 129c-11 7 -23 10 -39 10c-60 0 -80 -61 -80 -130v-108z" />
    <glyph glyph-name="sigma1" unicode="&#x3c2;" horiz-adv-x="542" 
d="M27 257v13c0 120 56 208 147 247c32 15 69 21 110 21c106 0 180 -50 212 -128c12 -28 17 -57 17 -90v-13h-158v13c0 49 -24 79 -71 79c-69 0 -91 -57 -91 -132v-13c0 -81 44 -108 115 -127c72 -19 156 -36 159 -131c0 -40 -22 -74 -39 -98c-21 -29 -48 -59 -78 -79l-7 -5
l-93 70l10 10c14 15 25 30 32 43s11 22 10 29l-1 1v1c0 21 -14 28 -42 34c-130 33 -232 96 -232 255z" />
    <glyph glyph-name="sigma" unicode="&#x3c3;" horiz-adv-x="612" 
d="M27 259v10c0 157 100 259 262 259h294v-139h-105c26 -26 46 -57 58 -95c4 -15 7 -31 7 -48v-9c0 -113 -58 -191 -145 -227c-32 -14 -68 -20 -108 -20c-130 0 -212 69 -246 163c-12 33 -17 68 -17 106zM193 259c0 -76 24 -130 97 -130c67 0 87 58 87 130v9
c0 69 -22 121 -88 121c-70 0 -96 -50 -96 -121v-9z" />
    <glyph glyph-name="tau" unicode="&#x3c4;" horiz-adv-x="559" 
d="M26 390v138h504v-138h-174v-221c0 -30 6 -39 31 -39c21 0 27 1 44 7l14 5l19 -132l-10 -3c-28 -9 -56 -17 -96 -17c-112 0 -168 66 -168 174v226h-164z" />
    <glyph glyph-name="upsilon" unicode="&#x3c5;" horiz-adv-x="540" 
d="M32 206v322h168v-318c0 -50 11 -81 48 -81c33 0 55 22 70 46c16 26 26 64 26 104c-1 87 -22 163 -49 233l-6 16h161l3 -7c35 -66 57 -147 57 -246c0 -166 -83 -285 -257 -285c-143 0 -221 78 -221 216z" />
    <glyph glyph-name="phi" unicode="&#x3c6;" horiz-adv-x="768" 
d="M27 290c0 116 53 196 123 248l115 -89l-9 -10c-35 -40 -59 -90 -63 -161c0 -93 38 -143 106 -163v265c0 75 44 122 98 144c20 8 41 12 64 12c126 0 205 -59 248 -139c19 -34 30 -76 30 -124c0 -124 -60 -201 -151 -245c-34 -17 -77 -29 -123 -34v-227h-166v229
c-166 23 -272 119 -272 294zM465 112c68 17 108 63 108 148c0 62 -20 108 -55 128c-11 6 -25 9 -40 9c-12 0 -13 0 -13 -13v-272z" />
    <glyph glyph-name="chi" unicode="&#x3c7;" horiz-adv-x="576" 
d="M20 0l165 270l-158 258h180l80 -144l82 144h180l-158 -258l164 -270h-180l-87 153l-87 -153h-181z" />
    <glyph glyph-name="psi" unicode="&#x3c8;" horiz-adv-x="762" 
d="M30 287v241h166v-254c0 -89 34 -137 96 -159v413h168v-414c70 21 106 71 106 164c-1 88 -24 164 -51 233l-6 17h155c41 -61 68 -138 68 -238c0 -131 -57 -214 -151 -261c-34 -17 -75 -29 -121 -34v-228h-168v228c-163 22 -262 117 -262 292z" />
    <glyph glyph-name="omega" unicode="&#x3c9;" horiz-adv-x="823" 
d="M27 275c0 105 32 183 75 247l3 6h162l-9 -17c-35 -68 -62 -142 -65 -232c0 -60 11 -114 38 -140c8 -7 14 -10 27 -10c51 0 65 53 65 123v185h174v-185c0 -70 15 -123 66 -123c52 0 64 81 64 150c-3 90 -30 164 -65 232l-9 17h162l3 -5c44 -62 75 -145 75 -248
c0 -158 -59 -285 -225 -285c-76 0 -127 38 -158 90c-31 -52 -82 -90 -157 -90c-172 0 -226 130 -226 285z" />
    <glyph glyph-name="iotadieresis" unicode="&#x3ca;" horiz-adv-x="442" 
d="M21 644c0 46 38 75 81 75c44 0 79 -30 79 -75c0 -46 -36 -74 -79 -74c-44 0 -81 27 -81 74zM131 155v373h167l-1 -353c0 -32 8 -40 42 -40c8 0 14 1 21 2l33 3v-130c-31 -7 -58 -15 -98 -15c-108 0 -164 56 -164 160zM259 644c0 46 38 75 81 75c44 0 79 -30 79 -75
s-35 -75 -79 -75c-45 0 -81 29 -81 75z" />
    <glyph glyph-name="upsilondieresis" unicode="&#x3cb;" horiz-adv-x="537" 
d="M30 206v322h166v-318c0 -50 12 -81 49 -81c34 0 55 21 70 45c16 26 27 65 27 105c-1 87 -23 163 -50 233l-6 16h161l3 -7c35 -66 58 -147 58 -246c0 -166 -84 -285 -258 -285c-143 0 -220 78 -220 216zM62 652c0 46 38 75 81 75c44 0 79 -30 79 -75
c0 -46 -36 -74 -79 -74c-44 0 -81 27 -81 74zM300 652c0 46 38 75 81 75c44 0 79 -30 79 -75s-35 -75 -79 -75c-45 0 -81 29 -81 75z" />
    <glyph glyph-name="omicrontonos" unicode="&#x3cc;" horiz-adv-x="581" 
d="M26 259v9c0 123 58 210 151 249c33 15 70 21 111 21c130 0 212 -69 246 -163c11 -33 18 -68 18 -106v-9c0 -123 -58 -210 -151 -249c-33 -15 -71 -21 -112 -21c-130 0 -213 69 -247 163c-12 33 -16 68 -16 106zM192 259c0 -76 24 -130 97 -130c71 0 97 55 97 130v10
c0 75 -27 130 -98 130s-96 -56 -96 -130v-10zM220 588l41 194h158l-92 -194h-107z" />
    <glyph glyph-name="upsilontonos" unicode="&#x3cd;" horiz-adv-x="537" 
d="M30 206v322h166v-318c0 -50 12 -81 49 -81c34 0 55 21 70 45c16 26 27 65 27 105c-1 87 -23 163 -50 233l-6 16h161l3 -7c35 -66 58 -147 58 -246c0 -166 -84 -285 -258 -285c-143 0 -220 78 -220 216zM195 586l41 194h158l-92 -194h-107z" />
    <glyph glyph-name="omegatonos" unicode="&#x3ce;" horiz-adv-x="821" 
d="M26 275c0 105 31 183 74 247l3 6h162l-9 -17c-35 -68 -61 -142 -64 -232c0 -61 9 -114 36 -140c7 -7 15 -10 28 -10c51 0 66 53 66 123v185h174v-185c0 -70 14 -123 65 -123c52 0 65 81 65 150c-3 90 -31 164 -66 232l-9 17h162l3 -5c44 -62 76 -145 76 -248
c0 -158 -60 -285 -226 -285c-76 0 -127 38 -158 90c-31 -52 -82 -90 -157 -90c-172 0 -225 130 -225 285zM339 585l41 194h158l-92 -194h-107z" />
    <glyph glyph-name="uni03D1" unicode="&#x3d1;" horiz-adv-x="612" 
d="M27 236v132l158 1v-133c0 -63 36 -103 98 -103c51 0 74 39 74 99v32c-96 22 -170 75 -205 157c-12 28 -17 58 -17 89v11c0 94 47 158 120 186c25 10 53 14 81 14c129 0 193 -88 193 -210v-106c12 2 24 3 35 6l15 4l6 -139c-17 -6 -39 -11 -56 -15v-32
c0 -114 -62 -190 -150 -222c-31 -12 -65 -17 -103 -17c-119 0 -197 61 -232 148c-12 30 -17 63 -17 98zM295 508c0 -51 26 -84 62 -104v114c0 37 -8 52 -28 52c-23 0 -34 -16 -34 -50v-12z" />
    <glyph glyph-name="uni03D2" unicode="&#x3d2;" horiz-adv-x="688" 
d="M21 707l10 3c21 7 44 14 74 14c94 0 136 -55 162 -124l76 -202l76 198c26 71 70 128 161 128c34 0 61 -7 85 -18l-21 -132h-11c-8 0 -16 2 -21 2h-7c-21 0 -29 -9 -36 -26l-143 -321v-229h-170v236l-138 314c-10 19 -23 26 -38 26h-7c-5 0 -13 -2 -21 -2h-11z" />
    <glyph glyph-name="uni03D6" unicode="&#x3d6;" horiz-adv-x="890" 
d="M24 403v125h838v-125h-57c13 -39 21 -83 21 -132c0 -154 -56 -281 -220 -281c-79 0 -134 39 -165 92c-33 -54 -86 -92 -165 -92c-169 0 -220 130 -220 281c0 49 8 94 20 132h-52zM222 288c0 -63 8 -121 34 -148c7 -8 15 -11 25 -11c57 0 73 52 73 123v111h174v-111
c0 -72 16 -123 73 -123c51 0 59 97 59 159c-1 51 -11 99 -24 140h-391c-13 -43 -22 -89 -23 -140z" />
    <glyph glyph-name="uni0400" unicode="&#x400;" horiz-adv-x="570" 
d="M36 0v711h500v-144h-328v-131h280v-140h-280v-153h330v-143h-502zM86 903h189l113 -176h-145z" />
    <glyph glyph-name="uni0401" unicode="&#x401;" horiz-adv-x="570" 
d="M36 0v711h500v-144h-328v-131h280v-140h-280v-153h330v-143h-502zM96 808c0 46 37 74 80 74c44 0 80 -29 80 -74c0 -46 -37 -75 -80 -75c-44 0 -80 28 -80 75zM334 808c0 46 37 74 80 74c44 0 80 -29 80 -74s-36 -76 -80 -76c-45 0 -80 30 -80 76z" />
    <glyph glyph-name="uni0402" unicode="&#x402;" horiz-adv-x="782" 
d="M21 567v144h580v-144h-230v-129c33 7 68 12 106 12c122 0 214 -40 255 -127c14 -29 21 -64 21 -101c0 -111 -64 -178 -152 -210c-37 -13 -80 -20 -132 -20h-12v136h12c75 0 112 23 112 86c0 61 -42 92 -112 92c-38 0 -68 -4 -98 -9v-297h-172v567h-178z" />
    <glyph glyph-name="uni0403" unicode="&#x403;" horiz-adv-x="553" 
d="M36 0v711h490v-144h-318v-567h-172zM194 727l113 176h188l-157 -176h-144z" />
    <glyph glyph-name="uni0404" unicode="&#x404;" horiz-adv-x="664" 
d="M27 333v43c0 156 66 272 182 321c39 16 81 24 127 24c177 0 282 -101 297 -263l2 -14h-172v12c-5 81 -41 121 -127 121c-92 0 -125 -58 -134 -149h217v-144h-218c8 -94 40 -152 133 -152c86 0 120 39 128 118l1 11h171l-1 -13c-9 -122 -79 -204 -178 -239
c-36 -13 -76 -19 -121 -19c-155 0 -248 86 -286 201c-15 42 -21 90 -21 142z" />
    <glyph glyph-name="uni0405" unicode="&#x405;" horiz-adv-x="623" 
d="M23 236v13h172v-13c0 -78 45 -105 127 -105c59 0 99 19 99 66c0 42 -24 55 -62 71c-17 7 -40 15 -69 24c-90 28 -182 63 -226 142c-13 24 -19 53 -19 84c0 107 80 162 164 187c33 10 70 16 110 16c123 0 212 -53 253 -139c13 -29 21 -60 21 -94v-12h-172v12
c0 61 -38 91 -105 91c-60 0 -101 -20 -101 -68c0 -17 9 -32 31 -46s56 -28 102 -41c95 -28 189 -66 228 -152c11 -24 17 -51 17 -80c0 -107 -74 -164 -161 -188c-33 -9 -70 -14 -110 -14c-140 0 -249 61 -287 169c-8 23 -12 49 -12 77z" />
    <glyph glyph-name="uni0406" unicode="&#x406;" horiz-adv-x="246" 
d="M36 0v711h170v-711h-170z" />
    <glyph glyph-name="uni0407" unicode="&#x407;" horiz-adv-x="432" 
d="M16 808c0 46 37 74 80 74c44 0 80 -29 80 -74c0 -46 -37 -75 -80 -75c-44 0 -80 28 -80 75zM130 0v711h170v-711h-170zM254 808c0 46 37 74 80 74c44 0 80 -29 80 -74s-36 -76 -80 -76c-45 0 -80 30 -80 76z" />
    <glyph glyph-name="uni0408" unicode="&#x408;" horiz-adv-x="565" 
d="M25 222v13h172v-13c0 -62 21 -89 79 -89c52 0 79 36 79 94v484h172v-487c0 -112 -65 -186 -153 -217c-30 -10 -62 -17 -98 -17c-149 0 -251 80 -251 232z" />
    <glyph glyph-name="uni0409" unicode="&#x409;" horiz-adv-x="1088" 
d="M25 0v143h32c80 0 98 47 108 127c4 33 6 74 6 123v318h502v-229h103c128 0 225 -54 264 -144c13 -30 19 -62 19 -97c0 -119 -74 -192 -166 -223c-35 -12 -74 -18 -117 -18h-275v567h-158v-181c0 -216 -55 -386 -285 -386h-33zM673 143h103c69 0 111 36 111 99
c0 46 -27 75 -62 89c-13 5 -29 7 -49 7h-103v-195z" />
    <glyph glyph-name="uni040A" unicode="&#x40a;" horiz-adv-x="1053" 
d="M36 0v711h172v-287h260v287h170v-233h105c128 0 222 -55 262 -144c13 -29 19 -61 19 -95c0 -119 -72 -190 -164 -221c-35 -12 -74 -18 -117 -18h-275v280h-260v-280h-172zM638 144h105c69 0 111 34 111 96c0 46 -27 72 -62 86c-13 5 -30 8 -49 8h-105v-190z" />
    <glyph glyph-name="uni040B" unicode="&#x40b;" horiz-adv-x="778" 
d="M21 567v144h568v-144h-228v-107c32 4 65 8 94 8c172 0 290 -71 290 -243v-225h-172v223c0 79 -33 101 -118 101c-28 0 -65 -4 -94 -7v-317h-170v567h-170z" />
    <glyph glyph-name="uni040C" unicode="&#x40c;" horiz-adv-x="671" 
d="M36 0v711h172v-296l223 291l4 5h212l-264 -318l268 -393h-204l-178 277l-61 -66v-211h-172zM185 725l113 176h188l-157 -176h-144z" />
    <glyph glyph-name="uni040D" unicode="&#x40d;" horiz-adv-x="678" 
d="M36 0v711h170v-441l266 441h166v-711h-172v440l-265 -440h-165zM129 903h189l113 -176h-145z" />
    <glyph glyph-name="uni040E" unicode="&#x40e;" horiz-adv-x="681" 
d="M18 711h186l148 -317l121 317h187l-251 -570c-35 -78 -83 -151 -206 -151h-12c-10 0 -20 1 -28 1c-6 0 -17 2 -23 4l-3 139h13c6 0 7 -1 9 -1h10c6 0 10 -1 12 -1h8c48 0 63 20 75 57l10 24zM168 886v12h126v-12c0 -36 18 -52 56 -52s56 18 56 52v12h126v-12
c0 -79 -50 -126 -109 -146c-22 -7 -47 -12 -73 -12c-80 0 -143 35 -168 95c-9 19 -14 40 -14 63z" />
    <glyph glyph-name="uni040F" unicode="&#x40f;" horiz-adv-x="678" 
d="M36 0v711h172v-568h258v568h172v-711h-208v-176h-172v176h-222z" />
    <glyph glyph-name="uni0410" unicode="&#x410;" horiz-adv-x="742" 
d="M19 0l274 711h154l275 -711h-183l-49 146h-239l-49 -146h-183zM299 278h143l-72 213z" />
    <glyph glyph-name="uni0411" unicode="&#x411;" horiz-adv-x="625" 
d="M36 0v711h490v-144h-318v-99h105c126 0 221 -50 262 -137c14 -29 21 -60 21 -95c0 -119 -74 -189 -167 -219c-34 -11 -74 -17 -116 -17h-277zM208 143h105c69 0 111 33 111 94c0 59 -43 87 -111 87h-105v-181z" />
    <glyph glyph-name="uni0412" unicode="&#x412;" horiz-adv-x="618" 
d="M36 0v711h261c119 0 215 -30 257 -112c13 -25 20 -55 20 -88c0 -68 -35 -117 -82 -144c60 -26 98 -77 98 -153c0 -151 -114 -214 -270 -214h-284zM208 143h112c61 0 98 24 98 74c0 57 -28 81 -92 81h-118v-155zM208 426h95c63 1 99 20 99 69c0 56 -34 72 -105 72h-89
v-141z" />
    <glyph glyph-name="uni0413" unicode="&#x413;" horiz-adv-x="553" 
d="M36 0v711h490v-144h-318v-567h-172z" />
    <glyph glyph-name="uni0414" unicode="&#x414;" horiz-adv-x="799" 
d="M25 134h62c64 56 88 154 93 282l20 295h490v-568h83l-12 -318h-161v175h-402v-174h-164zM284 118h234v449h-156l-12 -161c-4 -115 -23 -213 -66 -288z" />
    <glyph glyph-name="uni0415" unicode="&#x415;" horiz-adv-x="570" 
d="M36 0v711h500v-144h-328v-131h280v-140h-280v-153h330v-143h-502z" />
    <glyph glyph-name="uni0416" unicode="&#x416;" horiz-adv-x="1070" 
d="M18 0l229 380l-219 331h212l158 -275h53v275h172v-275h52l154 275h212l-215 -330l225 -381h-213l-151 290h-64v-290h-172v278h-66l-155 -278h-212z" />
    <glyph glyph-name="uni0417" unicode="&#x417;" horiz-adv-x="616" 
d="M24 210v12h172v-12c0 -51 49 -77 105 -77c54 0 92 16 107 45v1c5 8 8 19 8 29c0 63 -35 84 -107 84h-99v140h99c64 0 95 21 95 76c0 48 -42 69 -103 69c-44 0 -75 -17 -89 -42c-5 -8 -8 -18 -8 -29v-12h-170v12c0 73 37 127 81 159c45 34 112 55 186 55
c119 0 214 -35 255 -117c13 -26 20 -56 20 -90c0 -73 -43 -119 -92 -147c62 -28 104 -79 104 -161c0 -114 -82 -175 -174 -200c-34 -9 -72 -14 -113 -14c-127 0 -231 50 -266 149c-7 21 -11 45 -11 70z" />
    <glyph glyph-name="uni0418" unicode="&#x418;" horiz-adv-x="678" 
d="M36 0v711h170v-441l266 441h166v-711h-172v440l-265 -440h-165z" />
    <glyph glyph-name="uni0419" unicode="&#x419;" horiz-adv-x="677" 
d="M36 0v711h170v-441l266 441h166v-711h-172v440l-265 -440h-165zM156 886v12h126v-12c0 -36 18 -52 56 -52s56 18 56 52v12h126v-12c0 -79 -50 -126 -109 -146c-22 -7 -47 -12 -73 -12c-80 0 -143 35 -168 95c-9 19 -14 40 -14 63z" />
    <glyph glyph-name="uni041A" unicode="&#x41a;" horiz-adv-x="678" 
d="M36 0v711h172v-273h47l174 273h208l-227 -337l250 -374h-204l-184 278h-64v-278h-172z" />
    <glyph glyph-name="uni041B" unicode="&#x41b;" horiz-adv-x="713" 
d="M25 0v143h31c45 4 63 18 76 52c7 18 13 44 16 76s6 73 9 122l14 318h502v-711h-172v567h-165l-8 -181c-6 -120 -19 -222 -67 -296c-38 -58 -96 -90 -187 -90h-49z" />
    <glyph glyph-name="uni041C" unicode="&#x41c;" horiz-adv-x="850" 
d="M36 0v711h213l174 -491l172 491h215v-711h-172v207l10 255l-167 -462h-118l-167 460l12 -253v-207h-172z" />
    <glyph glyph-name="uni041D" unicode="&#x41d;" horiz-adv-x="680" 
d="M36 0v711h172v-275h260v275h172v-711h-172v292h-260v-292h-172z" />
    <glyph glyph-name="uni041E" unicode="&#x41e;" horiz-adv-x="687" 
d="M26 340v30c0 161 69 275 187 326c39 16 81 25 128 25c102 0 177 -40 227 -95c54 -60 88 -147 88 -256v-30c0 -162 -69 -275 -187 -326c-39 -16 -80 -24 -127 -24c-101 0 -178 40 -228 95c-54 59 -88 147 -88 255zM198 340c0 -93 26 -163 84 -192c17 -8 37 -13 60 -13
c103 0 140 87 140 205v31c0 118 -37 204 -141 204c-103 0 -143 -86 -143 -204v-31z" />
    <glyph glyph-name="uni041F" unicode="&#x41f;" horiz-adv-x="680" 
d="M36 0v711h604v-711h-172v567h-260v-567h-172z" />
    <glyph glyph-name="uni0420" unicode="&#x420;" horiz-adv-x="635" 
d="M36 0v711h290c129 0 222 -54 261 -145c13 -30 19 -62 19 -96c0 -119 -70 -187 -163 -216c-35 -11 -74 -16 -117 -16h-118v-238h-172zM208 382h118c69 0 106 27 106 87c0 62 -38 98 -106 98h-118v-185z" />
    <glyph glyph-name="uni0421" unicode="&#x421;" horiz-adv-x="664" 
d="M27 333v44c0 156 66 271 182 320c38 16 80 24 126 24c179 0 280 -101 298 -262l2 -14h-173v12c-5 81 -41 119 -127 119c-104 0 -134 -77 -134 -198v-45c0 -115 24 -198 132 -198c86 0 123 36 128 115v12h172l-1 -13c-9 -124 -78 -204 -178 -240c-36 -13 -76 -19 -121 -19
c-156 0 -247 87 -285 202c-15 42 -21 89 -21 141z" />
    <glyph glyph-name="uni0422" unicode="&#x422;" horiz-adv-x="651" 
d="M21 567v144h604v-144h-218v-567h-172v567h-214z" />
    <glyph glyph-name="uni0423" unicode="&#x423;" horiz-adv-x="681" 
d="M18 711h186l148 -317l121 317h187l-251 -570c-35 -78 -83 -151 -206 -151h-12c-10 0 -21 1 -29 1c-7 0 -16 2 -22 4l-3 139h13c6 0 6 -1 8 -1h11c6 0 10 -1 12 -1h8c48 0 63 20 75 57l10 24z" />
    <glyph glyph-name="uni0424" unicode="&#x424;" horiz-adv-x="828" 
d="M25 351c0 143 79 238 189 278c36 13 75 20 115 21v90h166v-90c142 -4 238 -74 281 -175c16 -37 23 -78 23 -123c0 -141 -81 -234 -189 -273c-36 -13 -75 -19 -115 -20v-88h-166v88c-142 3 -238 72 -281 172c-16 37 -23 76 -23 120zM189 351c0 -97 48 -151 140 -154v316
c-94 -4 -140 -63 -140 -162zM495 197c93 4 140 58 140 155c0 100 -47 157 -140 161v-316z" />
    <glyph glyph-name="uni0425" unicode="&#x425;" horiz-adv-x="696" 
d="M18 0l219 358l-214 353h198l126 -231l126 231h198l-214 -353l219 -358h-199l-130 236l-130 -236h-199z" />
    <glyph glyph-name="uni0426" unicode="&#x426;" horiz-adv-x="763" 
d="M36 0v711h172v-568h258v568h172v-568h98l-10 -314h-162v171h-528z" />
    <glyph glyph-name="uni0427" unicode="&#x427;" horiz-adv-x="655" 
d="M25 486v225h172v-223c0 -82 39 -102 118 -102c44 0 90 4 128 12v313h172v-711h-172v255c-41 -7 -83 -13 -128 -13c-171 0 -290 73 -290 244z" />
    <glyph glyph-name="uni0428" unicode="&#x428;" horiz-adv-x="934" 
d="M36 0v711h172v-568h172v568h172v-568h170v568h172v-711h-858z" />
    <glyph glyph-name="uni0429" unicode="&#x429;" horiz-adv-x="1015" 
d="M36 0v711h172v-568h172v568h172v-568h170v568h172v-582h95l-11 -300h-156v171h-786z" />
    <glyph glyph-name="uni042A" unicode="&#x42a;" horiz-adv-x="804" 
d="M21 572v139h366v-243h105c126 0 221 -50 262 -137c14 -29 21 -60 21 -95c0 -119 -74 -189 -167 -219c-34 -11 -74 -17 -116 -17h-277v572h-194zM387 143h105c69 0 111 33 111 94c0 59 -43 87 -111 87h-105v-181z" />
    <glyph glyph-name="uni042B" unicode="&#x42b;" horiz-adv-x="842" 
d="M36 0v711h172v-243h104c125 0 221 -49 262 -137c13 -29 20 -60 20 -95c0 -119 -72 -189 -165 -219c-34 -11 -74 -17 -117 -17h-276zM208 143h104c69 0 110 33 110 94c0 59 -42 87 -110 87h-104v-181zM630 0v711h172v-711h-172z" />
    <glyph glyph-name="uni042C" unicode="&#x42c;" horiz-adv-x="625" 
d="M36 0v711h172v-243h105c126 0 221 -50 262 -137c14 -29 21 -60 21 -95c0 -119 -74 -189 -167 -219c-34 -11 -74 -17 -116 -17h-277zM208 143h105c69 0 111 33 111 94c0 59 -43 87 -111 87h-105v-181z" />
    <glyph glyph-name="uni042D" unicode="&#x42d;" horiz-adv-x="663" 
d="M25 444l2 14c11 122 75 206 175 243c36 14 76 20 122 20c155 0 248 -88 286 -203c14 -42 21 -90 21 -142v-43c0 -157 -62 -269 -178 -319c-38 -16 -81 -24 -127 -24c-136 0 -229 58 -272 154c-15 31 -23 66 -26 103l-2 14h171l1 -11c8 -79 42 -118 128 -118
c93 0 125 61 133 157h-224v139h223c-9 92 -43 149 -134 149c-86 0 -121 -40 -126 -121v-12h-173z" />
    <glyph glyph-name="uni042E" unicode="&#x42e;" horiz-adv-x="923" 
d="M36 0v711h172v-303h54c9 141 80 245 191 290c38 15 78 23 123 23c102 0 177 -40 227 -95c54 -60 89 -147 89 -256v-30c0 -161 -70 -275 -188 -326c-39 -16 -80 -24 -127 -24c-142 0 -233 77 -279 177c-16 34 -27 74 -33 116h-57v-283h-172zM434 340
c0 -94 26 -164 83 -192c17 -9 37 -13 60 -13c103 0 141 87 141 205v31c0 118 -38 204 -142 204c-103 0 -142 -87 -142 -204v-31z" />
    <glyph glyph-name="uni042F" unicode="&#x42f;" horiz-adv-x="643" 
d="M18 0l156 300c-63 37 -107 95 -107 186c0 156 118 225 276 225h260v-711h-172v244h-98l-128 -244h-187zM239 474c0 -68 31 -94 104 -94h88v187h-88c-71 0 -104 -29 -104 -93z" />
    <glyph glyph-name="uni0430" unicode="&#x430;" horiz-adv-x="547" 
d="M25 155c0 137 122 181 257 181h51v14c0 39 -20 59 -66 59c-40 0 -64 -18 -64 -51v-13h-166v13c0 58 32 100 66 127c42 33 101 53 172 53c101 0 174 -37 207 -107c12 -24 17 -52 17 -83v-214c0 -46 6 -80 20 -109l2 -3v-22h-163c-5 10 -12 23 -15 34
c-30 -27 -71 -44 -125 -44c-85 0 -148 42 -177 99c-10 20 -16 42 -16 66zM191 166c0 -26 24 -43 58 -43c40 0 70 16 84 37v68h-46c-59 0 -96 -18 -96 -62z" />
    <glyph glyph-name="uni0431" unicode="&#x431;" horiz-adv-x="580" 
d="M27 265v26c0 166 42 295 147 363c30 21 65 35 102 42c47 11 89 15 89 52v13h140v-13c0 -132 -93 -166 -198 -187c-68 -14 -107 -45 -128 -99c36 25 79 40 136 40c117 0 192 -65 220 -151c10 -30 16 -63 16 -98v-9c0 -118 -59 -199 -150 -234c-33 -14 -70 -20 -111 -20
c-131 0 -212 69 -245 166c-11 33 -18 70 -18 109zM193 254c0 -77 26 -125 97 -125c69 0 95 48 95 125v10c0 74 -28 121 -96 121s-96 -47 -96 -121v-10z" />
    <glyph glyph-name="uni0432" unicode="&#x432;" horiz-adv-x="559" 
d="M36 0v528h233c96 0 182 -21 219 -85c11 -20 16 -41 16 -67c0 -49 -31 -84 -68 -103c52 -17 96 -54 96 -117c0 -121 -110 -156 -229 -156h-267zM202 138h101c43 0 63 8 63 33s-20 35 -63 35h-101v-68zM202 326h75c43 0 61 8 61 30c0 27 -21 34 -69 34h-67v-64z" />
    <glyph glyph-name="uni0433" unicode="&#x433;" horiz-adv-x="453" 
d="M36 0v528h384v-139h-218v-389h-166z" />
    <glyph glyph-name="uni0434" unicode="&#x434;" horiz-adv-x="677" 
d="M26 139h53c39 39 65 78 73 143c3 20 4 43 5 70l2 176h413v-389h76v-298h-166v159h-288v-159h-168v298zM271 114h135v273h-83l-1 -47c-4 -91 -20 -166 -51 -226z" />
    <glyph glyph-name="uni0435" unicode="&#x435;" horiz-adv-x="564" 
d="M27 246v18c0 123 60 214 153 253c32 14 67 21 107 21c164 0 246 -108 246 -263v-69h-335c12 -47 49 -77 114 -77c56 0 92 21 117 54l9 12l86 -97l-6 -8c-43 -59 -114 -100 -216 -100c-132 0 -219 65 -256 157c-13 31 -19 64 -19 99zM200 314h168c0 55 -28 85 -82 85
c-53 0 -77 -35 -86 -85z" />
    <glyph glyph-name="uni0436" unicode="&#x436;" horiz-adv-x="906" 
d="M19 0l174 275l-173 253h205l110 -197h31v197h168v-184h32l111 184h204l-171 -249l175 -279h-203l-105 196h-43v-196h-168v184h-43l-105 -184h-199z" />
    <glyph glyph-name="uni0437" unicode="&#x437;" horiz-adv-x="526" 
d="M25 168v13h166v-13c0 -31 31 -47 73 -47s67 15 67 45c0 35 -19 46 -67 46h-89v116h89c42 0 59 11 59 39c0 27 -20 39 -59 39s-65 -14 -65 -42v-13h-166v13c0 92 68 143 139 163c27 7 55 11 85 11c97 0 179 -26 215 -90c11 -20 17 -43 17 -69c0 -49 -31 -84 -66 -106
c45 -22 74 -60 74 -119c0 -58 -31 -97 -69 -122c-43 -28 -102 -42 -171 -42c-95 0 -174 35 -212 98c-14 23 -20 49 -20 80z" />
    <glyph glyph-name="uni0438" unicode="&#x438;" horiz-adv-x="559" 
d="M36 0v528h166v-288l158 288h160v-528h-166v289l-157 -289h-161z" />
    <glyph glyph-name="uni0439" unicode="&#x439;" horiz-adv-x="556" 
d="M34 0v528h166v-288l158 288h160v-528h-166v289l-157 -289h-161zM98 730v13h124v-13c0 -36 19 -51 57 -51s55 17 55 51v13h126v-13c0 -79 -49 -125 -108 -145c-22 -7 -47 -12 -73 -12c-80 0 -143 34 -168 94c-9 20 -13 40 -13 63z" />
    <glyph glyph-name="uni043A" unicode="&#x43a;" horiz-adv-x="593" 
d="M36 0v528h166v-198h31l115 198h209l-182 -252l198 -276h-219l-115 195h-37v-195h-166z" />
    <glyph glyph-name="uni043B" unicode="&#x43b;" horiz-adv-x="594" 
d="M25 141h28c50 0 57 29 62 83c2 22 4 49 5 81l10 223h425v-528h-166v389h-98l-5 -93c-7 -159 -38 -296 -223 -296h-35z" />
    <glyph glyph-name="uni043C" unicode="&#x43c;" horiz-adv-x="727" 
d="M36 0v528h197l128 -338l129 338h198v-528h-166v270l-105 -270h-112l-103 265v-265h-166z" />
    <glyph glyph-name="uni043D" unicode="&#x43d;" horiz-adv-x="557" 
d="M36 0v528h166v-200h150v200h166v-528h-166v190h-150v-190h-166z" />
    <glyph glyph-name="uni043E" unicode="&#x43e;" horiz-adv-x="584" 
d="M27 259v9c0 123 59 210 152 249c33 15 70 21 111 21c130 0 212 -69 246 -163c11 -33 17 -68 17 -106v-9c0 -123 -57 -210 -150 -249c-33 -15 -71 -21 -112 -21c-130 0 -213 69 -247 163c-12 33 -17 68 -17 106zM193 259c0 -76 25 -130 98 -130c71 0 96 55 96 130v10
c0 75 -26 130 -97 130s-97 -56 -97 -130v-10z" />
    <glyph glyph-name="uni043F" unicode="&#x43f;" horiz-adv-x="559" 
d="M36 0v528h484v-528h-166v389h-152v-389h-166z" />
    <glyph glyph-name="uni0440" unicode="&#x440;" 
d="M35 -203v731h155l4 -35c31 28 69 45 124 45c118 0 179 -72 204 -160c9 -33 15 -69 15 -108v-10c0 -115 -43 -206 -124 -248c-27 -15 -60 -22 -94 -22c-50 0 -90 17 -118 40v-233h-166zM201 168c14 -24 38 -39 81 -39c67 0 89 58 89 130v10c0 72 -23 129 -90 129
c-43 0 -65 -14 -80 -37v-193z" />
    <glyph glyph-name="uni0441" unicode="&#x441;" horiz-adv-x="547" 
d="M27 257v13c0 120 53 208 144 247c32 15 70 21 112 21c108 0 182 -50 215 -128c12 -28 17 -57 17 -90v-13h-156v13c0 48 -31 79 -78 79c-70 0 -88 -54 -88 -129v-12c0 -76 16 -129 89 -129c48 0 74 24 77 67v12h156v-12c0 -65 -32 -117 -68 -149c-38 -34 -95 -57 -163 -57
c-130 0 -210 68 -241 163c-10 32 -16 68 -16 104z" />
    <glyph glyph-name="uni0442" unicode="&#x442;" horiz-adv-x="559" 
d="M25 390v138h502v-138h-170v-390h-166v390h-166z" />
    <glyph glyph-name="uni0443" unicode="&#x443;" horiz-adv-x="576" 
d="M19 528h179l89 -297l89 297h178l-217 -599c-26 -74 -74 -142 -181 -142c-29 0 -53 4 -74 13v128h12c8 0 15 -1 21 -1c49 0 69 14 80 48v1l15 36z" />
    <glyph glyph-name="uni0444" unicode="&#x444;" horiz-adv-x="747" 
d="M27 250v10c0 115 36 213 118 256c26 15 58 22 91 22c19 0 37 -3 51 -8v220h168v-221c16 5 33 9 53 9c117 0 172 -81 195 -168c8 -33 14 -69 14 -109v-10c0 -111 -38 -198 -118 -239c-26 -14 -56 -22 -90 -22c-19 0 -39 3 -54 8v-201h-168v201c-16 -5 -33 -8 -52 -8
c-112 0 -170 75 -194 158c-9 32 -14 65 -14 102zM193 251c0 -69 16 -122 78 -122c5 0 11 1 16 1v267c-7 1 -10 2 -15 2c-62 0 -79 -67 -79 -139v-9zM455 129c5 -1 10 0 16 0h1c61 0 79 54 79 122v9c0 60 -14 107 -45 129c-10 7 -20 10 -35 10c-6 0 -12 0 -16 -1v-269z" />
    <glyph glyph-name="uni0445" unicode="&#x445;" horiz-adv-x="576" 
d="M19 0l165 270l-158 258h180l80 -144l82 144h180l-158 -258l164 -270h-180l-87 153l-87 -153h-181z" />
    <glyph glyph-name="uni0446" unicode="&#x446;" horiz-adv-x="628" 
d="M36 0v528h166v-389h152v389h168v-390h79l-11 -295h-156v157h-398z" />
    <glyph glyph-name="uni0447" unicode="&#x447;" horiz-adv-x="549" 
d="M28 354v174h166v-171c0 -58 25 -73 89 -73c23 0 43 4 61 7v237h166v-528h-166v151c-20 -3 -40 -5 -61 -5c-149 0 -255 59 -255 208z" />
    <glyph glyph-name="uni0448" unicode="&#x448;" horiz-adv-x="813" 
d="M36 0v528h166v-389h120v389h166v-389h120v389h166v-528h-738z" />
    <glyph glyph-name="uni0449" unicode="&#x449;" horiz-adv-x="907" 
d="M36 0v528h166v-389h120v389h166v-389h120v389h166v-390h106l-11 -295h-155v157h-678z" />
    <glyph glyph-name="uni044A" unicode="&#x44a;" horiz-adv-x="698" 
d="M25 389v139h316v-142h88c107 0 188 -40 223 -115c11 -24 17 -50 17 -79c0 -98 -64 -154 -140 -178c-29 -9 -63 -14 -100 -14h-254v389h-150zM341 138h88c47 0 74 17 74 54c0 38 -25 56 -74 56h-88v-110z" />
    <glyph glyph-name="uni044B" unicode="&#x44b;" horiz-adv-x="795" 
d="M36 0v528h166v-142h88c107 0 189 -39 224 -115c11 -24 16 -50 16 -79c0 -98 -63 -154 -139 -178c-30 -9 -64 -14 -101 -14h-254zM202 138h88c47 0 74 17 74 54c0 38 -25 56 -74 56h-88v-110zM590 0v528h166v-528h-166z" />
    <glyph glyph-name="uni044C" unicode="&#x44c;" horiz-adv-x="559" 
d="M36 0v528h166v-142h88c107 0 189 -39 224 -115c11 -24 16 -50 16 -79c0 -98 -63 -154 -139 -178c-30 -9 -64 -14 -101 -14h-254zM202 138h88c47 0 74 17 74 54c0 38 -25 56 -74 56h-88v-110z" />
    <glyph glyph-name="uni044D" unicode="&#x44d;" horiz-adv-x="544" 
d="M27 208v13h158v-13c0 -49 25 -79 72 -79c56 0 77 37 86 88h-140v105h139c-10 46 -30 77 -86 77c-43 0 -71 -24 -71 -65v-13h-158v13c0 100 67 161 140 188c27 11 57 16 89 16c129 0 209 -69 240 -164c10 -32 17 -66 17 -103v-13c0 -121 -57 -207 -147 -246
c-32 -15 -69 -22 -109 -22c-105 0 -182 50 -214 128c-11 27 -16 57 -16 90z" />
    <glyph glyph-name="uni044E" unicode="&#x44e;" horiz-adv-x="805" 
d="M36 0v528h166v-190h52c18 89 74 154 158 184c30 11 62 16 98 16c130 0 212 -69 246 -163c11 -33 18 -68 18 -106v-9c0 -123 -59 -210 -152 -249c-33 -15 -70 -21 -111 -21c-119 0 -193 58 -232 139c-12 25 -21 53 -26 83h-51v-212h-166zM414 259c0 -75 25 -130 97 -130
c71 0 97 55 97 130v10c0 75 -27 130 -98 130c-70 0 -96 -57 -96 -130v-10z" />
    <glyph glyph-name="uni044F" unicode="&#x44f;" horiz-adv-x="566" 
d="M19 0l119 204c-52 27 -93 74 -93 144c0 92 65 145 139 167c29 9 62 13 98 13h245v-528h-166v170h-69l-102 -170h-171zM211 341c0 -29 28 -47 68 -47h82v96h-79c-42 0 -71 -18 -71 -49z" />
    <glyph glyph-name="uni0450" unicode="&#x450;" horiz-adv-x="561" 
d="M27 246v18c0 123 59 214 152 253c32 14 67 21 107 21c164 0 245 -108 245 -263v-69h-334c12 -47 49 -77 114 -77c56 0 92 21 117 54l9 12l86 -97l-6 -8c-43 -59 -114 -100 -216 -100c-132 0 -219 65 -256 157c-13 31 -18 64 -18 99zM61 750h189l113 -176h-145zM199 314
h168c0 55 -28 85 -82 85c-53 0 -77 -35 -86 -85z" />
    <glyph glyph-name="uni0451" unicode="&#x451;" horiz-adv-x="561" 
d="M27 246v18c0 123 59 214 152 253c32 14 67 21 107 21c164 0 245 -108 245 -263v-69h-334c12 -47 49 -77 114 -77c56 0 92 21 117 54l9 12l86 -97l-6 -8c-43 -59 -114 -100 -216 -100c-132 0 -219 65 -256 157c-13 31 -18 64 -18 99zM69 654c0 46 38 75 81 75
c44 0 79 -30 79 -75c0 -46 -36 -74 -79 -74c-44 0 -81 27 -81 74zM199 314h168c0 55 -28 85 -82 85c-53 0 -77 -35 -86 -85zM307 654c0 46 38 75 81 75c44 0 79 -30 79 -75s-35 -75 -79 -75c-45 0 -81 29 -81 75z" />
    <glyph glyph-name="uni0452" unicode="&#x452;" horiz-adv-x="615" 
d="M20 556v114h78v80h166v-80h122v-114h-122v-66c32 29 73 48 128 48c133 0 186 -83 186 -208v-86h2v-248c0 -128 -69 -209 -199 -209c-29 0 -48 2 -73 8l-10 3l8 137l15 -4c14 -4 29 -6 46 -6c32 0 45 25 45 71v330c0 53 -17 72 -71 72c-40 0 -62 -15 -77 -37v-361h-166
v556h-78z" />
    <glyph glyph-name="uni0453" unicode="&#x453;" horiz-adv-x="449" 
d="M34 0v528h384v-139h-218v-389h-166zM109 572l113 176h188l-157 -176h-144z" />
    <glyph glyph-name="uni0454" unicode="&#x454;" horiz-adv-x="547" 
d="M27 257v13c0 119 55 209 145 247c32 15 69 21 111 21c108 0 183 -50 216 -128c12 -28 16 -58 16 -90v-13h-156v13c0 48 -31 79 -78 79c-59 0 -78 -37 -85 -92h149v-105h-148c8 -45 29 -73 85 -73c48 0 74 24 77 67v12h156v-12c0 -65 -32 -116 -68 -148
c-38 -34 -95 -58 -163 -58c-130 0 -210 69 -241 164c-10 32 -16 67 -16 103z" />
    <glyph glyph-name="uni0455" unicode="&#x455;" horiz-adv-x="529" 
d="M23 180v13h159v-12c3 -45 34 -66 85 -66c44 0 70 14 70 41c0 24 -17 30 -46 40c-13 4 -30 8 -52 12c-75 15 -149 42 -183 101c-10 18 -15 39 -15 62c0 52 28 92 60 118c39 31 95 49 163 49c103 0 180 -37 216 -109c11 -23 17 -46 17 -73v-13h-166v13c0 38 -22 57 -68 57
c-39 0 -62 -16 -62 -43c0 -20 18 -29 44 -37c34 -11 88 -18 126 -30c48 -15 87 -41 111 -80c11 -19 17 -42 17 -68c0 -55 -30 -94 -65 -119c-42 -29 -100 -46 -170 -46c-107 0 -189 46 -224 121c-11 23 -17 46 -17 69z" />
    <glyph glyph-name="uni0456" unicode="&#x456;" horiz-adv-x="244" 
d="M29 652c0 51 39 86 91 86s91 -33 91 -86s-39 -85 -91 -85c-51 0 -91 31 -91 85zM37 0v528h166v-528h-166z" />
    <glyph glyph-name="uni0457" unicode="&#x457;" horiz-adv-x="440" 
d="M19 648c0 46 38 74 81 74c44 0 79 -29 79 -74c0 -46 -36 -75 -79 -75c-44 0 -81 28 -81 75zM135 0v528h166v-528h-166zM257 648c0 46 38 74 81 74c44 0 79 -29 79 -74s-35 -76 -79 -76c-45 0 -81 30 -81 76z" />
    <glyph glyph-name="uni0458" unicode="&#x458;" horiz-adv-x="332" 
d="M17 -65l16 -3c13 -3 26 -5 41 -5c37 0 51 17 51 57v544h168v-544c0 -123 -71 -197 -194 -197c-27 0 -50 3 -72 8l-10 3v137zM115 652c0 52 39 86 91 86s91 -34 91 -86c0 -54 -40 -85 -91 -85s-91 31 -91 85z" />
    <glyph glyph-name="uni0459" unicode="&#x459;" horiz-adv-x="908" 
d="M25 138l28 2c24 0 43 10 55 36c13 26 19 70 19 129v223h424v-154h87c107 0 188 -37 224 -111c11 -23 17 -48 17 -76c0 -96 -64 -150 -140 -173c-29 -9 -64 -14 -101 -14h-255v389h-88v-93c0 -167 -48 -296 -232 -296h-35zM551 138h87c47 0 75 16 75 50
c0 33 -28 48 -75 48h-87v-98z" />
    <glyph glyph-name="uni045A" unicode="&#x45a;" horiz-adv-x="875" 
d="M36 0v528h166v-192h150v192h166v-154h88c106 0 189 -37 224 -111c11 -23 16 -48 16 -76c0 -96 -63 -150 -139 -173c-29 -9 -63 -14 -101 -14h-254v198h-150v-198h-166zM518 138h88c47 0 74 16 74 50c0 33 -27 48 -74 48h-88v-98z" />
    <glyph glyph-name="uni045B" unicode="&#x45b;" horiz-adv-x="607" 
d="M20 561v115h70v74h166v-74h132v-115h-132v-71c32 29 74 48 129 48c133 0 187 -83 187 -208v-330h-166v326c0 53 -18 72 -72 72c-40 0 -63 -15 -78 -37v-361h-166v561h-70z" />
    <glyph glyph-name="uni045C" unicode="&#x45c;" horiz-adv-x="590" 
d="M34 0v528h168v-198h30l115 198h209l-182 -252l198 -276h-219l-115 195h-36v-195h-168zM176 572l113 176h188l-157 -176h-144z" />
    <glyph glyph-name="uni045D" unicode="&#x45d;" horiz-adv-x="556" 
d="M34 0v528h166v-288l158 288h160v-528h-166v289l-157 -289h-161zM70 748h189l113 -176h-145z" />
    <glyph glyph-name="uni045E" unicode="&#x45e;" horiz-adv-x="574" 
d="M18 528h179l89 -297l89 297h178l-217 -599c-26 -74 -74 -142 -181 -142c-29 0 -53 5 -75 13v128h13c8 0 15 -1 21 -1c49 0 69 14 80 48v1l15 36zM108 732v13h126v-13c0 -36 18 -51 56 -51s56 17 56 51v13h126v-13c0 -79 -50 -125 -109 -145c-22 -7 -47 -12 -73 -12
c-80 0 -143 34 -168 94c-9 20 -14 40 -14 63z" />
    <glyph glyph-name="uni045F" unicode="&#x45f;" horiz-adv-x="560" 
d="M35 0v528h166v-414h152v414h168v-528h-160v-175h-166v175h-160z" />
    <glyph glyph-name="uni0460" unicode="&#x460;" horiz-adv-x="920" 
d="M32 231v480h172v-476c0 -63 24 -103 82 -103c59 0 84 36 84 103v476h174v-476c0 -64 24 -103 84 -103c58 0 82 36 82 103v476h172v-480c0 -118 -60 -194 -153 -225c-31 -10 -65 -16 -101 -16c-76 0 -134 28 -171 71c-38 -44 -96 -71 -171 -71c-119 0 -200 52 -236 137
c-13 31 -18 65 -18 104z" />
    <glyph glyph-name="uni0461" unicode="&#x461;" horiz-adv-x="825" 
d="M31 220v308h166v-303c0 -60 16 -96 60 -96c52 0 72 33 72 96v303h166v-303c0 -63 15 -96 66 -96c47 0 62 34 62 96v303h166v-308c0 -110 -52 -183 -138 -214c-27 -11 -58 -16 -90 -16c-67 0 -117 26 -150 63c-35 -39 -86 -63 -154 -63c-110 0 -178 53 -209 132
c-12 28 -17 62 -17 98z" />
    <glyph glyph-name="uni0462" unicode="&#x462;" horiz-adv-x="692" 
d="M19 514v110h84v87h172v-86h110v-108h-110v-49h105c126 0 221 -50 262 -137c14 -29 21 -60 21 -95c0 -119 -74 -189 -167 -219c-34 -11 -74 -17 -116 -17h-277v514h-84zM275 143h105c69 0 111 33 111 94c0 59 -43 87 -111 87h-105v-181z" />
    <glyph glyph-name="uni0463" unicode="&#x463;" horiz-adv-x="621" 
d="M20 503v115h76v144h168v-144h124v-115h-124v-105h87c108 0 189 -40 224 -117c11 -25 17 -52 17 -81c0 -100 -62 -161 -140 -186c-30 -10 -64 -14 -101 -14h-255v503h-76zM264 138h87c50 0 75 19 75 61c0 41 -26 61 -75 61h-87v-122z" />
    <glyph glyph-name="uni0464" unicode="&#x464;" horiz-adv-x="901" 
d="M36 0v711h172v-279h60c13 131 78 225 186 267c37 15 77 22 120 22c178 0 282 -100 297 -262l2 -14h-172v12c-5 81 -41 119 -127 119c-90 0 -123 -57 -132 -149h208v-133h-210c6 -98 37 -159 132 -159c86 0 120 37 128 116l1 11h170l-1 -13c-9 -123 -77 -204 -177 -239
c-35 -13 -76 -19 -121 -19c-149 0 -239 81 -280 191c-14 37 -22 80 -25 124h-59v-306h-172z" />
    <glyph glyph-name="uni0465" unicode="&#x465;" horiz-adv-x="761" 
d="M36 0v528h166v-206h43c14 97 66 165 149 197c30 13 65 19 103 19c107 0 183 -50 215 -128c12 -28 16 -58 17 -90l1 -13h-158v13c0 49 -30 79 -78 79c-56 0 -75 -34 -84 -84h158v-107h-158c7 -49 27 -79 85 -79c46 0 77 24 77 67v12h158v-12c0 -66 -32 -117 -69 -149
c-38 -33 -95 -57 -163 -57c-154 0 -236 96 -254 230h-42v-220h-166z" />
    <glyph glyph-name="uni0466" unicode="&#x466;" horiz-adv-x="728" 
d="M19 0l260 711h170l259 -711h-181l-68 205h-25v-205h-146v205h-21l-67 -205h-181zM308 318h110l-55 167z" />
    <glyph glyph-name="uni0467" unicode="&#x467;" horiz-adv-x="621" 
d="M19 0l209 528h163l209 -528h-171l-47 131h-16v-131h-118v131h-12l-46 -131h-171zM276 236h66l-30 87l-3 12c-9 -35 -22 -66 -33 -99z" />
    <glyph glyph-name="uni0468" unicode="&#x468;" horiz-adv-x="940" 
d="M36 0v711h170v-393h142l143 393h170l259 -711h-181l-67 205h-26v-205h-146v192h-21l-67 -192h-181l73 192h-98v-192h-170zM520 318h110l-54 167z" />
    <glyph glyph-name="uni0469" unicode="&#x469;" horiz-adv-x="812" 
d="M36 0v528h166v-280h101l116 280h163l209 -528h-171l-47 131h-15v-131h-120v118h-11l-46 -118h-171l50 132h-58v-132h-166zM467 235l65 1l-30 87l-2 10c-10 -34 -22 -65 -33 -98z" />
    <glyph glyph-name="uni046A" unicode="&#x46a;" horiz-adv-x="852" 
d="M30 0v171c0 160 96 222 249 230l-182 310h672l-182 -311c144 -10 233 -78 233 -229v-171h-172v168c0 70 -29 90 -105 90h-25v-258h-172v258h-40c-75 0 -104 -20 -104 -90v-168h-172zM362 566l71 -138l71 138h-142z" />
    <glyph glyph-name="uni046B" unicode="&#x46b;" horiz-adv-x="706" 
d="M27 0v96c0 128 67 193 183 210l-135 222h562l-135 -223c112 -18 175 -85 175 -209v-96h-166v100c0 65 -17 89 -74 91v-191h-166v191c-61 -1 -78 -25 -78 -91v-100h-166zM315 410l41 -87l42 87h-83z" />
    <glyph glyph-name="uni046C" unicode="&#x46c;" horiz-adv-x="1128" 
d="M36 0v711h170v-305h350l-181 305h673l-184 -311c145 -10 232 -77 232 -229v-171h-170v168c0 70 -30 90 -105 90h-27v-258h-170v258h-41c-75 0 -105 -21 -105 -90v-168h-170v176c0 38 4 72 14 101h-116v-277h-170zM640 578l71 -138l71 139z" />
    <glyph glyph-name="uni046D" unicode="&#x46d;" horiz-adv-x="977" 
d="M36 0v528h166v-216h275l-133 216h563l-135 -223c112 -18 176 -85 176 -209v-96h-166v100c0 50 -13 78 -44 86c-9 2 -20 5 -30 5v-191h-166v191c-62 -1 -78 -24 -78 -91v-100h-166v100c0 36 4 69 13 96h-109v-196h-166zM585 422l41 -86l41 87z" />
    <glyph glyph-name="uni046E" unicode="&#x46e;" horiz-adv-x="531" 
d="M20 -25c0 112 82 157 188 157h30c59 0 100 24 100 72c0 62 -44 88 -121 88h-83v144h86c62 0 96 19 96 69c0 45 -36 64 -99 64h-141v142h141c143 0 265 -48 265 -192c0 -76 -38 -125 -91 -153c66 -28 113 -78 113 -162c0 -111 -66 -173 -154 -199c-31 -9 -66 -15 -104 -15
h-28c-31 0 -44 -10 -44 -34c0 -36 33 -49 65 -65l10 -6l-49 -106l-10 2c-95 22 -167 80 -170 194zM64 919v22h139l67 -64l66 64h138v-23l-155 -144h-99z" />
    <glyph glyph-name="uni046F" unicode="&#x46f;" horiz-adv-x="506" 
d="M20 -25c0 102 77 142 173 142h27c54 0 94 15 94 43c0 34 -41 46 -101 46h-89v112h92c48 0 78 13 78 45c0 11 -6 19 -19 26s-35 11 -69 11h-140v128h140c100 0 191 -19 233 -82c13 -19 21 -42 21 -68c0 -55 -31 -91 -68 -112c48 -19 88 -53 88 -113
c0 -90 -68 -135 -143 -153c-29 -7 -61 -10 -95 -10h-24c-36 0 -50 -10 -50 -34c0 -36 26 -49 56 -66l11 -6l-51 -98l-10 4c-78 26 -151 82 -154 185zM44 730v22h138l67 -64l66 64h139v-23l-156 -144h-99z" />
    <glyph glyph-name="uni0470" unicode="&#x470;" horiz-adv-x="758" 
d="M25 481v230h172v-239c0 -88 33 -140 96 -158v397h170v-398c63 18 90 68 90 159v239h172v-230c0 -174 -103 -274 -262 -296v-185h-170v185c-125 13 -211 77 -248 176c-14 35 -20 75 -20 120z" />
    <glyph glyph-name="uni0471" unicode="&#x471;" horiz-adv-x="763" 
d="M30 287v241h166v-254c0 -89 34 -137 96 -159v413h168v-414c70 21 106 71 106 164c-1 88 -24 164 -51 233l-6 17h155c41 -61 68 -138 68 -238c0 -131 -57 -213 -151 -260c-34 -17 -75 -30 -121 -35v-228h-168v228c-163 22 -262 117 -262 292z" />
    <glyph glyph-name="uni0472" unicode="&#x472;" horiz-adv-x="687" 
d="M26 340v30c0 161 69 275 187 326c39 16 81 25 128 25c102 0 177 -40 227 -95c54 -60 88 -147 88 -256v-30c0 -161 -69 -275 -187 -326c-39 -16 -80 -24 -127 -24c-100 0 -178 39 -228 94c-54 59 -88 148 -88 256zM200 312c9 -105 48 -177 142 -177c92 0 131 74 139 177
h-281zM201 402h280c-9 102 -48 173 -140 173s-131 -72 -140 -173z" />
    <glyph glyph-name="uni0473" unicode="&#x473;" horiz-adv-x="584" 
d="M27 259v9c0 123 58 211 151 249c33 15 71 21 111 21c130 0 213 -69 247 -163c12 -33 17 -68 17 -106v-9c0 -123 -59 -210 -152 -249c-33 -15 -70 -21 -111 -21c-130 0 -212 69 -246 163c-12 33 -17 68 -17 106zM198 218c10 -53 35 -89 92 -89s83 38 92 89h-184zM198 307
h184c-10 55 -35 92 -93 92s-81 -39 -91 -92z" />
    <glyph glyph-name="uni0474" unicode="&#x474;" horiz-adv-x="698" 
d="M19 711h182l149 -520c31 119 66 231 98 348c28 89 71 181 193 181l32 -2l-2 -142h-26c-23 0 -38 -21 -46 -46l-164 -530h-170z" />
    <glyph glyph-name="uni0475" unicode="&#x475;" horiz-adv-x="586" 
d="M19 528h175l79 -325l43 163c15 55 38 96 67 126s67 46 112 46c26 0 45 -5 64 -14l-14 -132h-11c-7 0 -21 2 -25 2c-21 0 -35 -19 -42 -39l-117 -355h-153z" />
    <glyph glyph-name="uni0476" unicode="&#x476;" horiz-adv-x="697" 
d="M18 711h182l149 -520c31 119 66 231 98 348c28 89 71 181 193 181l32 -2l-2 -142h-26c-23 0 -38 -21 -46 -46l-164 -530h-170zM35 884h178l141 -155h-149zM231 884h170l116 -155h-145z" />
    <glyph glyph-name="uni0477" unicode="&#x477;" horiz-adv-x="616" 
d="M16 735h178l141 -155h-149zM50 528h175l79 -325l43 163c15 55 38 96 67 126s67 46 112 46c26 0 45 -5 64 -14l-14 -132h-11c-7 0 -21 2 -25 2c-21 0 -35 -19 -42 -39l-117 -355h-153zM212 735h170l116 -155h-145z" />
    <glyph glyph-name="uni0478" unicode="&#x478;" horiz-adv-x="1224" 
d="M26 340v30c0 161 69 275 187 326c39 16 81 25 128 25c102 0 177 -40 227 -95c54 -60 88 -147 88 -256v-30c0 -162 -69 -275 -187 -326c-39 -16 -80 -24 -127 -24c-101 0 -178 40 -228 95c-54 59 -88 147 -88 255zM198 340c0 -93 26 -163 84 -192c17 -8 37 -13 60 -13
c103 0 140 87 140 205v31c0 118 -37 204 -141 204c-103 0 -143 -86 -143 -204v-31zM669 553h179l89 -297l89 297h178l-217 -624c-26 -74 -74 -142 -181 -142c-29 0 -53 4 -74 13v128h12c8 0 15 -1 21 -1c49 0 69 14 80 48v1l15 36z" />
    <glyph glyph-name="uni0479" unicode="&#x479;" horiz-adv-x="1113" 
d="M27 259v9c0 123 59 210 152 249c33 15 70 21 111 21c130 0 212 -69 246 -163c11 -33 17 -68 17 -106v-9c0 -123 -57 -210 -150 -249c-33 -15 -71 -21 -112 -21c-130 0 -213 69 -247 163c-12 33 -17 68 -17 106zM193 259c0 -76 25 -130 98 -130c71 0 96 55 96 130v10
c0 75 -26 130 -97 130s-97 -56 -97 -130v-10zM556 528h179l89 -297l89 297h178l-217 -599c-26 -74 -74 -142 -181 -142c-29 0 -53 4 -74 13v128h12c8 0 15 -1 21 -1c49 0 69 14 80 48v1l15 36z" />
    <glyph glyph-name="uni047A" unicode="&#x47a;" horiz-adv-x="687" 
d="M26 339v32c0 161 69 274 187 325c21 9 43 15 65 19v55h120v-54c74 -12 130 -46 170 -89c54 -60 88 -147 88 -256v-32c0 -161 -68 -274 -187 -325c-22 -9 -45 -15 -69 -19v-61h-122v62c-71 13 -125 45 -164 87c-54 59 -88 148 -88 256zM198 339c0 -92 25 -161 80 -190v40
h122v-44c59 27 82 102 82 194v33c0 94 -26 167 -84 193v-46h-120v43c-56 -29 -80 -100 -80 -190v-33z" />
    <glyph glyph-name="uni047B" unicode="&#x47b;" horiz-adv-x="533" 
d="M27 259v10c0 115 53 191 136 226c19 8 41 13 64 16l10 2v50h56v-51l11 -2c95 -13 155 -67 182 -142c11 -30 17 -63 17 -99v-10c0 -115 -53 -191 -136 -226c-20 -8 -40 -13 -64 -16l-12 -1v-52h-56v52l-11 2c-95 13 -155 67 -182 142c-11 30 -15 63 -15 99zM143 259
c0 -64 16 -125 74 -147l18 -7v61h56v-62l17 7c60 21 79 84 79 148v10c0 63 -18 125 -76 147l-18 7v-54h-56v55l-16 -7c-60 -21 -78 -85 -78 -148v-10z" />
    <glyph glyph-name="uni047C" unicode="&#x47c;" horiz-adv-x="907" 
d="M30 234v231c0 153 97 246 254 246h12v-144h-12c-58 0 -82 -37 -82 -104v-227c0 -67 24 -104 82 -104c59 0 84 38 84 108v183h166v-183c0 -70 25 -108 84 -108c57 0 82 38 82 104v227c0 67 -24 104 -82 104h-12v144h12c120 0 199 -55 235 -141c13 -31 19 -66 19 -105v-231
c0 -118 -61 -195 -154 -227c-31 -10 -63 -17 -100 -17c-72 0 -129 26 -167 66c-39 -42 -95 -66 -167 -66c-119 0 -200 54 -236 139c-13 31 -18 66 -18 105zM298 744v30c0 79 48 119 125 119c45 0 82 -17 115 -30c37 -15 75 -29 124 -29h22v-90h-22c-82 0 -142 28 -197 50
c-15 6 -29 9 -41 9c-25 0 -36 -10 -36 -37v-22h-90zM371 637l8 10c17 22 31 40 31 67v58h108v-62c0 -28 -17 -50 -30 -65c-16 -18 -36 -37 -60 -47z" />
    <glyph glyph-name="uni047D" unicode="&#x47d;" horiz-adv-x="784" 
d="M28 218v91c0 111 54 183 142 212c29 10 61 16 94 16h12v-139h-12c-50 0 -70 -33 -70 -91v-87c0 -57 15 -91 56 -91c46 0 60 41 60 101v91h160v-91c0 -64 16 -101 60 -101c41 0 56 35 56 91v87c0 58 -21 91 -70 91h-12v139h12c111 0 186 -52 219 -131
c12 -28 17 -60 17 -97v-91c0 -108 -50 -182 -134 -213c-28 -11 -57 -15 -88 -15c-63 0 -110 27 -140 64c-32 -38 -77 -64 -140 -64c-107 0 -177 53 -207 130c-11 28 -15 62 -15 98zM240 579v31c0 79 48 118 125 118c64 0 109 -31 153 -45c26 -9 53 -14 87 -14h23v-90h-24
c-54 0 -100 13 -140 28v-59c0 -28 -17 -51 -29 -65c-16 -19 -40 -36 -61 -48l-57 40l8 10c17 22 31 40 31 67v58h101c-26 11 -58 28 -90 28c-25 0 -37 -11 -37 -38v-21h-90z" />
    <glyph glyph-name="uni047E" unicode="&#x47e;" horiz-adv-x="919" 
d="M32 231v480h172v-476c0 -63 24 -103 82 -103c59 0 84 36 84 103v476h174v-476c0 -64 24 -103 84 -103c58 0 82 36 82 103v476h172v-480c0 -118 -60 -194 -153 -225c-31 -10 -65 -16 -101 -16c-76 0 -134 28 -171 71c-38 -44 -96 -71 -171 -71c-119 0 -200 52 -236 137
c-13 31 -18 65 -18 104zM230 799v90h456l2 -90h-178v-62h-112v62h-168z" />
    <glyph glyph-name="uni047F" unicode="&#x47f;" horiz-adv-x="824" 
d="M31 220v308h166v-303c0 -60 16 -96 60 -96c52 0 72 33 72 96v303h166v-303c0 -63 15 -96 66 -96c47 0 62 34 62 96v303h166v-308c0 -110 -52 -183 -138 -214c-27 -11 -58 -16 -90 -16c-67 0 -117 26 -150 63c-35 -39 -86 -63 -154 -63c-110 0 -178 53 -209 132
c-12 28 -17 62 -17 98zM197 621v90h428l3 -90h-165v-62h-112v62h-154z" />
    <glyph glyph-name="uni0480" unicode="&#x480;" horiz-adv-x="620" 
d="M28 284v141c0 136 66 232 168 274c36 15 76 22 119 22c171 0 277 -86 277 -259v-13h-170v13c0 83 -28 116 -107 116c-83 0 -115 -68 -115 -156v-143c0 -72 22 -123 65 -146c14 -7 31 -11 50 -11h107v-298h-170v172c-107 20 -179 88 -209 181c-10 33 -15 68 -15 107z" />
    <glyph glyph-name="uni0481" unicode="&#x481;" horiz-adv-x="542" 
d="M27 257v13c0 120 55 208 146 247c32 15 70 21 111 21c106 0 181 -50 212 -128c11 -27 17 -57 17 -90v-13h-158v13c0 48 -26 79 -71 79c-69 0 -91 -59 -91 -135v-13c0 -77 21 -135 91 -135h103v-294h-166v174c-126 25 -194 124 -194 261z" />
    <glyph glyph-name="uni0482" unicode="&#x482;" horiz-adv-x="593" 
d="M19 286l47 84l143 -83l87 154l-142 83l48 86l142 -84l88 154h112l-115 -205l143 -84l-50 -84l-140 83l-88 -154l142 -84l-48 -84l-142 83l-86 -151h-114l114 202z" />
    <glyph glyph-name="uni0483" unicode="&#x483;" horiz-adv-x="446" 
d="M31 568l2 140h266v41l110 -1v-120h-266v-62z" />
    <glyph glyph-name="uni0484" unicode="&#x484;" horiz-adv-x="466" 
d="M32 636v91h24c74 0 123 14 184 23c19 6 40 10 60 10c78 0 130 -31 130 -94v-30h-92v22c0 9 -14 12 -40 12c-12 0 -26 6 -41 17c-55 -22 -118 -51 -200 -51h-25z" />
    <glyph glyph-name="uni0485" unicode="&#x485;" horiz-adv-x="211" 
d="M27 726v76h119l-1 -72l32 -50l-57 -47z" />
    <glyph glyph-name="uni0486" unicode="&#x486;" horiz-adv-x="209" 
d="M30 680l32 49v73h116v-76l-90 -93z" />
    <glyph glyph-name="uni0487" unicode="&#x487;" horiz-adv-x="457" 
d="M32 694v30c0 79 49 119 126 119c45 0 82 -17 115 -30c37 -15 75 -29 124 -29h23v-90h-23c-82 0 -142 28 -197 50c-15 6 -29 9 -41 9c-25 0 -37 -10 -37 -37v-22h-90z" />
    <glyph glyph-name="uni0488" unicode="&#x488;" horiz-adv-x="1029" 
d="M25 226v12c0 67 52 104 116 104c65 0 116 -37 116 -104v-12h-80v12c0 25 -11 36 -36 36c-24 0 -34 -11 -34 -36v-12h-82zM107 -16c0 66 51 104 115 104c66 0 117 -36 117 -104v-12h-82v12c0 25 -11 38 -35 38s-35 -12 -35 -38v-12h-80v12zM111 470v13
c0 67 51 105 116 105c66 0 116 -37 116 -105v-13h-80v13c0 25 -12 37 -36 37s-34 -11 -34 -37v-13h-82zM391 594v12c0 67 51 104 116 104s116 -37 116 -104v-12h-80v12c0 25 -11 37 -36 37s-36 -12 -36 -37v-12h-80zM395 -154c0 67 50 104 114 104c65 0 116 -37 116 -104
v-12h-80v12c0 25 -11 36 -36 36c-24 0 -34 -11 -34 -36v-12h-80v12zM675 -16c0 67 51 104 115 104c65 0 115 -37 115 -104v-12h-80v12c0 25 -11 38 -35 38c-23 0 -35 -13 -35 -38v-12h-80v12zM681 470v13c0 67 49 105 114 105c66 0 116 -37 116 -105v-13h-80v13
c0 25 -12 37 -36 37c-23 0 -34 -12 -34 -37v-13h-80zM771 226v12c0 67 51 104 115 104c65 0 115 -37 115 -104v-12h-80v12c0 26 -9 36 -35 36c-24 0 -35 -11 -35 -36v-12h-80z" />
    <glyph glyph-name="uni0489" unicode="&#x489;" horiz-adv-x="984" 
d="M25 257v72l194 -40v-84l-17 -13zM114 -37l164 112l59 -61l-2 -20l-171 -82zM160 582l49 52l110 -168l-59 -59l-21 2zM423 -202l39 198h83l14 -17l-65 -181h-71zM424 542l65 180h71l-40 -197h-82zM645 485l2 20l171 82l49 -50l-164 -112zM662 31l58 61l21 -2l80 -173
l-49 -53zM763 230v83l15 16l177 -67v-71z" />
    <glyph glyph-name="uni048A" unicode="&#x48a;" horiz-adv-x="774" 
d="M36 0v711h170v-441l266 441h166v-596h110l-2 -105c0 -98 -52 -166 -106 -211l-93 47l6 11c23 45 47 82 49 143h-136v440l-265 -440h-165zM156 886v12h126v-12c0 -36 18 -52 56 -52s56 18 56 52v12h126v-12c0 -79 -50 -126 -109 -146c-22 -7 -47 -12 -73 -12
c-80 0 -143 35 -168 95c-9 19 -14 40 -14 63z" />
    <glyph glyph-name="uni048B" unicode="&#x48b;" horiz-adv-x="656" 
d="M34 0v528h166v-288l158 288h160v-415h111l-1 -105c0 -97 -53 -164 -107 -209l-93 47l6 11c23 45 47 82 49 143h-131v289l-157 -289h-161zM98 730v13h124v-13c0 -36 19 -51 57 -51s55 17 55 51v13h126v-13c0 -79 -49 -125 -108 -145c-22 -7 -47 -12 -73 -12
c-80 0 -143 34 -168 94c-9 20 -13 40 -13 63z" />
    <glyph glyph-name="uni048C" unicode="&#x48c;" horiz-adv-x="692" 
d="M19 514v110h84v87h172v-86h110v-108h-110v-49h105c126 0 221 -50 262 -137c14 -29 21 -60 21 -95c0 -119 -74 -189 -167 -219c-34 -11 -74 -17 -116 -17h-277v514h-84zM275 143h105c69 0 111 33 111 94c0 59 -43 87 -111 87h-105v-181z" />
    <glyph glyph-name="uni048D" unicode="&#x48d;" horiz-adv-x="619" 
d="M20 597v114h76v78h166v-78h126v-114h-126v-199h88c108 0 189 -40 224 -117c11 -25 16 -52 16 -81c0 -100 -61 -161 -139 -186c-30 -10 -64 -14 -101 -14h-254v597h-76zM262 138h88c50 0 74 19 74 61c0 41 -25 61 -74 61h-88v-122z" />
    <glyph glyph-name="uni048E" unicode="&#x48e;" horiz-adv-x="635" 
d="M36 0v711h290c129 0 222 -54 261 -145c13 -30 19 -62 19 -96c0 -69 -24 -123 -62 -159l58 -62l-69 -61l-66 74c-41 -15 -88 -24 -141 -24h-118v-238h-172zM208 382h118c12 0 24 1 32 2l-55 58l68 57l57 -61c3 10 4 20 4 31c0 62 -38 98 -106 98h-118v-185z" />
    <glyph glyph-name="uni048F" unicode="&#x48f;" 
d="M35 -203v731h155l4 -35c31 28 69 45 124 45c118 0 179 -71 204 -160c9 -33 15 -70 15 -109v-11c0 -76 -19 -142 -55 -190l51 -57l-70 -58l-50 59c-29 -16 -59 -22 -94 -22c-50 0 -90 17 -118 40v-233h-166zM201 168c14 -24 38 -39 81 -39c12 0 23 2 31 5l-53 58l68 55
l38 -41c3 17 5 35 5 53v10c0 72 -23 129 -90 129c-43 0 -65 -14 -80 -37v-193z" />
    <glyph glyph-name="uni0490" unicode="&#x490;" horiz-adv-x="559" 
d="M36 0v711h330v182h166v-326h-326v-567h-170z" />
    <glyph glyph-name="uni0491" unicode="&#x491;" horiz-adv-x="474" 
d="M35 0v528h240v155h166v-294h-240v-389h-166z" />
    <glyph glyph-name="uni0492" unicode="&#x492;" horiz-adv-x="619" 
d="M24 310v116h78v285h490v-144h-318v-141h116v-116h-116v-310h-172v310h-78z" />
    <glyph glyph-name="uni0493" unicode="&#x493;" horiz-adv-x="527" 
d="M27 208v116h82v204h386v-139h-220v-65h118v-116h-118v-208h-166v208h-82z" />
    <glyph glyph-name="uni0494" unicode="&#x494;" horiz-adv-x="613" 
d="M36 0v711h490v-144h-318v-147h69c146 0 242 -59 285 -164c15 -37 22 -79 22 -127c0 -130 -53 -224 -147 -269c-36 -18 -80 -26 -130 -26h-12l-2 133h13c86 0 112 63 112 153c0 105 -41 160 -141 160h-69v-280h-172z" />
    <glyph glyph-name="uni0495" unicode="&#x495;" horiz-adv-x="531" 
d="M35 0v528h386v-139h-220v-51h13c130 0 223 -47 266 -138c15 -31 23 -66 23 -106c0 -88 -50 -148 -104 -188c-24 -19 -54 -34 -87 -45l-9 -4l-72 116l13 6c54 24 93 51 93 114c0 71 -45 105 -123 105h-13v-198h-166z" />
    <glyph glyph-name="uni0496" unicode="&#x496;" horiz-adv-x="1135" 
d="M19 0l229 380l-219 331h212l158 -275h54v275h172v-275h51l154 275h212l-215 -332l153 -262h127v-291h-166v174h-102l-151 290h-63v-290h-172v278h-67l-155 -278h-212z" />
    <glyph glyph-name="uni0497" unicode="&#x497;" horiz-adv-x="961" 
d="M19 0l174 275l-173 253h205l110 -197h31v197h168v-184h32l111 184h204l-171 -252l100 -161h122v-289h-166v174h-84l-105 196h-43v-196h-168v184h-43l-105 -184h-199z" />
    <glyph glyph-name="uni0498" unicode="&#x498;" horiz-adv-x="616" 
d="M24 210v12h172v-12c0 -51 49 -77 105 -77c54 0 92 16 107 45v1c5 8 8 19 8 29c0 63 -35 84 -107 84h-99v140h99c64 0 95 21 95 76c0 48 -42 69 -103 69c-44 0 -75 -17 -89 -42c-5 -8 -8 -18 -8 -29v-12h-170v12c0 73 37 126 81 158c45 34 112 56 186 56
c119 0 214 -35 255 -117c13 -26 20 -56 20 -90c0 -73 -43 -119 -92 -147c62 -28 104 -80 104 -162c0 -122 -92 -183 -196 -204v-234h-166v232c-91 16 -163 63 -191 142c-7 21 -11 45 -11 70z" />
    <glyph glyph-name="uni0499" unicode="&#x499;" horiz-adv-x="525" 
d="M24 168v13h166v-13c0 -31 31 -47 73 -47s67 15 67 45c0 35 -19 46 -67 46h-89v116h89c42 0 59 11 59 39c0 27 -20 39 -59 39s-65 -14 -65 -42v-13h-166v13c0 92 68 143 139 163c27 7 55 11 85 11c97 0 179 -26 215 -90c11 -20 17 -43 17 -69c0 -49 -31 -84 -66 -106
c45 -22 74 -60 74 -119c0 -58 -30 -96 -69 -121c-23 -15 -50 -27 -81 -34v-233h-166v232c-61 14 -109 45 -136 90c-14 23 -20 49 -20 80z" />
    <glyph glyph-name="uni049A" unicode="&#x49a;" horiz-adv-x="736" 
d="M36 0v711h172v-273h47l174 273h208l-227 -339l169 -255h129v-291h-166v174h-86l-184 278h-64v-278h-172z" />
    <glyph glyph-name="uni049B" unicode="&#x49b;" horiz-adv-x="649" 
d="M36 0v528h168v-198h30l115 198h209l-182 -254l113 -159h131v-289h-166v174h-99l-115 195h-36v-195h-168z" />
    <glyph glyph-name="uni049C" unicode="&#x49c;" horiz-adv-x="701" 
d="M36 0v711h172v-288h16v126h106v-120l122 282h212l-194 -326l212 -385h-216l-131 289h-5v-112h-106v112h-16v-289h-172z" />
    <glyph glyph-name="uni049D" unicode="&#x49d;" horiz-adv-x="629" 
d="M36 0v528h166v-198h14v92h98v-94l78 200h209l-151 -252l158 -276h-210l-81 195h-3v-83h-98v83h-14v-195h-166z" />
    <glyph glyph-name="uni049E" unicode="&#x49e;" horiz-adv-x="752" 
d="M19 518v110h90v83h172v-86h106v-104l115 190h209l-227 -337l250 -374h-205l-183 278h-65v-278h-172v518h-90zM281 438h48l52 86h-100v-86z" />
    <glyph glyph-name="uni049F" unicode="&#x49f;" horiz-adv-x="661" 
d="M20 565v114h96v71h166v-71h104v-114h-104v-207c48 61 98 112 145 170h202l-202 -223l216 -305h-193l-131 205l-37 -37v-168h-166v565h-96z" />
    <glyph glyph-name="uni04A0" unicode="&#x4a0;" horiz-adv-x="895" 
d="M21 572v139h402v-273h48l174 273h209l-227 -337l250 -374h-205l-183 278h-66v-278h-170v572h-232z" />
    <glyph glyph-name="uni04A1" unicode="&#x4a1;" horiz-adv-x="776" 
d="M25 389v139h360v-198h31l115 198h209l-182 -252l198 -276h-219l-115 195h-37v-195h-166v389h-194z" />
    <glyph glyph-name="uni04A2" unicode="&#x4a2;" horiz-adv-x="773" 
d="M36 0v711h172v-275h260v275h172v-594h106v-291h-166v174h-112v292h-260v-292h-172z" />
    <glyph glyph-name="uni04A3" unicode="&#x4a3;" horiz-adv-x="657" 
d="M36 0v528h166v-200h152v200h166v-413h108v-289h-166v174h-108v190h-152v-190h-166z" />
    <glyph glyph-name="uni04A4" unicode="&#x4a4;" horiz-adv-x="971" 
d="M36 0v711h172v-275h260v275h476v-139h-304v-572h-172v292h-260v-292h-172z" />
    <glyph glyph-name="uni04A5" unicode="&#x4a5;" horiz-adv-x="716" 
d="M36 0v528h166v-200h150v200h332v-138h-166v-390h-166v190h-150v-190h-166z" />
    <glyph glyph-name="uni04A6" unicode="&#x4a6;" horiz-adv-x="1035" 
d="M36 0v711h604v-291h59c145 0 243 -60 285 -166c15 -37 22 -78 22 -126c0 -130 -54 -224 -148 -269c-36 -18 -80 -26 -130 -26h-12v133h12c85 0 112 63 112 153c0 105 -41 161 -141 161h-59v-280h-172v567h-260v-567h-172z" />
    <glyph glyph-name="uni04A7" unicode="&#x4a7;" horiz-adv-x="878" 
d="M36 0v528h484v-186h32c132 0 230 -46 275 -137c15 -31 23 -67 23 -107c0 -88 -50 -149 -104 -188c-24 -19 -54 -34 -86 -45l-9 -4l-72 115l13 6c54 22 92 51 92 115c0 72 -50 103 -132 103h-32v-200h-166v389h-152v-389h-166z" />
    <glyph glyph-name="uni04A8" unicode="&#x4a8;" horiz-adv-x="796" 
d="M27 323v100c0 131 63 232 159 276c33 15 70 22 109 22h12v-148h-12c-65 0 -88 -80 -88 -151v-98c0 -86 40 -147 101 -173c21 -10 46 -14 74 -14h2c-51 55 -85 129 -85 224v90c0 115 47 206 129 248c28 15 59 22 92 22c79 0 137 -37 174 -84c40 -52 65 -124 65 -211v-79
c0 -90 -30 -162 -71 -216c21 -3 40 -5 63 -5h12v-132h-12c-76 0 -142 12 -198 32c-48 -23 -104 -36 -171 -36c-111 0 -199 40 -257 96c-57 54 -98 134 -98 237zM463 344c0 -74 29 -128 70 -166c32 38 52 88 52 156v98c0 78 -8 141 -65 141c-49 0 -57 -60 -57 -131v-98z" />
    <glyph glyph-name="uni04A9" unicode="&#x4a9;" horiz-adv-x="660" 
d="M28 258v46c0 104 52 182 131 216c28 13 58 18 90 18h13v-141l-11 -2c-33 -4 -49 -46 -49 -101v-48c0 -72 30 -120 85 -134c-22 38 -33 80 -33 134v76c0 93 39 166 104 199c23 12 48 17 75 17c98 0 151 -68 174 -138c8 -27 13 -57 13 -88v-68c0 -62 -23 -111 -54 -148
c18 -2 33 -3 51 -3h13v-106h-13c-65 0 -122 8 -170 25c-37 -14 -79 -22 -129 -22c-137 0 -229 68 -269 162c-14 33 -21 68 -21 106zM384 240c0 -38 11 -70 32 -97c22 22 38 52 38 93v72c0 36 -9 71 -24 83c-3 3 -7 4 -12 4c-23 0 -34 -36 -34 -77v-78z" />
    <glyph glyph-name="uni04AA" unicode="&#x4aa;" horiz-adv-x="608" 
d="M27 328v45c0 151 62 255 166 300c34 15 72 23 116 23c162 0 251 -83 272 -222h-121c-9 81 -57 127 -151 127c-126 0 -160 -101 -160 -223v-45c0 -115 28 -223 158 -223c91 0 143 43 152 127h121c-13 -106 -72 -174 -160 -205c-14 -5 -29 -8 -45 -11l-10 -2v-224h-116v218
l-10 2c-102 21 -163 90 -193 179c-13 39 -19 83 -19 134z" />
    <glyph glyph-name="uni04AB" unicode="&#x4ab;" horiz-adv-x="493" 
d="M27 251v14c0 115 47 193 128 229c28 13 62 19 102 19c100 0 162 -43 191 -111c9 -20 15 -42 16 -66h-107c-5 51 -45 88 -102 88c-94 0 -112 -78 -112 -154v-12c0 -77 18 -154 113 -154c54 0 92 28 100 79h108c-4 -51 -29 -91 -59 -117c-24 -23 -57 -34 -94 -46v-225h-116
v218l-10 3c-76 20 -122 70 -144 138c-10 29 -14 62 -14 97z" />
    <glyph glyph-name="uni04AC" unicode="&#x4ac;" horiz-adv-x="651" 
d="M21 567v144h604v-144h-218v-452h94v-289h-166v174h-100v567h-214z" />
    <glyph glyph-name="uni04AD" unicode="&#x4ad;" horiz-adv-x="558" 
d="M25 390v138h502v-138h-170v-278h108v-286h-166v174h-108v390h-166z" />
    <glyph glyph-name="uni04AE" unicode="&#x4ae;" horiz-adv-x="695" 
d="M18 711h189l139 -303l140 303h189l-243 -453v-258h-174v258z" />
    <glyph glyph-name="uni04AF" unicode="&#x4af;" horiz-adv-x="570" 
d="M19 528h174l92 -326l88 326h175l-181 -518v-214h-166v218z" />
    <glyph glyph-name="uni04B0" unicode="&#x4b0;" horiz-adv-x="694" 
d="M18 711h189l139 -303l140 303h188l-191 -359h49v-114h-100v-238h-174v238h-92v114h43z" />
    <glyph glyph-name="uni04B1" unicode="&#x4b1;" horiz-adv-x="570" 
d="M19 528h174l92 -326l88 326h175l-148 -413h71v-110h-104v-209h-166v209h-98v115h64z" />
    <glyph glyph-name="uni04B2" unicode="&#x4b2;" horiz-adv-x="729" 
d="M18 0l219 358l-214 353h198l126 -231l126 231h198l-214 -355l145 -239h99v-291h-166v174h-58l-130 236l-130 -236h-199z" />
    <glyph glyph-name="uni04B3" unicode="&#x4b3;" horiz-adv-x="605" 
d="M19 0l165 270l-158 258h180l80 -144l82 144h180l-158 -261l91 -152h95v-289h-166v174h-36l-87 153l-87 -153h-181z" />
    <glyph glyph-name="uni04B4" unicode="&#x4b4;" horiz-adv-x="911" 
d="M21 572v139h494v-139h-160v-429h260v568h172v-568h97l-10 -314h-161v171h-530v572h-162z" />
    <glyph glyph-name="uni04B5" unicode="&#x4b5;" horiz-adv-x="723" 
d="M25 390v138h370v-138h-96v-251h150v389h168v-390h79l-11 -295h-156v157h-398v390h-106z" />
    <glyph glyph-name="uni04B6" unicode="&#x4b6;" horiz-adv-x="746" 
d="M25 486v225h172v-223c0 -82 39 -102 118 -102c44 0 90 4 128 12v313h172v-594h104v-291h-166v174h-110v255c-41 -7 -83 -13 -128 -13c-171 0 -290 73 -290 244z" />
    <glyph glyph-name="uni04B7" unicode="&#x4b7;" horiz-adv-x="646" 
d="M27 354v174h166v-171c0 -58 25 -73 89 -73c23 0 43 4 61 7v237h166v-413h108v-289h-166v174h-108v151c-20 -3 -40 -5 -61 -5c-149 0 -255 59 -255 208z" />
    <glyph glyph-name="uni04B8" unicode="&#x4b8;" horiz-adv-x="655" 
d="M25 487v224h172v-231c0 -61 20 -91 64 -101c4 -1 7 -1 10 -1v139h106v-141c24 2 47 5 66 9v326h172v-711h-172v259c-22 -4 -44 -8 -66 -10v-109h-106v108c-146 12 -246 85 -246 239z" />
    <glyph glyph-name="uni04B9" unicode="&#x4b9;" horiz-adv-x="548" 
d="M27 357v171h166v-180c0 -34 10 -51 24 -61v118h106v-129c6 1 15 2 20 3v249h166v-528h-166v157c-7 -1 -15 -2 -20 -3v-71h-106v73c-115 16 -190 78 -190 201z" />
    <glyph glyph-name="uni04BA" unicode="&#x4ba;" horiz-adv-x="657" 
d="M36 0v711h172v-255c40 7 82 12 127 12c171 0 289 -72 289 -243v-225h-172v223c0 83 -37 101 -117 101c-44 0 -89 -4 -127 -11v-313h-172z" />
    <glyph glyph-name="uni04BB" unicode="&#x4bb;" horiz-adv-x="551" 
d="M36 0v750h166v-260c32 29 73 48 128 48c133 0 186 -83 186 -208v-330h-166v326c0 53 -17 72 -71 72c-40 0 -62 -15 -77 -37v-361h-166z" />
    <glyph glyph-name="uni04BC" unicode="&#x4bc;" horiz-adv-x="803" 
d="M21 522v12h122v-12c0 -41 13 -66 35 -80c7 130 85 217 184 257c37 15 78 22 120 21c152 0 237 -84 271 -200c12 -41 18 -88 18 -138v-88h-421c1 -102 54 -152 165 -152c68 0 127 11 174 29l14 6l29 -145c-51 -32 -136 -43 -217 -43c-163 0 -272 67 -316 185
c-15 38 -22 79 -22 124v11c-102 20 -156 100 -156 213zM350 425h249v3c0 87 -33 138 -117 138c-69 0 -106 -39 -123 -93c-5 -15 -8 -33 -9 -48z" />
    <glyph glyph-name="uni04BD" unicode="&#x4bd;" horiz-adv-x="701" 
d="M24 414v12h114v-12c0 -39 12 -64 34 -77c18 90 75 155 157 184c28 11 60 17 95 17c164 0 246 -108 246 -263v-69h-335c12 -46 53 -77 114 -77c56 0 92 21 117 54l9 12l87 -97l-6 -8c-42 -59 -116 -100 -216 -100c-125 0 -212 60 -251 145c-12 26 -20 57 -23 85
c-91 22 -142 90 -142 194zM337 314h168c0 56 -26 85 -81 85c-53 0 -78 -36 -87 -85z" />
    <glyph glyph-name="uni04BE" unicode="&#x4be;" horiz-adv-x="802" 
d="M21 522v12h122v-12c0 -41 13 -66 35 -80c7 130 85 217 184 257c37 15 78 22 120 21c152 0 237 -84 271 -200c12 -41 18 -88 18 -138v-88h-421c1 -102 54 -152 165 -152c68 0 127 11 174 29l14 6l29 -146l-9 -4c-36 -18 -82 -28 -132 -34v-222h-166v226
c-113 21 -191 83 -226 177c-15 38 -22 79 -22 124v11c-102 20 -156 100 -156 213zM350 425h249v3c0 87 -33 138 -117 138c-69 0 -106 -38 -123 -92c-5 -15 -8 -34 -9 -49z" />
    <glyph glyph-name="uni04BF" unicode="&#x4bf;" horiz-adv-x="698" 
d="M23 414v12h112v-12c0 -39 13 -64 35 -77c18 89 75 155 157 184c28 11 60 17 95 17c164 0 245 -108 245 -263v-69h-334c12 -46 53 -77 114 -77c56 0 92 21 117 54l9 12l87 -97l-6 -8c-33 -46 -85 -81 -153 -94v-221h-166v230c-71 23 -121 70 -148 130
c-12 26 -20 57 -23 85c-91 22 -141 90 -141 194zM335 314h168c0 56 -26 85 -81 85c-53 0 -78 -36 -87 -85z" />
    <glyph glyph-name="uni04C0" unicode="&#x4c0;" horiz-adv-x="246" 
d="M36 0v711h170v-711h-170z" />
    <glyph glyph-name="uni04C1" unicode="&#x4c1;" horiz-adv-x="1070" 
d="M18 0l229 380l-219 331h212l158 -275h53v275h172v-275h52l154 275h212l-215 -330l225 -381h-213l-151 290h-64v-290h-172v278h-66l-155 -278h-212zM351 886v12h126v-12c0 -36 18 -52 56 -52s56 18 56 52v12h126v-12c0 -79 -50 -126 -109 -146c-22 -7 -47 -12 -73 -12
c-80 0 -143 35 -168 95c-9 19 -14 40 -14 63z" />
    <glyph glyph-name="uni04C2" unicode="&#x4c2;" horiz-adv-x="905" 
d="M18 0l174 275l-173 253h205l110 -197h32v197h166v-184h33l111 184h204l-171 -249l175 -279h-203l-105 196h-44v-196h-166v184h-44l-105 -184h-199zM278 730v13h126v-13c0 -36 18 -51 56 -51s56 17 56 51v13h126v-13c0 -79 -50 -125 -109 -145c-22 -7 -47 -12 -73 -12
c-80 0 -143 34 -168 94c-9 20 -14 40 -14 63z" />
    <glyph glyph-name="uni04C3" unicode="&#x4c3;" horiz-adv-x="658" 
d="M36 0v711h172v-286h29l175 286h213l-216 -304c139 -28 221 -124 221 -283c0 -146 -69 -246 -188 -281c-27 -8 -59 -13 -94 -13h-12v137h12c85 0 110 64 110 157c0 106 -39 164 -135 164h-115v-288h-172z" />
    <glyph glyph-name="uni04C4" unicode="&#x4c4;" horiz-adv-x="580" 
d="M36 0v528h168v-198h22l123 198h209l-171 -232c92 -31 155 -98 155 -215c0 -87 -51 -145 -105 -184c-24 -18 -52 -32 -85 -43l-9 -4l-71 115l13 6c53 23 89 54 91 118c0 76 -48 106 -131 106h-41v-195h-168z" />
    <glyph glyph-name="uni04C5" unicode="&#x4c5;" horiz-adv-x="807" 
d="M25 0v143h31c45 4 63 18 76 52c7 18 13 44 16 76s6 73 9 122l14 318h502v-596h108l-2 -105c0 -98 -52 -166 -106 -211l-93 47l6 11c23 45 47 82 49 143h-134v567h-165l-8 -181c-6 -120 -19 -222 -67 -296c-38 -58 -96 -90 -187 -90h-49z" />
    <glyph glyph-name="uni04C6" unicode="&#x4c6;" horiz-adv-x="693" 
d="M25 141h28c50 0 57 29 62 83c2 22 4 49 5 81l10 223h425v-415h111l-1 -105c0 -97 -53 -164 -107 -209l-93 47l6 11c23 45 47 82 49 143h-131v389h-98l-5 -93c-7 -159 -38 -296 -223 -296h-35z" />
    <glyph glyph-name="uni04C7" unicode="&#x4c7;" horiz-adv-x="679" 
d="M36 0v711h172v-289h260v289h172v-711c0 -130 -72 -213 -203 -213c-30 0 -49 2 -75 8l-10 3l8 142l15 -4c14 -4 28 -6 46 -6c33 0 47 26 47 70v278h-260v-278h-172z" />
    <glyph glyph-name="uni04C8" unicode="&#x4c8;" horiz-adv-x="558" 
d="M35 0v528h166v-200h150v200h168v-532c0 -128 -69 -209 -199 -209c-29 0 -49 2 -73 8l-10 3l8 138l15 -4c13 -4 28 -6 46 -6c31 0 45 26 45 70v194h-150v-190h-166z" />
    <glyph glyph-name="uni04C9" unicode="&#x4c9;" horiz-adv-x="776" 
d="M36 0v711h172v-275h260v275h172v-596h110l-2 -105c0 -98 -52 -166 -106 -211l-93 47l6 11c23 45 47 82 49 143h-136v292h-260v-292h-172z" />
    <glyph glyph-name="uni04CA" unicode="&#x4ca;" horiz-adv-x="658" 
d="M36 0v528h166v-200h152v200h166v-414h111l-1 -105c0 -68 -30 -122 -61 -162c-14 -19 -29 -33 -46 -48l-93 47l6 11c23 45 47 82 49 143h-131v190h-152v-190h-166z" />
    <glyph glyph-name="uni04CB" unicode="&#x4cb;" horiz-adv-x="654" 
d="M25 486v225h172v-223c0 -82 39 -102 118 -102c44 0 90 4 128 12v313h172v-711h-116v-174h-166v290h110v139c-41 -7 -83 -13 -128 -13c-171 0 -290 73 -290 244z" />
    <glyph glyph-name="uni04CC" unicode="&#x4cc;" horiz-adv-x="548" 
d="M27 354v174h166v-171c0 -58 25 -73 89 -73c23 0 43 4 61 7v237h166v-528h-112v-174h-166v288h112v37c-20 -3 -40 -5 -61 -5c-149 0 -255 59 -255 208z" />
    <glyph glyph-name="uni04CD" unicode="&#x4cd;" horiz-adv-x="942" 
d="M36 0v711h213l174 -491l172 491h215v-596h106l-2 -105c0 -98 -52 -166 -106 -211l-93 47l6 11c23 45 47 82 49 143h-132v207l10 255l-167 -462h-118l-167 460l12 -253v-207h-172z" />
    <glyph glyph-name="uni04CE" unicode="&#x4ce;" horiz-adv-x="827" 
d="M36 0v528h198l128 -338l129 338h199v-414h110l-2 -105c0 -68 -29 -122 -60 -162c-14 -19 -29 -33 -46 -48l-93 47l6 11c23 45 47 82 49 143h-130v270l-106 -270h-112l-102 265v-265h-168z" />
    <glyph glyph-name="uni04CF" unicode="&#x4cf;" horiz-adv-x="246" 
d="M36 0v711h170v-711h-170z" />
    <glyph glyph-name="uni04D0" unicode="&#x4d0;" horiz-adv-x="742" 
d="M19 0l274 711h154l275 -711h-183l-49 146h-239l-49 -146h-183zM192 884v12h124v-12c0 -36 19 -52 57 -52s55 18 55 52v12h126v-12c0 -79 -49 -126 -108 -146c-22 -7 -47 -12 -73 -12c-80 0 -143 35 -168 95c-9 19 -13 40 -13 63zM299 278h143l-72 213z" />
    <glyph glyph-name="uni04D1" unicode="&#x4d1;" horiz-adv-x="544" 
d="M25 155c0 137 121 181 256 181h50v14c0 39 -19 59 -65 59c-40 0 -63 -18 -63 -51v-13h-166v13c0 58 31 100 65 127c42 33 101 53 172 53c101 0 174 -37 207 -107c12 -24 18 -52 18 -83v-214c0 -46 5 -80 19 -109l1 -3v-22h-162c-5 10 -12 23 -15 34
c-30 -27 -71 -44 -125 -44c-85 0 -148 42 -177 99c-10 20 -15 42 -15 66zM93 732v13h124v-13c0 -36 19 -51 57 -51s55 17 55 51v13h126v-13c0 -79 -48 -125 -107 -145c-22 -7 -48 -12 -74 -12c-101 0 -181 53 -181 157zM191 166c0 -26 23 -43 57 -43c40 0 69 16 83 37v68
h-45c-59 0 -95 -18 -95 -62z" />
    <glyph glyph-name="uni04D2" unicode="&#x4d2;" horiz-adv-x="742" 
d="M19 0l274 711h154l275 -711h-183l-49 146h-239l-49 -146h-183zM172 806c0 46 37 74 80 74c44 0 80 -29 80 -74c0 -46 -37 -75 -80 -75c-44 0 -80 28 -80 75zM299 278h143l-72 213zM410 806c0 46 37 74 80 74c44 0 80 -29 80 -74s-36 -76 -80 -76c-45 0 -80 30 -80 76z
" />
    <glyph glyph-name="uni04D3" unicode="&#x4d3;" horiz-adv-x="544" 
d="M25 155c0 137 121 181 256 181h50v14c0 39 -19 59 -65 59c-40 0 -63 -18 -63 -51v-13h-166v13c0 58 31 100 65 127c42 33 101 53 172 53c101 0 174 -37 207 -107c12 -24 18 -52 18 -83v-214c0 -46 5 -80 19 -109l1 -3v-22h-162c-5 10 -12 23 -15 34
c-30 -27 -71 -44 -125 -44c-85 0 -148 42 -177 99c-10 20 -15 42 -15 66zM73 654c0 46 38 75 81 75c44 0 79 -30 79 -75c0 -46 -36 -74 -79 -74c-44 0 -81 27 -81 74zM191 166c0 -26 23 -43 57 -43c40 0 69 16 83 37v68h-45c-59 0 -95 -18 -95 -62zM311 654
c0 46 38 75 81 75c44 0 79 -30 79 -75s-35 -75 -79 -75c-45 0 -81 29 -81 75z" />
    <glyph glyph-name="uni04D4" unicode="&#x4d4;" horiz-adv-x="988" 
d="M17 0l398 711h515v-140h-291l6 -143h245v-134h-239l7 -160h302v-134h-462l-7 163h-198l-81 -163h-195zM366 296h119l-9 217z" />
    <glyph glyph-name="uni04D5" unicode="&#x4d5;" horiz-adv-x="869" 
d="M25 158c0 124 121 164 255 164h67v14c0 41 -22 63 -64 63c-37 0 -59 -11 -70 -31c-3 -5 -4 -10 -4 -16v-14l-166 11v11c0 60 32 102 68 129c43 31 102 49 173 49c67 0 121 -17 160 -50c40 32 92 51 159 50c116 0 189 -58 219 -143c10 -29 15 -62 15 -99v-88h-324
c10 -51 47 -79 116 -79c60 0 98 16 139 36l11 6l47 -114l-7 -5c-49 -37 -121 -62 -205 -62c-82 0 -144 26 -188 67c-44 -42 -109 -67 -192 -67c-94 0 -165 33 -194 99c-10 20 -15 44 -15 69zM191 166c0 -33 23 -47 69 -47c36 0 66 14 87 32v74h-66c-43 0 -71 -15 -84 -39
c-4 -7 -6 -13 -6 -20zM515 314h158v2c0 54 -20 83 -70 83c-55 0 -78 -35 -88 -85z" />
    <glyph glyph-name="uni04D6" unicode="&#x4d6;" horiz-adv-x="569" 
d="M36 0v711h500v-144h-328v-131h280v-140h-280v-153h330v-143h-502zM114 886v12h126v-12c0 -36 18 -52 56 -52s56 18 56 52v12h126v-12c0 -79 -50 -126 -109 -146c-22 -7 -47 -12 -73 -12c-80 0 -143 35 -168 95c-9 19 -14 40 -14 63z" />
    <glyph glyph-name="uni04D7" unicode="&#x4d7;" horiz-adv-x="561" 
d="M27 246v18c0 123 59 214 152 253c32 14 67 21 107 21c164 0 245 -108 245 -263v-69h-334c12 -47 49 -77 114 -77c56 0 92 21 117 54l9 12l86 -97l-6 -8c-43 -59 -114 -100 -216 -100c-132 0 -219 65 -256 157c-13 31 -18 64 -18 99zM89 732v13h124v-13
c0 -36 19 -51 57 -51s55 17 55 51v13h126v-13c0 -79 -48 -125 -107 -145c-22 -7 -48 -12 -74 -12c-101 0 -181 53 -181 157zM199 314h168c0 55 -28 85 -82 85c-53 0 -77 -35 -86 -85z" />
    <glyph glyph-name="uni04D8" unicode="&#x4d8;" horiz-adv-x="693" 
d="M27 327v89h462c-7 100 -67 151 -184 151c-72 0 -131 -14 -186 -30l-13 -3l-28 142c38 23 92 33 146 40c25 3 51 5 81 5c172 0 289 -75 335 -200c15 -41 21 -84 21 -132v-70c0 -153 -79 -258 -192 -305c-39 -16 -80 -24 -125 -24c-161 0 -258 79 -298 199
c-13 41 -19 88 -19 138zM197 269c0 -85 50 -126 147 -126c88 0 130 56 143 129h-290v-3z" />
    <glyph glyph-name="uni04D9" unicode="&#x4d9;" horiz-adv-x="547" 
d="M28 232v90h317c-11 47 -44 78 -107 78c-46 0 -82 -8 -112 -22c-9 -5 -19 -10 -30 -15l-12 -5l-46 111c50 43 125 70 215 70c127 0 210 -67 245 -158c12 -32 18 -65 18 -101v-18c0 -121 -57 -212 -146 -251c-31 -15 -66 -21 -104 -20c-154 0 -238 94 -238 241zM193 212
c0 -54 23 -83 73 -83c47 0 69 37 78 83h-151z" />
    <glyph glyph-name="uni04DA" unicode="&#x4da;" horiz-adv-x="693" 
d="M27 327v89h462c-7 100 -67 151 -184 151c-72 0 -131 -14 -186 -30l-13 -3l-28 142c30 19 70 28 112 35c-39 5 -69 30 -69 73c0 46 38 75 81 75c44 0 79 -30 79 -75c0 -32 -18 -55 -43 -66c21 2 43 3 67 3c172 0 289 -75 335 -200c15 -41 21 -84 21 -132v-70
c0 -153 -79 -258 -192 -305c-39 -16 -80 -24 -125 -24c-161 0 -258 79 -298 199c-13 41 -19 88 -19 138zM197 269c0 -85 50 -126 147 -126c88 0 130 56 143 129h-290v-3zM359 784c0 46 38 75 81 75c44 0 79 -30 79 -75s-35 -75 -79 -75c-45 0 -81 29 -81 75z" />
    <glyph glyph-name="uni04DB" unicode="&#x4db;" horiz-adv-x="544" 
d="M27 232v90h317c-11 47 -44 78 -107 78c-46 0 -82 -8 -112 -22c-9 -5 -19 -10 -30 -15l-12 -5l-46 111c50 43 125 70 215 70c127 0 210 -67 245 -158c12 -32 18 -65 18 -101v-18c0 -121 -57 -212 -146 -251c-31 -15 -66 -21 -104 -20c-154 0 -238 94 -238 241zM69 654
c0 46 37 75 80 75c44 0 80 -30 80 -75c0 -46 -37 -74 -80 -74c-44 0 -80 27 -80 74zM192 212c0 -54 23 -83 73 -83c47 0 69 37 78 83h-151zM307 654c0 46 37 75 80 75c44 0 80 -30 80 -75s-36 -75 -80 -75c-45 0 -80 29 -80 75z" />
    <glyph glyph-name="uni04DC" unicode="&#x4dc;" horiz-adv-x="1070" 
d="M18 0l229 380l-219 331h212l158 -275h53v275h172v-275h52l154 275h212l-215 -330l225 -381h-213l-151 290h-64v-290h-172v278h-66l-155 -278h-212zM333 808c0 46 37 74 80 74c44 0 80 -29 80 -74c0 -46 -37 -75 -80 -75c-44 0 -80 28 -80 75zM571 808c0 46 37 74 80 74
c44 0 80 -29 80 -74s-36 -76 -80 -76c-45 0 -80 30 -80 76z" />
    <glyph glyph-name="uni04DD" unicode="&#x4dd;" horiz-adv-x="905" 
d="M18 0l174 275l-173 253h205l110 -197h32v197h166v-184h33l111 184h204l-171 -249l175 -279h-203l-105 196h-44v-196h-166v184h-44l-105 -184h-199zM260 652c0 46 37 75 80 75c44 0 80 -30 80 -75c0 -46 -37 -74 -80 -74c-44 0 -80 27 -80 74zM498 652c0 46 37 75 80 75
c44 0 80 -30 80 -75s-36 -75 -80 -75c-45 0 -80 29 -80 75z" />
    <glyph glyph-name="uni04DE" unicode="&#x4de;" horiz-adv-x="616" 
d="M24 210v12h172v-12c0 -51 49 -77 105 -77c54 0 92 16 107 45v1c5 8 8 19 8 29c0 63 -35 84 -107 84h-99v140h99c64 0 95 21 95 76c0 48 -42 69 -103 69c-44 0 -75 -17 -89 -42c-5 -8 -8 -18 -8 -29v-12h-170v12c0 73 37 126 81 158c45 34 112 56 186 56
c119 0 214 -35 255 -117c13 -26 20 -56 20 -90c0 -73 -43 -119 -92 -147c62 -28 104 -79 104 -161c0 -114 -82 -175 -174 -200c-34 -9 -72 -14 -113 -14c-127 0 -231 50 -266 149c-7 21 -11 45 -11 70zM104 810c0 46 38 74 81 74c44 0 79 -29 79 -74c0 -46 -36 -75 -79 -75
c-44 0 -81 28 -81 75zM342 810c0 46 38 74 81 74c44 0 79 -29 79 -74s-35 -76 -79 -76c-45 0 -81 30 -81 76z" />
    <glyph glyph-name="uni04DF" unicode="&#x4df;" horiz-adv-x="523" 
d="M22 168v13h166v-13c0 -31 32 -47 74 -47s68 15 68 45c0 35 -20 46 -68 46h-90v116h90c42 0 58 11 58 39c0 27 -19 39 -58 39s-66 -14 -66 -42v-13h-166v13c0 92 69 143 140 163c27 7 55 11 85 11c97 0 179 -26 215 -90c11 -20 16 -43 16 -69c0 -49 -30 -84 -65 -106
c45 -22 75 -60 75 -119c0 -58 -32 -97 -70 -122c-43 -28 -102 -42 -171 -42c-95 0 -174 35 -212 98c-14 23 -21 49 -21 80zM60 654c0 46 38 75 81 75c44 0 79 -30 79 -75c0 -46 -36 -74 -79 -74c-44 0 -81 27 -81 74zM298 654c0 46 38 75 81 75c44 0 79 -30 79 -75
s-35 -75 -79 -75c-45 0 -81 29 -81 75z" />
    <glyph glyph-name="uni04E0" unicode="&#x4e0;" horiz-adv-x="587" 
d="M24 210v12h172v-12c0 -38 23 -59 52 -71c11 -4 23 -7 37 -7c49 0 82 19 96 47c4 9 7 20 7 30c0 79 -38 113 -123 113h-79v104l148 141h-280v144h490l2 -111l-164 -171c108 -26 176 -102 176 -225c0 -113 -74 -175 -165 -200c-33 -9 -69 -14 -108 -14
c-111 0 -196 44 -238 120c-16 28 -23 62 -23 100z" />
    <glyph glyph-name="uni04E1" unicode="&#x4e1;" horiz-adv-x="582" 
d="M23 26v13h168v-13c0 -51 38 -80 92 -80c61 0 106 28 106 80c0 82 -38 114 -125 114h-79v102l148 147h-282v139h488l2 -106l-164 -176c108 -25 178 -100 178 -225c0 -111 -74 -175 -164 -200c-33 -9 -69 -14 -108 -14c-109 0 -195 44 -236 120c-15 28 -24 61 -24 99z" />
    <glyph glyph-name="uni04E2" unicode="&#x4e2;" horiz-adv-x="678" 
d="M36 0v711h170v-441l266 441h166v-711h-172v440l-265 -440h-165zM148 757v106h382v-106h-382z" />
    <glyph glyph-name="uni04E3" unicode="&#x4e3;" horiz-adv-x="556" 
d="M34 0v528h166v-288l158 288h160v-528h-166v289l-157 -289h-161zM88 602v106h382v-106h-382z" />
    <glyph glyph-name="uni04E4" unicode="&#x4e4;" horiz-adv-x="677" 
d="M36 0v711h170v-441l266 441h166v-711h-172v440l-265 -440h-165zM138 808c0 46 37 74 80 74c44 0 80 -29 80 -74c0 -46 -37 -75 -80 -75c-44 0 -80 28 -80 75zM376 808c0 46 37 74 80 74c44 0 80 -29 80 -74s-36 -76 -80 -76c-45 0 -80 30 -80 76z" />
    <glyph glyph-name="uni04E5" unicode="&#x4e5;" horiz-adv-x="556" 
d="M34 0v528h166v-288l158 288h160v-528h-166v289l-157 -289h-161zM78 652c0 46 38 75 81 75c44 0 79 -30 79 -75c0 -46 -36 -74 -79 -74c-44 0 -81 27 -81 74zM316 652c0 46 38 75 81 75c44 0 79 -30 79 -75s-35 -75 -79 -75c-45 0 -81 29 -81 75z" />
    <glyph glyph-name="uni04E6" unicode="&#x4e6;" horiz-adv-x="687" 
d="M26 340v30c0 161 69 275 187 326c39 16 81 25 128 25c102 0 177 -40 227 -95c54 -60 88 -147 88 -256v-30c0 -162 -69 -275 -187 -326c-39 -16 -80 -24 -127 -24c-101 0 -178 40 -228 95c-54 59 -88 147 -88 255zM140 806c0 46 38 74 81 74c44 0 79 -29 79 -74
c0 -46 -36 -75 -79 -75c-44 0 -81 28 -81 75zM198 340c0 -93 26 -163 84 -192c17 -8 37 -13 60 -13c103 0 140 87 140 205v31c0 118 -37 204 -141 204c-103 0 -143 -86 -143 -204v-31zM378 806c0 46 38 74 81 74c44 0 79 -29 79 -74s-35 -76 -79 -76c-45 0 -81 30 -81 76z
" />
    <glyph glyph-name="uni04E7" unicode="&#x4e7;" horiz-adv-x="581" 
d="M26 259v9c0 123 58 210 151 249c33 15 70 21 111 21c130 0 212 -69 246 -163c11 -33 18 -68 18 -106v-9c0 -123 -58 -210 -151 -249c-33 -15 -71 -21 -112 -21c-130 0 -213 69 -247 163c-12 33 -16 68 -16 106zM88 654c0 46 37 75 80 75c44 0 80 -30 80 -75
c0 -46 -37 -74 -80 -74c-44 0 -80 27 -80 74zM192 259c0 -76 24 -130 97 -130c71 0 97 55 97 130v10c0 75 -27 130 -98 130s-96 -56 -96 -130v-10zM326 654c0 46 37 75 80 75c44 0 80 -30 80 -75s-36 -75 -80 -75c-45 0 -80 29 -80 75z" />
    </font>
</defs>
</svg>
