<?xml version="1.0" standalone="no"?>
<!DOCTYPE svg PUBLIC "-//W3C//DTD SVG 1.1//EN" "http://www.w3.org/Graphics/SVG/1.1/DTD/svg11.dtd" >
<svg>
<metadata>
Created by FontForge 20090622 at Wed Jun 29 10:48:13 2016
 By ffonts
Font data copyright Google 2014, Design modifications and new weights 2015-2016, Cannot Into Space Fonts
</metadata>
<defs>
<font id="AsimovProBlk" horiz-adv-x="541" >
  <font-face 
    font-family="Asimov Pro"
    font-weight="900"
    font-stretch="normal"
    units-per-em="1000"
    panose-1="0 0 0 0 0 0 0 0 0 0"
    ascent="750"
    descent="-250"
    x-height="528"
    cap-height="711"
    bbox="-24 -271 1478 1056"
    underline-thickness="48"
    underline-position="-97"
    stemh="114"
    stemv="141"
    unicode-range="U+0002-U+FFFD"
  />
<missing-glyph horiz-adv-x="89" 
 />
    <glyph glyph-name="fi" unicode="fi" horiz-adv-x="598" 
d="M16 410v118h78v14c0 146 93 218 239 218c67 0 115 -16 169 -31l-24 -131c-43 11 -82 24 -136 24c-59 0 -92 -25 -92 -80v-14h104v-118h-104v-410h-156v410h-78zM410 0v528h156v-528h-156z" />
    <glyph glyph-name=".notdef" horiz-adv-x="89" 
 />
    <glyph glyph-name="uni0009" horiz-adv-x="89" 
 />
    <glyph glyph-name="uni0009" horiz-adv-x="89" 
 />
    <glyph glyph-name="uni0002" horiz-adv-x="89" 
 />
    <glyph glyph-name="nonmarkingreturn" unicode="&#xd;" horiz-adv-x="89" 
 />
    <glyph glyph-name="space" unicode=" " horiz-adv-x="89" 
 />
    <glyph glyph-name="exclam" unicode="!" horiz-adv-x="214" 
d="M22 74c0 51 35 82 85 82c51 0 87 -31 87 -82s-37 -82 -87 -82s-85 32 -85 82zM24 711h166l-17 -508h-131z" />
    <glyph glyph-name="quotedbl" unicode="&#x22;" horiz-adv-x="318" 
d="M24 551v199h116l-42 -278zM184 551v199h115l-42 -278z" />
    <glyph glyph-name="numbersign" unicode="#" horiz-adv-x="591" 
d="M16 192v100h126l22 123l-112 1v100h130l36 195h103l-35 -203h80l35 203h105l-36 -198h106v-97h-124l-22 -125l108 1v-100h-125l-35 -200h-105l35 200h-79l-35 -200h-104l35 200h-109zM247 292h79l21 123l-79 1z" />
    <glyph glyph-name="dollar" unicode="$" horiz-adv-x="528" 
d="M14 230v8h156v-8c0 -72 31 -112 99 -112c53 0 85 26 85 75c0 63 -45 81 -97 100c-84 30 -165 65 -200 145c-10 24 -17 52 -17 83c0 93 52 151 119 180c23 10 48 17 75 20v109l92 -55v-57c114 -18 184 -101 184 -229v-7h-156v7c0 65 -25 106 -81 106
c-50 0 -77 -27 -77 -76c0 -41 21 -59 50 -75c37 -20 95 -40 134 -60c70 -35 130 -88 130 -192c0 -123 -86 -185 -194 -199v-104l-92 55v49c-95 11 -161 58 -193 135c-13 29 -17 62 -17 102z" />
    <glyph glyph-name="percent" unicode="%" horiz-adv-x="697" 
d="M16 534v36c0 71 39 118 93 139c20 8 43 12 69 12c97 0 162 -57 162 -151v-36c0 -94 -63 -150 -161 -150c-78 0 -130 35 -152 91c-7 19 -11 39 -11 59zM126 534c0 -34 18 -54 53 -54c34 0 53 21 53 54v35c0 34 -20 56 -54 56c-33 0 -52 -23 -52 -56v-35zM127 87l355 569
l83 -44l-355 -569zM356 140v37c0 72 40 118 93 139c20 8 44 12 70 12c97 0 161 -57 161 -151v-37c0 -71 -38 -117 -91 -139c-20 -8 -43 -11 -69 -11c-97 0 -164 56 -164 150zM466 141c0 -32 21 -55 54 -55c37 0 52 19 52 55v36c0 34 -19 55 -53 55c-36 0 -53 -21 -53 -55
v-36z" />
    <glyph glyph-name="ampersand" unicode="&#x26;" horiz-adv-x="652" 
d="M16 194c0 96 66 143 125 183c-19 26 -35 51 -46 74c-12 25 -19 51 -19 79c0 91 49 153 119 178c25 9 53 13 83 13c87 0 149 -43 175 -104c8 -20 13 -42 13 -66c0 -80 -50 -127 -98 -160l-38 -27l111 -127c27 30 39 54 52 86l127 -4c-10 -80 -42 -134 -84 -190l113 -129
h-180l-34 39c-50 -31 -105 -49 -180 -49c-109 0 -190 45 -223 122c-11 25 -16 53 -16 82zM172 206c0 -54 36 -87 90 -87c30 0 60 8 85 22l-130 150l-4 -2c-24 -21 -41 -44 -41 -83zM218 528c0 -14 3 -26 11 -40c7 -13 16 -28 26 -42l32 21c26 18 47 34 47 71
c0 32 -24 54 -57 54c-39 0 -59 -25 -59 -64z" />
    <glyph glyph-name="quotesingle" unicode="'" horiz-adv-x="159" 
d="M24 551v199h116l-42 -278z" />
    <glyph glyph-name="parenleft" unicode="(" horiz-adv-x="317" 
d="M18 278v11c0 176 52 314 133 410c33 40 73 72 122 93l33 -88c-104 -78 -154 -226 -154 -414v-13c0 -151 33 -277 96 -359c19 -24 36 -43 58 -56l-33 -87c-78 33 -133 97 -174 168c-50 86 -81 200 -81 335z" />
    <glyph glyph-name="parenright" unicode=")" horiz-adv-x="323" 
d="M11 -139l4 4c101 78 147 227 147 412v13c0 187 -47 337 -151 415l32 87l7 -3c76 -32 131 -100 171 -169c50 -86 83 -196 83 -331v-11c0 -176 -56 -311 -136 -408c-31 -38 -71 -73 -118 -92l-7 -3z" />
    <glyph glyph-name="asterisk" unicode="*" horiz-adv-x="479" 
d="M12 515l34 97l149 -55l-10 154h112l-10 -158l145 54l34 -97l-153 -43l100 -127l-91 -64l-86 139l-86 -134l-91 62l104 130z" />
    <glyph glyph-name="plus" unicode="+" horiz-adv-x="546" 
d="M22 264v142h176v183h150v-183h176v-142h-176v-200h-150v200h-176z" />
    <glyph glyph-name="comma" unicode="," horiz-adv-x="229" 
d="M16 -151c22 52 54 88 54 161v110h135l-1 -104c0 -69 -28 -123 -59 -164c-13 -17 -28 -34 -44 -46z" />
    <glyph glyph-name="hyphen" unicode="-" horiz-adv-x="346" 
d="M28 240v128h290v-128h-290z" />
    <glyph glyph-name="period" unicode="." horiz-adv-x="222" 
d="M24 62c0 50 36 83 87 83c50 0 87 -32 87 -83s-37 -82 -87 -82s-87 32 -87 82z" />
    <glyph glyph-name="slash" unicode="/" horiz-adv-x="405" 
d="M8 -61l266 772h120l-266 -772h-120z" />
    <glyph glyph-name="zero" unicode="0" horiz-adv-x="537" 
d="M20 295v121c0 178 68 305 247 305c128 0 200 -69 231 -168c12 -38 18 -84 18 -137v-121c0 -176 -68 -305 -248 -305c-129 0 -198 70 -230 169c-12 38 -18 84 -18 136zM176 277c0 -87 15 -158 92 -158s92 71 92 158v158c0 87 -14 156 -93 156c-76 0 -91 -70 -91 -156v-158
z" />
    <glyph glyph-name="one" unicode="1" horiz-adv-x="350" 
d="M16 447v154l147 111h157v-727h-156v558z" />
    <glyph glyph-name="two" unicode="2" horiz-adv-x="548" 
d="M16 472v8c0 114 65 187 148 221c31 12 67 20 106 20c112 0 190 -41 224 -122c10 -26 16 -55 16 -87c0 -58 -21 -101 -45 -139c-31 -51 -73 -96 -116 -140l-113 -119h296v-129h-502v107l232 248c29 31 52 60 71 93c12 21 19 40 19 65c0 58 -29 94 -84 94
c-64 0 -96 -44 -96 -112v-8h-156z" />
    <glyph glyph-name="three" unicode="3" horiz-adv-x="540" 
d="M14 202v8h156v-8c0 -52 43 -83 97 -83c60 0 101 30 101 86c0 67 -40 95 -110 95h-82v126h82c64 0 98 30 98 86c0 52 -32 80 -89 80c-51 0 -87 -23 -87 -66v-6h-156v7c0 99 69 155 147 180c29 9 60 14 93 14c112 0 193 -40 230 -117c13 -26 18 -56 18 -89
c0 -76 -47 -122 -97 -149c65 -27 109 -80 109 -164c0 -110 -72 -172 -158 -198c-32 -9 -65 -14 -102 -14c-107 0 -188 45 -228 117c-15 27 -22 59 -22 95z" />
    <glyph glyph-name="four" unicode="4" horiz-adv-x="561" 
d="M16 146v111l294 454h154v-435h80v-130h-80v-154h-156v154h-292zM171 276h137v225z" />
    <glyph glyph-name="five" unicode="5" horiz-adv-x="527" 
d="M13 213h155v-7c5 -53 38 -87 94 -87c67 0 92 51 92 121c0 72 -34 114 -107 114c-46 0 -71 -18 -93 -40l-123 30l42 367h413v-133h-283l-16 -125c28 13 60 21 98 21c150 0 225 -96 225 -242c0 -112 -56 -187 -139 -222c-31 -13 -67 -20 -109 -20c-107 0 -187 51 -225 124
c-15 27 -22 57 -23 91z" />
    <glyph glyph-name="six" unicode="6" 
d="M18 275v54c0 180 82 307 214 361c46 19 98 28 156 28h28v-131h-16c-123 0 -197 -56 -219 -150c33 27 77 47 132 47c110 0 171 -69 197 -152c9 -29 14 -61 14 -94c0 -116 -62 -193 -146 -229c-30 -13 -64 -19 -102 -19c-128 0 -207 75 -240 170c-12 35 -18 73 -18 115z
M174 257c0 -64 19 -111 59 -129c12 -5 26 -9 40 -9c49 0 74 32 87 70c5 15 8 30 8 48c0 55 -22 92 -58 109c-12 5 -25 8 -40 8c-48 0 -80 -25 -96 -57v-40z" />
    <glyph glyph-name="seven" unicode="7" horiz-adv-x="551" 
d="M16 582v129h518v-88l-278 -638h-166l275 597h-349z" />
    <glyph glyph-name="eight" unicode="8" horiz-adv-x="528" 
d="M16 198c0 82 48 138 104 168c-49 30 -88 80 -88 152c0 103 60 165 140 190c28 9 59 13 93 13c105 0 183 -42 216 -116c12 -26 17 -54 17 -86c0 -73 -40 -124 -89 -153c59 -32 103 -85 103 -168c0 -108 -64 -170 -149 -195c-30 -9 -62 -13 -98 -13
c-111 0 -192 42 -230 118c-13 26 -19 56 -19 90zM174 209c0 -56 33 -90 91 -90s91 34 91 90c0 57 -33 91 -92 91c-58 0 -90 -34 -90 -91zM188 511c0 -50 28 -83 77 -83s77 33 77 83s-28 81 -77 81c-51 0 -77 -30 -77 -81z" />
    <glyph glyph-name="nine" unicode="9" horiz-adv-x="530" 
d="M16 465c0 116 61 198 145 236c30 13 64 20 102 20c127 0 199 -77 230 -173c11 -36 17 -75 17 -118v-49c0 -182 -72 -306 -207 -360c-46 -19 -100 -28 -162 -28h-19v133h18c122 0 195 43 210 139c-30 -24 -69 -43 -118 -43c-109 0 -175 65 -201 148c-9 29 -15 61 -15 95z
M172 467c0 -69 28 -121 94 -121c42 0 74 24 88 52v55c0 64 -16 112 -55 131c-11 5 -24 8 -37 8c-61 0 -90 -60 -90 -125z" />
    <glyph glyph-name="colon" unicode=":" horiz-adv-x="219" 
d="M24 76c0 50 35 84 86 84c50 0 88 -33 88 -84s-38 -81 -88 -81s-86 31 -86 81zM24 462c0 50 35 83 86 83c50 0 88 -32 88 -83s-38 -82 -88 -82s-86 32 -86 82z" />
    <glyph glyph-name="semicolon" unicode=";" horiz-adv-x="234" 
d="M12 -143c25 49 54 89 54 160v111h135l-1 -104c0 -69 -29 -123 -60 -164c-13 -17 -26 -34 -43 -47zM40 462c0 50 35 83 86 83c50 0 88 -32 88 -83s-38 -82 -88 -82s-86 32 -86 82z" />
    <glyph glyph-name="less" unicode="&#x3c;" horiz-adv-x="484" 
d="M22 233v124l436 186v-154l-264 -94l264 -93v-154z" />
    <glyph glyph-name="equal" unicode="=" horiz-adv-x="510" 
d="M28 146v130h452v-130h-452zM28 356v130h452v-130h-452z" />
    <glyph glyph-name="greater" unicode="&#x3e;" horiz-adv-x="490" 
d="M26 47v154l268 94l-268 94v153l440 -185v-124z" />
    <glyph glyph-name="question" unicode="?" horiz-adv-x="484" 
d="M12 507v7c0 137 96 207 230 207s226 -64 226 -199c0 -48 -18 -83 -38 -112c-24 -34 -55 -60 -85 -88c-21 -20 -38 -42 -43 -77c-1 -11 -2 -22 -3 -35v-7h-139v7c0 65 11 115 40 153c34 43 87 72 105 122c4 9 5 20 5 31c0 51 -19 74 -68 74c-46 0 -72 -29 -72 -76v-7h-158
zM146 76c0 50 36 83 86 83c51 0 86 -32 86 -83s-36 -82 -86 -82c-41 0 -67 21 -80 49c-4 10 -6 21 -6 33z" />
    <glyph glyph-name="at" unicode="@" horiz-adv-x="864" 
d="M19 226c8 212 107 367 261 437c52 23 112 35 177 35c133 0 230 -47 295 -120c65 -74 100 -181 94 -316c-4 -126 -53 -231 -152 -268c-21 -7 -43 -12 -69 -12c-57 0 -98 25 -120 64c-28 -35 -69 -62 -126 -62h-14c-108 8 -143 114 -134 227c13 117 62 216 150 260
c27 14 56 19 85 19c77 0 114 -27 157 -56l-25 -287c-1 -7 -1 -12 -1 -18c0 -34 13 -53 46 -53c34 0 53 25 69 52c35 62 40 191 19 274c-31 126 -118 202 -276 202c-107 0 -182 -45 -233 -106c-54 -64 -87 -159 -92 -272c-8 -167 46 -278 162 -324c38 -15 82 -23 131 -23
c65 0 123 14 167 36l21 -89c-44 -33 -117 -47 -190 -47h-23c-261 9 -389 178 -379 447zM354 183c0 -57 15 -97 59 -97c41 0 59 39 73 76l20 224c-10 3 -19 4 -31 4c-84 0 -111 -84 -120 -181c-1 -9 -1 -17 -1 -26z" />
    <glyph glyph-name="A" unicode="A" horiz-adv-x="708" 
d="M9 0l271 711h146l272 -711h-172l-49 146h-247l-49 -146h-172zM275 272h157l-79 235z" />
    <glyph glyph-name="B" unicode="B" horiz-adv-x="595" 
d="M28 0v711h256c119 0 212 -31 253 -111c13 -25 19 -54 19 -87c0 -71 -38 -120 -89 -146c63 -23 105 -76 105 -155c0 -149 -110 -212 -265 -212h-279zM190 133h117c63 0 103 26 103 81c0 61 -31 88 -97 88h-123v-169zM190 420h100c64 1 104 22 104 77c0 62 -38 80 -110 80
h-94v-157z" />
    <glyph glyph-name="C" unicode="C" horiz-adv-x="639" 
d="M20 332v46c0 157 66 271 179 319c37 16 78 24 124 24c177 0 276 -100 293 -258l1 -8h-162v7c-5 83 -44 124 -132 124c-108 0 -139 -84 -139 -208v-45c0 -117 25 -208 137 -208c88 0 128 38 133 120v7h162l-1 -8c-9 -122 -76 -201 -175 -236c-35 -12 -74 -18 -119 -18
c-153 0 -242 86 -280 201c-14 42 -21 89 -21 141z" />
    <glyph glyph-name="D" unicode="D" horiz-adv-x="613" 
d="M28 0v711h226c161 0 262 -86 308 -202c16 -42 24 -87 24 -138v-32c0 -160 -79 -268 -198 -315c-41 -16 -86 -24 -135 -24h-225zM190 133h63c120 0 169 82 169 207v31c0 126 -47 206 -168 206h-64v-444z" />
    <glyph glyph-name="E" unicode="E" 
d="M28 0v711h490v-134h-328v-147h280v-130h-280v-167h330v-133h-492z" />
    <glyph glyph-name="F" unicode="F" horiz-adv-x="523" 
d="M28 0v711h478v-134h-316v-161h280v-132h-280v-284h-162z" />
    <glyph glyph-name="G" unicode="G" horiz-adv-x="645" 
d="M20 334v42c0 161 62 273 180 322c38 15 80 23 126 23c174 0 271 -87 289 -243l1 -8h-157c-12 73 -45 118 -129 118c-109 0 -146 -89 -146 -212v-41c0 -127 43 -212 160 -212c47 0 91 10 110 29v106h-134v124h296v-387h-126v18c-45 -15 -97 -23 -154 -23
c-156 0 -252 83 -293 199c-15 42 -23 91 -23 145z" />
    <glyph glyph-name="H" unicode="H" horiz-adv-x="607" 
d="M28 0v711h162v-277h224v277h160v-711h-160v294h-224v-294h-162z" />
    <glyph glyph-name="I" unicode="I" horiz-adv-x="221" 
d="M28 0v711h160v-711h-160z" />
    <glyph glyph-name="J" unicode="J" horiz-adv-x="540" 
d="M16 218v7h162v-7c0 -64 23 -95 84 -95c56 0 84 41 84 101v487h162v-489c0 -112 -64 -186 -150 -216c-30 -10 -61 -16 -96 -16c-148 0 -246 78 -246 228z" />
    <glyph glyph-name="K" unicode="K" horiz-adv-x="630" 
d="M28 0v711h162v-298l219 298h201l-276 -353l292 -358h-203l-233 301v-301h-162z" />
    <glyph glyph-name="L" unicode="L" horiz-adv-x="522" 
d="M28 0v711h162v-578h310v-133h-472z" />
    <glyph glyph-name="M" unicode="M" horiz-adv-x="824" 
d="M28 0v711h204l178 -501l176 501h206v-711h-162v202l11 287l-177 -489h-110l-177 488l13 -286v-202h-162z" />
    <glyph glyph-name="N" unicode="N" horiz-adv-x="654" 
d="M28 0v711h158l274 -450v450h162v-711h-159l-273 449v-449h-162z" />
    <glyph glyph-name="O" unicode="O" horiz-adv-x="666" 
d="M20 339v32c0 162 69 275 185 325c38 16 80 25 126 25c100 0 175 -41 224 -95c53 -59 85 -146 85 -255v-32c0 -163 -67 -275 -183 -325c-38 -16 -79 -24 -125 -24c-99 0 -176 40 -225 94c-53 58 -87 147 -87 255zM184 340c0 -96 24 -170 85 -201c18 -9 39 -14 63 -14
c107 0 146 94 146 215v31c0 122 -39 214 -147 214c-107 0 -147 -93 -147 -214v-31z" />
    <glyph glyph-name="P" unicode="P" horiz-adv-x="609" 
d="M28 0v711h285c127 0 218 -53 256 -143c12 -30 19 -63 19 -96c0 -118 -69 -184 -160 -213c-34 -11 -72 -17 -115 -17h-123v-242h-162zM190 376h123c70 0 111 30 111 95c0 67 -41 106 -111 106h-123v-201z" />
    <glyph glyph-name="Q" unicode="Q" horiz-adv-x="666" 
d="M20 339v32c0 162 69 275 185 325c38 16 80 25 126 25c100 0 175 -41 224 -95c53 -59 85 -147 85 -256v-31c0 -129 -43 -225 -116 -285l118 -90l-105 -93l-154 124c-18 -3 -34 -4 -51 -5c-100 0 -175 41 -225 95c-55 58 -87 145 -87 254zM184 340c0 -96 24 -170 85 -201
c18 -9 39 -14 63 -14c107 0 146 94 146 215v31c0 122 -39 214 -147 214c-107 0 -147 -93 -147 -214v-31z" />
    <glyph glyph-name="R" unicode="R" horiz-adv-x="611" 
d="M28 0v711h272c121 0 212 -39 251 -124c12 -28 19 -59 19 -94c0 -107 -53 -163 -125 -198l151 -279v-16h-169l-133 260h-104v-260h-162zM190 386h110c68 0 108 31 108 94c0 64 -37 97 -108 97h-110v-191z" />
    <glyph glyph-name="S" unicode="S" horiz-adv-x="599" 
d="M16 232v7h162v-7c0 -81 49 -111 132 -111c60 0 104 21 104 72c0 46 -27 61 -65 77c-18 8 -40 15 -69 24c-90 28 -181 65 -224 143c-13 24 -18 51 -18 82c0 106 78 162 161 187c33 10 68 15 108 15c121 0 209 -52 249 -136c12 -28 20 -58 20 -91v-8h-162v8
c0 64 -42 95 -110 95c-61 0 -106 -22 -106 -74c0 -20 10 -36 33 -51s57 -28 103 -42c95 -28 188 -67 226 -152c10 -23 16 -50 16 -79c0 -106 -71 -163 -157 -187c-33 -9 -69 -14 -109 -14c-139 0 -245 60 -282 166c-8 23 -12 48 -12 76z" />
    <glyph glyph-name="T" unicode="T" horiz-adv-x="627" 
d="M16 577v134h594v-134h-218v-577h-162v577h-214z" />
    <glyph glyph-name="U" unicode="U" horiz-adv-x="616" 
d="M26 244v467h160v-465c0 -83 39 -123 119 -123c81 0 119 40 119 123v465h162v-467c0 -128 -70 -207 -170 -238c-34 -11 -71 -16 -111 -16c-130 0 -219 54 -259 145c-13 32 -20 68 -20 109z" />
    <glyph glyph-name="V" unicode="V" horiz-adv-x="689" 
d="M9 711h180l154 -516l155 516h180l-253 -711h-163z" />
    <glyph glyph-name="W" unicode="W" horiz-adv-x="886" 
d="M12 711h161l91 -476l110 476h136l110 -477l91 477h161l-161 -711h-159l-110 452l-110 -452h-159z" />
    <glyph glyph-name="X" unicode="X" horiz-adv-x="654" 
d="M6 0l216 358l-211 353h186l129 -237l129 237h186l-211 -353l216 -358h-187l-133 241l-133 -241h-187z" />
    <glyph glyph-name="Y" unicode="Y" horiz-adv-x="658" 
d="M8 711h178l142 -310l143 310h177l-238 -453v-258h-164v258z" />
    <glyph glyph-name="Z" unicode="Z" horiz-adv-x="596" 
d="M20 0v93l344 484h-344v134h548v-92l-344 -489h352v-130h-556z" />
    <glyph glyph-name="bracketleft" unicode="[" horiz-adv-x="269" 
d="M30 -181v1008h226v-124h-70v-760h70v-124h-226z" />
    <glyph glyph-name="backslash" unicode="\" horiz-adv-x="480" 
d="M9 711h160l303 -772h-161z" />
    <glyph glyph-name="bracketright" unicode="]" horiz-adv-x="270" 
d="M14 -57h70v760h-70v124h226v-1008h-226v124z" />
    <glyph glyph-name="asciicircum" unicode="^" horiz-adv-x="444" 
d="M13 356l152 355h113l152 -355h-128l-80 209l-80 -209h-129z" />
    <glyph glyph-name="underscore" unicode="_" horiz-adv-x="518" 
d="M28 0h460v-125h-460v125z" />
    <glyph glyph-name="grave" unicode="`" horiz-adv-x="311" 
d="M11 750h175l107 -166h-133z" />
    <glyph glyph-name="a" unicode="a" horiz-adv-x="521" 
d="M18 152c0 134 116 178 251 178h55v21c0 44 -21 68 -70 68c-42 0 -68 -20 -68 -57v-7h-156v7c0 56 30 97 63 124c41 32 99 52 169 52c100 0 171 -37 203 -106c12 -23 17 -51 17 -82v-218c0 -47 6 -83 20 -114v-18h-154c-8 10 -12 23 -15 38c-30 -29 -71 -48 -128 -48
c-84 0 -145 41 -173 97c-10 20 -14 41 -14 65zM174 163c0 -30 26 -50 62 -50c42 0 73 19 88 43v76h-50c-60 0 -100 -19 -100 -69z" />
    <glyph glyph-name="b" unicode="b" horiz-adv-x="546" 
d="M28 0v750h156v-258c30 29 69 46 122 46c115 0 177 -71 201 -161c8 -33 13 -69 13 -107v-11c0 -118 -37 -208 -120 -249c-27 -13 -58 -20 -93 -20c-60 0 -102 23 -132 56l-5 -46h-142zM184 167c15 -29 40 -48 87 -48c76 0 93 60 93 140v11c0 78 -19 138 -94 138
c-47 0 -71 -18 -86 -47v-194z" />
    <glyph glyph-name="c" unicode="c" horiz-adv-x="523" 
d="M20 257v14c0 121 52 208 141 247c31 14 68 20 110 20c106 0 178 -49 210 -125c11 -27 17 -57 17 -89v-7h-146v7c0 50 -33 85 -83 85c-75 0 -93 -60 -93 -138v-14c0 -79 17 -138 94 -138c50 0 79 26 82 72v7h146v-8c0 -64 -31 -113 -66 -144c-37 -33 -93 -56 -160 -56
c-128 0 -205 68 -236 163c-10 32 -16 67 -16 104z" />
    <glyph glyph-name="d" unicode="d" horiz-adv-x="544" 
d="M20 258v10c0 117 41 209 124 250c27 13 57 20 91 20c54 0 92 -19 121 -47v259h156v-750h-142l-5 46c-31 -33 -71 -56 -131 -56c-74 0 -125 34 -158 77c-35 46 -56 113 -56 191zM176 258c0 -76 22 -139 94 -139c45 0 71 20 86 48v194c-16 29 -41 47 -85 47
c-73 0 -95 -64 -95 -140v-10z" />
    <glyph glyph-name="e" unicode="e" 
d="M20 246v19c0 124 58 214 149 253c31 13 67 20 106 20c161 0 241 -107 241 -262v-66h-336c10 -56 51 -91 120 -91c57 0 95 22 121 56l6 7l79 -89l-4 -5c-42 -58 -112 -98 -212 -98c-130 0 -215 66 -251 158c-12 31 -19 63 -19 98zM182 322h180v4c0 53 -31 83 -88 83
c-58 0 -84 -38 -92 -87z" />
    <glyph glyph-name="f" unicode="f" horiz-adv-x="391" 
d="M16 410v118h78v38c0 125 78 194 202 194c29 0 57 -5 79 -12l-2 -124c-16 3 -28 6 -50 7c-46 0 -73 -22 -73 -65v-38h106v-118h-106v-410h-156v410h-78z" />
    <glyph glyph-name="g" unicode="g" horiz-adv-x="563" 
d="M10 -72c0 51 32 84 62 105c9 6 18 12 27 16c-11 16 -17 34 -17 57c0 42 25 70 50 89c-51 28 -96 78 -96 150v10c0 61 30 105 66 133c41 32 101 50 172 50c29 0 57 -3 83 -10h184l2 -88h-55c14 -23 22 -51 22 -86v-10c0 -59 -28 -103 -64 -131c-41 -33 -100 -53 -171 -53
c-25 0 -48 4 -68 8c-5 -6 -9 -12 -9 -19c0 -19 23 -23 55 -23h90c111 0 197 -47 197 -156c0 -56 -38 -98 -74 -125c-49 -36 -120 -59 -205 -59c-76 0 -138 13 -185 41c-34 20 -66 52 -66 101zM158 -38c0 -41 51 -54 103 -54c54 0 98 11 117 38c4 6 6 12 6 18
c0 29 -24 40 -62 40h-95c-15 0 -32 1 -44 3c-15 -9 -25 -24 -25 -45zM192 344c0 -40 37 -62 83 -62s81 23 81 62v10c0 40 -35 62 -82 62c-48 0 -82 -21 -82 -62v-10z" />
    <glyph glyph-name="h" unicode="h" horiz-adv-x="529" 
d="M28 0v750h156v-267c32 33 75 55 133 55c130 0 181 -81 181 -207v-331h-156v329c0 56 -20 79 -76 79c-42 0 -66 -16 -82 -41v-367h-156z" />
    <glyph glyph-name="i" unicode="i" horiz-adv-x="221" 
d="M22 658c0 48 37 80 86 80c50 0 86 -30 86 -80s-36 -81 -86 -81c-49 0 -86 30 -86 81zM30 0v528h156v-528h-156z" />
    <glyph glyph-name="j" unicode="j" horiz-adv-x="308" 
d="M10 -76l10 -2c14 -3 27 -5 42 -5c40 0 56 19 56 61v550h158v-550c0 -121 -68 -191 -189 -191c-29 0 -55 3 -77 10v127zM108 658c0 49 36 80 86 80s86 -31 86 -80c0 -51 -37 -81 -86 -81s-86 30 -86 81z" />
    <glyph glyph-name="k" unicode="k" horiz-adv-x="534" 
d="M28 0v762h156v-416l139 182h186l-201 -246l221 -282h-186l-159 216v-216h-156z" />
    <glyph glyph-name="l" unicode="l" horiz-adv-x="216" 
d="M28 0v750h156v-750h-156z" />
    <glyph glyph-name="m" unicode="m" horiz-adv-x="831" 
d="M28 0v528h147l3 -48c35 35 82 58 146 58c67 0 114 -26 141 -73c34 45 83 73 158 73c128 0 177 -79 177 -204v-334h-156v331c0 55 -18 77 -73 77c-43 0 -66 -22 -80 -52c0 -4 1 -6 1 -9v-347h-156v330c0 58 -20 78 -73 78c-41 0 -64 -17 -79 -42v-366h-156z" />
    <glyph glyph-name="n" unicode="n" horiz-adv-x="529" 
d="M28 0v528h147l3 -50c34 35 83 60 146 60c127 0 174 -82 174 -204v-334h-156v332c0 55 -21 76 -76 76c-41 0 -66 -19 -82 -43v-365h-156z" />
    <glyph glyph-name="o" unicode="o" horiz-adv-x="563" 
d="M20 259v10c0 124 58 210 149 249c32 14 68 20 109 20c128 0 208 -69 241 -163c11 -33 17 -67 17 -106v-10c0 -124 -56 -210 -147 -249c-32 -14 -69 -20 -110 -20c-128 0 -209 69 -242 163c-11 33 -17 67 -17 106zM176 259c0 -79 25 -140 103 -140c75 0 101 62 101 140v10
c0 78 -26 140 -102 140c-75 0 -102 -63 -102 -140v-10z" />
    <glyph glyph-name="p" unicode="p" horiz-adv-x="546" 
d="M28 -203v731h145l4 -41c31 31 70 51 128 51c115 0 174 -70 199 -159c9 -33 14 -69 14 -109v-11c0 -116 -41 -207 -120 -249c-26 -14 -58 -20 -92 -20c-54 0 -92 20 -122 46v-239h-156zM184 163c16 -28 40 -44 85 -44c72 0 93 65 93 140v11c0 75 -22 138 -94 138
c-45 0 -68 -16 -84 -42v-203z" />
    <glyph glyph-name="q" unicode="q" horiz-adv-x="544" 
d="M20 259v10c0 116 41 208 123 249c27 13 58 20 93 20c60 0 101 -23 130 -55l8 45h138v-731h-156v237c-29 -26 -69 -44 -121 -44c-115 0 -174 76 -200 163c-9 33 -15 67 -15 106zM176 259c0 -77 22 -140 95 -140c45 0 69 17 85 44v204c-16 27 -40 42 -84 42
c-72 0 -96 -64 -96 -140v-10z" />
    <glyph glyph-name="r" unicode="r" horiz-adv-x="365" 
d="M28 0v528h148l2 -47c25 33 61 57 112 57c18 0 39 -4 52 -8l-3 -150c-16 2 -41 5 -58 5c-53 0 -80 -15 -97 -46v-339h-156z" />
    <glyph glyph-name="s" unicode="s" horiz-adv-x="504" 
d="M14 176v7h149v-7c3 -48 37 -71 90 -71c44 0 75 15 75 47c0 28 -21 35 -50 45c-13 5 -30 9 -52 13c-75 16 -147 43 -180 101c-10 18 -14 38 -14 61c0 52 27 91 58 117c38 30 93 49 160 49c102 0 177 -37 212 -106c10 -22 16 -46 16 -72v-7h-156v7c0 41 -26 63 -73 63
c-40 0 -67 -18 -67 -49c0 -24 22 -34 47 -42c35 -11 89 -19 126 -31c47 -15 86 -40 109 -79c11 -19 16 -42 16 -68c0 -54 -29 -92 -63 -117c-41 -29 -98 -47 -167 -47c-106 0 -186 45 -220 118c-10 22 -16 46 -16 68z" />
    <glyph glyph-name="t" unicode="t" horiz-adv-x="366" 
d="M16 410v118h76v130h156v-130h90v-118h-90v-244c0 -34 11 -45 47 -45c21 0 34 3 49 6v-122c-25 -10 -57 -15 -93 -15c-106 0 -159 55 -159 158v262h-76z" />
    <glyph glyph-name="u" unicode="u" horiz-adv-x="529" 
d="M26 189v339h156v-337c0 -47 20 -72 67 -72s74 17 91 43v366h156v-528h-146l-3 43c-33 -33 -78 -53 -139 -53c-126 0 -182 77 -182 199z" />
    <glyph glyph-name="v" unicode="v" horiz-adv-x="536" 
d="M11 528h164l92 -335l92 335h164l-184 -528h-144z" />
    <glyph glyph-name="w" unicode="w" horiz-adv-x="750" 
d="M11 528h152l64 -312l89 312h114l90 -312l64 312h152l-139 -528h-130l-94 314l-94 -314h-130z" />
    <glyph glyph-name="x" unicode="x" horiz-adv-x="535" 
d="M8 0l161 270l-154 258h168l83 -149l85 149h168l-154 -258l160 -270h-168l-90 158l-90 -158h-169z" />
    <glyph glyph-name="y" unicode="y" horiz-adv-x="542" 
d="M9 528h169l92 -309l92 309h168l-215 -602c-25 -73 -72 -139 -176 -139c-24 0 -46 2 -65 10l-4 1v120h7c8 0 15 -1 21 -1c50 0 73 16 85 52l15 38z" />
    <glyph glyph-name="z" unicode="z" horiz-adv-x="495" 
d="M20 0v93l241 306h-235v129h440v-90l-244 -313h252v-125h-454z" />
    <glyph glyph-name="braceleft" unicode="{" horiz-adv-x="334" 
d="M16 244v116h7c58 0 79 32 79 92v98c0 138 78 200 189 232l31 -92c-55 -18 -78 -64 -78 -141v-98c0 -71 -30 -120 -79 -150c49 -30 79 -80 79 -150v-99c0 -78 23 -126 78 -144l-31 -93c-112 32 -189 97 -189 237v99c0 59 -23 93 -79 93h-7z" />
    <glyph glyph-name="bar" unicode="|" horiz-adv-x="159" 
d="M28 -147v858h102v-858h-102z" />
    <glyph glyph-name="braceright" unicode="}" horiz-adv-x="335" 
d="M11 -92c55 18 77 67 77 144v99c0 73 33 122 81 150c-51 29 -81 79 -81 150v98c0 76 -22 123 -77 141l31 92c111 -32 188 -94 188 -232v-98c0 -60 22 -92 80 -92h8v-116h-8c-58 0 -80 -32 -80 -93v-99c0 -140 -76 -205 -188 -237z" />
    <glyph glyph-name="asciitilde" unicode="~" horiz-adv-x="608" 
d="M24 196v7c0 93 35 163 101 194c21 9 44 15 68 15c28 0 53 -5 75 -17c22 -11 45 -28 68 -49v-1c21 -21 38 -39 70 -39c39 0 58 37 58 82v8l120 -2v-7c0 -93 -38 -164 -102 -196c-21 -11 -44 -15 -68 -15c-69 0 -107 34 -142 67c-14 13 -27 22 -38 29s-21 10 -34 10
c-37 0 -56 -37 -56 -80v-8z" />
    <glyph glyph-name="nonbreakingspace" unicode="&#xa0;" horiz-adv-x="89" 
 />
    <glyph glyph-name="exclamdown" unicode="&#xa1;" horiz-adv-x="217" 
d="M22 456c0 50 38 82 87 82c40 0 67 -22 80 -50c4 -10 7 -20 7 -32c0 -49 -38 -83 -87 -83c-41 0 -68 22 -81 50c-4 10 -6 21 -6 33zM26 -188l17 508h132l17 -507z" />
    <glyph glyph-name="cent" unicode="&#xa2;" horiz-adv-x="513" 
d="M18 257v14c0 111 43 193 113 237c23 15 53 27 83 32v112h112v-112c77 -16 131 -61 156 -130c8 -24 14 -50 14 -78v-8h-148v8c0 50 -31 84 -82 84c-75 0 -92 -63 -92 -145v-14c0 -83 16 -145 93 -145c50 0 79 25 82 71v8l147 -1v-7c0 -86 -49 -141 -106 -172
c-20 -10 -42 -18 -64 -22v-117h-112v116c-127 24 -196 123 -196 269z" />
    <glyph glyph-name="sterling" unicode="&#xa3;" horiz-adv-x="571" 
d="M20 274v130h75l-3 100c0 138 89 216 229 216c108 0 182 -46 213 -125c10 -26 16 -54 16 -85v-8h-156v8c0 52 -24 77 -74 77c-44 0 -66 -34 -66 -85l3 -102h151v-126h-146l2 -61c0 -37 -7 -64 -22 -87h312v-134h-532v134h51c24 7 29 41 29 79l-3 68z" />
    <glyph glyph-name="currency" unicode="&#xa4;" horiz-adv-x="662" 
d="M12 63l66 67c-27 45 -46 98 -46 166c0 71 19 129 50 173l-70 70l78 81l71 -72c44 31 99 55 169 55s126 -25 169 -56l71 74l81 -82l-74 -72c30 -44 51 -102 51 -171c0 -67 -21 -122 -47 -165l70 -68l-81 -79l-65 65c-45 -34 -102 -59 -175 -59c-74 0 -132 25 -176 59
l-64 -65zM136 297c0 -61 25 -109 57 -142c31 -32 77 -57 137 -57s105 25 136 57c32 32 56 81 56 142c0 92 -51 154 -117 183c-23 10 -49 15 -75 15c-60 0 -106 -25 -137 -57c-32 -33 -57 -80 -57 -141z" />
    <glyph glyph-name="yen" unicode="&#xa5;" horiz-adv-x="633" 
d="M8 711h178l130 -285l130 285h178l-184 -341h110v-100h-156v-42h156v-100h-156v-136h-162v136h-164v100h164v42h-164v100h123z" />
    <glyph glyph-name="brokenbar" unicode="&#xa6;" horiz-adv-x="200" 
d="M28 -140v404h142v-404h-142zM28 326v385h142v-385h-142z" />
    <glyph glyph-name="section" unicode="&#xa7;" horiz-adv-x="579" 
d="M16 -2h156v-8c0 -63 50 -81 118 -81c58 0 104 15 104 58c0 23 -10 33 -27 44c-30 19 -65 29 -111 42c-92 24 -182 52 -222 130c-12 22 -16 49 -16 79c0 63 31 104 73 131c-39 31 -61 73 -61 138c0 102 75 154 155 177c32 9 66 13 106 13c151 0 261 -64 261 -217v-7h-156
v7c0 58 -43 88 -105 88c-49 0 -84 -12 -98 -39c-4 -8 -7 -16 -7 -23c0 -42 28 -53 66 -66c127 -41 310 -56 310 -230c0 -63 -31 -104 -73 -130c38 -31 61 -73 61 -138c0 -101 -71 -154 -154 -175c-32 -8 -67 -12 -106 -12c-127 0 -228 42 -262 140c-7 21 -12 44 -12 71v8z
M174 275c0 -44 27 -58 66 -72c34 -12 94 -27 134 -43c20 13 34 33 34 61c0 42 -32 56 -70 71c-35 13 -93 28 -134 44c-19 -12 -30 -32 -30 -61z" />
    <glyph glyph-name="dieresis" unicode="&#xa8;" horiz-adv-x="439" 
d="M24 660c0 43 35 69 76 69s74 -27 74 -69c0 -43 -33 -70 -74 -70c-42 0 -76 26 -76 70zM262 660c0 43 35 69 76 69s74 -27 74 -69s-33 -71 -74 -71c-42 0 -76 28 -76 71z" />
    <glyph glyph-name="copyright" unicode="&#xa9;" horiz-adv-x="742" 
d="M16 356c0 115 47 200 105 260c41 42 93 74 156 92c31 9 61 13 94 13c111 0 193 -48 250 -105c59 -61 103 -144 103 -260c0 -113 -44 -201 -103 -261c-57 -58 -142 -105 -250 -105c-111 0 -194 47 -250 105c-58 61 -105 146 -105 261zM92 356c0 -135 74 -225 170 -268
c34 -15 70 -22 109 -22c89 0 153 36 198 83c47 49 81 115 81 207c0 122 -61 204 -139 251c-37 22 -84 38 -140 38c-87 0 -152 -38 -198 -84c-47 -46 -81 -116 -81 -205zM186 327v58c0 89 39 154 103 182c22 9 47 15 75 15c105 0 172 -56 172 -162v-8h-92v8
c0 57 -24 80 -80 80c-61 0 -88 -49 -88 -115v-58c0 -68 26 -115 88 -115c57 0 80 20 80 79v7h90v-7c0 -106 -65 -161 -170 -161c-89 0 -143 51 -166 118c-8 24 -12 50 -12 79z" />
    <glyph glyph-name="ordfeminine" unicode="&#xaa;" horiz-adv-x="368" 
d="M18 456c0 92 79 121 174 121h42v13c0 29 -14 43 -48 43c-37 0 -60 -12 -60 -41v-8l-100 9v7c0 85 80 121 160 121c91 0 150 -48 150 -135v-146c0 -33 3 -59 11 -86l3 -10h-101c-3 8 -7 17 -8 25c-23 -20 -53 -32 -94 -32c-77 0 -129 42 -129 119zM118 458
c0 -26 17 -35 50 -35c24 0 52 14 66 26v55h-41c-36 0 -60 -9 -70 -29c-1 1 -5 -17 -5 -17z" />
    <glyph glyph-name="guillemotleft" unicode="&#xab;" horiz-adv-x="468" 
d="M18 249v14l140 188h108l-121 -195l121 -195h-108zM206 249v14l140 188h108l-121 -195l121 -195h-108z" />
    <glyph glyph-name="logicalnot" unicode="&#xac;" horiz-adv-x="477" 
d="M26 302v98h422v-224h-112v126h-310z" />
    <glyph glyph-name="uni00AD" unicode="&#xad;" horiz-adv-x="346" 
d="M28 240v128h290v-128h-290z" />
    <glyph glyph-name="registered" unicode="&#xae;" horiz-adv-x="742" 
d="M16 356c0 115 47 200 105 260c56 58 138 105 250 105c111 0 193 -48 250 -105c42 -43 73 -96 90 -161c8 -31 13 -64 13 -99c0 -113 -44 -200 -103 -260c-57 -58 -142 -106 -250 -106c-111 0 -194 48 -250 106c-58 61 -105 145 -105 260zM92 356c0 -135 74 -225 170 -268
c34 -15 70 -22 109 -22c89 0 153 36 198 83c47 49 81 115 81 207c0 122 -61 204 -139 251c-37 22 -84 38 -140 38c-87 0 -152 -37 -198 -83c-47 -46 -81 -117 -81 -206zM220 146v430h144c93 0 166 -38 166 -135c0 -41 -23 -68 -48 -85c33 -21 46 -57 46 -105v-27
c0 -23 2 -45 8 -59v-19h-87c-7 17 -9 41 -9 64v41c0 45 -16 61 -62 61h-70v-166h-88zM308 392h59c40 0 75 16 75 49c0 47 -25 55 -78 55h-56v-104z" />
    <glyph glyph-name="macron" unicode="&#xaf;" horiz-adv-x="427" 
d="M53 600v111h387v-111h-387z" />
    <glyph glyph-name="macron" unicode="&#x2c9;" horiz-adv-x="427" 
d="M53 600v111h387v-111h-387z" />
    <glyph glyph-name="degree" unicode="&#xb0;" horiz-adv-x="321" 
d="M20 586c0 63 40 103 86 123c17 7 35 12 54 12c64 0 109 -39 128 -83c7 -16 10 -33 10 -52c0 -62 -38 -102 -84 -121c-17 -7 -35 -12 -54 -12c-64 0 -109 38 -129 81c-7 16 -11 33 -11 52zM106 586c0 -26 26 -46 54 -46c32 0 52 18 52 46s-20 47 -52 47
c-31 0 -54 -20 -54 -47z" />
    <glyph glyph-name="plusminus" unicode="&#xb1;" horiz-adv-x="501" 
d="M20 336v132h162v168h140v-168h160v-132h-160v-178h-140v178h-162zM32 -8v132h436v-132h-436z" />
    <glyph glyph-name="twosuperior" unicode="&#xb2;" horiz-adv-x="366" 
d="M18 568v8c0 67 42 111 92 130c20 7 41 10 65 10c90 0 159 -37 159 -121c0 -53 -32 -83 -62 -107c-13 -12 -29 -24 -47 -38l-37 -29h156v-95h-316v78l142 128c18 13 31 26 38 36c8 11 10 19 10 24c0 19 -12 29 -38 29c-28 0 -46 -17 -46 -45v-8h-116z" />
    <glyph glyph-name="threesuperior" unicode="&#xb3;" horiz-adv-x="369" 
d="M18 448v7h116v-7c0 -21 24 -33 52 -33c30 0 48 13 48 35c0 30 -19 38 -55 38h-51v82h51c31 0 47 8 47 27c0 16 -16 23 -43 23c-23 0 -43 -9 -43 -22v-7h-114v7c0 64 48 98 96 111c18 5 38 7 58 7c84 0 162 -28 162 -110c0 -38 -25 -60 -53 -74c35 -14 59 -44 59 -92
c0 -88 -85 -120 -168 -120c-66 0 -119 24 -146 68c-10 16 -16 37 -16 60z" />
    <glyph glyph-name="acute" unicode="&#xb4;" horiz-adv-x="308" 
d="M16 584l107 166h174l-149 -166h-132z" />
    <glyph glyph-name="mu" unicode="&#xb5;" horiz-adv-x="543" 
d="M30 -203v731h156v-299c0 -71 15 -110 80 -110c48 0 75 17 92 45v364h156v-528h-145l-2 25c-26 -22 -60 -35 -104 -35c-29 0 -55 6 -77 17v-210h-156z" />
    <glyph glyph-name="paragraph" unicode="&#xb6;" horiz-adv-x="582" 
d="M16 474c0 114 57 186 142 219c31 12 66 18 106 18h154v-726h-122v254h-32c-118 0 -200 54 -232 142c-10 29 -16 59 -16 93zM430 -15v726h122v-726h-122z" />
    <glyph glyph-name="periodcentered" unicode="&#xb7;" horiz-adv-x="225" 
d="M24 348c0 50 37 83 88 83c50 0 88 -32 88 -83c0 -50 -39 -83 -88 -83s-88 32 -88 83z" />
    <glyph glyph-name="cedilla" unicode="&#xb8;" horiz-adv-x="249" 
d="M21 -72l18 75h120l-5 -28c42 -8 72 -37 72 -84c0 -63 -49 -96 -102 -109c-22 -6 -48 -8 -76 -8h-7l-5 97h8c30 0 48 8 48 29c0 23 -24 25 -63 28h-8z" />
    <glyph glyph-name="onesuperior" unicode="&#xb9;" horiz-adv-x="253" 
d="M16 563v88l190 59h18v-384h-116v256z" />
    <glyph glyph-name="ordmasculine" unicode="&#xba;" horiz-adv-x="391" 
d="M18 518v34c0 79 41 132 103 155c22 9 47 14 74 14c86 0 141 -42 164 -101c8 -20 13 -44 13 -68v-34c0 -85 -41 -142 -103 -167c-22 -8 -46 -14 -73 -14c-87 0 -141 44 -165 108c-8 22 -13 47 -13 73zM118 518c0 -57 24 -95 78 -95c51 0 76 40 76 95v32
c0 49 -25 83 -77 83c-53 0 -77 -33 -77 -83v-32z" />
    <glyph glyph-name="guillemotright" unicode="&#xbb;" horiz-adv-x="475" 
d="M15 61l121 194l-121 196h108l141 -189v-13l-141 -188h-108zM207 61l121 194l-121 196h108l141 -189v-13l-141 -188h-108z" />
    <glyph glyph-name="onequarter" unicode="&#xbc;" horiz-adv-x="675" 
d="M14 555v92l190 61h18v-399h-116v266zM117 91l355 569l83 -44l-356 -569zM327 146l175 240v6h114v-226h44v-96h-44v-78h-114v78h-168zM446 166h56v72c-18 -25 -38 -49 -56 -72z" />
    <glyph glyph-name="onehalf" unicode="&#xbd;" horiz-adv-x="725" 
d="M14 558v92l190 61h18v-399h-116v266zM105 91l355 569l83 -44l-356 -569zM384 250v7c0 68 41 110 91 130c20 7 41 11 65 11c90 0 158 -39 158 -128c0 -56 -31 -90 -61 -116c-13 -12 -29 -24 -47 -38l-37 -28h157v-96h-318v78l143 129c18 16 30 30 37 43c8 14 12 23 12 27
c0 23 -13 33 -39 33c-29 0 -47 -17 -47 -45v-7h-114z" />
    <glyph glyph-name="threequarters" unicode="&#xbe;" horiz-adv-x="757" 
d="M16 441v7h116v-7c0 -21 23 -33 51 -33c30 0 47 14 47 36c0 30 -18 38 -54 38h-50v80h50c30 0 48 11 48 32c0 19 -17 27 -44 27c-23 0 -42 -8 -42 -21v-8h-116v8c0 65 49 96 97 110c18 5 38 7 58 7c83 0 161 -30 161 -116c0 -40 -24 -65 -52 -80c35 -14 60 -42 60 -89
c0 -86 -86 -118 -169 -118c-68 0 -119 22 -146 67c-10 16 -15 37 -15 60zM201 91l355 569l83 -44l-356 -569zM409 146l175 240v6h114v-226h44v-96h-44v-78h-114v78h-168zM528 167l56 -1v72c-18 -25 -38 -48 -56 -71z" />
    <glyph glyph-name="questiondown" unicode="&#xbf;" horiz-adv-x="490" 
d="M18 3c0 49 17 83 39 113c25 34 56 63 86 91c29 25 41 52 41 107v8h140v-8c0 -92 -25 -145 -74 -189c-28 -27 -57 -51 -70 -88c-4 -10 -6 -21 -6 -33c0 -46 24 -70 68 -70c48 0 76 28 76 77v7h156v-7c0 -137 -95 -207 -229 -207s-227 63 -227 199zM170 456
c0 51 35 82 86 82c50 0 86 -31 86 -82c0 -50 -36 -82 -86 -82s-86 32 -86 82z" />
    <glyph glyph-name="Agrave" unicode="&#xc0;" horiz-adv-x="708" 
d="M9 0l271 711h146l272 -711h-172l-49 146h-247l-49 -146h-172zM157 901h175l107 -166h-133zM275 272h157l-79 235z" />
    <glyph glyph-name="Aacute" unicode="&#xc1;" horiz-adv-x="708" 
d="M9 0l271 711h146l272 -711h-172l-49 146h-247l-49 -146h-172zM273 735l107 166h174l-149 -166h-132zM275 272h157l-79 235z" />
    <glyph glyph-name="Acircumflex" unicode="&#xc2;" horiz-adv-x="708" 
d="M9 0l271 711h146l272 -711h-172l-49 146h-247l-49 -146h-172zM162 743v19l149 139h88l151 -141v-17h-123l-72 68l-73 -68h-120zM275 272h157l-79 235z" />
    <glyph glyph-name="Atilde" unicode="&#xc3;" horiz-adv-x="708" 
d="M9 0l271 711h146l272 -711h-172l-49 146h-247l-49 -146h-172zM164 749v7c0 60 29 106 70 127c15 8 31 12 47 12c60 0 85 -42 134 -42c21 0 35 15 35 39v9l96 -8v-7c0 -61 -30 -105 -70 -126c-14 -8 -31 -11 -48 -11c-48 0 -74 24 -103 37c-9 3 -19 5 -31 5
c-21 0 -34 -15 -34 -39v-8zM275 272h157l-79 235z" />
    <glyph glyph-name="Adieresis" unicode="&#xc4;" horiz-adv-x="708" 
d="M9 0l271 711h146l272 -711h-172l-49 146h-247l-49 -146h-172zM160 810c0 43 34 70 75 70s75 -28 75 -70c0 -43 -34 -69 -75 -69c-42 0 -75 25 -75 69zM275 272h157l-79 235zM398 810c0 43 34 70 75 70s75 -28 75 -70s-34 -70 -75 -70c-42 0 -75 27 -75 70z" />
    <glyph glyph-name="Aring" unicode="&#xc5;" horiz-adv-x="708" 
d="M9 0l271 711h146l272 -711h-172l-49 146h-247l-49 -146h-172zM238 838c0 52 34 83 71 98c14 5 30 9 46 9c64 0 117 -41 117 -107s-53 -106 -117 -106c-53 0 -90 27 -107 63c-6 13 -10 28 -10 43zM275 272h157l-79 235zM310 838c0 -25 19 -45 45 -45c27 0 45 19 45 45
c0 27 -17 45 -45 45s-45 -18 -45 -45z" />
    <glyph glyph-name="AE" unicode="&#xc6;" horiz-adv-x="956" 
d="M6 0l393 711h507v-130h-291l6 -155h245v-126h-239l7 -173h302v-127h-452l-7 163h-206l-81 -163h-184zM339 290h132l-10 243z" />
    <glyph glyph-name="Ccedilla" unicode="&#xc7;" horiz-adv-x="639" 
d="M20 333v45c0 157 66 271 179 319c37 16 78 24 124 24c177 0 276 -100 293 -258l1 -8h-162v7c-5 83 -44 124 -132 124c-108 0 -139 -84 -139 -208v-45c0 -117 25 -208 137 -208c88 0 128 38 133 120v7h162l-1 -8c-11 -143 -100 -231 -236 -250v-5c42 -9 71 -40 71 -91
c0 -68 -49 -102 -102 -116c-22 -6 -47 -8 -75 -8h-7l-5 97h8c30 0 47 9 47 33c0 28 -31 26 -70 31l13 60c-117 21 -186 97 -218 196c-14 42 -21 90 -21 142z" />
    <glyph glyph-name="Egrave" unicode="&#xc8;" 
d="M28 0v711h490v-134h-328v-147h280v-130h-280v-167h330v-133h-492zM84 903h175l107 -166h-133z" />
    <glyph glyph-name="Eacute" unicode="&#xc9;" 
d="M28 0v711h490v-134h-328v-147h280v-130h-280v-167h330v-133h-492zM200 737l107 166h174l-149 -166h-132z" />
    <glyph glyph-name="Ecircumflex" unicode="&#xca;" 
d="M28 0v711h490v-134h-328v-147h280v-130h-280v-167h330v-133h-492zM88 745v19l150 139h88l150 -141v-17h-122l-72 68l-73 -68h-121z" />
    <glyph glyph-name="Edieresis" unicode="&#xcb;" 
d="M28 0v711h490v-134h-328v-147h280v-130h-280v-167h330v-133h-492zM88 812c0 43 34 70 75 70s75 -28 75 -70c0 -43 -34 -69 -75 -69c-42 0 -75 25 -75 69zM326 812c0 43 34 70 75 70s75 -28 75 -70s-34 -70 -75 -70c-42 0 -75 27 -75 70z" />
    <glyph glyph-name="Igrave" unicode="&#xcc;" horiz-adv-x="312" 
d="M1 903h175l107 -166h-133zM118 0v711h162v-711h-162z" />
    <glyph glyph-name="Iacute" unicode="&#xcd;" horiz-adv-x="309" 
d="M25 737l107 166h174l-149 -166h-132zM28 0v711h160v-711h-160z" />
    <glyph glyph-name="Icircumflex" unicode="&#xce;" horiz-adv-x="411" 
d="M10 745v19l150 139h88l150 -141v-17h-122l-72 68l-73 -68h-121zM124 0v711h160v-711h-160z" />
    <glyph glyph-name="Idieresis" unicode="&#xcf;" horiz-adv-x="411" 
d="M10 812c0 43 35 70 76 70s74 -28 74 -70c0 -43 -33 -69 -74 -69c-42 0 -76 25 -76 69zM124 0v711h162v-711h-162zM248 812c0 43 35 70 76 70s74 -28 74 -70s-33 -70 -74 -70c-42 0 -76 27 -76 70z" />
    <glyph glyph-name="Eth" unicode="&#xd0;" horiz-adv-x="675" 
d="M16 306v104h74v301h226c161 0 263 -86 308 -202c16 -42 24 -87 24 -138v-32c0 -159 -80 -268 -198 -315c-41 -16 -86 -24 -136 -24h-224v306h-74zM252 133h62c120 0 170 82 170 207v31c0 125 -48 206 -168 206h-64v-167h120v-104h-120v-173z" />
    <glyph glyph-name="Ntilde" unicode="&#xd1;" horiz-adv-x="654" 
d="M28 0v711h158l274 -450v450h162v-711h-159l-273 449v-449h-162zM134 749v7c0 60 30 106 71 127c15 8 31 12 47 12c60 0 85 -42 134 -42c21 0 34 15 34 39v9l98 -8v-7c0 -61 -31 -105 -71 -126c-14 -8 -31 -11 -48 -11c-48 0 -74 24 -103 37c-9 3 -19 5 -31 5
c-21 0 -33 -15 -33 -39v-8z" />
    <glyph glyph-name="Ograve" unicode="&#xd2;" horiz-adv-x="666" 
d="M20 339v32c0 162 69 275 185 325c38 16 80 25 126 25c100 0 175 -41 224 -95c53 -59 85 -146 85 -255v-32c0 -163 -67 -275 -183 -325c-38 -16 -79 -24 -125 -24c-99 0 -176 41 -225 95c-53 58 -87 146 -87 254zM133 901h175l107 -166h-133zM184 340
c0 -96 24 -170 85 -201c18 -9 39 -14 63 -14c107 0 146 94 146 215v31c0 122 -39 214 -147 214c-107 0 -147 -93 -147 -214v-31z" />
    <glyph glyph-name="Oacute" unicode="&#xd3;" horiz-adv-x="666" 
d="M20 339v32c0 162 69 275 185 325c38 16 80 25 126 25c100 0 175 -41 224 -95c53 -59 85 -146 85 -255v-32c0 -163 -67 -275 -183 -325c-38 -16 -79 -24 -125 -24c-99 0 -176 41 -225 95c-53 58 -87 146 -87 254zM184 340c0 -96 24 -170 85 -201c18 -9 39 -14 63 -14
c107 0 146 94 146 215v31c0 122 -39 214 -147 214c-107 0 -147 -93 -147 -214v-31zM249 735l107 166h174l-149 -166h-132z" />
    <glyph glyph-name="Ocircumflex" unicode="&#xd4;" horiz-adv-x="666" 
d="M20 339v32c0 162 69 275 185 325c38 16 80 25 126 25c100 0 175 -41 224 -95c53 -59 85 -146 85 -255v-32c0 -163 -67 -275 -183 -325c-38 -16 -79 -24 -125 -24c-99 0 -176 41 -225 95c-53 58 -87 146 -87 254zM138 743v19l149 139h88l151 -141v-17h-123l-72 68l-73 -68
h-120zM184 340c0 -96 24 -170 85 -201c18 -9 39 -14 63 -14c107 0 146 94 146 215v31c0 122 -39 214 -147 214c-107 0 -147 -93 -147 -214v-31z" />
    <glyph glyph-name="Otilde" unicode="&#xd5;" horiz-adv-x="666" 
d="M20 339v32c0 162 69 275 185 325c38 16 80 25 126 25c100 0 175 -41 224 -95c53 -59 85 -146 85 -255v-32c0 -163 -67 -275 -183 -325c-38 -16 -79 -24 -125 -24c-99 0 -176 41 -225 95c-53 58 -87 146 -87 254zM140 749v7c0 60 30 106 71 127c15 7 30 12 46 12
c30 0 52 -13 72 -22s38 -20 62 -20c21 0 35 15 35 39v9l96 -8v-7c0 -61 -30 -105 -70 -126c-14 -8 -31 -11 -48 -11c-48 0 -74 24 -103 37c-9 3 -19 5 -31 5c-21 0 -34 -15 -34 -39v-8zM184 340c0 -96 24 -170 85 -201c18 -9 39 -14 63 -14c107 0 146 94 146 215v31
c0 122 -39 214 -147 214c-107 0 -147 -93 -147 -214v-31z" />
    <glyph glyph-name="Odieresis" unicode="&#xd6;" horiz-adv-x="666" 
d="M20 339v32c0 162 69 275 185 325c38 16 80 25 126 25c100 0 175 -41 224 -95c53 -59 85 -146 85 -255v-32c0 -163 -67 -275 -183 -325c-38 -16 -79 -24 -125 -24c-99 0 -176 41 -225 95c-53 58 -87 146 -87 254zM136 810c0 43 34 70 75 70s75 -28 75 -70
c0 -43 -34 -69 -75 -69c-42 0 -75 25 -75 69zM184 340c0 -96 24 -170 85 -201c18 -9 39 -14 63 -14c107 0 146 94 146 215v31c0 122 -39 214 -147 214c-107 0 -147 -93 -147 -214v-31zM374 810c0 43 34 70 75 70s75 -28 75 -70s-34 -70 -75 -70c-42 0 -75 27 -75 70z" />
    <glyph glyph-name="multiply" unicode="&#xd7;" horiz-adv-x="511" 
d="M11 182l150 153l-150 148l94 92l148 -152l149 152l94 -92l-150 -148l150 -153l-94 -87l-149 145l-148 -145z" />
    <glyph glyph-name="Oslash" unicode="&#xd8;" horiz-adv-x="667" 
d="M20 339v31c0 161 71 276 186 326c38 16 79 25 125 25c60 0 111 -15 151 -38l35 58h108l-70 -115c55 -61 87 -145 87 -255v-31c0 -162 -68 -276 -184 -326c-38 -16 -80 -24 -126 -24c-52 0 -99 11 -141 32l-40 -68h-109l74 121c-59 61 -96 149 -96 264zM184 332
c0 -48 6 -89 18 -122l208 350c-23 17 -48 24 -79 25c-107 0 -147 -97 -147 -221v-32zM263 143c20 -12 42 -18 69 -18c107 0 146 96 146 221v34c0 41 -5 76 -13 105z" />
    <glyph glyph-name="Ugrave" unicode="&#xd9;" horiz-adv-x="616" 
d="M26 244v467h160v-465c0 -83 39 -123 119 -123c81 0 119 40 119 123v465h162v-467c0 -128 -70 -207 -170 -238c-34 -11 -71 -16 -111 -16c-130 0 -219 54 -259 145c-13 32 -20 68 -20 109zM106 901h175l107 -166h-133z" />
    <glyph glyph-name="Uacute" unicode="&#xda;" horiz-adv-x="616" 
d="M26 244v467h160v-465c0 -83 39 -123 119 -123c81 0 119 40 119 123v465h162v-467c0 -128 -70 -207 -170 -238c-34 -11 -71 -16 -111 -16c-130 0 -219 54 -259 145c-13 32 -20 68 -20 109zM221 735l107 166h174l-149 -166h-132z" />
    <glyph glyph-name="Ucircumflex" unicode="&#xdb;" horiz-adv-x="616" 
d="M26 244v467h160v-465c0 -83 39 -123 119 -123c81 0 119 40 119 123v465h162v-467c0 -128 -70 -207 -170 -238c-34 -11 -71 -16 -111 -16c-130 0 -219 54 -259 145c-13 32 -20 68 -20 109zM110 743v19l150 139h88l150 -141v-17h-122l-72 68l-73 -68h-121z" />
    <glyph glyph-name="Udieresis" unicode="&#xdc;" horiz-adv-x="616" 
d="M26 244v467h160v-465c0 -83 39 -123 119 -123c81 0 119 40 119 123v465h162v-467c0 -128 -70 -207 -170 -238c-34 -11 -71 -16 -111 -16c-130 0 -219 54 -259 145c-13 32 -20 68 -20 109zM108 810c0 43 35 70 76 70s74 -28 74 -70c0 -43 -33 -69 -74 -69
c-42 0 -76 25 -76 69zM346 810c0 43 35 70 76 70s74 -28 74 -70s-33 -70 -74 -70c-42 0 -76 27 -76 70z" />
    <glyph glyph-name="Yacute" unicode="&#xdd;" horiz-adv-x="656" 
d="M7 711h178l142 -310l143 310h177l-239 -453v-258h-164v258zM246 735l107 166h174l-149 -166h-132z" />
    <glyph glyph-name="Thorn" unicode="&#xde;" horiz-adv-x="578" 
d="M28 0v711h156v-123h101c124 0 214 -49 252 -137c12 -28 17 -58 17 -91c0 -115 -68 -181 -155 -211c-34 -11 -71 -17 -114 -17h-101v-132h-156zM184 262h101c69 0 113 32 113 97s-44 101 -113 101h-101v-198z" />
    <glyph glyph-name="germandbls" unicode="&#xdf;" horiz-adv-x="596" 
d="M28 0v530c0 151 89 231 238 231c96 0 166 -38 197 -106c12 -24 17 -51 17 -81c0 -43 -10 -72 -27 -97c-14 -21 -25 -42 -25 -75c0 -23 18 -40 35 -56c34 -33 77 -65 100 -114c7 -17 11 -35 11 -56c0 -129 -95 -186 -225 -186c-56 0 -108 10 -145 32l31 126
c25 -16 66 -29 111 -29s72 19 72 57c0 27 -17 43 -35 59c-44 40 -111 75 -111 162c0 81 54 100 54 169c0 42 -28 67 -70 67c-57 0 -72 -41 -72 -105v-528h-156z" />
    <glyph glyph-name="agrave" unicode="&#xe0;" horiz-adv-x="519" 
d="M16 152c0 134 117 178 252 178h56v21c0 44 -22 68 -71 68c-42 0 -69 -20 -69 -57v-7h-156v7c0 56 31 97 64 124c41 32 99 52 169 52c100 0 171 -37 203 -106c12 -23 16 -51 16 -82v-218c0 -47 7 -83 21 -114l1 -1v-17h-155c-8 10 -12 23 -15 38c-30 -29 -71 -48 -128 -48
c-84 0 -145 41 -173 97c-10 20 -15 41 -15 65zM62 750h175l107 -166h-133zM172 163c0 -30 27 -50 63 -50c42 0 74 19 89 43v76h-51c-60 0 -101 -19 -101 -69z" />
    <glyph glyph-name="aacute" unicode="&#xe1;" horiz-adv-x="519" 
d="M16 152c0 134 117 178 252 178h56v21c0 44 -22 68 -71 68c-42 0 -69 -20 -69 -57v-7h-156v7c0 56 31 97 64 124c41 32 99 52 169 52c100 0 171 -37 203 -106c12 -23 16 -51 16 -82v-218c0 -47 7 -83 21 -114l1 -1v-17h-155c-8 10 -12 23 -15 38c-30 -29 -71 -48 -128 -48
c-84 0 -145 41 -173 97c-10 20 -15 41 -15 65zM172 163c0 -30 27 -50 63 -50c42 0 74 19 89 43v76h-51c-60 0 -101 -19 -101 -69zM178 584l107 166h174l-149 -166h-132z" />
    <glyph glyph-name="acircumflex" unicode="&#xe2;" horiz-adv-x="519" 
d="M16 152c0 134 117 178 252 178h56v21c0 44 -22 68 -71 68c-42 0 -69 -20 -69 -57v-7h-156v7c0 56 31 97 64 124c41 32 99 52 169 52c100 0 171 -37 203 -106c12 -23 16 -51 16 -82v-218c0 -47 7 -83 21 -114l1 -1v-17h-155c-8 10 -12 23 -15 38c-30 -29 -71 -48 -128 -48
c-84 0 -145 41 -173 97c-10 20 -15 41 -15 65zM66 592v19l150 139h88l150 -141v-17h-122l-72 68l-73 -68h-121zM172 163c0 -30 27 -50 63 -50c42 0 74 19 89 43v76h-51c-60 0 -101 -19 -101 -69z" />
    <glyph glyph-name="atilde" unicode="&#xe3;" horiz-adv-x="519" 
d="M16 152c0 134 117 178 252 178h56v21c0 44 -22 68 -71 68c-42 0 -69 -20 -69 -57v-7h-156v7c0 56 31 97 64 124c41 32 99 52 169 52c100 0 171 -37 203 -106c12 -23 16 -51 16 -82v-218c0 -47 7 -83 21 -114l1 -1v-17h-155c-8 10 -12 23 -15 38c-30 -29 -71 -48 -128 -48
c-84 0 -145 41 -173 97c-10 20 -15 41 -15 65zM68 599v7c0 60 31 106 72 127c15 7 30 12 46 12c30 0 52 -13 72 -22s38 -20 62 -20c21 0 34 15 34 39v9l98 -8v-7c0 -61 -31 -105 -71 -126c-14 -8 -31 -11 -48 -11c-48 0 -74 24 -103 37c-9 3 -19 5 -31 5
c-21 0 -33 -15 -33 -39v-8zM172 163c0 -30 27 -50 63 -50c42 0 74 19 89 43v76h-51c-60 0 -101 -19 -101 -69z" />
    <glyph glyph-name="adieresis" unicode="&#xe4;" horiz-adv-x="519" 
d="M16 152c0 134 117 178 252 178h56v21c0 44 -22 68 -71 68c-42 0 -69 -20 -69 -57v-7h-156v7c0 56 31 97 64 124c41 32 99 52 169 52c100 0 171 -37 203 -106c12 -23 16 -51 16 -82v-218c0 -47 7 -83 21 -114l1 -1v-17h-155c-8 10 -12 23 -15 38c-30 -29 -71 -48 -128 -48
c-84 0 -145 41 -173 97c-10 20 -15 41 -15 65zM66 660c0 43 34 69 75 69s75 -27 75 -69c0 -43 -34 -70 -75 -70c-42 0 -75 26 -75 70zM172 163c0 -30 27 -50 63 -50c42 0 74 19 89 43v76h-51c-60 0 -101 -19 -101 -69zM304 660c0 43 34 69 75 69s75 -27 75 -69
s-34 -71 -75 -71c-42 0 -75 28 -75 71z" />
    <glyph glyph-name="aring" unicode="&#xe5;" horiz-adv-x="519" 
d="M16 152c0 134 117 178 252 178h56v21c0 44 -22 68 -71 68c-42 0 -69 -20 -69 -57v-7h-156v7c0 56 31 97 64 124c41 32 99 52 169 52c100 0 171 -37 203 -106c12 -23 16 -51 16 -82v-218c0 -47 7 -83 21 -114l1 -1v-17h-155c-8 10 -12 23 -15 38c-30 -29 -71 -48 -128 -48
c-84 0 -145 41 -173 97c-10 20 -15 41 -15 65zM144 686c0 52 34 83 71 98c14 5 30 9 46 9c64 0 117 -41 117 -107s-53 -106 -117 -106c-53 0 -90 27 -107 63c-6 13 -10 28 -10 43zM172 163c0 -30 27 -50 63 -50c42 0 74 19 89 43v76h-51c-60 0 -101 -19 -101 -69zM216 686
c0 -25 19 -45 45 -45c27 0 45 19 45 45c0 27 -17 45 -45 45s-45 -18 -45 -45z" />
    <glyph glyph-name="ae" unicode="&#xe6;" horiz-adv-x="846" 
d="M18 158c0 122 116 162 249 162h73v20c0 44 -25 69 -70 69c-38 0 -62 -11 -74 -33c-3 -6 -6 -13 -6 -20v-7l-156 9v8c0 58 32 98 67 124c42 30 100 48 170 48c68 0 123 -18 160 -51c39 32 91 52 159 51c114 0 185 -57 214 -142c10 -29 16 -62 16 -99v-85h-326
c8 -60 48 -93 122 -93c63 0 107 17 148 40l43 -105c-50 -37 -120 -64 -206 -64c-83 0 -146 27 -188 69c-44 -43 -108 -69 -192 -69c-93 0 -162 34 -190 99c-9 20 -13 44 -13 69zM174 162c0 -37 26 -53 73 -53c38 0 71 16 93 35v81h-72c-44 0 -74 -15 -88 -41
c-4 -8 -6 -14 -6 -22zM496 314h170v6c0 56 -23 89 -76 89c-60 0 -85 -40 -94 -95z" />
    <glyph glyph-name="ccedilla" unicode="&#xe7;" horiz-adv-x="522" 
d="M20 257v14c0 121 52 208 141 247c31 14 68 20 110 20c106 0 178 -49 210 -125c11 -27 17 -57 17 -89v-7h-146v7c0 50 -33 85 -83 85c-75 0 -93 -61 -93 -140v-14c0 -80 17 -140 94 -140c50 0 79 25 82 69v7h146v-7c0 -61 -31 -110 -66 -140c-27 -23 -64 -41 -106 -49
l-1 -6c42 -9 71 -40 71 -91c0 -68 -49 -102 -102 -116c-22 -6 -47 -8 -75 -8h-7l-5 97h8c30 0 47 9 47 33c0 28 -31 26 -70 31l13 62c-91 20 -144 79 -169 156c-10 32 -16 67 -16 104z" />
    <glyph glyph-name="egrave" unicode="&#xe8;" horiz-adv-x="540" 
d="M20 246v19c0 124 58 214 149 253c31 13 66 20 105 20c161 0 240 -107 240 -262v-66h-335c10 -56 51 -91 120 -91c57 0 95 22 121 56l6 7l79 -89l-4 -5c-42 -58 -112 -98 -212 -98c-130 0 -215 65 -251 157c-12 31 -18 64 -18 99zM60 750h175l107 -166h-133zM181 322h179
v4c0 53 -30 83 -87 83c-58 0 -84 -38 -92 -87z" />
    <glyph glyph-name="eacute" unicode="&#xe9;" horiz-adv-x="540" 
d="M20 246v19c0 124 58 214 149 253c31 13 66 20 105 20c161 0 240 -107 240 -262v-66h-335c10 -56 51 -91 120 -91c57 0 95 22 121 56l6 7l79 -89l-4 -5c-42 -58 -112 -98 -212 -98c-130 0 -215 65 -251 157c-12 31 -18 64 -18 99zM175 584l107 166h174l-149 -166h-132z
M181 322h179v4c0 53 -30 83 -87 83c-58 0 -84 -38 -92 -87z" />
    <glyph glyph-name="ecircumflex" unicode="&#xea;" horiz-adv-x="540" 
d="M20 246v19c0 124 58 214 149 253c31 13 66 20 105 20c161 0 240 -107 240 -262v-66h-335c10 -56 51 -91 120 -91c57 0 95 22 121 56l6 7l79 -89l-4 -5c-42 -58 -112 -98 -212 -98c-130 0 -215 65 -251 157c-12 31 -18 64 -18 99zM64 592v19l150 139h88l150 -141v-17h-122
l-72 68l-73 -68h-121zM181 322h179v4c0 53 -30 83 -87 83c-58 0 -84 -38 -92 -87z" />
    <glyph glyph-name="edieresis" unicode="&#xeb;" horiz-adv-x="540" 
d="M20 246v19c0 124 58 214 149 253c31 13 66 20 105 20c161 0 240 -107 240 -262v-66h-335c10 -56 51 -91 120 -91c57 0 95 22 121 56l6 7l79 -89l-4 -5c-42 -58 -112 -98 -212 -98c-130 0 -215 65 -251 157c-12 31 -18 64 -18 99zM62 660c0 43 35 69 76 69s74 -27 74 -69
c0 -43 -33 -70 -74 -70c-42 0 -76 26 -76 70zM181 322h179v4c0 53 -30 83 -87 83c-58 0 -84 -38 -92 -87zM300 660c0 43 35 69 76 69s74 -27 74 -69s-33 -71 -74 -71c-42 0 -76 28 -76 71z" />
    <glyph glyph-name="igrave" unicode="&#xec;" horiz-adv-x="307" 
d="M1 743h175l107 -166h-133zM118 0v528h158v-528h-158z" />
    <glyph glyph-name="iacute" unicode="&#xed;" horiz-adv-x="308" 
d="M24 577l107 166h174l-149 -166h-132zM26 0v528h158v-528h-158z" />
    <glyph glyph-name="icircumflex" unicode="&#xee;" horiz-adv-x="412" 
d="M12 585v19l149 139h88l151 -141v-17h-123l-72 68l-73 -68h-120zM124 0v528h158v-528h-158z" />
    <glyph glyph-name="idieresis" unicode="&#xef;" horiz-adv-x="417" 
d="M14 652c0 43 34 70 75 70s75 -28 75 -70c0 -43 -34 -69 -75 -69c-42 0 -75 25 -75 69zM128 0v528h158v-528h-158zM252 652c0 43 34 70 75 70s75 -28 75 -70s-34 -70 -75 -70c-42 0 -75 27 -75 70z" />
    <glyph glyph-name="eth" unicode="&#xf0;" horiz-adv-x="560" 
d="M20 230c0 112 48 192 131 226c28 12 61 18 97 18c41 0 77 -11 105 -26c-16 40 -40 71 -68 99l-94 -61l-48 69l72 44c-35 21 -75 36 -117 48l-8 3l49 122c79 -13 149 -44 208 -87l86 54l45 -68l-65 -43c71 -75 121 -174 121 -311v-34c0 -132 -62 -229 -157 -271
c-32 -14 -67 -22 -104 -22c-120 0 -199 63 -235 147c-12 29 -18 60 -18 93zM176 236c0 -54 22 -90 57 -108c12 -6 26 -9 42 -9c75 0 101 74 101 157v53c-20 22 -51 35 -97 35c-72 0 -103 -51 -103 -128z" />
    <glyph glyph-name="ntilde" unicode="&#xf1;" horiz-adv-x="527" 
d="M26 0v528h148l3 -50c34 35 83 60 146 60c127 0 175 -82 175 -204v-334h-156v332c0 55 -22 76 -77 76c-41 0 -67 -19 -83 -43v-365h-156zM72 599v7c0 60 31 106 72 127c15 7 30 12 46 12c30 0 52 -13 72 -22s38 -20 62 -20c21 0 34 15 34 39v9l98 -8v-7
c0 -61 -31 -105 -71 -126c-14 -8 -31 -11 -48 -11c-48 0 -74 24 -103 37c-9 3 -19 5 -31 5c-21 0 -33 -15 -33 -39v-8z" />
    <glyph glyph-name="ograve" unicode="&#xf2;" horiz-adv-x="561" 
d="M20 259v10c0 124 57 210 148 249c32 14 68 20 109 20c128 0 208 -69 241 -163c11 -33 18 -67 18 -106v-10c0 -124 -57 -210 -148 -249c-32 -14 -69 -20 -110 -20c-128 0 -209 69 -242 163c-11 33 -16 67 -16 106zM79 750h175l107 -166h-133zM176 259
c0 -79 24 -140 102 -140c75 0 102 62 102 140v10c0 78 -27 140 -103 140c-75 0 -101 -63 -101 -140v-10z" />
    <glyph glyph-name="oacute" unicode="&#xf3;" horiz-adv-x="561" 
d="M20 259v10c0 124 57 210 148 249c32 14 68 20 109 20c128 0 208 -69 241 -163c11 -33 18 -67 18 -106v-10c0 -124 -57 -210 -148 -249c-32 -14 -69 -20 -110 -20c-128 0 -209 69 -242 163c-11 33 -16 67 -16 106zM176 259c0 -79 24 -140 102 -140c75 0 102 62 102 140v10
c0 78 -27 140 -103 140c-75 0 -101 -63 -101 -140v-10zM194 584l107 166h174l-149 -166h-132z" />
    <glyph glyph-name="ocircumflex" unicode="&#xf4;" horiz-adv-x="561" 
d="M20 259v10c0 124 57 210 148 249c32 14 68 20 109 20c128 0 208 -69 241 -163c11 -33 18 -67 18 -106v-10c0 -124 -57 -210 -148 -249c-32 -14 -69 -20 -110 -20c-128 0 -209 69 -242 163c-11 33 -16 67 -16 106zM84 592v19l149 139h88l151 -141v-17h-123l-72 68l-73 -68
h-120zM176 259c0 -79 24 -140 102 -140c75 0 102 62 102 140v10c0 78 -27 140 -103 140c-75 0 -101 -63 -101 -140v-10z" />
    <glyph glyph-name="otilde" unicode="&#xf5;" horiz-adv-x="561" 
d="M20 259v10c0 124 57 210 148 249c32 14 68 20 109 20c128 0 208 -69 241 -163c11 -33 18 -67 18 -106v-10c0 -124 -57 -210 -148 -249c-32 -14 -69 -20 -110 -20c-128 0 -209 69 -242 163c-11 33 -16 67 -16 106zM84 599v7c0 60 31 106 72 127c15 7 30 12 46 12
c30 0 52 -13 72 -22s38 -20 62 -20c21 0 34 15 34 39v9l98 -8v-7c0 -61 -31 -105 -71 -126c-14 -8 -31 -11 -48 -11c-48 0 -74 24 -103 37c-9 3 -19 5 -31 5c-21 0 -33 -15 -33 -39v-8zM176 259c0 -79 24 -140 102 -140c75 0 102 62 102 140v10c0 78 -27 140 -103 140
c-75 0 -101 -63 -101 -140v-10z" />
    <glyph glyph-name="odieresis" unicode="&#xf6;" horiz-adv-x="561" 
d="M20 259v10c0 124 57 210 148 249c32 14 68 20 109 20c128 0 208 -69 241 -163c11 -33 18 -67 18 -106v-10c0 -124 -57 -210 -148 -249c-32 -14 -69 -20 -110 -20c-128 0 -209 69 -242 163c-11 33 -16 67 -16 106zM82 660c0 43 34 69 75 69s75 -27 75 -69
c0 -43 -34 -70 -75 -70c-42 0 -75 26 -75 70zM176 259c0 -79 24 -140 102 -140c75 0 102 62 102 140v10c0 78 -27 140 -103 140c-75 0 -101 -63 -101 -140v-10zM320 660c0 43 34 69 75 69s75 -27 75 -69s-34 -71 -75 -71c-42 0 -75 28 -75 71z" />
    <glyph glyph-name="divide" unicode="&#xf7;" horiz-adv-x="566" 
d="M22 272v126h516v-126h-516zM194 135c0 51 36 81 86 81s88 -30 88 -81c0 -52 -38 -81 -88 -81s-86 30 -86 81zM194 524c0 51 36 82 86 82s88 -31 88 -82s-38 -81 -88 -81s-86 30 -86 81z" />
    <glyph glyph-name="oslash" unicode="&#xf8;" horiz-adv-x="561" 
d="M20 258v10c0 124 57 210 148 249c32 14 68 21 109 21c31 0 61 -4 87 -12l33 68h95l-53 -106c60 -47 97 -120 97 -218v-10c0 -124 -57 -211 -148 -250c-32 -14 -69 -20 -110 -20c-29 0 -57 3 -82 11l-34 -70h-96l52 105c-63 46 -98 123 -98 222zM176 252
c0 -32 5 -61 13 -84l116 237c-9 3 -18 4 -28 4c-75 0 -101 -66 -101 -147v-10zM255 121c9 -2 14 -2 23 -2c75 0 102 65 102 147v10c0 30 -5 56 -12 78z" />
    <glyph glyph-name="ugrave" unicode="&#xf9;" horiz-adv-x="528" 
d="M24 189v339h156v-337c0 -47 21 -72 68 -72s75 17 92 43v366h156v-528h-147l-3 43c-33 -33 -78 -53 -139 -53c-126 0 -183 77 -183 199zM63 750h175l107 -166h-133z" />
    <glyph glyph-name="uacute" unicode="&#xfa;" horiz-adv-x="528" 
d="M24 189v339h156v-337c0 -47 21 -72 68 -72s75 17 92 43v366h156v-528h-147l-3 43c-33 -33 -78 -53 -139 -53c-126 0 -183 77 -183 199zM178 584l107 166h174l-149 -166h-132z" />
    <glyph glyph-name="ucircumflex" unicode="&#xfb;" horiz-adv-x="528" 
d="M24 189v339h156v-337c0 -47 21 -72 68 -72s75 17 92 43v366h156v-528h-147l-3 43c-33 -33 -78 -53 -139 -53c-126 0 -183 77 -183 199zM68 592v19l149 139h88l151 -141v-17h-123l-72 68l-73 -68h-120z" />
    <glyph glyph-name="udieresis" unicode="&#xfc;" horiz-adv-x="527" 
d="M24 189v339h156v-337c0 -47 21 -72 68 -72s75 17 92 43v366h156v-528h-147l-3 43c-33 -33 -78 -53 -139 -53c-126 0 -183 77 -183 199zM66 660c0 43 34 69 75 69s75 -27 75 -69c0 -43 -34 -70 -75 -70c-42 0 -75 26 -75 70zM304 660c0 43 34 69 75 69s75 -27 75 -69
s-34 -71 -75 -71c-42 0 -75 28 -75 71z" />
    <glyph glyph-name="yacute" unicode="&#xfd;" horiz-adv-x="542" 
d="M9 528h169l92 -309l92 309h168l-215 -602c-25 -73 -72 -139 -176 -139c-24 0 -46 2 -65 10l-4 1v120h7c8 0 15 -1 21 -1c50 0 73 16 85 52l15 38zM191 584l107 166h174l-149 -166h-132z" />
    <glyph glyph-name="thorn" unicode="&#xfe;" horiz-adv-x="545" 
d="M28 -203v953h156v-256c30 27 68 44 121 44c115 0 175 -70 200 -159c9 -33 13 -70 13 -109v-11c0 -116 -40 -207 -120 -249c-27 -14 -58 -20 -92 -20c-53 0 -93 18 -122 44v-237h-156zM184 162c16 -28 40 -43 85 -43c72 0 93 65 93 140v11c0 75 -22 138 -94 138
c-43 0 -69 -16 -84 -41v-205z" />
    <glyph glyph-name="ydieresis" unicode="&#xff;" horiz-adv-x="542" 
d="M9 528h169l92 -309l92 309h168l-215 -602c-25 -73 -72 -139 -176 -139c-24 0 -46 2 -65 10l-4 1v120h7c8 0 15 -1 21 -1c50 0 73 16 85 52l15 38zM78 660c0 43 34 69 75 69s75 -27 75 -69c0 -43 -34 -70 -75 -70c-42 0 -75 26 -75 70zM316 660c0 43 34 69 75 69
s75 -27 75 -69s-34 -71 -75 -71c-42 0 -75 28 -75 71z" />
    <glyph glyph-name="Amacron" unicode="&#x100;" horiz-adv-x="708" 
d="M9 0l271 711h146l272 -711h-172l-49 146h-247l-49 -146h-172zM170 765v96h372v-96h-372zM275 272h157l-79 235z" />
    <glyph glyph-name="amacron" unicode="&#x101;" horiz-adv-x="519" 
d="M16 152c0 134 117 178 252 178h56v21c0 44 -22 68 -71 68c-42 0 -69 -20 -69 -57v-7h-156v7c0 56 31 97 64 124c41 32 99 52 169 52c100 0 171 -37 203 -106c12 -23 16 -51 16 -82v-218c0 -47 7 -83 21 -114l1 -1v-17h-155c-8 10 -12 23 -15 38c-30 -29 -71 -48 -128 -48
c-84 0 -145 41 -173 97c-10 20 -15 41 -15 65zM76 615v96h372v-96h-372zM172 163c0 -30 27 -50 63 -50c42 0 74 19 89 43v76h-51c-60 0 -101 -19 -101 -69z" />
    <glyph glyph-name="Abreve" unicode="&#x102;" horiz-adv-x="708" 
d="M9 0l271 711h146l272 -711h-172l-49 146h-247l-49 -146h-172zM180 888v8h114v-8c0 -39 22 -56 62 -56s60 19 60 56v8h116v-8c0 -77 -48 -121 -105 -141c-22 -7 -45 -11 -71 -11c-79 0 -140 35 -164 92c-8 19 -12 38 -12 60zM275 272h157l-79 235z" />
    <glyph glyph-name="abreve" unicode="&#x103;" horiz-adv-x="519" 
d="M16 152c0 134 117 178 252 178h56v21c0 44 -22 68 -71 68c-42 0 -69 -20 -69 -57v-7h-156v7c0 56 31 97 64 124c41 32 99 52 169 52c100 0 171 -37 203 -106c12 -23 16 -51 16 -82v-218c0 -47 7 -83 21 -114l1 -1v-17h-155c-8 10 -12 23 -15 38c-30 -29 -71 -48 -128 -48
c-84 0 -145 41 -173 97c-10 20 -15 41 -15 65zM84 738v7h116v-7c0 -39 21 -57 61 -57s61 20 61 57v7h116v-7c0 -77 -48 -122 -105 -142c-22 -7 -46 -11 -72 -11c-99 0 -177 52 -177 153zM172 163c0 -30 27 -50 63 -50c42 0 74 19 89 43v76h-51c-60 0 -101 -19 -101 -69z" />
    <glyph glyph-name="Aogonek" unicode="&#x104;" horiz-adv-x="710" 
d="M10 0l271 711h146l272 -711h-50c-23 -14 -40 -26 -52 -38s-17 -25 -17 -40c0 -18 6 -25 24 -25c19 0 31 7 45 13l16 -91c-19 -14 -51 -25 -88 -25c-69 0 -119 39 -119 110c0 53 27 87 63 112l-43 130h-247l-49 -146h-172zM276 272h157l-79 235z" />
    <glyph glyph-name="aogonek" unicode="&#x105;" horiz-adv-x="520" 
d="M18 152c0 134 116 178 251 178h55v21c0 44 -21 68 -70 68c-42 0 -68 -20 -68 -57v-7h-156v7c0 56 30 97 63 124c41 32 99 52 169 52c100 0 171 -37 203 -106c12 -23 17 -51 17 -82v-218c0 -47 6 -83 20 -114v-18h-29c-23 -14 -40 -26 -52 -38s-17 -25 -17 -40
c0 -17 6 -25 25 -25s31 7 45 13l16 -91c-21 -15 -51 -25 -89 -25c-68 0 -119 39 -119 110c0 52 27 84 60 108c-3 9 -6 18 -8 27c-30 -29 -72 -49 -129 -49c-84 0 -145 41 -173 97c-10 20 -14 41 -14 65zM174 163c0 -30 26 -50 62 -50c42 0 73 19 88 43v76h-50
c-60 0 -100 -19 -100 -69z" />
    <glyph glyph-name="Cacute" unicode="&#x106;" horiz-adv-x="639" 
d="M20 332v46c0 157 66 271 179 319c37 16 78 24 124 24c177 0 276 -100 293 -258l1 -8h-162v7c-5 83 -44 124 -132 124c-108 0 -139 -84 -139 -208v-45c0 -117 25 -208 137 -208c88 0 128 38 133 120v7h162l-1 -8c-9 -122 -76 -201 -175 -236c-35 -12 -74 -18 -119 -18
c-153 0 -242 86 -280 201c-14 42 -21 89 -21 141zM240 739l107 166h174l-149 -166h-132z" />
    <glyph glyph-name="cacute" unicode="&#x107;" horiz-adv-x="521" 
d="M20 257v14c0 121 51 208 140 247c31 14 68 20 110 20c106 0 178 -49 210 -125c11 -27 18 -57 18 -89v-7h-148v7c0 50 -32 85 -82 85c-75 0 -92 -60 -92 -138v-14c0 -79 16 -138 93 -138c50 0 79 26 82 72v7h147v-8c0 -64 -32 -113 -67 -144c-37 -33 -93 -56 -160 -56
c-128 0 -205 68 -236 163c-10 32 -15 67 -15 104zM174 584l107 166h174l-149 -166h-132z" />
    <glyph glyph-name="Ccircumflex" unicode="&#x108;" horiz-adv-x="639" 
d="M20 332v46c0 157 66 271 179 319c37 16 78 24 124 24c177 0 276 -100 293 -258l1 -8h-162v7c-5 83 -44 124 -132 124c-108 0 -139 -84 -139 -208v-45c0 -117 25 -208 137 -208c88 0 128 38 133 120v7h162l-1 -8c-9 -122 -76 -201 -175 -236c-35 -12 -74 -18 -119 -18
c-153 0 -242 86 -280 201c-14 42 -21 89 -21 141zM128 747v19l150 139h88l150 -141v-17h-122l-72 68l-73 -68h-121z" />
    <glyph glyph-name="ccircumflex" unicode="&#x109;" horiz-adv-x="521" 
d="M20 257v14c0 121 51 208 140 247c31 14 68 20 110 20c106 0 178 -49 210 -125c11 -27 18 -57 18 -89v-7h-148v7c0 50 -32 85 -82 85c-75 0 -92 -60 -92 -138v-14c0 -79 16 -138 93 -138c50 0 79 26 82 72v7h147v-8c0 -64 -32 -113 -67 -144c-37 -33 -93 -56 -160 -56
c-128 0 -205 68 -236 163c-10 32 -15 67 -15 104zM62 592v19l150 139h88l150 -141v-17h-122l-72 68l-73 -68h-121z" />
    <glyph glyph-name="uni010A" unicode="&#x10a;" horiz-adv-x="639" 
d="M20 332v46c0 157 66 271 179 319c37 16 78 24 124 24c177 0 276 -100 293 -258l1 -8h-162v7c-5 83 -44 124 -132 124c-108 0 -139 -84 -139 -208v-45c0 -117 25 -208 137 -208c88 0 128 38 133 120v7h162l-1 -8c-9 -122 -76 -201 -175 -236c-35 -12 -74 -18 -119 -18
c-153 0 -242 86 -280 201c-14 42 -21 89 -21 141zM242 828c0 46 34 74 80 74s80 -29 80 -74s-34 -75 -80 -75c-45 0 -80 31 -80 75z" />
    <glyph glyph-name="uni010B" unicode="&#x10b;" horiz-adv-x="521" 
d="M20 257v14c0 121 51 208 140 247c31 14 68 20 110 20c106 0 178 -49 210 -125c11 -27 18 -57 18 -89v-7h-148v7c0 50 -32 85 -82 85c-75 0 -92 -60 -92 -138v-14c0 -79 16 -138 93 -138c50 0 79 26 82 72v7h147v-8c0 -64 -32 -113 -67 -144c-37 -33 -93 -56 -160 -56
c-128 0 -205 68 -236 163c-10 32 -15 67 -15 104zM176 672c0 46 33 74 79 74s79 -29 79 -74s-33 -75 -79 -75c-45 0 -79 31 -79 75z" />
    <glyph glyph-name="Ccaron" unicode="&#x10c;" horiz-adv-x="639" 
d="M20 332v46c0 157 66 271 179 319c37 16 78 24 124 24c177 0 276 -100 293 -258l1 -8h-162v7c-5 83 -44 124 -132 124c-108 0 -139 -84 -139 -208v-45c0 -117 25 -208 137 -208c88 0 128 38 133 120v7h162l-1 -8c-9 -122 -76 -201 -175 -236c-35 -12 -74 -18 -119 -18
c-153 0 -242 86 -280 201c-14 42 -21 89 -21 141zM122 890v15h131l69 -66l68 66h132v-16l-153 -141h-95z" />
    <glyph glyph-name="ccaron" unicode="&#x10d;" horiz-adv-x="521" 
d="M20 257v14c0 121 51 208 140 247c31 14 68 20 110 20c106 0 178 -49 210 -125c11 -27 18 -57 18 -89v-7h-148v7c0 50 -32 85 -82 85c-75 0 -92 -60 -92 -138v-14c0 -79 16 -138 93 -138c50 0 79 26 82 72v7h147v-8c0 -64 -32 -113 -67 -144c-37 -33 -93 -56 -160 -56
c-128 0 -205 68 -236 163c-10 32 -15 67 -15 104zM56 735v15h131l69 -66l68 66h132v-16l-153 -141h-95z" />
    <glyph glyph-name="Dcaron" unicode="&#x10e;" horiz-adv-x="612" 
d="M28 0v711h226c161 0 262 -86 308 -202c16 -42 24 -87 24 -138v-32c0 -160 -79 -268 -198 -315c-41 -16 -86 -24 -135 -24h-225zM30 888v15h130l69 -66l68 66h131v-16l-152 -141h-95zM190 133h63c120 0 169 82 169 207v31c0 126 -47 206 -168 206h-64v-444z" />
    <glyph glyph-name="dcaron" unicode="&#x10f;" horiz-adv-x="737" 
d="M20 258v10c0 117 42 209 125 250c27 13 56 20 90 20c54 0 92 -19 121 -47v259h156v-750h-142l-5 46c-31 -33 -71 -56 -131 -56c-74 0 -125 34 -158 77c-35 46 -56 113 -56 191zM176 258c0 -76 22 -139 94 -139c45 0 71 20 86 48v194c-16 29 -41 47 -85 47
c-73 0 -95 -64 -95 -140v-10zM546 521c26 39 46 83 46 145v84h128v-84c0 -40 -13 -73 -27 -101c-15 -33 -39 -62 -65 -85l-4 -4z" />
    <glyph glyph-name="Dcroat" unicode="&#x110;" horiz-adv-x="675" 
d="M16 306v104h74v301h226c161 0 263 -86 308 -202c16 -42 24 -87 24 -138v-32c0 -159 -80 -268 -198 -315c-41 -16 -86 -24 -136 -24h-224v306h-74zM252 133h62c120 0 170 82 170 207v31c0 125 -48 206 -168 206h-64v-167h120v-104h-120v-173z" />
    <glyph glyph-name="dcroat" unicode="&#x111;" horiz-adv-x="604" 
d="M20 258v10c0 117 40 209 123 250c27 13 57 20 91 20c54 0 91 -19 120 -47v89h-122v105h122v65h156v-65h78v-105h-78v-580h-141l-5 46c-31 -33 -71 -56 -131 -56c-74 0 -125 34 -158 77c-35 46 -55 113 -55 191zM176 258c0 -76 21 -139 93 -139c45 0 70 20 85 48v194
c-16 29 -40 47 -84 47c-73 0 -94 -64 -94 -140v-10z" />
    <glyph glyph-name="Emacron" unicode="&#x112;" 
d="M28 0v711h490v-134h-328v-147h280v-130h-280v-167h330v-133h-492zM98 767v96h372v-96h-372z" />
    <glyph glyph-name="emacron" unicode="&#x113;" horiz-adv-x="540" 
d="M20 246v19c0 124 58 214 149 253c31 13 66 20 105 20c161 0 240 -107 240 -262v-66h-335c10 -56 51 -91 120 -91c57 0 95 22 121 56l6 7l79 -89l-4 -5c-42 -58 -112 -98 -212 -98c-130 0 -215 65 -251 157c-12 31 -18 64 -18 99zM72 615v96h372v-96h-372zM181 322h179v4
c0 53 -30 83 -87 83c-58 0 -84 -38 -92 -87z" />
    <glyph glyph-name="Ebreve" unicode="&#x114;" 
d="M28 0v711h490v-134h-328v-147h280v-130h-280v-167h330v-133h-492zM106 890v8h116v-8c0 -39 21 -56 61 -56s61 19 61 56v8h116v-8c0 -77 -49 -121 -106 -141c-22 -7 -45 -11 -71 -11c-79 0 -140 35 -164 92c-8 19 -13 38 -13 60z" />
    <glyph glyph-name="ebreve" unicode="&#x115;" horiz-adv-x="540" 
d="M20 246v19c0 124 58 214 149 253c31 13 66 20 105 20c161 0 240 -107 240 -262v-66h-335c10 -56 51 -91 120 -91c57 0 95 22 121 56l6 7l79 -89l-4 -5c-42 -58 -112 -98 -212 -98c-130 0 -215 65 -251 157c-12 31 -18 64 -18 99zM82 738v7h114v-7c0 -39 22 -57 62 -57
s60 20 60 57v7h116v-7c0 -77 -47 -122 -104 -142c-22 -7 -46 -11 -72 -11c-99 0 -176 52 -176 153zM181 322h179v4c0 53 -30 83 -87 83c-58 0 -84 -38 -92 -87z" />
    <glyph glyph-name="Edotaccent" unicode="&#x116;" 
d="M28 0v711h490v-134h-328v-147h280v-130h-280v-167h330v-133h-492zM202 824c0 46 34 75 80 75s80 -30 80 -75s-34 -74 -80 -74c-45 0 -80 30 -80 74z" />
    <glyph glyph-name="edotaccent" unicode="&#x117;" horiz-adv-x="540" 
d="M20 246v19c0 124 58 214 149 253c31 13 66 20 105 20c161 0 240 -107 240 -262v-66h-335c10 -56 51 -91 120 -91c57 0 95 22 121 56l6 7l79 -89l-4 -5c-42 -58 -112 -98 -212 -98c-130 0 -215 65 -251 157c-12 31 -18 64 -18 99zM178 672c0 46 33 74 79 74s79 -29 79 -74
s-33 -75 -79 -75c-45 0 -79 31 -79 75zM181 322h179v4c0 53 -30 83 -87 83c-58 0 -84 -38 -92 -87z" />
    <glyph glyph-name="Eogonek" unicode="&#x118;" 
d="M28 0v711h490v-134h-328v-147h280v-130h-280v-167h330v-133h-80c-23 -14 -41 -26 -53 -38s-17 -25 -17 -40c0 -18 7 -25 25 -25c19 0 31 7 45 13l16 -91c-19 -14 -51 -25 -88 -25c-69 0 -118 39 -118 110c0 42 17 72 42 96h-264z" />
    <glyph glyph-name="eogonek" unicode="&#x119;" 
d="M20 247v18c0 124 58 214 149 253c31 13 67 20 106 20c161 0 241 -107 241 -262v-66h-336c10 -59 51 -95 120 -95c57 0 95 21 121 54l6 7l79 -87l-4 -4c-22 -30 -52 -53 -89 -70c-25 -14 -40 -26 -53 -38c-12 -12 -18 -26 -18 -41c0 -17 7 -24 26 -24s31 7 45 13l16 -90
c-21 -15 -51 -26 -89 -26c-68 0 -118 38 -118 109c0 31 9 57 23 76c-105 14 -178 73 -209 159c-10 29 -16 61 -16 94zM182 322h180v4c0 53 -31 83 -88 83c-58 0 -84 -38 -92 -87z" />
    <glyph glyph-name="Ecaron" unicode="&#x11a;" 
d="M28 0v711h490v-134h-328v-147h280v-130h-280v-167h330v-133h-492zM82 888v15h131l69 -66l68 66h132v-16l-153 -141h-95z" />
    <glyph glyph-name="ecaron" unicode="&#x11b;" horiz-adv-x="540" 
d="M20 246v19c0 124 58 214 149 253c31 13 66 20 105 20c161 0 240 -107 240 -262v-66h-335c10 -56 51 -91 120 -91c57 0 95 22 121 56l6 7l79 -89l-4 -5c-42 -58 -112 -98 -212 -98c-130 0 -215 65 -251 157c-12 31 -18 64 -18 99zM58 735v15h131l69 -66l68 66h132v-16
l-153 -141h-95zM181 322h179v4c0 53 -30 83 -87 83c-58 0 -84 -38 -92 -87z" />
    <glyph glyph-name="Gcircumflex" unicode="&#x11c;" horiz-adv-x="645" 
d="M20 334v42c0 161 62 273 180 322c38 15 80 23 126 23c174 0 271 -87 289 -243l1 -8h-157c-12 73 -45 118 -129 118c-109 0 -146 -89 -146 -212v-41c0 -127 43 -212 160 -212c47 0 91 10 110 29v106h-134v124h296v-289l-2 -2c-57 -65 -154 -101 -278 -101
c-156 0 -252 83 -293 199c-15 42 -23 91 -23 145zM128 747v19l150 139h88l150 -141v-17h-122l-72 68l-73 -68h-121z" />
    <glyph glyph-name="gcircumflex" unicode="&#x11d;" horiz-adv-x="549" 
d="M20 258v10c0 119 44 209 128 250c27 13 59 20 93 20c58 0 101 -19 130 -49l4 39h143v-507c0 -115 -67 -186 -157 -214c-32 -10 -67 -15 -105 -15c-89 0 -166 36 -206 90l70 99l7 -8c28 -32 66 -56 122 -56c71 0 111 37 111 107v10c-29 -26 -68 -44 -120 -44
c-75 0 -128 35 -162 77c-37 45 -58 112 -58 191zM70 592v19l150 139h88l150 -141v-17h-122l-72 68l-73 -68h-121zM176 258c0 -61 18 -108 55 -129c13 -7 27 -10 45 -10c43 0 68 16 84 41v207c-17 25 -40 41 -83 41c-74 0 -101 -64 -101 -140v-10z" />
    <glyph glyph-name="Gbreve" unicode="&#x11e;" horiz-adv-x="645" 
d="M20 334v42c0 161 62 273 180 322c38 15 80 23 126 23c174 0 271 -87 289 -243l1 -8h-157c-12 73 -45 118 -129 118c-109 0 -146 -89 -146 -212v-41c0 -127 43 -212 160 -212c47 0 91 10 110 29v106h-134v124h296v-289l-2 -2c-57 -65 -154 -101 -278 -101
c-156 0 -252 83 -293 199c-15 42 -23 91 -23 145zM146 892v8h114v-8c0 -39 22 -56 62 -56s60 19 60 56v8h116v-8c0 -77 -47 -121 -104 -141c-22 -7 -46 -11 -72 -11c-99 0 -176 52 -176 152z" />
    <glyph glyph-name="gbreve" unicode="&#x11f;" horiz-adv-x="549" 
d="M20 258v10c0 119 44 209 128 250c27 13 59 20 93 20c58 0 101 -19 130 -49l4 39h143v-507c0 -115 -67 -186 -157 -214c-32 -10 -67 -15 -105 -15c-89 0 -166 36 -206 90l70 99l7 -8c28 -32 66 -56 122 -56c71 0 111 37 111 107v10c-29 -26 -68 -44 -120 -44
c-75 0 -128 35 -162 77c-37 45 -58 112 -58 191zM88 738v7h114v-7c0 -39 22 -57 62 -57s60 20 60 57v7h116v-7c0 -77 -48 -122 -105 -142c-22 -7 -45 -11 -71 -11c-100 0 -176 53 -176 153zM176 258c0 -61 18 -108 55 -129c13 -7 27 -10 45 -10c43 0 68 16 84 41v207
c-17 25 -40 41 -83 41c-74 0 -101 -64 -101 -140v-10z" />
    <glyph glyph-name="uni0120" unicode="&#x120;" horiz-adv-x="645" 
d="M20 334v42c0 161 62 273 180 322c38 15 80 23 126 23c174 0 271 -87 289 -243l1 -8h-157c-12 73 -45 118 -129 118c-109 0 -146 -89 -146 -212v-41c0 -127 43 -212 160 -212c47 0 91 10 110 29v106h-134v124h296v-289l-2 -2c-57 -65 -154 -101 -278 -101
c-156 0 -252 83 -293 199c-15 42 -23 91 -23 145zM242 828c0 46 33 74 79 74s79 -29 79 -74s-33 -75 -79 -75c-45 0 -79 31 -79 75z" />
    <glyph glyph-name="uni0121" unicode="&#x121;" horiz-adv-x="549" 
d="M20 258v10c0 119 44 209 128 250c27 13 59 20 93 20c58 0 101 -19 130 -49l4 39h143v-507c0 -115 -67 -186 -157 -214c-32 -10 -67 -15 -105 -15c-89 0 -166 36 -206 90l70 99l7 -8c28 -32 66 -56 122 -56c71 0 111 37 111 107v10c-29 -26 -68 -44 -120 -44
c-75 0 -128 35 -162 77c-37 45 -58 112 -58 191zM176 258c0 -61 18 -108 55 -129c13 -7 27 -10 45 -10c43 0 68 16 84 41v207c-17 25 -40 41 -83 41c-74 0 -101 -64 -101 -140v-10zM184 672c0 46 33 74 79 74s79 -29 79 -74s-33 -75 -79 -75c-45 0 -79 31 -79 75z" />
    <glyph glyph-name="Gcedilla" unicode="&#x122;" horiz-adv-x="645" 
d="M20 334v42c0 161 62 273 180 322c38 15 80 23 126 23c174 0 271 -87 289 -243l1 -8h-157c-12 73 -45 118 -129 118c-109 0 -146 -89 -146 -212v-41c0 -127 43 -212 160 -212c47 0 91 10 110 29v106h-134v124h296v-289l-2 -2c-57 -65 -154 -101 -278 -101
c-156 0 -252 83 -293 199c-15 42 -23 91 -23 145zM229 -209c26 31 41 74 41 129v49h118v-43c0 -57 -22 -105 -44 -141c-10 -16 -21 -28 -33 -40z" />
    <glyph glyph-name="gcedilla" unicode="&#x123;" horiz-adv-x="549" 
d="M20 258v10c0 119 44 209 128 250c27 13 59 20 93 20c58 0 101 -19 130 -49l4 39h143v-507c0 -115 -67 -186 -157 -214c-32 -10 -67 -15 -105 -15c-89 0 -166 36 -206 90l70 99l7 -8c28 -32 66 -56 122 -56c71 0 111 37 111 107v10c-29 -26 -68 -44 -120 -44
c-75 0 -128 35 -162 77c-37 45 -58 112 -58 191zM176 258c0 -61 18 -108 55 -129c13 -7 27 -10 45 -10c43 0 68 16 84 41v207c-17 25 -40 41 -83 41c-74 0 -101 -64 -101 -140v-10zM198 600v74c0 74 32 137 77 167l84 -43c-19 -33 -35 -76 -35 -130v-68h-126z" />
    <glyph glyph-name="Hcircumflex" unicode="&#x124;" horiz-adv-x="654" 
d="M28 0v711h162v-281h270v281h162v-711h-162v298h-270v-298h-162zM132 745v19l149 139h88l151 -141v-17h-123l-72 68l-73 -68h-120z" />
    <glyph glyph-name="hcircumflex" unicode="&#x125;" horiz-adv-x="528" 
d="M28 0v750h156v-267c32 33 75 55 133 55c130 0 181 -81 181 -207v-331h-156v329c0 56 -20 79 -76 79c-42 0 -66 -16 -82 -41v-367h-156zM46 778v19l150 139h88l150 -141v-17h-122l-72 68l-73 -68h-121z" />
    <glyph glyph-name="Hbar" unicode="&#x126;" horiz-adv-x="739" 
d="M14 502v98h54v111h162v-113h270v113h162v-111h60v-98h-60v-502h-162v298h-270v-298h-162v502h-54zM230 430h270v76h-270v-76z" />
    <glyph glyph-name="hbar" unicode="&#x127;" horiz-adv-x="592" 
d="M14 579v104h76v67h156v-67h124v-104h-124v-96c32 33 76 55 134 55c129 0 182 -81 182 -207v-331h-156v329c0 56 -21 79 -78 79c-41 0 -67 -17 -82 -41v-367h-156v579h-76z" />
    <glyph glyph-name="Itilde" unicode="&#x128;" horiz-adv-x="406" 
d="M10 751v7c0 60 30 106 71 127c15 8 31 12 47 12c60 0 85 -42 134 -42c21 0 34 15 34 39v9l98 -8v-7c0 -61 -31 -105 -71 -126c-14 -8 -31 -11 -48 -11c-48 0 -74 24 -103 37c-9 3 -19 5 -31 5c-21 0 -33 -15 -33 -39v-8zM122 0v711h160v-711h-160z" />
    <glyph glyph-name="itilde" unicode="&#x129;" horiz-adv-x="410" 
d="M12 591v7c0 60 31 106 72 127c15 7 30 12 46 12c30 0 52 -13 72 -22s38 -20 62 -20c21 0 34 15 34 39v9l98 -8v-7c0 -61 -31 -105 -71 -126c-14 -8 -31 -11 -48 -11c-48 0 -74 24 -103 37c-9 3 -19 5 -31 5c-21 0 -33 -15 -33 -39v-8zM124 0v528h158v-528h-158z" />
    <glyph glyph-name="Imacron" unicode="&#x12a;" horiz-adv-x="395" 
d="M10 767v96h372v-96h-372zM116 0v711h160v-711h-160z" />
    <glyph glyph-name="imacron" unicode="&#x12b;" horiz-adv-x="404" 
d="M14 607v96h372v-96h-372zM120 0v528h156v-528h-156z" />
    <glyph glyph-name="Ibreve" unicode="&#x12c;" horiz-adv-x="376" 
d="M10 890v8h116v-8c0 -39 21 -56 61 -56s61 19 61 56v8h116v-8c0 -77 -49 -121 -106 -141c-22 -7 -45 -11 -71 -11c-79 0 -140 35 -164 92c-8 19 -13 38 -13 60zM106 0v711h160v-711h-160z" />
    <glyph glyph-name="ibreve" unicode="&#x12d;" horiz-adv-x="379" 
d="M12 730v8h116v-8c0 -39 21 -56 61 -56s61 19 61 56v8h116v-8c0 -77 -48 -121 -105 -141c-22 -7 -46 -11 -72 -11c-79 0 -141 35 -165 92c-8 19 -12 38 -12 60zM108 0v528h158v-528h-158z" />
    <glyph glyph-name="Iogonek" unicode="&#x12e;" horiz-adv-x="268" 
d="M10 -96c0 55 31 86 64 109v698h162v-711h-35c-23 -14 -41 -26 -53 -38s-16 -25 -16 -40c0 -16 7 -25 24 -25c19 0 32 7 46 13l16 -91c-21 -15 -51 -25 -89 -25c-68 0 -119 39 -119 110z" />
    <glyph glyph-name="iogonek" unicode="&#x12f;" horiz-adv-x="262" 
d="M10 -96c0 51 26 83 62 107v517h156v-528h-27c-23 -14 -40 -26 -52 -38s-17 -25 -17 -40c0 -16 7 -25 24 -25c19 0 31 7 45 13l16 -91c-21 -15 -50 -25 -88 -25c-69 0 -119 39 -119 110zM62 658c0 48 38 80 87 80c50 0 87 -30 87 -80s-37 -81 -87 -81c-49 0 -87 30 -87 81
z" />
    <glyph glyph-name="Idotaccent" unicode="&#x130;" horiz-adv-x="221" 
d="M28 0v711h160v-711h-160zM28 824c0 46 33 75 79 75s79 -30 79 -75s-33 -74 -79 -74c-45 0 -79 30 -79 74z" />
    <glyph glyph-name="dotlessi" unicode="&#x131;" horiz-adv-x="217" 
d="M28 0v528h156v-528h-156z" />
    <glyph glyph-name="IJ" unicode="&#x132;" horiz-adv-x="790" 
d="M28 0v711h160v-711h-160zM266 218v7h162v-7c0 -64 23 -95 84 -95c56 0 84 41 84 101v487h162v-489c0 -112 -64 -186 -150 -216c-30 -10 -61 -16 -96 -16c-148 0 -246 78 -246 228z" />
    <glyph glyph-name="ij" unicode="&#x133;" horiz-adv-x="485" 
d="M22 658c0 48 37 80 86 80c50 0 86 -30 86 -80s-36 -81 -86 -81c-49 0 -86 30 -86 81zM30 0v528h156v-528h-156zM188 -76c16 -4 33 -7 51 -7c40 0 57 19 57 61v550h156v-550c0 -121 -67 -191 -188 -191c-28 0 -56 2 -76 10v127zM284 658c0 49 37 80 87 80s87 -31 87 -80
c0 -51 -38 -81 -87 -81s-87 30 -87 81z" />
    <glyph glyph-name="Jcircumflex" unicode="&#x134;" horiz-adv-x="628" 
d="M16 218v7h162v-7c0 -64 23 -95 84 -95c56 0 84 41 84 101v487h162v-489c0 -112 -64 -186 -150 -216c-30 -10 -61 -16 -96 -16c-148 0 -246 78 -246 228zM228 743v19l149 139h88l151 -141v-17h-123l-72 68l-73 -68h-120z" />
    <glyph glyph-name="jcircumflex" unicode="&#x135;" horiz-adv-x="411" 
d="M10 579v19l150 139h88l150 -141v-17h-122l-72 68l-73 -68h-121zM20 -203l8 127c17 -4 34 -8 55 -8c37 0 51 29 51 74v538h156v-538c0 -126 -66 -203 -192 -203c-30 0 -54 2 -78 10z" />
    <glyph glyph-name="Kcedilla" unicode="&#x136;" horiz-adv-x="636" 
d="M28 0v711h162v-306c76 106 155 202 232 303l2 3h200l-260 -317l265 -394h-192l-180 280l-67 -72v-208h-162zM191 -178c26 31 41 73 41 128v50h118v-42c0 -57 -22 -105 -44 -141c-10 -16 -20 -28 -33 -41z" />
    <glyph glyph-name="kcedilla" unicode="&#x137;" horiz-adv-x="545" 
d="M28 0v750h156v-402c49 62 100 118 149 177l2 3h189l-198 -222l213 -306h-180l-133 208l-42 -43v-165h-156zM157 -189c26 31 41 74 41 129v49h118v-43c0 -57 -22 -105 -44 -141c-10 -16 -21 -28 -33 -40z" />
    <glyph glyph-name="kra" unicode="&#x138;" horiz-adv-x="565" 
d="M28 0v528h156v-198h31l138 198h197l-192 -254l199 -274h-199l-128 195h-46v-195h-156z" />
    <glyph glyph-name="Lacute" unicode="&#x139;" horiz-adv-x="522" 
d="M28 0v711h162v-578h310v-133h-472zM29 735l107 166h174l-149 -166h-132z" />
    <glyph glyph-name="lacute" unicode="&#x13a;" horiz-adv-x="307" 
d="M23 775l107 166h174l-149 -166h-132zM28 0v750h156v-750h-156z" />
    <glyph glyph-name="Lcedilla" unicode="&#x13b;" horiz-adv-x="522" 
d="M28 0v711h162v-578h310v-133h-472zM166 -203c26 31 40 74 40 129v49h120v-43c0 -57 -23 -105 -45 -141c-10 -16 -21 -28 -33 -40z" />
    <glyph glyph-name="lcedilla" unicode="&#x13c;" horiz-adv-x="221" 
d="M11 -203c26 31 41 74 41 129v49h118v-43c0 -57 -22 -105 -44 -141c-10 -16 -21 -28 -33 -40zM32 0v750h156v-750h-156z" />
    <glyph glyph-name="Lcaron" unicode="&#x13d;" horiz-adv-x="520" 
d="M28 0v711h162v-578h310v-133h-472zM279 482c26 39 47 84 47 146v83h126v-83c0 -40 -12 -75 -26 -103c-15 -33 -39 -61 -65 -84l-4 -4z" />
    <glyph glyph-name="lcaron" unicode="&#x13e;" horiz-adv-x="410" 
d="M28 0v750h156v-750h-156zM219 521c26 39 47 83 47 145v84h126v-84c0 -40 -12 -73 -26 -101c-15 -33 -39 -62 -65 -85l-4 -4z" />
    <glyph glyph-name="Ldot" unicode="&#x13f;" horiz-adv-x="521" 
d="M28 0v711h162v-578h310v-133h-472zM254 405c0 46 33 75 79 75s79 -30 79 -75s-33 -75 -79 -75c-45 0 -79 31 -79 75z" />
    <glyph glyph-name="ldot" unicode="&#x140;" horiz-adv-x="396" 
d="M28 0v750h156v-750h-156zM216 378c0 46 34 74 80 74s80 -29 80 -74s-34 -74 -80 -74c-45 0 -80 30 -80 74z" />
    <glyph glyph-name="Lslash" unicode="&#x141;" horiz-adv-x="577" 
d="M18 271v110l66 19v311h160v-265l106 30v-109l-106 -30v-204h312v-133h-472v289z" />
    <glyph glyph-name="lslash" unicode="&#x142;" horiz-adv-x="329" 
d="M18 271v110l64 21v348h156v-297l70 22v-109l-70 -23v-343h-156v291z" />
    <glyph glyph-name="Nacute" unicode="&#x143;" horiz-adv-x="654" 
d="M28 0v711h158l274 -450v450h162v-711h-159l-273 449v-449h-162zM244 735l107 166h174l-149 -166h-132z" />
    <glyph glyph-name="nacute" unicode="&#x144;" horiz-adv-x="528" 
d="M28 0v528h147l3 -50c34 35 83 60 146 60c127 0 174 -82 174 -204v-334h-156v332c0 55 -21 76 -76 76c-41 0 -66 -19 -82 -43v-365h-156zM183 584l107 166h174l-149 -166h-132z" />
    <glyph glyph-name="Ncedilla" unicode="&#x145;" horiz-adv-x="654" 
d="M28 0v711h158l274 -450v450h162v-711h-159l-273 449v-449h-162zM226 -207c26 31 40 74 40 129v49h120v-43c0 -57 -23 -105 -45 -141c-10 -16 -21 -28 -33 -40z" />
    <glyph glyph-name="ncedilla" unicode="&#x146;" horiz-adv-x="529" 
d="M28 0v528h147l3 -50c34 35 83 60 146 60c127 0 174 -82 174 -204v-334h-156v332c0 55 -21 76 -76 76c-41 0 -66 -19 -82 -43v-365h-156zM164 -203c26 31 40 74 40 129v49h120v-43c0 -57 -23 -105 -45 -141c-10 -16 -21 -28 -33 -40z" />
    <glyph glyph-name="Ncaron" unicode="&#x147;" horiz-adv-x="654" 
d="M28 0v711h158l274 -450v450h162v-711h-159l-273 449v-449h-162zM128 886v15h130l69 -66l68 66h131v-16l-152 -141h-95z" />
    <glyph glyph-name="ncaron" unicode="&#x148;" horiz-adv-x="527" 
d="M26 0v528h148l3 -50c34 35 83 60 146 60c127 0 175 -82 175 -204v-334h-156v332c0 55 -22 76 -77 76c-41 0 -67 -19 -83 -43v-365h-156zM64 735v15h131l69 -66l68 66h132v-16l-153 -141h-95z" />
    <glyph glyph-name="napostrophe" unicode="&#x149;" horiz-adv-x="604" 
d="M9 521c26 39 47 83 47 145v84h126v-84c0 -59 -24 -102 -48 -138h116l3 -50c34 35 83 60 146 60c127 0 175 -82 175 -204v-334h-156v332c0 55 -22 76 -77 76c-41 0 -67 -19 -83 -43v-365h-156v492c-5 -5 -9 -10 -15 -14z" />
    <glyph glyph-name="Eng" unicode="&#x14a;" horiz-adv-x="654" 
d="M28 0v711h158l274 -458v458h162v-717c0 -128 -69 -207 -197 -207c-30 0 -55 2 -80 10l8 131c18 -4 33 -8 55 -8c37 0 52 29 52 74v11l-270 454v-459h-162z" />
    <glyph glyph-name="eng" unicode="&#x14b;" horiz-adv-x="531" 
d="M28 0v528h145l5 -61c32 41 78 71 145 71c131 0 177 -91 177 -218v-330c0 -127 -66 -203 -193 -203c-30 0 -54 2 -78 10l8 128c17 -4 35 -8 56 -8c37 0 51 28 51 73v328c0 58 -16 90 -72 90c-41 0 -70 -14 -88 -36v-372h-156z" />
    <glyph glyph-name="Omacron" unicode="&#x14c;" horiz-adv-x="666" 
d="M20 339v32c0 162 69 275 185 325c38 16 80 25 126 25c100 0 175 -41 224 -95c53 -59 85 -146 85 -255v-32c0 -163 -67 -275 -183 -325c-38 -16 -79 -24 -125 -24c-99 0 -176 41 -225 95c-53 58 -87 146 -87 254zM146 765v96h372v-96h-372zM184 340c0 -96 24 -170 85 -201
c18 -9 39 -14 63 -14c107 0 146 94 146 215v31c0 122 -39 214 -147 214c-107 0 -147 -93 -147 -214v-31z" />
    <glyph glyph-name="omacron" unicode="&#x14d;" horiz-adv-x="561" 
d="M20 259v10c0 124 57 210 148 249c32 14 68 20 109 20c128 0 208 -69 241 -163c11 -33 18 -67 18 -106v-10c0 -124 -57 -210 -148 -249c-32 -14 -69 -20 -110 -20c-128 0 -209 69 -242 163c-11 33 -16 67 -16 106zM92 615v96h372v-96h-372zM176 259
c0 -79 24 -140 102 -140c75 0 102 62 102 140v10c0 78 -27 140 -103 140c-75 0 -101 -63 -101 -140v-10z" />
    <glyph glyph-name="Obreve" unicode="&#x14e;" horiz-adv-x="666" 
d="M20 339v32c0 162 69 275 185 325c38 16 80 25 126 25c100 0 175 -41 224 -95c53 -59 85 -146 85 -255v-32c0 -163 -67 -275 -183 -325c-38 -16 -79 -24 -125 -24c-99 0 -176 41 -225 95c-53 58 -87 146 -87 254zM156 888v8h114v-8c0 -39 22 -56 62 -56s60 19 60 56v8h116
v-8c0 -77 -47 -121 -104 -141c-22 -7 -46 -11 -72 -11c-99 0 -176 52 -176 152zM184 340c0 -96 24 -170 85 -201c18 -9 39 -14 63 -14c107 0 146 94 146 215v31c0 122 -39 214 -147 214c-107 0 -147 -93 -147 -214v-31z" />
    <glyph glyph-name="obreve" unicode="&#x14f;" horiz-adv-x="561" 
d="M20 259v10c0 124 57 210 148 249c32 14 68 20 109 20c128 0 208 -69 241 -163c11 -33 18 -67 18 -106v-10c0 -124 -57 -210 -148 -249c-32 -14 -69 -20 -110 -20c-128 0 -209 69 -242 163c-11 33 -16 67 -16 106zM100 738v7h116v-7c0 -39 21 -57 61 -57s61 20 61 57v7
h116v-7c0 -77 -48 -122 -105 -142c-22 -7 -46 -11 -72 -11c-99 0 -177 52 -177 153zM176 259c0 -79 24 -140 102 -140c75 0 102 62 102 140v10c0 78 -27 140 -103 140c-75 0 -101 -63 -101 -140v-10z" />
    <glyph glyph-name="Ohungarumlaut" unicode="&#x150;" horiz-adv-x="666" 
d="M20 339v32c0 162 69 275 185 325c38 16 80 25 126 25c100 0 175 -41 224 -95c53 -59 85 -146 85 -255v-32c0 -163 -67 -275 -183 -325c-38 -16 -79 -24 -125 -24c-99 0 -176 41 -225 95c-53 58 -87 146 -87 254zM169 739l100 162h143l-123 -162h-120zM184 340
c0 -96 24 -170 85 -201c18 -9 39 -14 63 -14c107 0 146 94 146 215v31c0 122 -39 214 -147 214c-107 0 -147 -93 -147 -214v-31zM339 739l121 162h147l-144 -162h-124z" />
    <glyph glyph-name="ohungarumlaut" unicode="&#x151;" horiz-adv-x="563" 
d="M20 259v10c0 124 57 210 148 249c32 14 68 20 109 20c128 0 208 -69 241 -163c11 -33 18 -67 18 -106v-10c0 -124 -57 -210 -148 -249c-32 -14 -69 -20 -110 -20c-128 0 -209 69 -242 163c-11 33 -16 67 -16 106zM114 588l100 162h143l-123 -162h-120zM176 259
c0 -79 24 -140 102 -140c75 0 102 62 102 140v10c0 78 -27 140 -103 140c-75 0 -101 -63 -101 -140v-10zM284 588l121 162h147l-144 -162h-124z" />
    <glyph glyph-name="OE" unicode="&#x152;" horiz-adv-x="927" 
d="M22 282v147c0 139 74 231 179 271c37 14 78 21 123 21c49 0 99 -5 141 -10h439v-134h-328v-147h280v-130h-280v-167h330v-133h-441c-45 -5 -90 -10 -140 -10c-95 0 -169 34 -219 81c-50 48 -84 120 -84 211zM178 283c0 -101 46 -164 147 -164c30 0 62 2 89 5v462
c-30 4 -59 6 -90 6c-100 0 -146 -63 -146 -163v-146z" />
    <glyph glyph-name="oe" unicode="&#x153;" horiz-adv-x="886" 
d="M20 259v10c0 124 56 210 147 249c32 14 68 20 109 20c80 0 140 -27 181 -69c40 42 94 70 170 69c116 0 187 -56 217 -142c10 -29 16 -62 16 -99v-85h-319c10 -55 46 -93 113 -93c63 0 104 14 143 37l8 4l44 -105c-51 -39 -119 -65 -209 -65c-80 0 -142 29 -182 70
c-42 -41 -101 -70 -181 -70c-128 0 -208 68 -240 163c-11 33 -17 67 -17 106zM176 259c0 -79 24 -140 101 -140c76 0 99 61 99 140v10c0 62 -17 108 -54 130c-12 7 -28 10 -46 10c-75 0 -100 -62 -100 -140v-10zM543 316h163v6c0 55 -25 87 -79 87c-53 0 -76 -43 -84 -93z
" />
    <glyph glyph-name="Racute" unicode="&#x154;" horiz-adv-x="611" 
d="M28 0v711h272c121 0 212 -39 251 -124c12 -28 19 -59 19 -94c0 -107 -53 -163 -125 -198l151 -279v-16h-169l-133 260h-104v-260h-162zM182 735l107 166h174l-149 -166h-132zM190 386h110c68 0 108 31 108 94c0 64 -37 97 -108 97h-110v-191z" />
    <glyph glyph-name="racute" unicode="&#x155;" horiz-adv-x="382" 
d="M26 0v528h149l2 -47c25 33 61 57 112 57c18 0 39 -4 52 -8l-3 -150c-16 2 -41 5 -58 5c-53 0 -81 -15 -98 -46v-339h-156zM98 584l107 166h174l-149 -166h-132z" />
    <glyph glyph-name="Rcedilla" unicode="&#x156;" horiz-adv-x="611" 
d="M28 0v711h272c121 0 212 -39 251 -124c12 -28 19 -59 19 -94c0 -107 -53 -163 -125 -198l151 -279v-16h-169l-133 260h-104v-260h-162zM172 -203c26 31 40 74 40 129v49h120v-43c0 -57 -23 -105 -45 -141c-10 -16 -21 -28 -33 -40zM190 386h110c68 0 108 31 108 94
c0 64 -37 97 -108 97h-110v-191z" />
    <glyph glyph-name="rcedilla" unicode="&#x157;" horiz-adv-x="369" 
d="M13 -203c26 31 41 74 41 129v49h118v-43c0 -57 -22 -105 -44 -141c-10 -16 -21 -28 -33 -40zM32 0v528h148l2 -47c25 33 61 57 112 57c18 0 39 -4 52 -8l-3 -150c-16 2 -41 5 -58 5c-53 0 -80 -15 -97 -46v-339h-156z" />
    <glyph glyph-name="Rcaron" unicode="&#x158;" horiz-adv-x="611" 
d="M28 0v711h272c121 0 212 -39 251 -124c12 -28 19 -59 19 -94c0 -107 -53 -163 -125 -198l151 -279v-16h-169l-133 260h-104v-260h-162zM64 886v15h131l69 -66l68 66h132v-16l-153 -141h-95zM190 386h110c68 0 108 31 108 94c0 64 -37 97 -108 97h-110v-191z" />
    <glyph glyph-name="rcaron" unicode="&#x159;" horiz-adv-x="422" 
d="M10 735v15h131l69 -66l68 66h132v-16l-153 -141h-95zM56 0v528h148l2 -47c25 33 61 57 112 57c18 0 39 -4 52 -8l-3 -150c-16 2 -41 5 -58 5c-53 0 -80 -15 -97 -46v-339h-156z" />
    <glyph glyph-name="Sacute" unicode="&#x15a;" horiz-adv-x="599" 
d="M16 232v7h162v-7c0 -81 49 -111 132 -111c60 0 104 21 104 72c0 46 -26 60 -64 76c-18 8 -41 16 -70 25c-90 28 -181 65 -224 143c-13 24 -18 51 -18 82c0 106 78 162 161 187c33 10 68 15 108 15c121 0 209 -52 249 -136c12 -28 20 -58 20 -91v-8h-162v8
c0 64 -42 95 -110 95c-61 0 -106 -22 -106 -74c0 -20 10 -36 33 -51s57 -28 103 -42c95 -28 188 -67 226 -152c10 -23 16 -50 16 -79c0 -106 -71 -163 -157 -187c-33 -9 -69 -14 -109 -14c-139 0 -245 60 -282 166c-8 23 -12 48 -12 76zM223 735l107 166h174l-149 -166h-132
z" />
    <glyph glyph-name="sacute" unicode="&#x15b;" horiz-adv-x="504" 
d="M14 176v7h149v-7c3 -48 37 -71 90 -71c44 0 75 15 75 47c0 28 -21 35 -50 45c-13 5 -30 9 -52 13c-75 16 -147 43 -180 101c-10 18 -14 38 -14 61c0 52 27 91 58 117c38 30 93 49 160 49c102 0 177 -37 212 -106c10 -22 16 -46 16 -72v-7h-156v7c0 41 -26 63 -73 63
c-40 0 -67 -18 -67 -49c0 -24 22 -34 47 -42c35 -11 89 -19 126 -31c47 -15 86 -41 109 -80c11 -19 16 -41 16 -67c0 -54 -29 -93 -63 -118c-41 -29 -98 -46 -167 -46c-106 0 -186 45 -220 118c-10 22 -16 46 -16 68zM171 584l107 166h174l-149 -166h-132z" />
    <glyph glyph-name="Scircumflex" unicode="&#x15c;" horiz-adv-x="599" 
d="M16 232v7h162v-7c0 -81 49 -111 132 -111c60 0 104 21 104 72c0 46 -26 60 -64 76c-18 8 -41 16 -70 25c-90 28 -181 65 -224 143c-13 24 -18 51 -18 82c0 106 78 162 161 187c33 10 68 15 108 15c121 0 209 -52 249 -136c12 -28 20 -58 20 -91v-8h-162v8
c0 64 -42 95 -110 95c-61 0 -106 -22 -106 -74c0 -20 10 -36 33 -51s57 -28 103 -42c95 -28 188 -67 226 -152c10 -23 16 -50 16 -79c0 -106 -71 -163 -157 -187c-33 -9 -69 -14 -109 -14c-139 0 -245 60 -282 166c-8 23 -12 48 -12 76zM112 743v19l150 139h88l150 -141v-17
h-122l-72 68l-73 -68h-121z" />
    <glyph glyph-name="scircumflex" unicode="&#x15d;" horiz-adv-x="503" 
d="M14 176v7h148v-7c3 -48 37 -71 90 -71c44 0 74 15 74 47c0 28 -20 35 -49 45c-13 5 -30 9 -52 13c-75 16 -147 43 -180 101c-10 18 -15 38 -15 61c0 52 28 91 59 117c38 30 93 49 160 49c102 0 177 -37 212 -106c10 -22 17 -46 17 -72v-7h-156v7c0 41 -27 63 -74 63
c-40 0 -66 -18 -66 -49c0 -24 21 -34 46 -42c35 -11 89 -19 126 -31c47 -15 86 -41 109 -80c11 -19 17 -41 17 -67c0 -54 -30 -93 -64 -118c-41 -29 -98 -46 -167 -46c-106 0 -186 45 -220 118c-10 22 -15 46 -15 68zM60 592v19l149 139h88l151 -141v-17h-123l-72 68
l-73 -68h-120z" />
    <glyph glyph-name="Scedilla" unicode="&#x15e;" horiz-adv-x="599" 
d="M31 224h132c4 -85 62 -118 147 -118c62 0 118 22 118 86c0 54 -34 73 -72 90c-18 8 -43 17 -72 26c-90 28 -175 64 -214 136c-11 21 -18 46 -18 75c0 97 70 149 151 173c31 10 66 14 104 14c117 0 199 -50 235 -128c11 -24 17 -48 18 -77h-131c-4 69 -54 103 -125 103
c-63 0 -120 -23 -120 -88c0 -25 14 -47 39 -64c25 -16 61 -30 107 -44c95 -28 182 -66 216 -144c10 -21 14 -46 14 -73c0 -117 -90 -172 -203 -183l-5 -1l-6 -31c45 -6 74 -28 74 -78c0 -58 -40 -87 -91 -101c-19 -5 -38 -8 -64 -8l-3 67c28 2 54 15 54 48
c0 38 -35 41 -67 44l13 60c-110 14 -189 66 -220 153c-7 19 -10 38 -11 63z" />
    <glyph glyph-name="scedilla" unicode="&#x15f;" horiz-adv-x="504" 
d="M30 163h119c6 -51 49 -75 104 -75c46 0 89 16 89 61c0 38 -31 51 -58 60c-15 5 -34 9 -56 13c-73 15 -139 42 -168 94c-8 15 -14 34 -14 55c0 47 25 82 54 106c34 28 85 46 150 46c98 0 167 -35 198 -98c9 -18 14 -36 15 -57h-126c-4 46 -38 70 -88 70
c-44 0 -81 -21 -81 -63c0 -36 32 -49 57 -57c37 -12 91 -20 126 -31c45 -14 78 -38 99 -73c9 -16 16 -36 16 -60c0 -49 -26 -84 -58 -107c-28 -20 -64 -31 -107 -40l-7 -35c45 -6 74 -28 74 -78c0 -58 -40 -87 -91 -101c-19 -5 -38 -8 -64 -8l-3 67c28 2 54 15 54 48
c0 37 -34 41 -67 44l14 63c-81 10 -139 48 -167 105c-8 17 -13 33 -14 51z" />
    <glyph glyph-name="Scaron" unicode="&#x160;" horiz-adv-x="599" 
d="M16 232v7h162v-7c0 -81 49 -111 132 -111c60 0 104 21 104 72c0 46 -26 60 -64 76c-18 8 -41 16 -70 25c-90 28 -181 65 -224 143c-13 24 -18 51 -18 82c0 106 78 162 161 187c33 10 68 15 108 15c121 0 209 -52 249 -136c12 -28 20 -58 20 -91v-8h-162v8
c0 64 -42 95 -110 95c-61 0 -106 -22 -106 -74c0 -20 10 -36 33 -51s57 -28 103 -42c95 -28 188 -67 226 -152c10 -23 16 -50 16 -79c0 -106 -71 -163 -157 -187c-33 -9 -69 -14 -109 -14c-139 0 -245 60 -282 166c-8 23 -12 48 -12 76zM106 886v15h131l69 -66l68 66h132
v-16l-153 -141h-95z" />
    <glyph glyph-name="scaron" unicode="&#x161;" horiz-adv-x="503" 
d="M14 176v7h148v-7c3 -48 37 -71 90 -71c44 0 74 15 74 47c0 28 -20 35 -49 45c-13 5 -30 9 -52 13c-75 16 -147 43 -180 101c-10 18 -15 38 -15 61c0 52 28 91 59 117c38 30 93 49 160 49c102 0 177 -37 212 -106c10 -22 17 -46 17 -72v-7h-156v7c0 41 -27 63 -74 63
c-40 0 -66 -18 -66 -49c0 -24 21 -34 46 -42c35 -11 89 -19 126 -31c47 -15 86 -41 109 -80c11 -19 17 -41 17 -67c0 -54 -30 -93 -64 -118c-41 -29 -98 -46 -167 -46c-106 0 -186 45 -220 118c-10 22 -15 46 -15 68zM52 735v15h131l69 -66l68 66h132v-16l-153 -141h-95z
" />
    <glyph glyph-name="Tcedilla" unicode="&#x162;" horiz-adv-x="627" 
d="M16 577v134h594v-134h-218v-577h-23l-1 -8c42 -9 72 -39 72 -90c0 -68 -50 -102 -103 -116c-22 -6 -47 -9 -75 -9h-7l-5 97h8c30 0 48 8 48 32c0 28 -32 27 -71 32l14 62h-19v577h-214z" />
    <glyph glyph-name="tcedilla" unicode="&#x163;" horiz-adv-x="375" 
d="M16 410v118h76v130h156v-130h90v-118h-90v-247c0 -35 11 -46 47 -46c21 0 35 1 49 6v-118c-16 -7 -36 -10 -56 -12v-4c42 -9 72 -40 72 -91c0 -67 -49 -102 -102 -116c-22 -6 -48 -8 -76 -8h-7l-5 97h8c30 0 48 9 48 33c0 28 -32 26 -71 31l15 70c-53 23 -78 72 -78 143
v262h-76z" />
    <glyph glyph-name="Tcaron" unicode="&#x164;" horiz-adv-x="627" 
d="M16 577v134h594v-134h-218v-577h-162v577h-214zM110 886v15h131l69 -66l68 66h132v-16l-153 -141h-95z" />
    <glyph glyph-name="tcaron" unicode="&#x165;" horiz-adv-x="484" 
d="M16 410v118h76v130h156v-130h90v-118h-90v-244c0 -34 11 -45 47 -45c21 0 34 3 49 6v-122c-25 -10 -57 -15 -93 -15c-106 0 -159 55 -159 158v262h-76zM296 584c26 39 46 84 46 146v83h128v-83c0 -40 -13 -75 -27 -103c-15 -33 -39 -61 -65 -84l-4 -4z" />
    <glyph glyph-name="Tbar" unicode="&#x166;" horiz-adv-x="627" 
d="M16 577v134h594v-134h-218v-115h90v-104h-90v-358h-162v358h-106v104h106v115h-214z" />
    <glyph glyph-name="tbar" unicode="&#x167;" horiz-adv-x="401" 
d="M18 252v104h98v54h-78v118h78v130h156v-130h90v-118h-90v-54h104v-104h-104v-86c0 -34 10 -45 46 -45c16 0 29 1 40 4l10 2v-122c-27 -9 -57 -15 -94 -15c-106 0 -158 56 -158 159v103h-98z" />
    <glyph glyph-name="Utilde" unicode="&#x168;" horiz-adv-x="616" 
d="M26 244v467h160v-465c0 -83 39 -123 119 -123c81 0 119 40 119 123v465h162v-467c0 -128 -70 -207 -170 -238c-34 -11 -71 -16 -111 -16c-130 0 -219 54 -259 145c-13 32 -20 68 -20 109zM112 749v7c0 60 30 106 71 127c15 7 30 12 46 12c30 0 52 -13 72 -22
s38 -20 62 -20c21 0 35 15 35 39v9l96 -8v-7c0 -61 -30 -105 -70 -126c-14 -8 -31 -11 -48 -11c-48 0 -74 24 -103 37c-9 3 -19 5 -31 5c-21 0 -34 -15 -34 -39v-8z" />
    <glyph glyph-name="utilde" unicode="&#x169;" horiz-adv-x="527" 
d="M24 189v339h156v-337c0 -47 21 -72 68 -72s75 17 92 43v366h156v-528h-147l-3 43c-33 -33 -78 -53 -139 -53c-126 0 -183 77 -183 199zM68 599v7c0 60 31 106 72 127c15 7 30 12 46 12c30 0 52 -13 72 -22s38 -20 62 -20c21 0 34 15 34 39v9l98 -8v-7
c0 -61 -31 -105 -71 -126c-14 -8 -31 -11 -48 -11c-48 0 -74 24 -103 37c-9 3 -19 5 -31 5c-21 0 -33 -15 -33 -39v-8z" />
    <glyph glyph-name="Umacron" unicode="&#x16a;" horiz-adv-x="616" 
d="M26 244v467h160v-465c0 -83 39 -123 119 -123c81 0 119 40 119 123v465h162v-467c0 -128 -70 -207 -170 -238c-34 -11 -71 -16 -111 -16c-130 0 -219 54 -259 145c-13 32 -20 68 -20 109zM118 765v96h372v-96h-372z" />
    <glyph glyph-name="umacron" unicode="&#x16b;" horiz-adv-x="528" 
d="M24 189v339h156v-337c0 -47 21 -72 68 -72s75 17 92 43v366h156v-528h-147l-3 43c-33 -33 -78 -53 -139 -53c-126 0 -183 77 -183 199zM76 615v96h372v-96h-372z" />
    <glyph glyph-name="Ubreve" unicode="&#x16c;" horiz-adv-x="616" 
d="M26 244v467h160v-465c0 -83 39 -123 119 -123c81 0 119 40 119 123v465h162v-467c0 -128 -70 -207 -170 -238c-34 -11 -71 -16 -111 -16c-130 0 -219 54 -259 145c-13 32 -20 68 -20 109zM128 888v8h114v-8c0 -39 22 -56 62 -56s60 19 60 56v8h116v-8
c0 -77 -47 -121 -104 -141c-22 -7 -46 -11 -72 -11c-99 0 -176 52 -176 152z" />
    <glyph glyph-name="ubreve" unicode="&#x16d;" horiz-adv-x="527" 
d="M24 189v339h156v-337c0 -47 21 -72 68 -72s75 17 92 43v366h156v-528h-147l-3 43c-33 -33 -78 -53 -139 -53c-126 0 -183 77 -183 199zM84 738v7h116v-7c0 -39 21 -57 61 -57s61 20 61 57v7h116v-7c0 -77 -48 -122 -105 -142c-22 -7 -46 -11 -72 -11
c-99 0 -177 52 -177 153z" />
    <glyph glyph-name="Uring" unicode="&#x16e;" horiz-adv-x="616" 
d="M26 244v467h160v-465c0 -83 39 -123 119 -123c81 0 119 40 119 123v465h162v-467c0 -128 -70 -207 -170 -238c-34 -11 -71 -16 -111 -16c-130 0 -219 54 -259 145c-13 32 -20 68 -20 109zM188 838c0 52 33 83 70 98c14 5 30 9 46 9c64 0 116 -41 116 -107
s-52 -106 -116 -106c-53 0 -90 27 -107 63c-6 13 -9 28 -9 43zM258 838c0 -25 20 -45 46 -45c27 0 46 19 46 45c0 27 -18 45 -46 45s-46 -18 -46 -45z" />
    <glyph glyph-name="uring" unicode="&#x16f;" horiz-adv-x="528" 
d="M24 189v339h156v-337c0 -47 21 -72 68 -72s75 17 92 43v366h156v-528h-147l-3 43c-33 -33 -78 -53 -139 -53c-126 0 -183 77 -183 199zM144 686c0 52 34 83 71 98c14 5 30 9 46 9c64 0 117 -41 117 -107s-53 -106 -117 -106c-53 0 -90 27 -107 63c-6 13 -10 28 -10 43z
M216 686c0 -25 19 -45 45 -45c27 0 45 19 45 45c0 27 -17 45 -45 45s-45 -18 -45 -45z" />
    <glyph glyph-name="Uhungarumlaut" unicode="&#x170;" horiz-adv-x="616" 
d="M26 244v467h160v-465c0 -83 39 -123 119 -123c81 0 119 40 119 123v465h162v-467c0 -128 -70 -207 -170 -238c-34 -11 -71 -16 -111 -16c-130 0 -219 54 -259 145c-13 32 -20 68 -20 109zM141 739l100 162h143l-123 -162h-120zM311 739l121 162h147l-144 -162h-124z" />
    <glyph glyph-name="uhungarumlaut" unicode="&#x171;" 
d="M24 189v339h156v-337c0 -47 21 -72 68 -72s75 17 92 43v366h156v-528h-147l-3 43c-33 -33 -78 -53 -139 -53c-126 0 -183 77 -183 199zM99 588l100 162h143l-123 -162h-120zM269 588l121 162h147l-144 -162h-124z" />
    <glyph glyph-name="Uogonek" unicode="&#x172;" horiz-adv-x="616" 
d="M26 244v467h160v-465c0 -83 39 -123 119 -123c81 0 119 40 119 123v465h162v-467c0 -111 -54 -186 -131 -223c-26 -16 -53 -33 -53 -67c0 -16 8 -24 25 -24c19 0 31 7 45 13l16 -91c-21 -15 -50 -25 -88 -25c-69 0 -118 37 -118 109c0 21 3 39 11 54
c-124 3 -208 57 -247 145c-13 32 -20 68 -20 109z" />
    <glyph glyph-name="uogonek" unicode="&#x173;" horiz-adv-x="528" 
d="M24 189v339h156v-337c0 -47 21 -72 68 -72s75 17 92 43v366h156v-528h-21c-23 -14 -40 -26 -52 -38s-17 -25 -17 -40c0 -16 7 -25 24 -25c19 0 31 7 45 13l16 -91c-21 -15 -50 -25 -88 -25c-69 0 -119 39 -119 110c0 53 26 86 63 111l-1 28c-33 -33 -78 -53 -139 -53
c-126 0 -183 77 -183 199z" />
    <glyph glyph-name="Wcircumflex" unicode="&#x174;" horiz-adv-x="885" 
d="M11 711h161l91 -476l110 476h136l110 -477l91 477h161l-161 -711h-159l-110 452l-110 -452h-159zM250 743v19l150 139h88l150 -141v-17h-122l-72 68l-73 -68h-121z" />
    <glyph glyph-name="wcircumflex" unicode="&#x175;" horiz-adv-x="749" 
d="M11 528h152l64 -312l89 312h114l90 -312l64 312h152l-139 -528h-130l-94 314l-94 -314h-130zM180 592v19l149 139h88l151 -141v-17h-123l-72 68l-73 -68h-120z" />
    <glyph glyph-name="Ycircumflex" unicode="&#x176;" horiz-adv-x="656" 
d="M7 711h178l142 -310l143 310h177l-239 -453v-258h-164v258zM134 743v19l150 139h88l150 -141v-17h-122l-72 68l-73 -68h-121z" />
    <glyph glyph-name="ycircumflex" unicode="&#x177;" horiz-adv-x="542" 
d="M9 528h169l92 -309l92 309h168l-215 -602c-25 -73 -72 -139 -176 -139c-24 0 -46 2 -65 10l-4 1v120h7c8 0 15 -1 21 -1c50 0 73 16 85 52l15 38zM80 592v19l149 139h88l151 -141v-17h-123l-72 68l-73 -68h-120z" />
    <glyph glyph-name="Ydieresis" unicode="&#x178;" horiz-adv-x="656" 
d="M7 711h178l142 -310l143 310h177l-239 -453v-258h-164v258zM134 810c0 43 34 70 75 70s75 -28 75 -70c0 -43 -34 -69 -75 -69c-42 0 -75 25 -75 69zM372 810c0 43 34 70 75 70s75 -28 75 -70s-34 -70 -75 -70c-42 0 -75 27 -75 70z" />
    <glyph glyph-name="Zacute" unicode="&#x179;" horiz-adv-x="596" 
d="M20 0v93l344 484h-344v134h548v-92l-344 -489h352v-130h-556zM216 735l107 166h174l-149 -166h-132z" />
    <glyph glyph-name="zacute" unicode="&#x17a;" horiz-adv-x="495" 
d="M20 0v93l241 306h-235v129h440v-90l-244 -313h252v-125h-454zM164 584l107 166h174l-149 -166h-132z" />
    <glyph glyph-name="Zdotaccent" unicode="&#x17b;" horiz-adv-x="596" 
d="M20 0v93l344 484h-344v134h548v-92l-344 -489h352v-130h-556zM218 824c0 46 34 74 80 74s80 -29 80 -74s-34 -75 -80 -75c-45 0 -80 31 -80 75z" />
    <glyph glyph-name="zdotaccent" unicode="&#x17c;" horiz-adv-x="495" 
d="M20 0v93l241 306h-235v129h440v-90l-244 -313h252v-125h-454zM166 672c0 46 34 74 80 74s80 -29 80 -74s-34 -75 -80 -75c-45 0 -80 31 -80 75z" />
    <glyph glyph-name="Zcaron" unicode="&#x17d;" horiz-adv-x="596" 
d="M20 0v93l344 484h-344v134h548v-92l-344 -489h352v-130h-556zM98 886v15h131l69 -66l68 66h132v-16l-153 -141h-95z" />
    <glyph glyph-name="zcaron" unicode="&#x17e;" horiz-adv-x="495" 
d="M20 0v93l241 306h-235v129h440v-90l-244 -313h252v-125h-454zM46 735v15h131l69 -66l68 66h132v-16l-153 -141h-95z" />
    <glyph glyph-name="longs" unicode="&#x17f;" horiz-adv-x="330" 
d="M28 0v566c0 126 76 194 201 194c33 0 59 -7 87 -11l-13 -124c-19 2 -32 6 -54 6c-43 0 -65 -22 -65 -65v-566h-156z" />
    <glyph glyph-name="uni0189" unicode="&#x189;" horiz-adv-x="675" 
d="M16 306v104h74v301h226c161 0 263 -86 308 -202c16 -42 24 -87 24 -138v-32c0 -159 -80 -268 -198 -315c-41 -16 -86 -24 -136 -24h-224v306h-74zM252 133h62c120 0 170 82 170 207v31c0 125 -48 206 -168 206h-64v-167h120v-104h-120v-173z" />
    <glyph glyph-name="uni0190" unicode="&#x190;" horiz-adv-x="540" 
d="M14 202c0 84 45 137 109 164c-50 29 -97 72 -97 149c0 33 5 63 18 89c37 77 118 117 230 117c33 0 64 -5 93 -14c78 -26 147 -84 147 -187v-8h-156v8c0 48 -36 72 -87 72c-57 0 -89 -28 -89 -80c0 -56 34 -86 98 -86h82v-126h-82c-70 0 -110 -28 -110 -95
c0 -56 41 -86 101 -86c54 0 97 31 97 83v8h156v-8c0 -36 -7 -68 -22 -95c-40 -72 -121 -117 -228 -117c-37 0 -70 5 -102 14c-86 26 -158 88 -158 198z" />
    <glyph glyph-name="florin" unicode="&#x192;" horiz-adv-x="419" 
d="M10 -203l8 128c14 -5 32 -9 52 -9c38 0 48 23 48 68v426h-80v118h80v38c0 126 76 194 202 194c33 0 57 -7 85 -11l-12 -124c-19 2 -32 6 -56 6c-43 0 -63 -21 -63 -65v-38h102v-118h-102v-426c0 -121 -65 -197 -186 -197c-30 0 -54 2 -78 10z" />
    <glyph glyph-name="Ohorn" unicode="&#x1a0;" horiz-adv-x="726" 
d="M20 339v32c0 162 70 275 186 325c38 16 79 25 125 25c97 0 169 -39 219 -91c43 14 52 62 52 128v7h110v-7c0 -103 -32 -177 -109 -207c25 -51 39 -109 39 -180v-31c0 -162 -69 -276 -185 -326c-38 -16 -79 -24 -125 -24c-100 0 -175 40 -225 94c-55 59 -87 146 -87 255z
M184 340c0 -97 24 -170 85 -201c18 -9 39 -14 63 -14c107 0 146 94 146 215v31c0 122 -39 214 -147 214c-107 0 -147 -93 -147 -214v-31z" />
    <glyph glyph-name="ohorn" unicode="&#x1a1;" horiz-adv-x="610" 
d="M20 259v10c0 124 57 210 148 248c32 14 69 21 109 21c83 0 144 -29 185 -73c23 19 30 57 30 105v8h100v-8c0 -81 -25 -141 -83 -171c17 -37 27 -79 27 -130v-9c0 -124 -57 -211 -148 -250c-32 -14 -69 -20 -110 -20c-128 0 -207 69 -240 163c-11 33 -18 67 -18 106z
M176 259c0 -79 25 -140 102 -140c75 0 102 62 102 140v10c0 78 -27 140 -103 140c-74 0 -101 -63 -101 -140v-10z" />
    <glyph glyph-name="Uhorn" unicode="&#x1af;" horiz-adv-x="791" 
d="M26 244v467h160v-465c0 -83 39 -123 119 -123c81 0 119 40 119 123v465h162v-110c70 8 80 57 80 141v8h110v-8c0 -140 -54 -222 -190 -229v-268c0 -128 -70 -208 -170 -239c-34 -11 -71 -16 -111 -16c-130 0 -219 54 -259 145c-13 32 -20 68 -20 109z" />
    <glyph glyph-name="uhorn" unicode="&#x1b0;" horiz-adv-x="658" 
d="M24 189v339h156v-337c0 -47 21 -72 68 -72s75 17 92 43v366h156v-65c39 12 46 46 46 105v7h98v-7c0 -109 -42 -172 -144 -184v-384h-147l-3 43c-33 -33 -78 -53 -139 -53c-126 0 -183 77 -183 199z" />
    <glyph glyph-name="uni01B7" unicode="&#x1b7;" horiz-adv-x="540" 
d="M14 202v8h156v-8c0 -52 43 -83 97 -83c60 0 101 30 101 86c0 64 -60 95 -185 95h-7v123l8 -1h19c49 0 153 10 153 89c0 53 -32 81 -89 81h-200l-47 129h284c166 0 208 -128 208 -206c0 -76 -47 -122 -97 -149c65 -27 109 -80 109 -164c0 -110 -72 -172 -158 -198
c-32 -9 -65 -14 -102 -14c-107 0 -188 45 -228 117c-15 27 -22 59 -22 95z" />
    <glyph glyph-name="uni01B8" unicode="&#x1b8;" horiz-adv-x="540" 
d="M14 202c0 84 45 137 109 164c-50 29 -97 72 -97 149c0 78 42 206 208 206h284l-47 -129h-200c-57 0 -89 -28 -89 -81c0 -100 169 -89 172 -89l8 1v-123h-7c-125 0 -185 -31 -185 -95c0 -56 41 -86 101 -86c54 0 97 31 97 83v8h156v-8c0 -36 -7 -68 -22 -95
c-40 -72 -121 -117 -228 -117c-37 0 -70 5 -102 14c-86 26 -158 88 -158 198z" />
    <glyph glyph-name="uni01F0" unicode="&#x1f0;" horiz-adv-x="422" 
d="M10 722v15h131l69 -66l68 66h132v-16l-153 -141h-95zM27 -203l8 127c17 -4 34 -8 55 -8c37 0 52 29 52 74v538h156v-538c0 -126 -67 -203 -193 -203c-30 0 -54 2 -78 10z" />
    <glyph glyph-name="Aringacute" unicode="&#x1fa;" horiz-adv-x="708" 
d="M9 0l271 711h146l272 -711h-172l-49 146h-247l-49 -146h-172zM248 826c0 48 31 77 65 91c13 5 27 8 42 8c60 0 105 -39 105 -99s-47 -97 -105 -97c-49 0 -82 23 -98 57c-5 12 -9 26 -9 40zM275 272h157l-79 235zM303 929l105 116h153l-150 -116h-108zM318 826
c0 -21 16 -36 37 -36s35 16 35 36c0 23 -14 37 -35 37c-22 0 -37 -15 -37 -37z" />
    <glyph glyph-name="aringacute" unicode="&#x1fb;" horiz-adv-x="519" 
d="M16 152c0 134 117 178 252 178h56v21c0 44 -22 68 -71 68c-42 0 -69 -20 -69 -57v-7h-156v7c0 56 31 97 64 124c41 32 99 52 169 52c100 0 171 -37 203 -106c12 -23 16 -51 16 -82v-218c0 -47 7 -83 21 -114l1 -1v-17h-155c-8 10 -12 23 -15 38c-30 -29 -71 -48 -128 -48
c-84 0 -145 41 -173 97c-10 20 -15 41 -15 65zM154 644c0 48 30 77 64 91c13 5 27 9 42 9c47 0 81 -27 96 -60c5 -12 8 -26 8 -40c0 -60 -46 -96 -104 -96c-49 0 -82 23 -98 57c-5 12 -8 25 -8 39zM172 163c0 -30 27 -50 63 -50c42 0 74 19 89 43v76h-51
c-60 0 -101 -19 -101 -69zM208 748l105 116h153l-150 -116h-108zM224 644c0 -21 15 -35 36 -35s34 15 34 35c0 23 -13 38 -34 38c-22 0 -36 -16 -36 -38z" />
    <glyph glyph-name="AEacute" unicode="&#x1fc;" horiz-adv-x="956" 
d="M6 0l393 711h507v-130h-291l6 -155h245v-126h-239l7 -173h302v-127h-452l-7 163h-206l-81 -163h-184zM339 290h132l-10 243zM392 741l107 166h174l-149 -166h-132z" />
    <glyph glyph-name="aeacute" unicode="&#x1fd;" horiz-adv-x="845" 
d="M16 158c0 122 117 162 250 162h72v20c0 44 -24 69 -69 69c-38 0 -62 -11 -74 -33c-3 -6 -5 -13 -5 -20v-7l-156 9v8c0 58 31 98 66 124c42 30 100 48 170 48c68 0 123 -18 160 -51c39 32 91 52 159 51c114 0 185 -57 214 -142c10 -29 15 -62 15 -99v-85h-325
c8 -60 48 -93 122 -93c63 0 107 17 148 40l43 -105c-50 -37 -120 -64 -206 -64c-83 0 -146 27 -188 69c-44 -43 -108 -69 -192 -69c-93 0 -162 34 -190 99c-9 20 -14 44 -14 69zM172 162c0 -37 27 -53 74 -53c38 0 70 16 92 35v81h-71c-44 0 -74 -15 -88 -41
c-4 -8 -7 -14 -7 -22zM330 584l107 166h174l-149 -166h-132zM495 314h169v6c0 56 -22 89 -75 89c-60 0 -85 -40 -94 -95z" />
    <glyph glyph-name="Oslashacute" unicode="&#x1fe;" horiz-adv-x="666" 
d="M20 339v31c0 161 70 276 185 326c38 16 79 25 125 25c60 0 111 -15 151 -38l35 58h108l-70 -115c55 -61 86 -145 86 -255v-31c0 -162 -67 -276 -183 -326c-38 -16 -80 -24 -126 -24c-52 0 -99 11 -141 32l-40 -68h-109l74 121c-59 61 -95 149 -95 264zM184 332
c0 -48 5 -89 17 -122l208 350c-23 17 -48 24 -79 25c-107 0 -146 -97 -146 -221v-32zM249 772l107 166h174l-149 -166h-132zM262 143c20 -12 42 -18 69 -18c107 0 145 96 145 221v34c0 41 -4 76 -12 105z" />
    <glyph glyph-name="oslashacute" unicode="&#x1ff;" horiz-adv-x="560" 
d="M20 258v10c0 124 57 211 148 250c32 14 68 20 109 20c31 0 61 -4 87 -12l33 68h95l-53 -106c60 -47 97 -120 97 -218v-10c0 -124 -57 -211 -148 -250c-32 -14 -69 -20 -110 -20c-29 0 -57 3 -82 11l-34 -70h-96l52 105c-63 46 -98 123 -98 222zM176 252
c0 -32 5 -61 13 -84l116 237c-9 3 -18 4 -28 4c-75 0 -101 -66 -101 -147v-10zM176 582l107 166h174l-149 -166h-132zM255 121c9 -2 14 -2 23 -2c75 0 102 65 102 147v10c0 30 -5 56 -12 78z" />
    <glyph glyph-name="uni0218" unicode="&#x218;" horiz-adv-x="599" 
d="M16 232v7h162v-7c0 -81 49 -111 132 -111c60 0 104 21 104 72c0 46 -26 60 -64 76c-18 8 -41 16 -70 25c-90 28 -181 65 -224 143c-13 24 -18 51 -18 82c0 106 78 162 161 187c33 10 68 15 108 15c121 0 209 -52 249 -136c12 -28 20 -58 20 -91v-8h-162v8
c0 64 -42 95 -110 95c-61 0 -106 -22 -106 -74c0 -20 10 -36 33 -51s57 -28 103 -42c95 -28 188 -67 226 -152c10 -23 16 -50 16 -79c0 -106 -71 -163 -157 -187c-33 -9 -69 -14 -109 -14c-139 0 -245 60 -282 166c-8 23 -12 48 -12 76zM207 -208c26 31 41 73 41 128v50h118
v-42c0 -57 -22 -105 -44 -141c-10 -16 -20 -28 -33 -41z" />
    <glyph glyph-name="uni0219" unicode="&#x219;" horiz-adv-x="504" 
d="M14 176v7h149v-7c3 -48 37 -71 90 -71c44 0 75 15 75 47c0 28 -21 35 -50 45c-13 5 -30 9 -52 13c-75 16 -147 43 -180 101c-10 18 -14 38 -14 61c0 52 27 91 58 117c38 30 93 49 160 49c102 0 177 -37 212 -106c10 -22 16 -46 16 -72v-7h-156v7c0 41 -26 63 -73 63
c-40 0 -67 -18 -67 -49c0 -24 22 -34 47 -42c35 -11 89 -19 126 -31c47 -15 86 -41 109 -80c11 -19 16 -41 16 -67c0 -54 -29 -93 -63 -118c-41 -29 -98 -46 -167 -46c-106 0 -186 45 -220 118c-10 22 -16 46 -16 68zM154 -213c26 31 40 74 40 129v49h120v-43
c0 -57 -23 -105 -45 -141c-10 -16 -21 -28 -33 -40z" />
    <glyph glyph-name="uni021A" unicode="&#x21a;" horiz-adv-x="627" 
d="M16 577v134h594v-134h-218v-577h-162v577h-214zM210 -205c26 31 40 74 40 129v49h120v-43c0 -57 -23 -105 -45 -141c-10 -16 -21 -28 -33 -40z" />
    <glyph glyph-name="uni021B" unicode="&#x21b;" horiz-adv-x="366" 
d="M16 410v118h76v130h156v-130h90v-118h-90v-244c0 -34 11 -45 47 -45c21 0 34 3 49 6v-122c-25 -10 -57 -15 -93 -15c-106 0 -159 55 -159 158v262h-76zM130 -208c26 31 40 73 40 128v50h120v-42c0 -57 -23 -105 -45 -141c-10 -16 -20 -28 -33 -41z" />
    <glyph glyph-name="uni0237" unicode="&#x237;" horiz-adv-x="313" 
d="M10 -203l8 127c17 -4 34 -8 55 -8c37 0 51 29 51 74v538h156v-538c0 -126 -66 -203 -192 -203c-30 0 -54 2 -78 10z" />
    <glyph glyph-name="schwa" unicode="&#x259;" horiz-adv-x="524" 
d="M20 231v85h318c-10 55 -46 94 -113 94c-66 0 -109 -17 -151 -41l-43 104c51 39 120 66 209 66c125 0 206 -67 240 -158c11 -32 18 -65 18 -101v-19c0 -122 -56 -212 -143 -251c-30 -14 -64 -20 -102 -19c-151 0 -233 93 -233 240zM174 208c0 -55 26 -89 79 -89
c52 0 76 44 84 93h-163v-4z" />
    <glyph glyph-name="uni02BC" unicode="&#x2bc;" horiz-adv-x="213" 
d="M16 533c23 41 46 76 46 138v79h128v-79c0 -37 -13 -69 -27 -96c-15 -31 -39 -59 -65 -80l-4 -4z" />
    <glyph glyph-name="circumflex" unicode="&#x2c6;" horiz-adv-x="435" 
d="M22 592v19l150 139h88l150 -141v-17h-122l-72 68l-73 -68h-121z" />
    <glyph glyph-name="caron" unicode="&#x2c7;" horiz-adv-x="441" 
d="M20 735v15h131l69 -66l68 66h132v-16l-153 -141h-95z" />
    <glyph glyph-name="breve" unicode="&#x2d8;" horiz-adv-x="403" 
d="M24 738v7h116v-7c0 -34 21 -50 61 -50s61 17 61 50v7h116v-7c0 -73 -49 -116 -106 -135c-22 -7 -45 -11 -71 -11c-79 0 -140 32 -164 87c-8 18 -13 38 -13 59z" />
    <glyph glyph-name="dotaccent" unicode="&#x2d9;" horiz-adv-x="210" 
d="M24 671c0 46 34 75 80 75s80 -30 80 -75s-34 -75 -80 -75c-45 0 -80 31 -80 75z" />
    <glyph glyph-name="ring" unicode="&#x2da;" horiz-adv-x="279" 
d="M22 643c0 50 34 82 71 96c14 5 30 8 46 8c52 0 92 -27 108 -64c5 -12 9 -26 9 -40c0 -64 -53 -101 -117 -101c-53 0 -91 25 -108 60c-7 13 -9 27 -9 41zM94 643c0 -23 19 -41 45 -41c27 0 45 17 45 41c0 25 -17 42 -45 42s-45 -17 -45 -42z" />
    <glyph glyph-name="ogonek" unicode="&#x2db;" horiz-adv-x="254" 
d="M24 -104c0 49 29 81 61 103c15 10 31 20 53 29l3 2l89 -36l-13 -8c-24 -12 -42 -22 -54 -33c-12 -10 -17 -22 -17 -35c0 -14 7 -21 24 -21c19 0 32 7 44 14l18 -92c-21 -15 -51 -25 -89 -25c-69 0 -119 36 -119 102z" />
    <glyph glyph-name="tilde" unicode="&#x2dc;" horiz-adv-x="433" 
d="M24 599v7c0 60 30 106 71 127c15 8 31 12 47 12c30 0 52 -11 72 -18c20 -8 38 -17 62 -17c21 0 34 13 34 32v9l98 -8v-6c0 -57 -31 -100 -71 -120c-14 -7 -31 -11 -48 -11c-48 0 -74 20 -103 31c-9 3 -19 4 -31 4c-21 0 -33 -15 -33 -39v-8z" />
    <glyph glyph-name="hungarumlaut" unicode="&#x2dd;" horiz-adv-x="466" 
d="M17 588l100 162h143l-123 -162h-120zM187 588l121 162h147l-144 -162h-124z" />
    <glyph glyph-name="uni02F3" unicode="&#x2f3;" horiz-adv-x="264" 
d="M32 -112c0 56 46 92 100 92s98 -36 98 -92s-44 -90 -98 -90c-55 0 -100 33 -100 90zM104 -112c0 -17 12 -28 28 -28c17 0 28 11 28 28c0 19 -10 30 -28 30s-28 -12 -28 -30z" />
    <glyph glyph-name="gravecomb" unicode="&#x300;" horiz-adv-x="232" 
d="M15 750h130l65 -159h-100z" />
    <glyph glyph-name="acutecomb" unicode="&#x301;" horiz-adv-x="234" 
d="M19 591l69 159h131l-101 -159h-99z" />
    <glyph glyph-name="tildecomb" unicode="&#x303;" horiz-adv-x="433" 
d="M24 599v7c0 60 31 106 72 127c15 7 30 12 46 12c30 0 52 -11 72 -18c20 -8 38 -17 62 -17c21 0 34 13 34 32v9l98 -8v-6c0 -57 -31 -100 -71 -120c-14 -7 -31 -11 -48 -11c-48 0 -74 20 -103 31c-9 3 -19 4 -31 4c-21 0 -33 -15 -33 -39v-8z" />
    <glyph glyph-name="hook" unicode="&#x309;" horiz-adv-x="254" 
d="M24 735l5 80h7c62 0 109 -8 142 -26c33 -17 50 -41 50 -73c0 -45 -37 -67 -74 -74v-30h-120l-8 74c36 5 68 3 68 24c0 20 -29 25 -62 25h-8z" />
    <glyph glyph-name="uni030F" unicode="&#x30f;" horiz-adv-x="485" 
d="M10 748h162l133 -144h-136zM204 748h157l108 -144h-132z" />
    <glyph glyph-name="dotbelow" unicode="&#x323;" horiz-adv-x="240" 
d="M32 -114c0 48 40 74 87 74c46 0 87 -25 87 -74s-39 -76 -87 -76c-39 0 -67 18 -80 46c-5 9 -7 19 -7 30z" />
    <glyph glyph-name="tonos" unicode="&#x384;" horiz-adv-x="223" 
d="M22 598l39 184h146l-87 -184h-98z" />
    <glyph glyph-name="dieresistonos" unicode="&#x385;" horiz-adv-x="504" 
d="M24 667c0 43 35 69 76 69s74 -27 74 -69c0 -43 -33 -69 -74 -69c-42 0 -76 25 -76 69zM200 678l23 177h145l-82 -177h-86zM326 667c0 42 34 69 74 69c41 0 76 -26 76 -69s-34 -71 -76 -71c-41 0 -74 28 -74 71z" />
    <glyph glyph-name="Alphatonos" unicode="&#x386;" horiz-adv-x="706" 
d="M8 0l271 711h146l272 -711h-172l-49 146h-247l-49 -146h-172zM49 598l39 184h146l-87 -184h-98zM274 272h157l-79 235z" />
    <glyph glyph-name="anoteleia" unicode="&#x387;" horiz-adv-x="221" 
d="M20 348c0 50 37 83 88 83c50 0 88 -32 88 -83c0 -50 -39 -83 -88 -83s-88 32 -88 83z" />
    <glyph glyph-name="Epsilontonos" unicode="&#x388;" horiz-adv-x="712" 
d="M11 598l39 184h146l-87 -184h-98zM198 0v711h490v-134h-328v-147h280v-130h-280v-167h330v-133h-492z" />
    <glyph glyph-name="Etatonos" unicode="&#x389;" horiz-adv-x="822" 
d="M11 597l39 184h146l-87 -184h-98zM196 0v711h162v-281h270v281h162v-711h-162v298h-270v-298h-162z" />
    <glyph glyph-name="Iotatonos" unicode="&#x38a;" horiz-adv-x="398" 
d="M11 599l39 184h146l-87 -184h-98zM204 0v711h162v-711h-162z" />
    <glyph glyph-name="Omicrontonos" unicode="&#x38c;" horiz-adv-x="741" 
d="M11 598l39 184h146l-87 -184h-98zM98 339v32c0 162 68 275 184 325c38 16 80 25 126 25c100 0 175 -41 224 -95c53 -59 86 -146 86 -255v-32c0 -163 -68 -275 -184 -325c-38 -16 -79 -24 -125 -24c-99 0 -176 41 -225 95c-53 58 -86 146 -86 254zM260 340
c0 -96 25 -170 86 -201c18 -9 39 -14 63 -14c107 0 145 94 145 215v31c0 122 -38 214 -146 214c-107 0 -148 -93 -148 -214v-31z" />
    <glyph glyph-name="Upsilontonos" unicode="&#x38e;" horiz-adv-x="821" 
d="M11 598l39 184h146l-87 -184h-98zM172 711h178l142 -310l143 310h177l-238 -453v-258h-164v258z" />
    <glyph glyph-name="Omegatonos" unicode="&#x38f;" horiz-adv-x="696" 
d="M11 598l39 184h146l-87 -184h-98zM94 379v41c0 139 69 236 171 278c36 15 75 22 118 22c140 0 230 -79 269 -180c14 -37 20 -77 20 -121v-41c0 -110 -47 -189 -103 -247h95v-131h-262v130c74 30 92 132 92 246v42c0 96 -30 168 -111 168c-80 0 -111 -73 -111 -168v-42
c0 -93 11 -175 54 -219c12 -12 23 -21 36 -25l4 -2v-130h-264v134h94c-45 44 -78 101 -94 169c-6 25 -8 50 -8 76z" />
    <glyph glyph-name="iotadieresistonos" unicode="&#x390;" horiz-adv-x="481" 
d="M14 650c0 43 34 69 75 69s75 -27 75 -69c0 -43 -34 -70 -75 -70c-42 0 -75 26 -75 70zM150 153v375h157l-1 -357c0 -35 11 -46 47 -46c9 0 15 1 22 2l27 3v-121c-28 -9 -55 -14 -93 -14c-106 0 -159 55 -159 158zM189 668l23 177h145l-82 -177h-86zM314 650
c0 42 35 69 75 69c41 0 75 -26 75 -69s-33 -71 -75 -71c-41 0 -75 28 -75 71z" />
    <glyph glyph-name="Alpha" unicode="&#x391;" horiz-adv-x="706" 
d="M8 0l271 711h146l272 -711h-172l-49 146h-247l-49 -146h-172zM274 272h157l-79 235z" />
    <glyph glyph-name="Beta" unicode="&#x392;" horiz-adv-x="592" 
d="M28 0v711h256c119 0 212 -31 253 -111c13 -25 19 -54 19 -87c0 -71 -38 -120 -89 -146c63 -23 105 -76 105 -155c0 -149 -110 -212 -265 -212h-279zM190 133h117c63 0 103 26 103 81c0 61 -31 88 -97 88h-123v-169zM190 420h100c64 1 104 22 104 77c0 62 -38 80 -110 80
h-94v-157z" />
    <glyph glyph-name="Gamma" unicode="&#x393;" horiz-adv-x="529" 
d="M28 0v711h480v-134h-318v-577h-162z" />
    <glyph glyph-name="Delta" unicode="&#x394;" horiz-adv-x="754" 
d="M-24 0l295 711h172l292 -711h-759zM218 133h275l-136 366z" />
    <glyph glyph-name="Delta" unicode="&#x2206;" horiz-adv-x="754" 
d="M-24 0l295 711h172l292 -711h-759zM218 133h275l-136 366z" />
    <glyph glyph-name="Epsilon" unicode="&#x395;" horiz-adv-x="542" 
d="M28 0v711h490v-134h-328v-147h280v-130h-280v-167h330v-133h-492z" />
    <glyph glyph-name="Zeta" unicode="&#x396;" horiz-adv-x="596" 
d="M20 0v93l344 484h-344v134h548v-92l-344 -489h352v-130h-556z" />
    <glyph glyph-name="Eta" unicode="&#x397;" horiz-adv-x="654" 
d="M28 0v711h162v-281h270v281h162v-711h-162v298h-270v-298h-162z" />
    <glyph glyph-name="Theta" unicode="&#x398;" horiz-adv-x="664" 
d="M20 339v32c0 162 68 275 184 325c38 16 80 25 126 25c100 0 175 -41 224 -95c53 -59 86 -146 86 -255v-32c0 -162 -68 -275 -184 -325c-38 -16 -79 -24 -125 -24c-100 0 -175 41 -225 95c-55 58 -86 145 -86 254zM182 340c0 -96 25 -170 86 -201c18 -9 39 -14 63 -14
c107 0 145 94 145 215v31c0 122 -38 214 -146 214c-107 0 -148 -93 -148 -214v-31zM232 288v130h202v-130h-202z" />
    <glyph glyph-name="Iota" unicode="&#x399;" horiz-adv-x="221" 
d="M28 0v711h160v-711h-160z" />
    <glyph glyph-name="Kappa" unicode="&#x39a;" horiz-adv-x="635" 
d="M28 0v711h162v-306c76 106 155 202 232 303l2 3h200l-260 -317l265 -394h-192l-180 280l-67 -72v-208h-162z" />
    <glyph glyph-name="Lambda" unicode="&#x39b;" horiz-adv-x="671" 
d="M10 0l244 711h162l244 -711h-175l-150 491l-150 -491h-175z" />
    <glyph glyph-name="Mu" unicode="&#x39c;" horiz-adv-x="824" 
d="M28 0v711h204l178 -501l176 501h206v-711h-162v202l11 287l-177 -489h-110l-177 488l13 -286v-202h-162z" />
    <glyph glyph-name="Nu" unicode="&#x39d;" horiz-adv-x="654" 
d="M28 0v711h158l274 -450v450h162v-711h-159l-273 449v-449h-162z" />
    <glyph glyph-name="Xi" unicode="&#x39e;" horiz-adv-x="536" 
d="M20 0v133h496v-133h-496zM32 577v134h462v-134h-462zM76 294v130h384v-130h-384z" />
    <glyph glyph-name="Omicron" unicode="&#x39f;" horiz-adv-x="663" 
d="M20 339v32c0 162 68 275 184 325c38 16 80 25 126 25c100 0 175 -41 224 -95c53 -59 86 -146 86 -255v-32c0 -163 -68 -275 -184 -325c-38 -16 -79 -24 -125 -24c-99 0 -176 41 -225 95c-53 58 -86 146 -86 254zM182 340c0 -96 25 -170 86 -201c18 -9 39 -14 63 -14
c107 0 145 94 145 215v31c0 122 -38 214 -146 214c-107 0 -148 -93 -148 -214v-31z" />
    <glyph glyph-name="Pi" unicode="&#x3a0;" horiz-adv-x="654" 
d="M28 0v711h594v-711h-162v577h-270v-577h-162z" />
    <glyph glyph-name="Rho" unicode="&#x3a1;" horiz-adv-x="608" 
d="M28 0v711h285c127 0 218 -53 256 -143c12 -30 19 -63 19 -96c0 -118 -69 -184 -160 -213c-34 -11 -72 -17 -115 -17h-123v-242h-162zM190 376h123c70 0 111 30 111 95c0 67 -41 106 -111 106h-123v-201z" />
    <glyph glyph-name="Sigma" unicode="&#x3a3;" horiz-adv-x="558" 
d="M18 0v82l214 277l-214 270v82h508v-134h-284l162 -214v-12l-164 -221h298v-130h-520z" />
    <glyph glyph-name="Tau" unicode="&#x3a4;" horiz-adv-x="630" 
d="M16 577v134h594v-134h-218v-577h-162v577h-214z" />
    <glyph glyph-name="Upsilon" unicode="&#x3a5;" horiz-adv-x="656" 
d="M7 711h178l142 -310l143 310h177l-239 -453v-258h-164v258z" />
    <glyph glyph-name="Phi" unicode="&#x3a6;" horiz-adv-x="759" 
d="M18 350c0 132 72 221 171 258c33 12 71 19 109 21v82h160v-82c129 -6 219 -69 258 -164c14 -34 20 -73 20 -114c0 -129 -72 -214 -169 -251c-33 -12 -71 -19 -109 -21v-79h-160v79c-129 6 -218 67 -258 161c-14 33 -22 70 -22 110zM178 350c0 -82 44 -128 120 -134v277
c-78 -6 -120 -58 -120 -143zM458 216c77 6 120 53 120 135c0 86 -43 136 -120 142v-277z" />
    <glyph glyph-name="Chi" unicode="&#x3a7;" horiz-adv-x="654" 
d="M6 0l216 358l-211 353h186l129 -237l129 237h186l-211 -353l216 -358h-187l-133 241l-133 -241h-187z" />
    <glyph glyph-name="Psi" unicode="&#x3a8;" horiz-adv-x="734" 
d="M20 482v229h162v-233c0 -93 35 -148 104 -165v398h162v-399c72 17 98 71 98 166v233h162v-229c0 -176 -102 -274 -260 -295v-187h-162v187c-126 12 -210 76 -247 176c-13 35 -19 74 -19 119z" />
    <glyph glyph-name="Omega" unicode="&#x3a9;" horiz-adv-x="623" 
d="M29 381v40c0 138 71 235 176 277c37 15 77 22 121 22c143 0 236 -79 276 -181c15 -38 21 -77 21 -121v-41c0 -102 -42 -178 -94 -234h85v-143h-276v139l9 4c65 27 82 123 82 231v40c0 93 -28 157 -103 157c-74 0 -104 -65 -104 -157v-40c0 -91 13 -169 53 -209
c11 -11 21 -18 32 -22l10 -3v-140h-280v149h84c-40 42 -69 94 -84 156c-6 25 -8 51 -8 76z" />
    <glyph glyph-name="Omega" unicode="&#x2126;" horiz-adv-x="623" 
d="M29 381v40c0 138 71 235 176 277c37 15 77 22 121 22c143 0 236 -79 276 -181c15 -38 21 -77 21 -121v-41c0 -102 -42 -178 -94 -234h85v-143h-276v139l9 4c65 27 82 123 82 231v40c0 93 -28 157 -103 157c-74 0 -104 -65 -104 -157v-40c0 -91 13 -169 53 -209
c11 -11 21 -18 32 -22l10 -3v-140h-280v149h84c-40 42 -69 94 -84 156c-6 25 -8 51 -8 76z" />
    <glyph glyph-name="Iotadieresis" unicode="&#x3aa;" horiz-adv-x="409" 
d="M10 812c0 43 34 70 75 70s75 -28 75 -70c0 -43 -34 -69 -75 -69c-42 0 -75 25 -75 69zM124 0v711h160v-711h-160zM248 812c0 43 34 70 75 70s75 -28 75 -70s-34 -70 -75 -70c-42 0 -75 27 -75 70z" />
    <glyph glyph-name="Upsilondieresis" unicode="&#x3ab;" horiz-adv-x="656" 
d="M7 711h178l142 -310l143 310h177l-239 -453v-258h-164v258zM134 810c0 43 34 70 75 70s75 -28 75 -70c0 -43 -34 -69 -75 -69c-42 0 -75 25 -75 69zM372 810c0 43 34 70 75 70s75 -28 75 -70s-34 -70 -75 -70c-42 0 -75 27 -75 70z" />
    <glyph glyph-name="alphatonos" unicode="&#x3ac;" horiz-adv-x="574" 
d="M18 250v10c0 120 40 215 122 258c27 14 58 20 93 20c59 0 96 -26 123 -61l9 51h135v-352c0 -33 5 -55 28 -55c5 0 6 0 7 1l10 7l14 -124l-5 -2c-20 -11 -38 -13 -64 -13c-62 0 -101 29 -123 73c-29 -42 -69 -73 -135 -73c-112 0 -175 70 -200 157c-9 32 -14 66 -14 103z
M174 251c0 -74 22 -132 93 -132c41 0 63 15 78 39c0 7 -1 11 -1 18v190c-16 27 -36 43 -76 43c-74 0 -94 -72 -94 -149v-9zM231 598l39 184h146l-87 -184h-98z" />
    <glyph glyph-name="epsilontonos" unicode="&#x3ad;" horiz-adv-x="523" 
d="M14 152c0 63 40 100 89 120c-41 21 -79 56 -79 109c0 90 72 130 146 147c30 7 63 10 98 10c97 0 173 -36 211 -98c13 -21 19 -46 19 -72v-7h-156v7c0 34 -39 48 -82 48c-38 0 -65 -10 -75 -30c-3 -6 -5 -12 -5 -17c0 -31 34 -45 81 -45h99v-108h-99
c-53 0 -91 -12 -91 -52c0 -36 43 -53 90 -53c41 0 72 13 86 35c1 -1 4 16 4 18v7h156v-7c0 -64 -34 -108 -76 -133c-40 -25 -100 -41 -162 -41c-103 0 -191 31 -233 93c-14 20 -21 44 -21 69zM200 598l39 184h146l-87 -184h-98z" />
    <glyph glyph-name="etatonos" unicode="&#x3ae;" horiz-adv-x="526" 
d="M26 0v528h146l4 -54c34 37 82 64 146 64c127 0 178 -78 178 -203v-538h-156v535c0 52 -23 77 -73 77c-42 0 -72 -17 -89 -39v-370h-156zM202 598l39 184h146l-87 -184h-98z" />
    <glyph glyph-name="iotatonos" unicode="&#x3af;" horiz-adv-x="293" 
d="M24 153v375h157l-1 -357c0 -35 11 -46 47 -46c9 0 15 1 22 2l27 3v-121c-28 -9 -55 -14 -93 -14c-106 0 -159 55 -159 158zM48 588l39 184h146l-87 -184h-98z" />
    <glyph glyph-name="upsilondieresistonos" unicode="&#x3b0;" horiz-adv-x="514" 
d="M24 205v323h156v-321c0 -51 12 -88 54 -88c36 0 60 23 75 48c16 27 27 69 27 111c-1 90 -23 168 -50 240l-4 10h151c34 -69 59 -150 59 -253c0 -126 -48 -221 -139 -263c-32 -15 -70 -22 -114 -22c-141 0 -215 76 -215 215zM30 658c0 43 34 69 75 69s75 -27 75 -69
c0 -43 -34 -70 -75 -70c-42 0 -75 26 -75 70zM205 676l23 177h145l-82 -177h-86zM330 658c0 42 35 69 75 69c41 0 75 -26 75 -69s-33 -71 -75 -71c-41 0 -75 28 -75 71z" />
    <glyph glyph-name="alpha" unicode="&#x3b1;" horiz-adv-x="576" 
d="M20 250v10c0 120 39 215 121 258c27 14 58 20 93 20c59 0 96 -26 123 -61l9 51h136v-352c0 -33 4 -55 27 -55c5 0 6 0 7 1l10 7l14 -124l-5 -2c-20 -11 -38 -13 -64 -13c-62 0 -101 29 -123 73c-29 -42 -69 -73 -135 -73c-112 0 -175 69 -200 156c-9 32 -13 67 -13 104z
M176 251c0 -74 21 -132 92 -132c41 0 63 15 78 39v208c-16 27 -37 43 -77 43c-74 0 -93 -72 -93 -149v-9z" />
    <glyph glyph-name="beta" unicode="&#x3b2;" horiz-adv-x="557" 
d="M26 -198v697c0 71 32 124 72 160c40 35 100 62 172 62c107 0 184 -40 219 -115c11 -25 17 -54 17 -86c0 -69 -37 -117 -84 -146c69 -28 114 -83 114 -170c0 -137 -84 -214 -224 -214c-50 0 -95 13 -130 32v-220h-156zM182 143c24 -15 57 -24 98 -24c61 0 100 32 100 89
c0 64 -31 100 -97 100h-55v118h40c60 0 82 30 82 88c0 48 -30 77 -80 77c-56 0 -88 -36 -88 -92v-356z" />
    <glyph glyph-name="gamma" unicode="&#x3b3;" horiz-adv-x="537" 
d="M10 528h164l95 -340l92 340h164l-179 -519v-213h-156v217z" />
    <glyph glyph-name="delta" unicode="&#x3b4;" horiz-adv-x="557" 
d="M18 250v10c0 108 63 184 144 214c-45 25 -84 65 -84 128c0 117 94 166 208 166c54 0 95 -10 136 -24v-125l-10 3c-33 11 -70 23 -113 23c-40 0 -71 -12 -71 -39c0 -21 13 -33 32 -43h1c9 -5 23 -10 40 -16c76 -27 134 -63 174 -109s59 -103 59 -172v-10
c0 -123 -59 -208 -149 -246c-32 -14 -68 -20 -108 -20c-127 0 -208 64 -242 157c-11 32 -17 66 -17 103zM174 270c0 -66 19 -117 57 -140c13 -7 28 -11 46 -11c74 0 101 71 101 151v10c0 58 -26 102 -60 127c-13 9 -28 16 -42 19c-73 0 -102 -69 -102 -146v-10z" />
    <glyph glyph-name="epsilon" unicode="&#x3b5;" horiz-adv-x="526" 
d="M16 152c0 63 40 100 89 120c-41 21 -79 56 -79 109c0 90 72 130 146 147c30 7 63 10 98 10c97 0 173 -36 211 -98c13 -21 19 -46 19 -72v-7h-156v7c0 34 -39 48 -82 48c-38 0 -65 -10 -75 -30c-3 -6 -5 -12 -5 -17c0 -31 34 -45 81 -45h99v-108h-99
c-53 0 -91 -12 -91 -52c0 -36 43 -53 90 -53c41 0 72 13 86 35c1 -1 4 16 4 18v7h156v-7c0 -64 -34 -108 -76 -133c-40 -25 -100 -41 -162 -41c-103 0 -191 31 -233 93c-14 20 -21 44 -21 69z" />
    <glyph glyph-name="zeta" unicode="&#x3b6;" horiz-adv-x="484" 
d="M14 583v128h452v-91l-178 -206c-49 -56 -98 -107 -98 -204c0 -56 27 -72 73 -86l39 -10c68 -19 148 -39 148 -130c0 -38 -21 -73 -38 -96c-24 -31 -53 -57 -83 -80l-83 64c16 16 30 36 39 50c8 13 11 24 10 32h-1l1 1c2 23 -18 31 -49 39l-37 9c-94 25 -173 69 -173 187
c0 95 36 159 77 217c16 23 35 47 56 73l90 103h-245z" />
    <glyph glyph-name="eta" unicode="&#x3b7;" horiz-adv-x="528" 
d="M26 0v528h146l4 -54c34 37 82 64 146 64c127 0 178 -78 178 -203v-538h-156v535c0 52 -23 77 -73 77c-42 0 -72 -17 -89 -39v-370h-156z" />
    <glyph glyph-name="theta" unicode="&#x3b8;" horiz-adv-x="542" 
d="M20 298v116c0 141 43 245 146 287c31 12 65 20 101 20c129 0 200 -73 231 -174c12 -38 18 -84 18 -136v-115c0 -175 -71 -306 -248 -306c-130 0 -199 73 -230 172c-12 38 -18 84 -18 136zM176 279c0 -71 13 -129 55 -151c11 -6 23 -9 37 -9c75 0 92 76 92 160v17h-184
v-17zM176 420h184v14c0 84 -17 157 -93 157c-75 0 -91 -74 -91 -157v-14z" />
    <glyph glyph-name="iota" unicode="&#x3b9;" horiz-adv-x="296" 
d="M24 153v375h158l-2 -357c0 -35 12 -46 48 -46c9 0 15 1 22 2l26 3v-121c-26 -10 -55 -14 -92 -14c-106 0 -160 55 -160 158z" />
    <glyph glyph-name="kappa" unicode="&#x3ba;" horiz-adv-x="563" 
d="M26 0v528h158v-198h30l138 198h197l-192 -254l199 -274h-199l-128 195h-45v-195h-158z" />
    <glyph glyph-name="lambda" unicode="&#x3bb;" horiz-adv-x="586" 
d="M9 0l190 510l-34 77c-11 27 -23 39 -56 39c-13 0 -23 -1 -35 -3l-4 119c24 8 56 13 87 13c76 0 117 -35 139 -90l204 -498c9 -23 20 -47 44 -47h13l10 6l2 -130c-18 -3 -35 -4 -61 -5c-89 0 -130 48 -153 114l-74 204l-103 -309h-169z" />
    <glyph glyph-name="uni03BC" unicode="&#x3bc;" 
d="M26 -203v731h156v-299c0 -71 16 -110 81 -110c48 0 76 17 93 45v364h156v-528h-146l-2 25c-26 -22 -60 -35 -104 -35c-29 0 -56 6 -78 17v-210h-156z" />
    <glyph glyph-name="nu" unicode="&#x3bd;" horiz-adv-x="535" 
d="M10 528h164l92 -335l92 335h164l-184 -528h-144z" />
    <glyph glyph-name="xi" unicode="&#x3be;" horiz-adv-x="493" 
d="M16 220c0 96 57 152 133 181c-51 23 -91 60 -91 125c0 101 63 158 141 182c29 9 62 13 99 13c60 0 106 -9 150 -25l6 -3l-25 -124c-39 10 -70 20 -116 20c-59 0 -99 -17 -99 -61s44 -58 103 -58h81v-132h-77c-92 0 -149 -30 -149 -112c0 -66 54 -90 113 -104l47 -11
c58 -14 112 -30 138 -79c8 -15 11 -31 10 -51c0 -38 -22 -72 -39 -95c-23 -31 -52 -57 -82 -80l-84 64c16 16 30 35 39 49c7 13 10 23 10 33c0 22 -22 33 -49 41l-31 8c-118 35 -228 64 -228 219z" />
    <glyph glyph-name="omicron" unicode="&#x3bf;" horiz-adv-x="559" 
d="M20 259v10c0 124 57 210 148 249c32 14 68 20 109 20c128 0 208 -69 241 -163c11 -33 18 -67 18 -106v-10c0 -124 -57 -210 -148 -249c-32 -14 -69 -20 -110 -20c-128 0 -209 69 -242 163c-11 33 -16 67 -16 106zM176 259c0 -79 24 -140 102 -140c75 0 102 62 102 140v10
c0 78 -27 140 -103 140c-75 0 -101 -63 -101 -140v-10z" />
    <glyph glyph-name="pi" unicode="&#x3c0;" horiz-adv-x="649" 
d="M16 406v122h602v-122h-86v-239c0 -35 11 -45 48 -45c20 0 34 3 48 6v-122c-26 -10 -55 -15 -92 -15c-106 0 -160 55 -160 158v257h-118v-406h-156v406h-86z" />
    <glyph glyph-name="rho" unicode="&#x3c1;" horiz-adv-x="538" 
d="M24 -203v483c0 119 59 203 146 239c31 13 65 19 103 19c127 0 197 -71 226 -167c10 -34 15 -71 15 -111v-10c0 -114 -40 -200 -120 -240c-27 -13 -57 -20 -91 -20c-56 0 -94 19 -123 47v-240h-156zM180 156c16 -23 44 -37 86 -37c70 0 92 58 92 132v9
c0 63 -13 115 -50 138c-12 8 -25 11 -42 11c-65 0 -86 -68 -86 -139v-114z" />
    <glyph glyph-name="sigma1" unicode="&#x3c2;" horiz-adv-x="514" 
d="M20 257v14c0 121 54 208 143 247c31 14 67 20 108 20c104 0 176 -49 207 -125c11 -27 16 -56 16 -89v-7h-148v7c0 51 -25 85 -75 85c-73 0 -95 -63 -95 -140v-14c0 -86 46 -114 118 -134c73 -20 151 -36 154 -130c0 -38 -20 -72 -37 -95c-20 -28 -48 -58 -77 -78l-4 -3
l-85 65c16 16 29 35 38 49s11 27 11 33c0 24 -19 34 -47 40c-129 33 -227 95 -227 255z" />
    <glyph glyph-name="sigma" unicode="&#x3c3;" horiz-adv-x="585" 
d="M20 259v10c0 120 56 203 146 239c32 13 69 20 110 20h288v-129h-111c30 -28 53 -62 65 -104c4 -15 8 -31 8 -48v-10c0 -114 -58 -192 -143 -228c-31 -13 -66 -19 -106 -19c-128 0 -208 69 -241 163c-11 33 -16 67 -16 106zM176 259c0 -79 23 -140 101 -140
c72 0 93 65 93 140v9c0 73 -24 131 -94 131c-74 0 -100 -56 -100 -131v-9z" />
    <glyph glyph-name="tau" unicode="&#x3c4;" horiz-adv-x="533" 
d="M18 400v128h492v-128h-174v-235c0 -32 8 -45 37 -45c25 0 35 4 54 11l17 -123c-30 -10 -58 -18 -100 -18c-109 0 -164 64 -164 173v237h-162z" />
    <glyph glyph-name="upsilon" unicode="&#x3c5;" horiz-adv-x="516" 
d="M24 205v323h156v-321c0 -51 12 -88 54 -88c36 0 59 24 75 49c16 27 27 68 27 110c-1 90 -23 168 -50 240l-4 10h151c34 -69 59 -150 59 -253c0 -126 -48 -221 -139 -263c-32 -15 -70 -22 -114 -22c-141 0 -215 76 -215 215z" />
    <glyph glyph-name="phi" unicode="&#x3c6;" horiz-adv-x="744" 
d="M20 290c0 117 50 194 117 247l108 -83l-5 -6c-36 -41 -60 -93 -64 -165c0 -96 41 -150 116 -170v271c0 72 42 119 94 140c19 7 40 12 62 12c124 0 202 -59 244 -139c19 -34 30 -76 30 -124c0 -124 -61 -201 -150 -245c-34 -17 -77 -29 -124 -34v-227h-156v228
c-165 22 -272 118 -272 295zM448 111c75 17 118 66 118 155c0 63 -22 110 -59 131c-12 6 -26 10 -42 10c-14 0 -17 -4 -17 -19v-277z" />
    <glyph glyph-name="chi" unicode="&#x3c7;" horiz-adv-x="533" 
d="M7 0l161 270l-154 258h168l83 -149l85 149h168l-154 -258l160 -270h-168l-90 158l-90 -158h-169z" />
    <glyph glyph-name="psi" unicode="&#x3c8;" horiz-adv-x="739" 
d="M22 287v241h158v-250c0 -94 38 -142 106 -164v414h156v-416c77 21 118 74 118 171c-1 89 -25 165 -52 235l-4 10h145l2 -4c39 -60 65 -137 65 -234c0 -132 -58 -214 -150 -261c-34 -17 -77 -29 -124 -34v-228h-156v228c-162 21 -264 114 -264 292z" />
    <glyph glyph-name="omega" unicode="&#x3c9;" horiz-adv-x="800" 
d="M20 275c0 107 31 188 75 253h151l-5 -10c-35 -70 -62 -147 -65 -240c0 -62 9 -120 38 -148c9 -8 17 -11 31 -11c56 0 71 60 71 129v179h164v-179c0 -69 14 -129 70 -129c59 0 70 90 70 159c-3 93 -31 170 -67 240l-5 10h151l2 -3c44 -62 75 -146 75 -250
c0 -160 -56 -285 -221 -285c-78 0 -128 40 -158 95c-31 -55 -80 -95 -157 -95c-168 0 -220 127 -220 285z" />
    <glyph glyph-name="iotadieresis" unicode="&#x3ca;" horiz-adv-x="418" 
d="M14 650c0 43 34 69 75 69s75 -27 75 -69c0 -43 -34 -70 -75 -70c-42 0 -75 26 -75 70zM122 153v375h158l-2 -357c0 -35 12 -46 48 -46c9 0 15 1 22 2l26 3v-121c-26 -10 -55 -14 -92 -14c-106 0 -160 55 -160 158zM252 650c0 43 34 69 75 69s75 -27 75 -69
s-34 -71 -75 -71c-42 0 -75 28 -75 71z" />
    <glyph glyph-name="upsilondieresis" unicode="&#x3cb;" horiz-adv-x="513" 
d="M22 205v323h158v-321c0 -51 11 -88 53 -88c36 0 60 23 75 48c16 27 26 69 26 111c-1 90 -22 168 -49 240l-4 10h151c34 -69 58 -149 58 -253c0 -167 -80 -285 -252 -285c-141 0 -216 76 -216 215zM56 658c0 43 34 69 75 69s75 -27 75 -69c0 -43 -34 -70 -75 -70
c-42 0 -75 26 -75 70zM294 658c0 43 34 69 75 69s75 -27 75 -69s-34 -71 -75 -71c-42 0 -75 28 -75 71z" />
    <glyph glyph-name="omicrontonos" unicode="&#x3cc;" horiz-adv-x="557" 
d="M18 259v10c0 124 58 210 149 249c32 14 68 20 109 20c128 0 208 -69 241 -163c11 -33 17 -67 17 -106v-10c0 -124 -56 -210 -147 -249c-32 -14 -69 -20 -110 -20c-128 0 -209 69 -242 163c-11 33 -17 67 -17 106zM174 259c0 -79 25 -140 103 -140c75 0 101 62 101 140v10
c0 78 -26 140 -102 140c-75 0 -102 -63 -102 -140v-10zM214 598l39 184h146l-87 -184h-98z" />
    <glyph glyph-name="upsilontonos" unicode="&#x3cd;" horiz-adv-x="513" 
d="M22 205v323h158v-321c0 -51 11 -88 53 -88c36 0 60 23 75 48c16 27 26 69 26 111c-1 90 -22 168 -49 240l-4 10h151c34 -69 58 -149 58 -253c0 -167 -80 -285 -252 -285c-141 0 -216 76 -216 215zM189 596l39 184h146l-87 -184h-98z" />
    <glyph glyph-name="omegatonos" unicode="&#x3ce;" horiz-adv-x="797" 
d="M18 275c0 107 32 188 76 253h151l-5 -10c-35 -70 -63 -147 -66 -240c0 -62 9 -120 38 -148c8 -8 18 -11 32 -11c56 0 70 60 70 129v179h164v-179c0 -69 15 -129 71 -129c59 0 69 90 69 159c-3 93 -30 170 -66 240l-5 10h151l2 -3c44 -62 74 -146 74 -250
c0 -160 -55 -285 -220 -285c-78 0 -128 40 -158 95c-31 -55 -80 -95 -157 -95c-168 0 -221 127 -221 285zM333 595l39 184h146l-87 -184h-98z" />
    <glyph glyph-name="uni03D1" unicode="&#x3d1;" horiz-adv-x="587" 
d="M18 232v126l150 1v-127c0 -66 37 -109 102 -109c55 0 78 44 78 106v36c-96 21 -170 75 -204 158c-11 27 -16 58 -16 89v10c0 94 45 158 116 185c24 9 51 14 79 14c126 0 189 -86 189 -208v-114c17 4 34 6 49 11l6 -131c-17 -6 -38 -12 -55 -15v-37
c0 -114 -61 -190 -147 -221c-30 -11 -64 -16 -102 -16c-117 0 -193 60 -227 145c-11 29 -18 62 -18 97zM276 514c0 -57 31 -94 72 -113v121c0 37 -7 58 -32 58c-27 0 -40 -19 -40 -54v-12z" />
    <glyph glyph-name="uni03D2" unicode="&#x3d2;" horiz-adv-x="661" 
d="M13 709c23 8 46 15 78 15c92 0 132 -53 157 -121l81 -214l81 210c25 70 68 125 156 125c31 0 57 -7 79 -16l-20 -124h-6c-7 0 -15 2 -21 2h-7c-23 0 -34 -12 -41 -30l-142 -327v-229h-162v236l-138 320c-10 21 -24 30 -42 30h-7c-6 0 -14 -2 -21 -2h-6z" />
    <glyph glyph-name="uni03D6" unicode="&#x3d6;" horiz-adv-x="864" 
d="M16 413v115h828v-115h-60c14 -42 22 -87 22 -140c0 -157 -51 -283 -214 -283c-81 0 -135 41 -165 97c-32 -57 -84 -97 -165 -97c-165 0 -214 129 -214 283c0 53 8 100 21 140h-53zM204 283c0 -63 8 -122 35 -151c8 -9 17 -13 28 -13c62 0 79 58 79 129v105h162v-105
c0 -72 17 -129 79 -129c58 0 63 98 63 164c-1 53 -10 102 -24 145h-399c-14 -44 -22 -92 -23 -145z" />
    <glyph glyph-name="uni0400" unicode="&#x400;" horiz-adv-x="544" 
d="M28 0v711h492v-134h-330v-147h282v-130h-282v-167h330v-133h-492zM85 903h175l107 -166h-133z" />
    <glyph glyph-name="uni0401" unicode="&#x401;" horiz-adv-x="544" 
d="M28 0v711h492v-134h-330v-147h282v-130h-282v-167h330v-133h-492zM88 812c0 43 35 70 76 70s74 -28 74 -70c0 -43 -33 -69 -74 -69c-42 0 -76 25 -76 69zM326 812c0 43 35 70 76 70s74 -28 74 -70s-33 -70 -74 -70c-42 0 -76 27 -76 70z" />
    <glyph glyph-name="uni0402" unicode="&#x402;" horiz-adv-x="756" 
d="M14 577v134h570v-134h-232v-145c36 8 72 12 112 12c156 0 270 -66 270 -224c0 -110 -61 -177 -147 -208c-36 -13 -79 -20 -131 -20h-8v126h8c77 0 118 26 118 94c0 66 -47 98 -118 98c-40 0 -71 -3 -104 -9v-301h-162v577h-176z" />
    <glyph glyph-name="uni0403" unicode="&#x403;" horiz-adv-x="528" 
d="M28 0v711h482v-134h-320v-577h-162zM191 737l107 166h174l-149 -166h-132z" />
    <glyph glyph-name="uni0404" unicode="&#x404;" horiz-adv-x="637" 
d="M20 332v45c0 157 65 271 178 320c38 16 79 24 125 24c174 0 278 -99 292 -259l1 -8h-161v7c-5 83 -44 126 -132 126c-97 0 -132 -69 -140 -168h217v-129h-217c7 -100 39 -168 138 -168c88 0 125 41 133 122v7h162l-1 -8c-9 -120 -77 -201 -175 -235
c-35 -12 -74 -18 -119 -18c-152 0 -243 85 -281 200c-14 42 -20 90 -20 142z" />
    <glyph glyph-name="uni0405" unicode="&#x405;" horiz-adv-x="596" 
d="M14 232v7h162v-7c0 -81 50 -111 133 -111c60 0 103 21 103 72c0 46 -26 61 -64 77c-18 8 -40 15 -69 24c-90 28 -181 65 -224 143c-13 24 -19 51 -19 82c0 106 79 162 162 187c33 10 68 15 108 15c121 0 209 -52 249 -136c12 -28 19 -58 19 -91v-8h-160v8
c0 64 -43 95 -111 95c-61 0 -105 -22 -105 -74c0 -20 9 -36 32 -51s57 -28 103 -42c95 -28 188 -67 226 -152c10 -23 15 -50 15 -79c0 -106 -70 -163 -156 -187c-33 -9 -69 -14 -109 -14c-139 0 -245 60 -282 166c-8 23 -13 48 -13 76z" />
    <glyph glyph-name="uni0406" unicode="&#x406;" horiz-adv-x="221" 
d="M28 0v711h162v-711h-162z" />
    <glyph glyph-name="uni0407" unicode="&#x407;" horiz-adv-x="407" 
d="M8 812c0 43 35 70 76 70s74 -28 74 -70c0 -43 -33 -69 -74 -69c-42 0 -76 25 -76 69zM122 0v711h162v-711h-162zM246 812c0 43 35 70 76 70s74 -28 74 -70s-33 -70 -74 -70c-42 0 -76 27 -76 70z" />
    <glyph glyph-name="uni0408" unicode="&#x408;" horiz-adv-x="539" 
d="M18 218v7h162v-7c0 -64 22 -95 83 -95c56 0 85 41 85 101v487h162v-489c0 -112 -65 -186 -151 -216c-30 -10 -61 -16 -96 -16c-149 0 -245 77 -245 228z" />
    <glyph glyph-name="uni0409" unicode="&#x409;" horiz-adv-x="1062" 
d="M18 0v133h26c83 0 103 52 113 134c4 34 5 75 5 125v319h492v-235h109c127 0 221 -53 259 -142c12 -30 18 -61 18 -95c0 -118 -71 -190 -161 -221c-34 -12 -73 -18 -116 -18h-271v577h-168v-189c0 -220 -54 -388 -279 -388h-27zM654 133h109c72 0 115 40 115 107
c0 65 -48 104 -115 104h-109v-211z" />
    <glyph glyph-name="uni040A" unicode="&#x40a;" horiz-adv-x="1029" 
d="M28 0v711h162v-293h270v293h162v-239h109c126 0 219 -54 258 -142c12 -29 19 -60 19 -93c0 -118 -71 -188 -161 -219c-34 -12 -73 -18 -116 -18h-271v286h-270v-286h-162zM622 134h109c71 0 115 38 115 104c0 49 -27 77 -64 92c-14 5 -31 10 -51 10h-109v-206z" />
    <glyph glyph-name="uni040B" unicode="&#x40b;" horiz-adv-x="752" 
d="M14 577v134h558v-134h-228v-122c32 5 67 7 98 7c170 0 284 -69 284 -239v-223h-160v221c0 83 -37 109 -124 109c-30 0 -68 -4 -98 -8v-322h-162v577h-168z" />
    <glyph glyph-name="uni040C" unicode="&#x40c;" horiz-adv-x="635" 
d="M28 0v711h162v-306c76 106 156 202 233 303l2 3h200l-260 -317l265 -394h-192l-180 280l-68 -72v-208h-162zM182 735l107 166h174l-149 -166h-132z" />
    <glyph glyph-name="uni040D" unicode="&#x40d;" horiz-adv-x="653" 
d="M28 0v711h162v-454l273 454h159v-711h-162v453l-274 -453h-158zM128 903h175l107 -166h-133z" />
    <glyph glyph-name="uni040E" unicode="&#x40e;" horiz-adv-x="642" 
d="M6 711h175l151 -324l125 324h175l-247 -571c-35 -79 -82 -150 -202 -150h-12c-10 0 -20 1 -28 1c-6 0 -12 1 -18 3l-3 130h8c4 0 6 -1 9 -1h10c5 0 9 -1 12 -1h8c50 0 67 22 80 61v1l11 25zM154 890v8h114v-8c0 -39 22 -56 62 -56s60 19 60 56v8h116v-8
c0 -77 -48 -121 -105 -141c-22 -7 -45 -11 -71 -11c-79 0 -140 35 -164 92c-8 19 -12 38 -12 60z" />
    <glyph glyph-name="uni040F" unicode="&#x40f;" horiz-adv-x="653" 
d="M28 0v711h162v-578h270v578h162v-711h-210v-176h-162v176h-222z" />
    <glyph glyph-name="uni0410" unicode="&#x410;" horiz-adv-x="706" 
d="M8 0l271 711h146l272 -711h-172l-49 146h-247l-49 -146h-172zM274 272h157l-79 235z" />
    <glyph glyph-name="uni0411" unicode="&#x411;" horiz-adv-x="600" 
d="M28 0v711h480v-134h-316v-115h109c125 0 218 -49 258 -135c13 -29 19 -59 19 -93c0 -118 -72 -187 -163 -217c-34 -11 -72 -17 -114 -17h-273zM192 133h109c71 0 115 36 115 102c0 64 -45 93 -115 93h-109v-195z" />
    <glyph glyph-name="uni0412" unicode="&#x412;" horiz-adv-x="593" 
d="M28 0v711h257c119 0 212 -31 253 -111c13 -25 18 -54 18 -87c0 -71 -37 -120 -88 -146c63 -23 104 -76 104 -155c0 -149 -109 -212 -264 -212h-280zM190 133h118c63 0 102 26 102 81c0 61 -30 88 -96 88h-124v-169zM190 420h101c64 1 103 22 103 77c0 62 -37 80 -109 80
h-95v-157z" />
    <glyph glyph-name="uni0413" unicode="&#x413;" horiz-adv-x="528" 
d="M28 0v711h482v-134h-320v-577h-162z" />
    <glyph glyph-name="uni0414" unicode="&#x414;" horiz-adv-x="771" 
d="M16 128h59c67 59 91 159 96 289l20 294h479v-578h84l-12 -308h-150v175h-414v-174h-153zM262 118h248v459h-167l-12 -166c-4 -118 -24 -218 -69 -293z" />
    <glyph glyph-name="uni0415" unicode="&#x415;" horiz-adv-x="544" 
d="M28 0v711h492v-134h-330v-147h282v-130h-282v-167h330v-133h-492z" />
    <glyph glyph-name="uni0416" unicode="&#x416;" horiz-adv-x="1025" 
d="M4 0l226 380l-216 331h200l158 -279h62v279h162v-279h59l154 279h200l-212 -330l222 -381h-201l-151 290h-71v-290h-162v282h-75l-155 -282h-200z" />
    <glyph glyph-name="uni0417" unicode="&#x417;" horiz-adv-x="589" 
d="M14 204v8h162v-8c0 -41 30 -62 65 -74c13 -5 30 -7 46 -7c55 0 95 18 111 50c5 9 8 21 8 32c0 68 -37 93 -111 93h-95v130h95c66 0 101 23 101 83c0 53 -47 76 -109 76c-45 0 -79 -17 -94 -44c-5 -9 -7 -19 -7 -31v-8h-162v8c0 72 37 123 80 154c44 33 110 54 183 54
c118 0 211 -36 251 -116c13 -26 20 -56 20 -89c0 -76 -48 -122 -99 -149c66 -28 109 -79 109 -164c0 -113 -78 -172 -169 -197c-34 -9 -71 -14 -112 -14c-126 0 -227 50 -261 146c-7 21 -12 42 -12 67z" />
    <glyph glyph-name="uni0418" unicode="&#x418;" horiz-adv-x="653" 
d="M28 0v711h162v-454l273 454h159v-711h-162v453l-274 -453h-158z" />
    <glyph glyph-name="uni0419" unicode="&#x419;" horiz-adv-x="653" 
d="M28 0v711h162v-454l273 454h159v-711h-162v453l-274 -453h-158zM150 890v8h114v-8c0 -39 22 -56 62 -56s60 19 60 56v8h116v-8c0 -77 -48 -121 -105 -141c-22 -7 -45 -11 -71 -11c-79 0 -140 35 -164 92c-8 19 -12 38 -12 60z" />
    <glyph glyph-name="uni041A" unicode="&#x41a;" horiz-adv-x="643" 
d="M28 0v711h162v-277h56l174 277h196l-224 -336l247 -375h-192l-184 291h-73v-291h-162z" />
    <glyph glyph-name="uni041B" unicode="&#x41b;" horiz-adv-x="686" 
d="M18 0v133h26c47 4 66 20 80 56c8 19 13 46 16 79s6 74 9 124l14 319h491v-711h-162v577h-174l-8 -189c-6 -122 -20 -225 -67 -299c-37 -58 -92 -89 -182 -89h-43z" />
    <glyph glyph-name="uni041C" unicode="&#x41c;" horiz-adv-x="824" 
d="M28 0v711h205l178 -501l176 501h205v-711h-162v202l12 287l-177 -489h-110l-177 488l12 -286v-202h-162z" />
    <glyph glyph-name="uni041D" unicode="&#x41d;" horiz-adv-x="654" 
d="M28 0v711h162v-281h272v281h160v-711h-160v298h-272v-298h-162z" />
    <glyph glyph-name="uni041E" unicode="&#x41e;" horiz-adv-x="662" 
d="M18 339v32c0 162 69 275 185 325c38 16 80 25 126 25c100 0 175 -41 224 -95c53 -59 85 -146 85 -255v-32c0 -163 -67 -275 -183 -325c-38 -16 -79 -24 -125 -24c-99 0 -176 41 -225 95c-53 58 -87 146 -87 254zM182 340c0 -96 24 -170 85 -201c18 -9 39 -14 63 -14
c107 0 146 94 146 215v31c0 122 -39 214 -147 214c-107 0 -147 -93 -147 -214v-31z" />
    <glyph glyph-name="uni041F" unicode="&#x41f;" horiz-adv-x="654" 
d="M28 0v711h594v-711h-162v577h-270v-577h-162z" />
    <glyph glyph-name="uni0420" unicode="&#x420;" horiz-adv-x="610" 
d="M28 0v711h286c127 0 218 -53 256 -143c12 -30 18 -63 18 -96c0 -118 -68 -184 -159 -213c-34 -11 -72 -17 -115 -17h-124v-242h-162zM190 376h124c70 0 112 30 112 95c0 67 -42 106 -112 106h-124v-201z" />
    <glyph glyph-name="uni0421" unicode="&#x421;" horiz-adv-x="637" 
d="M20 332v46c0 157 65 271 178 319c37 16 78 24 124 24c177 0 276 -100 293 -258l1 -8h-162v7c-5 83 -44 124 -132 124c-108 0 -140 -84 -140 -208v-45c0 -117 26 -208 138 -208c88 0 128 38 133 120v7h162l-1 -8c-9 -122 -76 -201 -175 -236c-35 -12 -74 -18 -119 -18
c-153 0 -242 86 -280 201c-14 42 -20 89 -20 141z" />
    <glyph glyph-name="uni0422" unicode="&#x422;" horiz-adv-x="626" 
d="M14 577v134h594v-134h-218v-577h-162v577h-214z" />
    <glyph glyph-name="uni0423" unicode="&#x423;" horiz-adv-x="642" 
d="M6 711h175l151 -324l125 324h175l-247 -571c-35 -79 -82 -150 -202 -150h-12c-10 0 -21 1 -29 1c-7 0 -12 1 -17 3l-3 130h8c5 0 5 -1 8 -1h11c5 0 9 -1 12 -1h8c50 0 67 22 80 61v1l11 25z" />
    <glyph glyph-name="uni0424" unicode="&#x424;" horiz-adv-x="802" 
d="M18 351c0 143 76 237 184 277c37 14 78 21 120 21v91h156v-91c142 -2 237 -73 280 -174c15 -36 22 -78 22 -123c0 -141 -77 -233 -184 -272c-37 -14 -76 -19 -118 -20v-89h-156v89c-143 1 -239 71 -282 172c-15 36 -22 75 -22 119zM170 351c0 -101 54 -158 152 -159v326
c-100 -2 -152 -64 -152 -167zM478 192c98 2 148 59 148 160c0 104 -49 164 -148 166v-326z" />
    <glyph glyph-name="uni0425" unicode="&#x425;" horiz-adv-x="652" 
d="M5 0l216 358l-211 353h186l129 -237l129 237h186l-211 -353l216 -358h-187l-133 241l-133 -241h-187z" />
    <glyph glyph-name="uni0426" unicode="&#x426;" horiz-adv-x="737" 
d="M28 0v711h162v-578h270v578h162v-578h97l-10 -304h-151v171h-530z" />
    <glyph glyph-name="uni0427" unicode="&#x427;" horiz-adv-x="628" 
d="M18 488v223h162v-221c0 -61 19 -94 67 -104c15 -3 35 -4 55 -4c46 0 94 4 132 12v317h162v-711h-162v261c-41 -7 -86 -13 -132 -13c-169 0 -284 71 -284 240z" />
    <glyph glyph-name="uni0428" unicode="&#x428;" horiz-adv-x="909" 
d="M28 0v711h162v-578h184v578h162v-578h180v578h162v-711h-850z" />
    <glyph glyph-name="uni0429" unicode="&#x429;" horiz-adv-x="989" 
d="M28 0v711h162v-578h184v578h162v-578h180v578h162v-588h94l-11 -294h-145v171h-788z" />
    <glyph glyph-name="uni042A" unicode="&#x42a;" horiz-adv-x="778" 
d="M14 582v129h356v-249h109c125 0 218 -49 258 -135c13 -29 19 -59 19 -93c0 -118 -72 -187 -163 -217c-34 -11 -72 -17 -114 -17h-271v582h-194zM370 133h109c71 0 115 36 115 102c0 64 -45 93 -115 93h-109v-195z" />
    <glyph glyph-name="uni042B" unicode="&#x42b;" horiz-adv-x="817" 
d="M28 0v711h162v-249h110c124 0 218 -49 258 -135c12 -29 20 -58 20 -93c0 -118 -72 -187 -163 -217c-34 -11 -72 -17 -115 -17h-272zM190 133h110c71 0 116 36 116 102c0 64 -46 93 -116 93h-110v-195zM624 0v711h162v-711h-162z" />
    <glyph glyph-name="uni042C" unicode="&#x42c;" horiz-adv-x="600" 
d="M28 0v711h164v-249h109c125 0 218 -49 258 -135c13 -29 19 -59 19 -93c0 -118 -72 -187 -163 -217c-34 -11 -72 -17 -114 -17h-273zM192 133h109c71 0 115 36 115 102c0 64 -45 93 -115 93h-109v-195z" />
    <glyph glyph-name="uni042D" unicode="&#x42d;" horiz-adv-x="636" 
d="M16 454l1 8c11 120 73 204 171 240c35 13 75 19 121 19c152 0 243 -87 281 -202c14 -42 22 -89 22 -142v-45c0 -158 -63 -269 -176 -318c-37 -16 -79 -24 -125 -24c-134 0 -226 57 -268 151c-15 34 -21 69 -26 110h161v-7c8 -81 45 -122 133 -122c99 0 131 67 138 166
h-223v134h223c-8 98 -43 165 -140 165c-88 0 -126 -43 -131 -126v-7h-162z" />
    <glyph glyph-name="uni042E" unicode="&#x42e;" horiz-adv-x="898" 
d="M28 0v711h162v-307h65c8 145 78 249 188 294c37 15 77 23 121 23c100 0 175 -41 224 -95c53 -59 86 -146 86 -255v-32c0 -162 -68 -275 -184 -325c-38 -16 -79 -24 -125 -24c-140 0 -230 76 -275 174c-17 35 -28 75 -33 119h-67v-283h-162zM418 340
c0 -96 24 -171 84 -201c18 -9 39 -14 63 -14c107 0 145 94 145 215v31c0 122 -38 214 -146 214c-107 0 -146 -93 -146 -214v-31z" />
    <glyph glyph-name="uni042F" unicode="&#x42f;" horiz-adv-x="609" 
d="M5 0l154 301c-64 37 -107 94 -107 187c0 155 114 223 270 223h256v-711h-162v248h-107l-128 -248h-176zM214 476c0 -73 33 -102 108 -102h94v203h-94c-74 0 -108 -33 -108 -101z" />
    <glyph glyph-name="uni0430" unicode="&#x430;" horiz-adv-x="520" 
d="M18 152c0 134 116 178 251 178h55v21c0 44 -21 68 -70 68c-42 0 -68 -20 -68 -57v-7h-156v7c0 56 30 97 63 124c41 32 99 52 169 52c100 0 171 -37 203 -106c12 -23 17 -51 17 -82v-218c0 -47 6 -83 20 -114v-18h-154c-8 10 -12 23 -15 38c-30 -29 -71 -48 -128 -48
c-84 0 -145 41 -173 97c-10 20 -14 41 -14 65zM174 163c0 -30 26 -50 62 -50c42 0 73 19 88 43v76h-50c-60 0 -100 -19 -100 -69z" />
    <glyph glyph-name="uni0431" unicode="&#x431;" horiz-adv-x="554" 
d="M20 264v27c0 168 41 296 144 364c30 21 63 34 100 41c46 11 92 16 92 58v7h130v-7c0 -128 -88 -162 -193 -183c-75 -15 -117 -53 -137 -120c38 31 83 50 146 50c115 0 187 -64 215 -150c10 -30 15 -63 15 -98v-10c0 -118 -57 -199 -146 -234c-32 -13 -68 -19 -109 -19
c-129 0 -207 69 -240 165c-11 33 -17 70 -17 109zM176 250c0 -78 27 -131 101 -131c73 0 99 53 99 131v10c0 75 -28 125 -100 125s-100 -50 -100 -125v-10z" />
    <glyph glyph-name="uni0432" unicode="&#x432;" horiz-adv-x="534" 
d="M28 0v528h229c96 0 180 -22 215 -84c11 -20 16 -41 16 -66c0 -53 -36 -88 -77 -106c56 -16 103 -52 103 -118c0 -119 -104 -154 -223 -154h-263zM186 128h105c43 0 67 10 67 41s-23 43 -67 43h-105v-84zM186 322h79c43 0 67 8 67 36c0 34 -27 42 -75 42h-71v-78z" />
    <glyph glyph-name="uni0433" unicode="&#x433;" horiz-adv-x="427" 
d="M28 0v528h376v-129h-220v-399h-156z" />
    <glyph glyph-name="uni0434" unicode="&#x434;" horiz-adv-x="652" 
d="M18 129h51c41 42 67 82 76 151c3 21 4 44 5 72l2 176h404v-399h76v-288h-156v159h-298v-159h-160v288zM251 129h149v268h-94l-1 -49c-4 -89 -21 -161 -54 -219z" />
    <glyph glyph-name="uni0435" unicode="&#x435;" horiz-adv-x="537" 
d="M20 246v19c0 124 58 214 149 253c31 13 66 20 105 20c161 0 240 -107 240 -262v-66h-335c10 -56 51 -91 120 -91c57 0 95 22 121 56l6 7l79 -89l-4 -5c-42 -58 -112 -98 -212 -98c-130 0 -215 65 -251 157c-12 31 -18 64 -18 99zM181 322h179v4c0 53 -30 83 -87 83
c-58 0 -84 -38 -92 -87z" />
    <glyph glyph-name="uni0436" unicode="&#x436;" horiz-adv-x="864" 
d="M6 0l171 276l-170 252h193l110 -190h40v190h156v-190h41l111 190h192l-168 -249l172 -279h-191l-105 196h-52v-196h-156v188h-52l-105 -188h-187z" />
    <glyph glyph-name="uni0437" unicode="&#x437;" horiz-adv-x="499" 
d="M14 164v7h156v-7c0 -35 37 -53 79 -53c43 0 73 17 73 53c0 41 -24 52 -73 52h-85v108h85c43 0 63 12 63 45c0 32 -23 47 -63 47s-71 -16 -71 -48v-7h-156v7c0 89 66 140 136 159c27 7 54 11 84 11c96 0 176 -27 211 -90c11 -20 15 -42 15 -67c0 -51 -33 -87 -70 -108
c48 -21 80 -58 80 -121c0 -57 -31 -96 -68 -120c-42 -27 -100 -42 -168 -42c-94 0 -170 35 -207 96c-14 22 -21 48 -21 78z" />
    <glyph glyph-name="uni0438" unicode="&#x438;" horiz-adv-x="535" 
d="M28 0v528h158v-303l165 303h153v-528h-156v304l-166 -304h-154z" />
    <glyph glyph-name="uni0439" unicode="&#x439;" horiz-adv-x="531" 
d="M26 0v528h158v-303l165 303h153v-528h-156v304l-166 -304h-154zM90 736v7h116v-7c0 -39 21 -57 61 -57s61 20 61 57v7h116v-7c0 -77 -49 -122 -106 -142c-22 -7 -45 -11 -71 -11c-79 0 -140 34 -164 91c-8 19 -13 40 -13 62z" />
    <glyph glyph-name="uni043A" unicode="&#x43a;" horiz-adv-x="557" 
d="M28 0v528h158v-198h38l115 198h196l-178 -251l194 -277h-206l-115 195h-44v-195h-158z" />
    <glyph glyph-name="uni043B" unicode="&#x43b;" horiz-adv-x="569" 
d="M17 131h23c54 0 62 35 67 90c2 23 4 50 5 83l10 224h416v-528h-156v399h-109l-5 -100c-7 -163 -37 -299 -218 -299h-30z" />
    <glyph glyph-name="uni043C" unicode="&#x43c;" horiz-adv-x="703" 
d="M28 0v528h189l132 -347l133 347h190v-528h-156v292l-115 -292h-104l-111 287v-287h-158z" />
    <glyph glyph-name="uni043D" unicode="&#x43d;" horiz-adv-x="533" 
d="M28 0v528h156v-204h162v204h156v-528h-156v196h-162v-196h-156z" />
    <glyph glyph-name="uni043E" unicode="&#x43e;" horiz-adv-x="559" 
d="M20 259v10c0 124 57 210 148 249c32 14 68 20 109 20c128 0 208 -69 241 -163c11 -33 18 -67 18 -106v-10c0 -124 -57 -210 -148 -249c-32 -14 -69 -20 -110 -20c-128 0 -209 69 -242 163c-11 33 -16 67 -16 106zM176 259c0 -79 24 -140 102 -140c75 0 102 62 102 140v10
c0 78 -27 140 -103 140c-75 0 -101 -63 -101 -140v-10z" />
    <glyph glyph-name="uni043F" unicode="&#x43f;" horiz-adv-x="535" 
d="M28 0v528h476v-528h-158v399h-162v-399h-156z" />
    <glyph glyph-name="uni0440" unicode="&#x440;" horiz-adv-x="542" 
d="M28 -203v731h145l4 -41c31 31 70 51 128 51c115 0 174 -70 199 -159c9 -33 14 -69 14 -109v-11c0 -116 -41 -207 -120 -249c-26 -14 -58 -20 -92 -20c-54 0 -92 20 -122 46v-239h-156zM184 163c16 -28 40 -44 85 -44c72 0 93 65 93 140v11c0 75 -22 138 -94 138
c-45 0 -68 -16 -84 -42v-203z" />
    <glyph glyph-name="uni0441" unicode="&#x441;" horiz-adv-x="519" 
d="M20 257v14c0 121 51 208 140 247c31 14 68 20 110 20c106 0 178 -49 210 -125c11 -27 18 -57 18 -89v-7h-148v7c0 50 -32 85 -82 85c-75 0 -92 -60 -92 -138v-14c0 -79 16 -138 93 -138c50 0 79 26 82 72v7h147v-8c0 -64 -32 -113 -67 -144c-37 -33 -93 -56 -160 -56
c-128 0 -205 68 -236 163c-10 32 -15 67 -15 104z" />
    <glyph glyph-name="uni0442" unicode="&#x442;" horiz-adv-x="533" 
d="M16 400v128h494v-128h-170v-400h-156v400h-168z" />
    <glyph glyph-name="uni0443" unicode="&#x443;" horiz-adv-x="540" 
d="M8 528h169l92 -309l92 309h168l-215 -602c-25 -73 -72 -139 -176 -139c-24 0 -46 2 -65 10l-5 1v120h8c8 0 15 -1 21 -1c50 0 73 16 85 52l15 38z" />
    <glyph glyph-name="uni0444" unicode="&#x444;" horiz-adv-x="721" 
d="M20 250v10c0 117 34 215 114 258c25 14 56 20 89 20c22 0 41 -4 57 -10v222h156v-223c17 7 37 11 59 11c114 0 168 -79 190 -167c8 -34 13 -70 13 -111v-10c0 -112 -37 -199 -114 -240c-25 -13 -55 -20 -88 -20c-22 0 -44 4 -60 10v-203h-156v202c-17 -6 -37 -9 -58 -9
c-109 0 -166 74 -189 157c-9 32 -13 66 -13 103zM176 251c0 -72 15 -132 82 -132c7 0 16 0 22 1v286c-9 2 -14 3 -21 3c-68 0 -83 -75 -83 -149v-9zM436 120c7 -1 14 -2 22 -1h1c66 0 83 61 83 132v9c0 62 -12 114 -46 138c-11 7 -22 11 -38 11c-8 0 -17 -1 -22 -2v-287z
" />
    <glyph glyph-name="uni0445" unicode="&#x445;" horiz-adv-x="533" 
d="M6 0l161 270l-154 258h168l83 -149l85 149h168l-154 -258l160 -270h-168l-90 158l-90 -158h-169z" />
    <glyph glyph-name="uni0446" unicode="&#x446;" horiz-adv-x="601" 
d="M28 0v528h156v-399h162v399h156v-400h80l-11 -285h-145v157h-398z" />
    <glyph glyph-name="uni0447" unicode="&#x447;" horiz-adv-x="523" 
d="M20 357v171h156v-169c0 -62 27 -79 93 -79c25 0 45 3 65 7v241h158v-528h-158v157c-23 -4 -42 -5 -65 -5c-148 0 -249 58 -249 205z" />
    <glyph glyph-name="uni0448" unicode="&#x448;" horiz-adv-x="789" 
d="M28 0v528h156v-399h130v399h158v-399h130v399h156v-528h-730z" />
    <glyph glyph-name="uni0449" unicode="&#x449;" horiz-adv-x="882" 
d="M28 0v528h156v-399h130v399h156v-399h130v399h158v-400h105l-11 -285h-146v157h-678z" />
    <glyph glyph-name="uni044A" unicode="&#x44a;" horiz-adv-x="673" 
d="M16 399v129h308v-146h92c106 0 185 -41 219 -115c10 -23 17 -48 17 -77c0 -97 -63 -152 -138 -176c-29 -9 -61 -14 -98 -14h-248v399h-152zM324 128h92c49 0 80 20 80 62c0 43 -29 62 -80 62h-92v-124z" />
    <glyph glyph-name="uni044B" unicode="&#x44b;" horiz-adv-x="770" 
d="M28 0v528h158v-146h92c106 0 186 -41 220 -115c10 -24 16 -49 16 -77c0 -97 -62 -152 -137 -176c-29 -9 -62 -14 -99 -14h-250zM186 128h92c49 0 80 20 80 62c0 43 -29 62 -80 62h-92v-124zM582 0v528h156v-528h-156z" />
    <glyph glyph-name="uni044C" unicode="&#x44c;" horiz-adv-x="535" 
d="M28 0v528h158v-146h92c106 0 186 -41 220 -115c10 -24 16 -49 16 -77c0 -97 -62 -152 -137 -176c-29 -9 -62 -14 -99 -14h-250zM186 128h92c49 0 80 20 80 62c0 43 -29 62 -80 62h-92v-124z" />
    <glyph glyph-name="uni044D" unicode="&#x44d;" horiz-adv-x="516" 
d="M18 204v7h148v-7c0 -51 26 -85 76 -85c61 0 82 44 91 100h-141v97h141c-9 54 -31 93 -92 93c-46 0 -75 -27 -75 -71v-7h-148v7c0 98 63 158 135 185c27 10 56 15 88 15c127 0 204 -69 235 -164c10 -32 16 -66 16 -103v-14c0 -122 -55 -207 -143 -246
c-31 -14 -67 -21 -107 -21c-103 0 -178 49 -209 125c-10 26 -15 56 -15 89z" />
    <glyph glyph-name="uni044E" unicode="&#x44e;" horiz-adv-x="780" 
d="M28 0v528h156v-194h63c17 94 71 159 154 189c29 10 61 15 97 15c128 0 208 -69 241 -163c11 -33 17 -67 17 -106v-10c0 -124 -57 -210 -148 -249c-32 -14 -68 -20 -109 -20c-117 0 -190 57 -228 136c-12 26 -21 55 -26 86h-61v-212h-156zM398 259c0 -78 25 -140 101 -140
c75 0 101 62 101 140v10c0 78 -26 140 -102 140c-74 0 -100 -64 -100 -140v-10z" />
    <glyph glyph-name="uni044F" unicode="&#x44f;" horiz-adv-x="533" 
d="M6 0l118 205c-53 26 -96 74 -96 145c0 91 64 143 137 165c29 9 60 13 96 13h241v-528h-156v176h-78l-102 -176h-160zM184 343c0 -34 32 -55 74 -55h88v112h-85c-44 0 -77 -21 -77 -57z" />
    <glyph glyph-name="uni0450" unicode="&#x450;" horiz-adv-x="535" 
d="M18 246v19c0 124 59 214 150 253c31 13 66 20 105 20c161 0 241 -107 241 -262v-66h-336c10 -56 51 -91 120 -91c57 0 95 22 121 56l6 7l79 -89l-4 -5c-42 -58 -112 -98 -212 -98c-130 0 -215 65 -251 157c-12 31 -19 64 -19 99zM59 750h175l107 -166h-133zM180 322h180
v4c0 53 -31 83 -88 83c-58 0 -84 -38 -92 -87z" />
    <glyph glyph-name="uni0451" unicode="&#x451;" horiz-adv-x="535" 
d="M18 246v19c0 124 59 214 150 253c31 13 66 20 105 20c161 0 241 -107 241 -262v-66h-336c10 -56 51 -91 120 -91c57 0 95 22 121 56l6 7l79 -89l-4 -5c-42 -58 -112 -98 -212 -98c-130 0 -215 65 -251 157c-12 31 -19 64 -19 99zM62 660c0 43 34 69 75 69s75 -27 75 -69
c0 -43 -34 -70 -75 -70c-42 0 -75 26 -75 70zM180 322h180v4c0 53 -31 83 -88 83c-58 0 -84 -38 -92 -87zM300 660c0 43 34 69 75 69s75 -27 75 -69s-34 -71 -75 -71c-42 0 -75 28 -75 71z" />
    <glyph glyph-name="uni0452" unicode="&#x452;" horiz-adv-x="588" 
d="M12 566v104h76v80h156v-80h124v-104h-124v-83c32 33 76 55 134 55c130 0 182 -81 182 -207v-341c0 -126 -66 -203 -193 -203c-30 0 -54 2 -78 10l8 126c17 -4 35 -8 56 -8c37 0 51 29 51 75v339c0 56 -21 79 -77 79c-42 0 -67 -16 -83 -41v-367h-156v566h-76z" />
    <glyph glyph-name="uni0453" unicode="&#x453;" horiz-adv-x="424" 
d="M26 0v528h376v-129h-220v-399h-156zM106 582l107 166h174l-149 -166h-132z" />
    <glyph glyph-name="uni0454" unicode="&#x454;" horiz-adv-x="519" 
d="M20 257v14c0 120 53 209 141 247c31 14 67 20 109 20c106 0 179 -49 211 -125c11 -27 17 -57 17 -89v-7h-148v7c0 50 -32 85 -82 85c-65 0 -85 -44 -91 -104h149v-97h-148c7 -53 30 -89 91 -89c50 0 79 26 82 72v7h147v-8c0 -64 -32 -112 -67 -143
c-37 -33 -93 -57 -160 -57c-128 0 -205 69 -236 164c-10 32 -15 66 -15 103z" />
    <glyph glyph-name="uni0455" unicode="&#x455;" horiz-adv-x="501" 
d="M14 176v7h148v-7c3 -48 37 -71 90 -71c44 0 74 15 74 47c0 28 -20 35 -49 45c-13 5 -30 9 -52 13c-75 16 -147 43 -180 101c-10 18 -15 38 -15 61c0 52 28 91 59 117c38 30 93 49 160 49c102 0 177 -37 212 -106c10 -22 17 -46 17 -72v-7h-156v7c0 41 -27 63 -74 63
c-40 0 -66 -18 -66 -49c0 -24 21 -34 46 -42c35 -11 89 -19 126 -31c47 -15 86 -41 109 -80c11 -19 17 -41 17 -67c0 -54 -30 -93 -64 -118c-41 -29 -98 -46 -167 -46c-106 0 -186 45 -220 118c-10 22 -15 46 -15 68z" />
    <glyph glyph-name="uni0456" unicode="&#x456;" horiz-adv-x="219" 
d="M20 658c0 48 38 80 87 80c50 0 87 -30 87 -80s-37 -81 -87 -81c-49 0 -87 30 -87 81zM30 0v528h156v-528h-156z" />
    <glyph glyph-name="uni0457" unicode="&#x457;" horiz-adv-x="415" 
d="M12 652c0 43 34 70 75 70s75 -28 75 -70c0 -43 -34 -69 -75 -69c-42 0 -75 25 -75 69zM126 0v528h158v-528h-158zM250 652c0 43 34 70 75 70s75 -28 75 -70s-34 -70 -75 -70c-42 0 -75 27 -75 70z" />
    <glyph glyph-name="uni0458" unicode="&#x458;" horiz-adv-x="307" 
d="M10 -76c16 -4 33 -7 51 -7c40 0 57 19 57 61v550h156v-550c0 -121 -67 -191 -188 -191c-28 0 -56 2 -76 10v127zM106 658c0 49 37 80 87 80s87 -31 87 -80c0 -51 -38 -81 -87 -81s-87 30 -87 81z" />
    <glyph glyph-name="uni0459" unicode="&#x459;" horiz-adv-x="882" 
d="M17 129l23 1c26 0 46 12 59 40s21 73 21 134v224h412v-160h93c106 0 185 -37 220 -109c11 -23 15 -47 15 -74c0 -95 -61 -148 -136 -171c-29 -9 -62 -14 -99 -14h-249v399h-100v-100c0 -171 -46 -299 -226 -299h-30zM532 128h93c48 0 79 18 79 58c0 39 -31 54 -79 54h-93
v-112z" />
    <glyph glyph-name="uni045A" unicode="&#x45a;" horiz-adv-x="851" 
d="M28 0v528h156v-196h162v196h156v-160h92c105 0 186 -37 220 -109c10 -23 16 -47 16 -74c0 -95 -62 -148 -137 -171c-29 -9 -61 -14 -99 -14h-248v204h-162v-204h-156zM502 128h92c48 0 80 18 80 58c0 39 -32 54 -80 54h-92v-112z" />
    <glyph glyph-name="uni045B" unicode="&#x45b;" horiz-adv-x="580" 
d="M12 571v105h70v74h156v-74h130v-105h-130v-88c32 33 75 55 133 55c130 0 181 -81 181 -207v-331h-156v329c0 56 -20 79 -76 79c-42 0 -66 -16 -82 -41v-367h-156v571h-70z" />
    <glyph glyph-name="uni045C" unicode="&#x45c;" horiz-adv-x="555" 
d="M28 0v528h156v-198h39l115 198h196l-178 -251l194 -277h-206l-115 195h-45v-195h-156zM173 582l107 166h174l-149 -166h-132z" />
    <glyph glyph-name="uni045D" unicode="&#x45d;" horiz-adv-x="532" 
d="M26 0v528h158v-303l165 303h153v-528h-156v304l-166 -304h-154zM69 748h175l107 -166h-133z" />
    <glyph glyph-name="uni045E" unicode="&#x45e;" horiz-adv-x="538" 
d="M7 528h169l92 -309l92 309h168l-215 -602c-25 -73 -72 -139 -176 -139c-24 0 -46 2 -65 10l-4 1v120h7c8 0 15 -1 21 -1c50 0 73 16 85 52l15 38zM96 738v7h114v-7c0 -39 22 -57 62 -57s60 20 60 57v7h116v-7c0 -77 -48 -122 -105 -142c-22 -7 -45 -11 -71 -11
c-100 0 -176 53 -176 153z" />
    <glyph glyph-name="uni045F" unicode="&#x45f;" horiz-adv-x="534" 
d="M28 0v528h156v-414h162v414h156v-528h-160v-175h-156v175h-158z" />
    <glyph glyph-name="uni0460" unicode="&#x460;" horiz-adv-x="895" 
d="M24 230v481h162v-479c0 -66 27 -110 88 -110c63 0 90 41 90 110v479h162v-479c0 -66 26 -110 90 -110c62 0 88 41 88 110v479h162v-481c0 -152 -97 -240 -250 -240c-77 0 -134 29 -171 74c-38 -46 -94 -74 -171 -74c-117 0 -196 52 -231 136c-12 30 -19 65 -19 104z" />
    <glyph glyph-name="uni0461" unicode="&#x461;" horiz-adv-x="799" 
d="M24 219v309h156v-306c0 -62 15 -103 64 -103c56 0 76 38 76 103v306h158v-306c0 -65 15 -103 70 -103c51 0 66 39 66 103v306h156v-309c0 -140 -80 -229 -222 -229c-68 0 -117 27 -150 66c-35 -41 -84 -66 -154 -66c-108 0 -174 53 -204 131c-11 28 -16 61 -16 98z" />
    <glyph glyph-name="uni0462" unicode="&#x462;" horiz-adv-x="666" 
d="M12 521v102h82v88h164v-87h110v-101h-110v-61h109c125 0 218 -49 258 -135c13 -29 19 -59 19 -93c0 -118 -72 -187 -163 -217c-34 -11 -72 -17 -114 -17h-273v521h-82zM258 133h109c71 0 115 36 115 102c0 64 -45 93 -115 93h-109v-195z" />
    <glyph glyph-name="uni0463" unicode="&#x463;" horiz-adv-x="594" 
d="M12 513v105h76v144h156v-144h126v-105h-126v-119h93c107 0 186 -42 220 -117c10 -25 15 -51 15 -79c0 -99 -60 -159 -136 -184c-29 -10 -62 -14 -99 -14h-249v513h-76zM244 128h93c52 0 79 23 79 69s-28 67 -79 67h-93v-136z" />
    <glyph glyph-name="uni0464" unicode="&#x464;" horiz-adv-x="875" 
d="M28 0v711h162v-283h71c12 135 76 230 183 272c36 14 75 21 118 21c175 0 278 -98 292 -258l1 -8h-161v7c-5 83 -44 124 -132 124c-95 0 -130 -65 -138 -162h210v-126h-211c5 -105 37 -173 137 -173c89 0 125 39 133 120v7h161l-1 -8c-9 -121 -75 -201 -174 -235
c-35 -12 -74 -18 -119 -18c-147 0 -234 80 -275 188c-15 38 -23 81 -25 127h-70v-306h-162z" />
    <glyph glyph-name="uni0465" unicode="&#x465;" horiz-adv-x="734" 
d="M28 0v528h156v-210h53c13 100 64 169 147 202c29 12 63 18 101 18c105 0 179 -49 210 -125c11 -27 16 -56 17 -88l1 -8h-149v7c0 51 -31 85 -82 85c-62 0 -80 -40 -89 -95h157v-102h-158c6 -57 28 -93 91 -93c48 0 81 25 81 71v8h148v-8c0 -64 -30 -113 -66 -144
c-37 -32 -93 -56 -160 -56c-153 0 -234 96 -250 230h-52v-220h-156z" />
    <glyph glyph-name="uni0466" unicode="&#x466;" horiz-adv-x="693" 
d="M8 0l257 711h162l256 -711h-170l-68 205h-33v-205h-138v205h-29l-67 -205h-170zM283 313l124 1l-62 187z" />
    <glyph glyph-name="uni0467" unicode="&#x467;" horiz-adv-x="585" 
d="M8 0l206 528h155l206 -528h-160l-47 131h-24v-131h-108v131h-22l-46 -131h-160zM251 231l80 -1l-32 94l-8 32l-8 -32z" />
    <glyph glyph-name="uni0468" unicode="&#x468;" horiz-adv-x="911" 
d="M28 0v711h162v-397h150l143 397h162l256 -711h-170l-67 205h-34v-205h-138v198h-29l-67 -198h-170l73 205h-109v-205h-162zM501 314h124l-61 187z" />
    <glyph glyph-name="uni0469" unicode="&#x469;" horiz-adv-x="782" 
d="M28 0v528h156v-290h111l116 290h155l206 -528h-160l-47 131h-25v-131h-108v124h-21l-46 -124h-160l50 124h-71v-124h-156zM448 230h79l-32 94l-7 31l-8 -31z" />
    <glyph glyph-name="uni046A" unicode="&#x46a;" horiz-adv-x="826" 
d="M22 0v168c0 162 96 223 253 229l-182 314h656l-182 -315c148 -8 235 -75 235 -228v-168h-162v167c0 74 -31 97 -109 97h-31v-264h-162v264h-44c-77 0 -110 -23 -110 -97v-167h-162zM342 576l79 -154l80 154h-159z" />
    <glyph glyph-name="uni046B" unicode="&#x46b;" horiz-adv-x="681" 
d="M20 0v93c0 132 67 195 185 210l-134 225h544l-134 -226c115 -17 179 -82 179 -209v-93h-156v96c0 69 -20 94 -84 95v-191h-156v191h-3c-66 0 -85 -26 -85 -95v-96h-156zM294 428l49 -104l50 104h-99z" />
    <glyph glyph-name="uni046C" unicode="&#x46c;" horiz-adv-x="1103" 
d="M28 0v711h162v-311h362l-181 311h656l-183 -315c148 -8 236 -74 236 -228v-168h-162v167c0 74 -32 97 -109 97h-31v-264h-162v264h-45c-76 0 -109 -24 -109 -97v-167h-162v172c0 41 5 76 17 105h-127v-277h-162zM619 584l80 -155l80 154z" />
    <glyph glyph-name="uni046D" unicode="&#x46d;" horiz-adv-x="952" 
d="M28 0v528h158v-220h288l-133 220h545l-134 -226c115 -17 178 -82 178 -209v-93h-156v96c0 67 -22 95 -84 95v-191h-156v184h-3c-66 0 -85 -26 -85 -92v-92h-156v96c0 39 6 73 16 100h-120v-196h-158zM565 428l49 -104l49 104h-98z" />
    <glyph glyph-name="uni046E" unicode="&#x46e;" horiz-adv-x="505" 
d="M12 -30c0 108 77 152 182 152h30c60 0 106 26 106 79c0 68 -49 97 -127 97h-77v132h80c63 0 102 23 102 78c0 50 -41 71 -105 71h-135v132h135c142 0 261 -47 261 -189c0 -80 -42 -128 -99 -156c69 -27 121 -77 121 -164c0 -110 -66 -172 -152 -198
c-31 -9 -64 -14 -102 -14h-28c-33 0 -48 -13 -48 -40c0 -40 40 -58 73 -72l-46 -98l-6 1c-93 21 -162 78 -165 189zM56 926v15h131l69 -66l68 66h132v-16l-153 -141h-95z" />
    <glyph glyph-name="uni046F" unicode="&#x46f;" horiz-adv-x="480" 
d="M12 -30c0 99 72 137 167 137h27c53 0 100 16 100 51c0 41 -47 54 -107 54h-85v102h88c48 0 82 13 82 52c0 36 -45 44 -92 44h-136v118h136c99 0 189 -19 229 -81c13 -19 19 -42 19 -67c0 -58 -33 -94 -74 -115c52 -18 96 -52 96 -114c0 -89 -66 -133 -140 -151
c-29 -7 -61 -10 -94 -10h-24c-37 0 -56 -12 -56 -40c0 -42 37 -53 66 -73l-46 -90c-80 27 -153 80 -156 183zM36 737v15h130l69 -66l68 66h131v-16l-152 -141h-95z" />
    <glyph glyph-name="uni0470" unicode="&#x470;" horiz-adv-x="731" 
d="M18 482v229h162v-233c0 -93 35 -148 104 -165v398h162v-399c72 17 98 71 98 166v233h162v-229c0 -176 -102 -274 -260 -295v-187h-162v187c-126 12 -210 76 -247 176c-13 35 -19 74 -19 119z" />
    <glyph glyph-name="uni0471" unicode="&#x471;" horiz-adv-x="739" 
d="M22 287v241h158v-250c0 -94 38 -142 106 -164v414h156v-416c77 21 118 74 118 171c-1 89 -25 165 -52 235l-4 10h145l2 -4c39 -60 65 -137 65 -234c0 -132 -58 -213 -150 -260c-34 -17 -77 -30 -124 -35v-228h-156v228c-162 21 -264 114 -264 292z" />
    <glyph glyph-name="uni0472" unicode="&#x472;" horiz-adv-x="662" 
d="M18 339v32c0 162 69 275 185 325c38 16 80 25 126 25c100 0 175 -41 224 -95c53 -59 85 -146 85 -255v-32c0 -162 -67 -275 -183 -325c-38 -16 -79 -24 -125 -24c-99 0 -176 40 -225 94c-53 58 -87 147 -87 255zM183 312c7 -107 47 -187 147 -187c98 0 137 82 144 187
h-291zM183 402h291c-7 105 -47 183 -145 183s-137 -78 -146 -183z" />
    <glyph glyph-name="uni0473" unicode="&#x473;" horiz-adv-x="558" 
d="M20 259v10c0 124 56 211 147 249c32 14 69 20 109 20c128 0 209 -69 242 -163c11 -33 16 -67 16 -106v-10c0 -124 -57 -210 -148 -249c-32 -14 -68 -20 -109 -20c-128 0 -208 69 -241 163c-11 33 -16 67 -16 106zM179 218c10 -58 36 -99 98 -99s88 43 97 99h-195z
M179 314h196c-10 55 -36 95 -99 95s-88 -42 -97 -95z" />
    <glyph glyph-name="uni0474" unicode="&#x474;" horiz-adv-x="667" 
d="M9 711h172l149 -524l3 -13c32 126 69 245 103 369c28 88 70 177 188 177l27 -1l-2 -135h-21c-27 0 -43 -24 -51 -50l-162 -534h-163z" />
    <glyph glyph-name="uni0475" unicode="&#x475;" horiz-adv-x="556" 
d="M9 528h164l83 -344c14 64 32 123 48 185c15 54 38 96 66 125s64 44 108 44c24 0 41 -5 59 -12l-13 -124h-7c-6 0 -20 2 -25 2c-25 0 -40 -22 -47 -43l-115 -361h-146z" />
    <glyph glyph-name="uni0476" unicode="&#x476;" horiz-adv-x="666" 
d="M8 711h172l149 -524l3 -13c32 126 69 245 103 369c28 88 70 177 188 177l27 -1l-2 -135h-21c-27 0 -43 -24 -51 -50l-162 -534h-163zM31 884h162l133 -145h-136zM225 884h157l108 -145h-132z" />
    <glyph glyph-name="uni0477" unicode="&#x477;" horiz-adv-x="571" 
d="M-3 735h162l133 -145h-136zM25 528h164l83 -344c14 64 32 123 48 185c15 54 38 96 66 125s64 44 108 44c24 0 41 -5 59 -12l-13 -124h-7c-6 0 -20 2 -25 2c-25 0 -40 -22 -47 -43l-115 -361h-146zM191 735h157l108 -145h-132z" />
    <glyph glyph-name="uni0478" unicode="&#x478;" horiz-adv-x="1195" 
d="M18 339v32c0 162 69 275 185 325c38 16 80 25 126 25c100 0 175 -41 224 -95c53 -59 85 -146 85 -255v-32c0 -163 -67 -275 -183 -325c-38 -16 -79 -24 -125 -24c-99 0 -176 41 -225 95c-53 58 -87 146 -87 254zM182 340c0 -96 24 -170 85 -201c18 -9 39 -14 63 -14
c107 0 146 94 146 215v31c0 122 -39 214 -147 214c-107 0 -147 -93 -147 -214v-31zM664 543h169l92 -309l92 309h168l-215 -617c-25 -73 -72 -139 -176 -139c-24 0 -46 2 -65 10l-5 1v120h8c8 0 15 -1 21 -1c50 0 73 16 85 52l15 38z" />
    <glyph glyph-name="uni0479" unicode="&#x479;" horiz-adv-x="1082" 
d="M20 259v10c0 124 57 210 148 249c32 14 68 20 109 20c128 0 208 -69 241 -163c11 -33 18 -67 18 -106v-10c0 -124 -57 -210 -148 -249c-32 -14 -69 -20 -110 -20c-128 0 -209 69 -242 163c-11 33 -16 67 -16 106zM176 259c0 -79 24 -140 102 -140c75 0 102 62 102 140v10
c0 78 -27 140 -103 140c-75 0 -101 -63 -101 -140v-10zM550 528h169l92 -309l92 309h168l-215 -602c-25 -73 -72 -139 -176 -139c-24 0 -46 2 -65 10l-5 1v120h8c8 0 15 -1 21 -1c50 0 73 16 85 52l15 38z" />
    <glyph glyph-name="uni047A" unicode="&#x47a;" horiz-adv-x="662" 
d="M18 339v32c0 162 69 275 185 325c22 9 44 16 67 20v54h112v-53c74 -11 131 -46 171 -90c53 -59 85 -147 85 -256v-32c0 -162 -67 -275 -183 -325c-23 -9 -48 -16 -73 -20v-60h-110v61c-71 12 -128 45 -167 88c-53 58 -87 148 -87 256zM182 339c0 -96 24 -170 85 -201h1
c1 -1 4 -2 4 -2v43h110v-45c67 27 94 107 94 205v33c0 100 -27 180 -94 205v-48h-112v45c-64 -28 -88 -106 -88 -202v-33z" />
    <glyph glyph-name="uni047B" unicode="&#x47b;" horiz-adv-x="558" 
d="M34 259v10c0 119 55 198 140 235c21 9 46 14 72 18v51h66v-52l6 -1c97 -13 159 -71 186 -149c11 -31 16 -65 16 -102v-10c0 -119 -53 -198 -138 -235c-22 -9 -46 -14 -72 -18v-52h-68v53l-6 1c-97 13 -159 71 -186 149c-11 31 -16 65 -16 102zM160 259
c0 -65 17 -125 72 -147l10 -4v58h68v-59l10 4c57 21 74 82 74 148v10c0 65 -17 125 -72 147l-10 4v-51h-66v52l-11 -4c-57 -21 -75 -83 -75 -148v-10z" />
    <glyph glyph-name="uni047C" unicode="&#x47c;" horiz-adv-x="883" 
d="M22 232v235c0 119 60 198 151 229c31 10 63 15 99 15h8v-134h-8c-61 0 -88 -42 -88 -112v-231c0 -70 27 -112 88 -112c63 0 90 41 90 112v179h154v-179c0 -71 27 -112 90 -112c60 0 88 43 88 112v231c0 70 -27 112 -88 112h-8v134h8c119 0 195 -55 230 -140
c12 -30 20 -65 20 -104v-234c0 -118 -61 -196 -152 -227c-31 -10 -62 -16 -98 -16c-73 0 -130 28 -167 69c-38 -43 -93 -69 -167 -69c-118 0 -196 54 -231 138c-12 30 -19 65 -19 104zM290 754v26c0 76 46 113 121 113c44 0 80 -17 113 -30c37 -15 76 -29 126 -29h18v-80
h-18c-81 0 -140 27 -196 49c-15 6 -29 10 -42 10c-27 0 -42 -14 -42 -43v-16h-80zM366 643c18 22 36 44 36 75v54h98v-56c0 -26 -15 -48 -27 -62c-15 -17 -36 -35 -57 -45z" />
    <glyph glyph-name="uni047D" unicode="&#x47d;" horiz-adv-x="760" 
d="M20 217v92c0 142 89 228 232 228h8v-129h-8c-54 0 -76 -37 -76 -99v-91c0 -59 16 -99 62 -99c51 0 64 47 64 107v85h150v-85c0 -64 18 -107 66 -107c46 0 60 41 60 99v91c0 61 -21 99 -74 99h-8v129h8c110 0 182 -51 214 -130c11 -28 18 -60 18 -97v-93
c0 -138 -78 -227 -218 -227c-64 0 -111 28 -140 67c-31 -40 -75 -67 -140 -67c-105 0 -173 52 -202 129c-10 28 -16 61 -16 98zM232 589v25c0 76 46 114 121 114c62 0 106 -30 151 -44c27 -9 55 -15 89 -15h17v-80h-18c-80 0 -141 29 -195 51c-15 6 -29 8 -42 8
c-28 0 -43 -13 -43 -42v-17h-80zM312 481c18 22 36 44 36 75v54h98v-56c0 -26 -15 -48 -27 -62c-15 -18 -36 -36 -56 -46z" />
    <glyph glyph-name="uni047E" unicode="&#x47e;" horiz-adv-x="895" 
d="M24 230v481h162v-479c0 -66 27 -110 88 -110c63 0 90 41 90 110v479h162v-479c0 -66 26 -110 90 -110c62 0 88 41 88 110v479h162v-481c0 -152 -97 -240 -250 -240c-77 0 -134 29 -171 74c-38 -46 -94 -74 -171 -74c-117 0 -196 52 -231 136c-12 30 -19 65 -19 104z
M222 809v80h447l2 -80h-177v-62h-104v62h-168z" />
    <glyph glyph-name="uni047F" unicode="&#x47f;" horiz-adv-x="798" 
d="M24 219v309h156v-306c0 -62 15 -103 64 -103c56 0 76 38 76 103v306h158v-306c0 -65 15 -103 70 -103c51 0 66 39 66 103v306h156v-309c0 -140 -80 -229 -222 -229c-68 0 -117 27 -150 66c-35 -41 -84 -66 -154 -66c-108 0 -174 53 -204 131c-11 28 -16 61 -16 98z
M190 631v80h417l3 -80h-164v-62h-104v62h-152z" />
    <glyph glyph-name="uni0480" unicode="&#x480;" horiz-adv-x="595" 
d="M20 284v143c0 137 66 232 166 273c35 14 74 21 117 21c169 0 273 -85 273 -255v-7h-162v7c0 84 -29 122 -111 122c-87 0 -121 -73 -121 -163v-144c0 -73 23 -128 69 -153c15 -8 32 -12 52 -12h103v-292h-162v171c-109 19 -178 89 -208 182c-10 33 -16 68 -16 107z" />
    <glyph glyph-name="uni0481" unicode="&#x481;" horiz-adv-x="514" 
d="M20 257v14c0 121 53 208 142 247c31 14 68 20 109 20c104 0 177 -49 207 -125c10 -27 16 -57 16 -89v-7h-148v7c0 50 -27 85 -75 85c-73 0 -95 -64 -95 -142v-14c0 -79 21 -141 95 -141h99v-290h-156v173c-125 23 -194 122 -194 262z" />
    <glyph glyph-name="uni0482" unicode="&#x482;" horiz-adv-x="560" 
d="M10 275l42 75l143 -83l92 163l-142 83l43 77l142 -84l89 156h101l-114 -201l143 -84l-44 -75l-141 83l-93 -163l142 -84l-43 -75l-142 83l-87 -153l-103 -1l113 199z" />
    <glyph glyph-name="uni0483" unicode="&#x483;" horiz-adv-x="420" 
d="M23 565l2 139h265v45l102 -1v-122h-266v-62z" />
    <glyph glyph-name="uni0484" unicode="&#x484;" horiz-adv-x="439" 
d="M24 636v81h18c75 0 126 21 186 34c19 6 38 9 58 9c76 0 124 -31 124 -98v-26h-82v16c0 19 -16 28 -44 28c-13 0 -27 2 -42 6c-56 -22 -118 -50 -199 -50h-19z" />
    <glyph glyph-name="uni0485" unicode="&#x485;" horiz-adv-x="182" 
d="M20 728v74h108l-1 -75l31 -50l-51 -42z" />
    <glyph glyph-name="uni0486" unicode="&#x486;" horiz-adv-x="179" 
d="M21 677l29 50v75h108v-74l-87 -93z" />
    <glyph glyph-name="uni0487" unicode="&#x487;" horiz-adv-x="436" 
d="M30 704v26c0 76 45 113 120 113c44 0 80 -17 113 -30c37 -15 76 -29 126 -29h17v-80h-17c-81 0 -140 27 -196 49c-15 6 -29 10 -42 10c-27 0 -41 -14 -41 -43v-16h-80z" />
    <glyph glyph-name="uni0488" unicode="&#x488;" horiz-adv-x="1005" 
d="M18 230v8c0 64 48 100 110 100c63 0 110 -36 110 -100v-8h-70v8c0 28 -13 42 -40 42s-40 -15 -40 -42v-8h-70zM98 -16c0 63 49 100 111 100c64 0 111 -35 111 -100v-8h-70v8c0 28 -14 42 -41 42s-39 -14 -39 -42v-8h-72v8zM104 476v7c0 64 47 99 110 99
c64 0 110 -34 110 -99v-7h-68v7c0 27 -15 43 -42 43s-40 -15 -40 -43v-7h-70zM384 604v8c0 64 47 98 110 98s110 -34 110 -98v-8h-70v8c0 28 -13 41 -40 41s-40 -13 -40 -41v-8h-70zM386 -154c0 64 48 100 110 100c63 0 110 -36 110 -100v-8h-70v8c0 28 -13 42 -40 42
s-40 -15 -40 -42v-8h-70v8zM668 -16c0 64 47 100 109 100c63 0 111 -36 111 -100v-8h-70v8c0 28 -14 42 -41 42c-26 0 -39 -15 -39 -42v-8h-70v8zM672 476v7c0 64 47 99 110 99c64 0 110 -34 110 -99v-7h-70v7c0 28 -13 43 -40 43c-26 0 -40 -16 -40 -43v-7h-70zM764 230v8
c0 64 47 100 109 100c63 0 111 -36 111 -100v-8h-70v8c0 29 -13 42 -41 42c-27 0 -39 -15 -39 -42v-8h-70z" />
    <glyph glyph-name="uni0489" unicode="&#x489;" horiz-adv-x="959" 
d="M18 261v62l184 -38v-78l-14 -9zM108 -38l156 107l55 -56l-2 -16l-165 -79zM153 581l42 45l105 -159l-55 -55l-16 2zM416 -210l37 188h76l12 -12l-64 -176h-61zM416 548l64 174h61l-38 -187h-75zM637 486l2 16l165 79l43 -43l-156 -107zM655 31l54 56l16 -2l77 -167
l-42 -46zM754 234v77l12 12l172 -65v-61z" />
    <glyph glyph-name="uni048A" unicode="&#x48a;" horiz-adv-x="749" 
d="M28 0v711h162v-454l273 454h159v-602h109l-1 -102c0 -92 -49 -167 -103 -207l-85 43l3 7c24 46 49 86 50 150h-135v453l-274 -453h-158zM150 890v8h114v-8c0 -39 22 -56 62 -56s60 19 60 56v8h116v-8c0 -77 -48 -121 -105 -141c-22 -7 -45 -11 -71 -11
c-79 0 -140 35 -164 92c-8 19 -12 38 -12 60z" />
    <glyph glyph-name="uni048B" unicode="&#x48b;" horiz-adv-x="630" 
d="M26 0v528h158v-303l165 303h153v-420h110l-2 -102c0 -92 -48 -166 -102 -206l-85 43l3 7c24 46 49 86 50 150h-130v304l-166 -304h-154zM90 736v7h116v-7c0 -39 21 -57 61 -57s61 20 61 57v7h116v-7c0 -77 -49 -122 -106 -142c-22 -7 -45 -11 -71 -11
c-79 0 -140 34 -164 91c-8 19 -13 40 -13 62z" />
    <glyph glyph-name="uni048C" unicode="&#x48c;" horiz-adv-x="666" 
d="M12 521v102h82v88h164v-87h110v-101h-110v-61h109c125 0 218 -49 258 -135c13 -29 19 -59 19 -93c0 -118 -72 -187 -163 -217c-34 -11 -72 -17 -114 -17h-273v521h-82zM258 133h109c71 0 115 36 115 102c0 64 -45 93 -115 93h-109v-195z" />
    <glyph glyph-name="uni048D" unicode="&#x48d;" horiz-adv-x="595" 
d="M12 607v104h76v78h158v-78h124v-104h-124v-213h92c107 0 186 -42 220 -117c10 -25 16 -51 16 -79c0 -99 -61 -159 -137 -184c-29 -10 -62 -14 -99 -14h-250v607h-76zM246 128h92c52 0 80 23 80 69s-29 67 -80 67h-92v-136z" />
    <glyph glyph-name="uni048E" unicode="&#x48e;" horiz-adv-x="610" 
d="M28 0v711h286c127 0 218 -53 256 -143c12 -30 18 -63 18 -96c0 -71 -24 -124 -63 -160l58 -63l-62 -54l-65 73c-40 -16 -88 -26 -142 -26h-124v-242h-162zM190 376h124c16 0 31 2 42 5l-58 62l61 52l59 -64c5 13 8 24 8 40c0 67 -42 106 -112 106h-124v-201z" />
    <glyph glyph-name="uni048F" unicode="&#x48f;" horiz-adv-x="542" 
d="M28 -203v731h145l4 -41c31 31 70 51 128 51c115 0 174 -70 199 -159c9 -33 14 -70 14 -110v-10c0 -79 -19 -147 -55 -194l50 -58l-63 -52l-49 58c-2 -1 -2 -1 -3 -2c-26 -15 -58 -21 -92 -21c-54 0 -92 20 -122 46v-239h-156zM184 163c16 -28 40 -44 85 -44
c15 0 29 3 39 8l-54 62l61 51l41 -47c5 21 6 43 6 66v11c0 75 -22 138 -94 138c-45 0 -68 -16 -84 -42v-203z" />
    <glyph glyph-name="uni0490" unicode="&#x490;" horiz-adv-x="534" 
d="M28 0v711h332v182h156v-316h-326v-577h-162z" />
    <glyph glyph-name="uni0491" unicode="&#x491;" horiz-adv-x="448" 
d="M28 0v528h238v155h156v-284h-238v-399h-156z" />
    <glyph glyph-name="uni0492" unicode="&#x492;" horiz-adv-x="590" 
d="M14 316v104h76v291h482v-134h-320v-157h118v-104h-118v-316h-162v316h-76z" />
    <glyph glyph-name="uni0493" unicode="&#x493;" horiz-adv-x="498" 
d="M18 214v104h82v210h374v-129h-218v-81h118v-104h-118v-214h-156v214h-82z" />
    <glyph glyph-name="uni0494" unicode="&#x494;" horiz-adv-x="588" 
d="M28 0v711h482v-134h-320v-161h75c144 0 238 -59 280 -163c14 -37 23 -79 23 -127c0 -129 -54 -221 -146 -266c-35 -18 -77 -26 -127 -26h-7l-2 123h8c90 0 118 69 118 161c0 108 -44 168 -147 168h-75v-286h-162z" />
    <glyph glyph-name="uni0495" unicode="&#x495;" horiz-adv-x="504" 
d="M28 0v528h374v-129h-218v-67h17c129 0 220 -45 262 -135c14 -31 21 -66 21 -106c0 -87 -48 -146 -101 -186c-26 -21 -57 -33 -91 -47l-67 108c58 22 103 57 103 125c0 76 -47 111 -127 111h-17v-202h-156z" />
    <glyph glyph-name="uni0496" unicode="&#x496;" horiz-adv-x="1099" 
d="M5 0l226 380l-216 331h200l158 -279h61v279h162v-279h60l154 279h200l-212 -331l156 -270h124v-284h-156v174h-103l-151 290h-72v-290h-162v282h-74l-155 -282h-200z" />
    <glyph glyph-name="uni0497" unicode="&#x497;" horiz-adv-x="926" 
d="M6 0l171 276l-170 252h193l110 -190h40v190h156v-190h41l111 190h192l-168 -250l103 -169h119v-283h-156v174h-85l-105 196h-52v-196h-156v188h-52l-105 -188h-187z" />
    <glyph glyph-name="uni0498" unicode="&#x498;" horiz-adv-x="589" 
d="M14 204v8h162v-8c0 -41 30 -62 65 -74c13 -5 30 -7 46 -7c55 0 95 18 111 50c5 9 8 21 8 32c0 68 -37 93 -111 93h-95v130h95c66 0 101 23 101 83c0 53 -47 76 -109 76c-45 0 -79 -17 -94 -44c-5 -9 -7 -19 -7 -31v-8h-162v8c0 72 37 122 80 153c44 33 110 55 183 55
c118 0 211 -36 251 -116c13 -26 20 -56 20 -89c0 -76 -48 -122 -99 -149c66 -28 109 -79 109 -164c0 -123 -92 -183 -196 -203v-233h-156v231c-92 15 -162 62 -190 140c-7 21 -12 42 -12 67z" />
    <glyph glyph-name="uni0499" unicode="&#x499;" horiz-adv-x="499" 
d="M14 164v7h156v-7c0 -35 37 -53 79 -53c43 0 73 17 73 53c0 41 -24 52 -73 52h-85v108h85c43 0 63 12 63 45c0 32 -23 47 -63 47s-71 -16 -71 -48v-7h-156v7c0 89 66 140 136 159c27 7 54 11 84 11c96 0 176 -26 211 -89c11 -20 15 -43 15 -68c0 -51 -33 -87 -70 -108
c48 -21 80 -58 80 -121c0 -92 -74 -136 -152 -154v-232h-156v231c-61 13 -109 44 -135 89c-14 22 -21 48 -21 78z" />
    <glyph glyph-name="uni049A" unicode="&#x49a;" horiz-adv-x="711" 
d="M28 0v711h162v-277h56l174 277h196l-224 -338l172 -263h126v-284h-156v174h-87l-184 291h-73v-291h-162z" />
    <glyph glyph-name="uni049B" unicode="&#x49b;" horiz-adv-x="622" 
d="M28 0v528h156v-198h39l115 198h196l-178 -253l116 -166h128v-283h-156v174h-100l-115 195h-45v-195h-156z" />
    <glyph glyph-name="uni049C" unicode="&#x49c;" horiz-adv-x="668" 
d="M28 0v711h164v-288h24v126h96v-126h6l125 288h200l-190 -326l208 -385h-204l-131 289h-14v-112h-96v112h-24v-289h-164z" />
    <glyph glyph-name="uni049D" unicode="&#x49d;" horiz-adv-x="596" 
d="M28 0v528h158v-198h22v92h90v-92h9l77 198h196l-147 -251l155 -277h-199l-81 195h-10v-83h-90v83h-22v-195h-158z" />
    <glyph glyph-name="uni049E" unicode="&#x49e;" horiz-adv-x="716" 
d="M12 525v102h90v84h162v-84h104v-101h-104v-92h55l173 277h197l-224 -336l247 -375h-193l-183 284h-72v-284h-162v525h-90z" />
    <glyph glyph-name="uni049F" unicode="&#x49f;" horiz-adv-x="625" 
d="M12 575v104h98v71h156v-71h102v-104h-102v-226c48 62 100 117 149 176l2 3h189l-198 -222l213 -306h-180l-133 208l-42 -43v-165h-156v575h-98z" />
    <glyph glyph-name="uni04A0" unicode="&#x4a0;" horiz-adv-x="859" 
d="M14 582v129h392v-277h55l174 277h197l-224 -336l247 -375h-193l-183 284h-73v-284h-162v582h-230z" />
    <glyph glyph-name="uni04A1" unicode="&#x4a1;" horiz-adv-x="739" 
d="M18 399v129h348v-198h40l115 198h196l-178 -251l194 -277h-206l-115 195h-46v-195h-156v399h-192z" />
    <glyph glyph-name="uni04A2" unicode="&#x4a2;" horiz-adv-x="749" 
d="M28 0v711h162v-281h272v281h160v-601h108v-284h-156v174h-112v298h-272v-298h-162z" />
    <glyph glyph-name="uni04A3" unicode="&#x4a3;" horiz-adv-x="629" 
d="M28 0v528h156v-204h160v204h156v-419h108v-283h-156v174h-108v196h-160v-196h-156z" />
    <glyph glyph-name="uni04A4" unicode="&#x4a4;" horiz-adv-x="945" 
d="M28 0v711h162v-281h272v281h464v-129h-304v-582h-160v298h-272v-298h-162z" />
    <glyph glyph-name="uni04A5" unicode="&#x4a5;" horiz-adv-x="691" 
d="M28 0v528h156v-204h160v204h324v-128h-166v-400h-158v196h-160v-196h-156z" />
    <glyph glyph-name="uni04A6" unicode="&#x4a6;" horiz-adv-x="1010" 
d="M28 0v711h594v-297h65c188 0 301 -99 301 -289c0 -129 -53 -221 -145 -266c-35 -18 -77 -26 -127 -26h-8v123h8c89 0 116 69 116 161c0 108 -42 167 -145 167h-65v-284h-162v577h-270v-577h-162z" />
    <glyph glyph-name="uni04A7" unicode="&#x4a7;" horiz-adv-x="853" 
d="M28 0v528h474v-192h38c131 0 227 -44 271 -134c15 -31 21 -67 21 -107c0 -87 -48 -147 -101 -186c-26 -20 -55 -35 -90 -47l-67 107c59 22 102 55 102 126c0 77 -52 111 -136 111h-38v-206h-156v399h-162v-399h-156z" />
    <glyph glyph-name="uni04A8" unicode="&#x4a8;" horiz-adv-x="769" 
d="M20 323v101c0 132 61 231 155 275c32 15 68 22 107 22h8v-138h-8c-52 0 -75 -48 -86 -95c-5 -20 -6 -40 -6 -64v-101c0 -90 40 -153 103 -181c22 -10 48 -15 76 -15h13c-54 56 -92 132 -92 233v92c0 116 47 206 127 248c27 14 58 21 90 21c78 0 134 -36 170 -83
c39 -52 63 -123 63 -211v-80c0 -93 -31 -168 -74 -223c24 -4 45 -6 72 -6h8v-124h-8c-76 0 -143 12 -199 32c-48 -23 -103 -36 -170 -36c-110 0 -196 40 -253 96c-56 54 -96 134 -96 237zM444 350c0 -78 32 -135 76 -174c35 39 58 93 58 164v98c0 77 -8 145 -71 145
c-55 0 -63 -68 -63 -137v-96z" />
    <glyph glyph-name="uni04A9" unicode="&#x4a9;" horiz-adv-x="632" 
d="M20 258v47c0 104 50 183 127 216c27 12 56 17 88 17h7v-132l-6 -1c-37 -5 -54 -50 -54 -105v-50c0 -78 37 -130 102 -140c-25 39 -40 84 -40 142v76c0 92 40 161 103 193c22 12 46 17 72 17c95 0 147 -68 169 -138c8 -27 12 -56 12 -88v-70c0 -66 -24 -117 -58 -154
c20 -3 40 -5 61 -5h7v-96h-7c-65 0 -121 8 -170 26c-39 -14 -79 -23 -129 -23c-135 0 -225 68 -264 162c-13 33 -20 68 -20 106zM364 244c0 -41 14 -75 38 -103c25 22 42 55 42 99v74c0 36 -8 72 -25 86c-4 4 -9 5 -15 5c-28 0 -40 -43 -40 -83v-78z" />
    <glyph glyph-name="uni04AA" unicode="&#x4aa;" horiz-adv-x="636" 
d="M34 331v45c0 154 63 261 170 307c35 15 74 23 118 23c166 0 259 -89 278 -236h-132c-7 84 -53 131 -146 131c-122 0 -154 -99 -154 -223v-45c0 -117 26 -223 152 -223c91 0 140 43 147 127h132c-11 -111 -72 -182 -164 -214c-17 -6 -33 -10 -53 -13v-225h-126v222
c-107 21 -171 92 -202 186c-14 40 -20 86 -20 138z" />
    <glyph glyph-name="uni04AB" unicode="&#x4ab;" horiz-adv-x="519" 
d="M34 255v14c0 118 49 198 132 235c29 13 64 19 104 19c102 0 166 -45 196 -115c10 -23 15 -48 16 -76h-117c-3 53 -41 92 -97 92c-89 0 -108 -75 -108 -153v-14c0 -79 18 -153 109 -153c54 0 90 29 96 79h117c-3 -55 -29 -98 -61 -126c-22 -20 -52 -35 -87 -44l-6 -2v-226
h-126v224l-5 1c-106 29 -163 116 -163 245z" />
    <glyph glyph-name="uni04AC" unicode="&#x4ac;" horiz-adv-x="626" 
d="M14 577v134h594v-134h-218v-468h92v-283h-156v174h-98v577h-214z" />
    <glyph glyph-name="uni04AD" unicode="&#x4ad;" horiz-adv-x="532" 
d="M16 400v128h494v-128h-170v-292h108v-282h-156v174h-108v400h-168z" />
    <glyph glyph-name="uni04AE" unicode="&#x4ae;" horiz-adv-x="654" 
d="M6 711h178l142 -310l143 310h177l-238 -453v-258h-164v258z" />
    <glyph glyph-name="uni04AF" unicode="&#x4af;" horiz-adv-x="536" 
d="M9 528h164l95 -340l92 340h164l-180 -519v-213h-156v217z" />
    <glyph glyph-name="uni04B0" unicode="&#x4b0;" horiz-adv-x="654" 
d="M6 711h178l142 -310l143 310h177l-191 -363h53v-104h-100v-244h-164v244h-92v104h45z" />
    <glyph glyph-name="uni04B1" unicode="&#x4b1;" horiz-adv-x="536" 
d="M9 528h164l95 -340l92 340h164l-148 -421h72v-102h-104v-209h-156v209h-96v105h65z" />
    <glyph glyph-name="uni04B2" unicode="&#x4b2;" horiz-adv-x="694" 
d="M6 0l216 358l-211 353h186l129 -237l129 237h186l-211 -354l148 -247h96v-284h-156v174h-59l-133 241l-133 -241h-187z" />
    <glyph glyph-name="uni04B3" unicode="&#x4b3;" horiz-adv-x="569" 
d="M6 0l161 270l-154 258h168l83 -149l85 149h168l-154 -260l93 -159h92v-283h-156v174h-37l-90 158l-90 -158h-169z" />
    <glyph glyph-name="uni04B4" unicode="&#x4b4;" horiz-adv-x="884" 
d="M14 582v129h484v-129h-160v-449h268v578h162v-578h98l-10 -304h-152v171h-528v582h-162z" />
    <glyph glyph-name="uni04B5" unicode="&#x4b5;" horiz-adv-x="697" 
d="M16 400v128h360v-128h-96v-271h162v399h156v-400h80l-11 -285h-145v157h-398v400h-108z" />
    <glyph glyph-name="uni04B6" unicode="&#x4b6;" horiz-adv-x="721" 
d="M18 488v223h162v-221c0 -61 19 -94 67 -104c15 -3 35 -4 55 -4c46 0 94 4 132 12v317h162v-601h106v-284h-156v174h-112v261c-41 -7 -86 -13 -132 -13c-169 0 -284 71 -284 240z" />
    <glyph glyph-name="uni04B7" unicode="&#x4b7;" horiz-adv-x="619" 
d="M20 357v171h156v-169c0 -62 27 -79 93 -79c25 0 45 3 65 7v241h158v-419h106v-283h-156v174h-108v157c-23 -4 -42 -5 -65 -5c-148 0 -249 58 -249 205z" />
    <glyph glyph-name="uni04B8" unicode="&#x4b8;" horiz-adv-x="628" 
d="M18 489v222h162v-227c0 -62 20 -95 67 -105c6 -1 11 -1 15 -2v140h96v-141c29 2 53 5 76 10v325h162v-711h-162v263c-25 -4 -50 -8 -76 -11v-110h-96v109c-148 11 -244 84 -244 238z" />
    <glyph glyph-name="uni04B9" unicode="&#x4b9;" horiz-adv-x="522" 
d="M20 358v170h156v-174c0 -40 11 -60 32 -71v122h98v-130c11 2 19 3 28 5v248h156v-528h-156v160c-10 -2 -19 -3 -28 -4v-71h-98v73c-115 15 -188 75 -188 200z" />
    <glyph glyph-name="uni04BA" unicode="&#x4ba;" horiz-adv-x="633" 
d="M28 0v711h162v-261c40 7 86 14 133 14c169 0 285 -72 285 -241v-223h-162v221c0 85 -40 109 -123 109c-46 0 -94 -6 -133 -13v-317h-162z" />
    <glyph glyph-name="uni04BB" unicode="&#x4bb;" horiz-adv-x="527" 
d="M28 0v750h156v-267c32 33 76 55 134 55c130 0 182 -81 182 -207v-331h-156v329c0 56 -21 79 -77 79c-42 0 -67 -16 -83 -41v-367h-156z" />
    <glyph glyph-name="uni04BC" unicode="&#x4bc;" horiz-adv-x="776" 
d="M14 525v7h112v-7c0 -47 15 -75 44 -90c4 135 81 223 181 264c36 15 76 22 118 21c149 0 232 -84 266 -199c12 -41 17 -86 17 -137v-84h-420v-4c0 -109 56 -164 170 -164c72 0 136 11 185 33l26 -136l-5 -2c-53 -26 -127 -38 -206 -38c-161 0 -268 67 -311 184
c-14 38 -21 79 -21 124v16c-103 19 -156 97 -156 212zM332 425h258v7c0 89 -34 144 -121 144c-71 0 -111 -41 -128 -97c-5 -17 -8 -35 -9 -54z" />
    <glyph glyph-name="uni04BD" unicode="&#x4bd;" horiz-adv-x="673" 
d="M16 416v8h102v-8c0 -44 16 -71 44 -85c17 94 72 161 154 191c28 10 60 16 94 16c161 0 240 -107 240 -262v-66h-335c10 -55 55 -91 120 -91c62 0 99 25 126 63l81 -89l-4 -5c-41 -58 -113 -98 -212 -98c-124 0 -209 59 -247 144c-13 27 -20 59 -22 89
c-90 21 -141 88 -141 193zM317 314h179v4c0 58 -28 91 -86 91s-84 -41 -93 -95z" />
    <glyph glyph-name="uni04BE" unicode="&#x4be;" horiz-adv-x="775" 
d="M14 525v7h112v-7c0 -47 15 -75 44 -90c4 135 81 223 181 264c36 15 76 22 118 21c149 0 232 -84 266 -199c12 -41 17 -86 17 -137v-84h-420v-4c0 -109 56 -164 170 -164c72 0 136 11 185 33l26 -136l-5 -2c-37 -18 -84 -29 -136 -34v-222h-156v225
c-114 20 -190 82 -225 177c-14 38 -21 79 -21 124v16c-103 19 -156 97 -156 212zM332 425h258v7c0 89 -34 144 -121 144c-71 0 -111 -40 -128 -96c-5 -17 -8 -36 -9 -55z" />
    <glyph glyph-name="uni04BF" unicode="&#x4bf;" horiz-adv-x="672" 
d="M14 417v7h104v-7c0 -44 15 -72 43 -86c17 94 72 161 154 191c28 10 60 16 94 16c161 0 241 -107 241 -262v-66h-336c10 -55 55 -91 120 -91c62 0 99 25 126 63l81 -89l-4 -5c-33 -46 -84 -81 -153 -93v-220h-156v229c-72 23 -123 70 -150 131c-13 27 -20 58 -22 88
c-90 21 -142 89 -142 194zM316 314h180v4c0 58 -29 91 -87 91s-84 -41 -93 -95z" />
    <glyph glyph-name="uni04C0" unicode="&#x4c0;" horiz-adv-x="221" 
d="M28 0v711h162v-711h-162z" />
    <glyph glyph-name="uni04C1" unicode="&#x4c1;" horiz-adv-x="1025" 
d="M4 0l226 380l-216 331h200l158 -279h62v279h162v-279h59l154 279h200l-212 -330l222 -381h-201l-151 290h-71v-290h-162v282h-75l-155 -282h-200zM334 890v8h114v-8c0 -39 22 -56 62 -56s60 19 60 56v8h116v-8c0 -77 -48 -121 -105 -141c-22 -7 -45 -11 -71 -11
c-79 0 -140 35 -164 92c-8 19 -12 38 -12 60z" />
    <glyph glyph-name="uni04C2" unicode="&#x4c2;" horiz-adv-x="861" 
d="M5 0l171 276l-170 252h193l110 -190h39v190h158v-190h40l111 190h192l-168 -249l172 -279h-191l-105 196h-51v-196h-158v188h-51l-105 -188h-187zM262 736v7h114v-7c0 -39 22 -57 62 -57s60 20 60 57v7h116v-7c0 -77 -48 -122 -105 -142c-22 -7 -45 -11 -71 -11
c-100 0 -176 53 -176 153z" />
    <glyph glyph-name="uni04C3" unicode="&#x4c3;" horiz-adv-x="634" 
d="M28 0v711h164v-286h36l175 286h200l-214 -306c141 -26 225 -120 225 -282c0 -146 -69 -247 -186 -281c-27 -8 -57 -12 -92 -12h-8v127h8c89 0 116 68 116 161c0 108 -42 170 -141 170h-119v-288h-164z" />
    <glyph glyph-name="uni04C4" unicode="&#x4c4;" horiz-adv-x="546" 
d="M28 0v528h156v-198h31l123 198h197l-170 -233c94 -30 159 -97 159 -216c0 -86 -51 -144 -104 -183c-26 -19 -55 -31 -89 -45l-66 107c58 22 101 57 103 126c0 80 -53 111 -137 111h-47v-195h-156z" />
    <glyph glyph-name="uni04C5" unicode="&#x4c5;" horiz-adv-x="781" 
d="M18 0v133h26c47 4 66 20 80 56c8 19 13 46 16 79s6 74 9 124l14 319h491v-602h109l-1 -102c0 -92 -49 -167 -103 -207l-85 43l3 7c24 46 49 86 50 150h-135v577h-174l-8 -189c-6 -122 -20 -225 -67 -299c-37 -58 -92 -89 -182 -89h-43z" />
    <glyph glyph-name="uni04C6" unicode="&#x4c6;" horiz-adv-x="667" 
d="M17 131h23c54 0 62 35 67 90c2 23 4 50 5 83l10 224h416v-420h110l-2 -102c0 -92 -48 -166 -102 -206l-85 43l3 7c24 46 49 86 50 150h-130v399h-109l-5 -100c-7 -163 -37 -299 -218 -299h-30z" />
    <glyph glyph-name="uni04C7" unicode="&#x4c7;" horiz-adv-x="654" 
d="M28 0v711h162v-295h270v295h162v-717c0 -128 -69 -207 -197 -207c-31 0 -55 2 -80 10l8 131c18 -4 34 -8 56 -8c37 0 51 29 51 74v290h-270v-284h-162z" />
    <glyph glyph-name="uni04C8" unicode="&#x4c8;" horiz-adv-x="532" 
d="M28 0v528h156v-204h160v204h156v-538c0 -126 -66 -203 -193 -203c-30 0 -54 2 -78 10l8 127c17 -4 33 -8 56 -8c36 0 51 29 51 74v206h-160v-196h-156z" />
    <glyph glyph-name="uni04C9" unicode="&#x4c9;" horiz-adv-x="751" 
d="M28 0v711h162v-281h272v281h160v-602h111l-1 -102c0 -92 -49 -167 -103 -207l-85 43l3 7c24 46 49 86 50 150h-135v298h-272v-298h-162z" />
    <glyph glyph-name="uni04CA" unicode="&#x4ca;" horiz-adv-x="631" 
d="M28 0v528h156v-204h160v204h156v-420h112l-2 -101c0 -68 -28 -122 -59 -162c-13 -17 -27 -33 -43 -45l-85 43l3 7c24 46 49 86 50 150h-132v196h-160v-196h-156z" />
    <glyph glyph-name="uni04CB" unicode="&#x4cb;" horiz-adv-x="628" 
d="M18 488v223h162v-221c0 -61 19 -94 67 -104c15 -3 35 -4 55 -4c46 0 94 4 132 12v317h162v-711h-114v-174h-156v284h108v151c-41 -7 -86 -13 -132 -13c-169 0 -284 71 -284 240z" />
    <glyph glyph-name="uni04CC" unicode="&#x4cc;" horiz-adv-x="523" 
d="M20 357v171h156v-169c0 -62 27 -79 93 -79c25 0 45 3 65 7v241h158v-528h-112v-174h-156v282h110v49c-23 -4 -42 -5 -65 -5c-148 0 -249 58 -249 205z" />
    <glyph glyph-name="uni04CD" unicode="&#x4cd;" horiz-adv-x="917" 
d="M28 0v711h205l178 -501l176 501h205v-602h107l-1 -102c0 -92 -49 -167 -103 -207l-85 43l3 7c24 46 49 86 50 150h-133v202l12 287l-177 -489h-110l-177 488l12 -286v-202h-162z" />
    <glyph glyph-name="uni04CE" unicode="&#x4ce;" horiz-adv-x="800" 
d="M28 0v528h188l132 -347l133 347h189v-420h111l-1 -101c0 -68 -29 -122 -60 -162c-13 -17 -27 -33 -43 -45l-85 43l3 7c24 46 49 86 50 150h-131v292l-114 -292h-104l-112 287v-287h-156z" />
    <glyph glyph-name="uni04CF" unicode="&#x4cf;" horiz-adv-x="221" 
d="M28 0v711h162v-711h-162z" />
    <glyph glyph-name="uni04D0" unicode="&#x4d0;" horiz-adv-x="706" 
d="M8 0l271 711h146l272 -711h-172l-49 146h-247l-49 -146h-172zM178 888v8h116v-8c0 -39 21 -56 61 -56s61 19 61 56v8h116v-8c0 -77 -49 -121 -106 -141c-22 -7 -45 -11 -71 -11c-79 0 -140 35 -164 92c-8 19 -13 38 -13 60zM274 272h157l-79 235z" />
    <glyph glyph-name="uni04D1" unicode="&#x4d1;" horiz-adv-x="518" 
d="M16 152c0 134 117 178 252 178h56v21c0 44 -22 68 -71 68c-42 0 -69 -20 -69 -57v-7h-156v7c0 56 31 97 64 124c41 32 99 52 169 52c100 0 171 -37 203 -106c12 -23 16 -51 16 -82v-218c0 -47 7 -83 21 -114l1 -1v-17h-155c-8 10 -12 23 -15 38c-30 -29 -71 -48 -128 -48
c-84 0 -145 41 -173 97c-10 20 -15 41 -15 65zM84 738v7h116v-7c0 -39 21 -57 61 -57s61 20 61 57v7h116v-7c0 -77 -48 -122 -105 -142c-22 -7 -46 -11 -72 -11c-99 0 -177 52 -177 153zM172 163c0 -30 27 -50 63 -50c42 0 74 19 89 43v76h-51c-60 0 -101 -19 -101 -69z" />
    <glyph glyph-name="uni04D2" unicode="&#x4d2;" horiz-adv-x="706" 
d="M8 0l271 711h146l272 -711h-172l-49 146h-247l-49 -146h-172zM158 810c0 43 35 70 76 70s74 -28 74 -70c0 -43 -33 -69 -74 -69c-42 0 -76 25 -76 69zM274 272h157l-79 235zM396 810c0 43 35 70 76 70s74 -28 74 -70s-33 -70 -74 -70c-42 0 -76 27 -76 70z" />
    <glyph glyph-name="uni04D3" unicode="&#x4d3;" horiz-adv-x="518" 
d="M16 152c0 134 117 178 252 178h56v21c0 44 -22 68 -71 68c-42 0 -69 -20 -69 -57v-7h-156v7c0 56 31 97 64 124c41 32 99 52 169 52c100 0 171 -37 203 -106c12 -23 16 -51 16 -82v-218c0 -47 7 -83 21 -114l1 -1v-17h-155c-8 10 -12 23 -15 38c-30 -29 -71 -48 -128 -48
c-84 0 -145 41 -173 97c-10 20 -15 41 -15 65zM66 660c0 43 34 69 75 69s75 -27 75 -69c0 -43 -34 -70 -75 -70c-42 0 -75 26 -75 70zM172 163c0 -30 27 -50 63 -50c42 0 74 19 89 43v76h-51c-60 0 -101 -19 -101 -69zM304 660c0 43 34 69 75 69s75 -27 75 -69
s-34 -71 -75 -71c-42 0 -75 28 -75 71z" />
    <glyph glyph-name="uni04D4" unicode="&#x4d4;" horiz-adv-x="956" 
d="M5 0l393 711h508v-130h-292l6 -155h246v-126h-240l7 -173h303v-127h-453l-7 163h-206l-81 -163h-184zM338 290h132l-10 243z" />
    <glyph glyph-name="uni04D5" unicode="&#x4d5;" horiz-adv-x="843" 
d="M18 158c0 122 116 162 249 162h73v20c0 44 -25 69 -70 69c-38 0 -62 -11 -74 -33c-3 -6 -6 -13 -6 -20v-7l-156 9v8c0 58 32 98 67 124c42 30 100 48 170 48c68 0 123 -18 160 -51c39 32 91 52 159 51c114 0 185 -57 214 -142c10 -29 16 -62 16 -99v-85h-326
c8 -60 48 -93 122 -93c63 0 107 17 148 40l43 -105c-50 -37 -120 -64 -206 -64c-83 0 -146 27 -188 69c-44 -43 -108 -69 -192 -69c-93 0 -162 34 -190 99c-9 20 -13 44 -13 69zM174 162c0 -37 26 -53 73 -53c38 0 71 16 93 35v81h-72c-44 0 -74 -15 -88 -41
c-4 -8 -6 -14 -6 -22zM496 314h170v6c0 56 -23 89 -76 89c-60 0 -85 -40 -94 -95z" />
    <glyph glyph-name="uni04D6" unicode="&#x4d6;" horiz-adv-x="544" 
d="M28 0v711h492v-134h-330v-147h282v-130h-282v-167h330v-133h-492zM108 890v8h114v-8c0 -39 22 -56 62 -56s60 19 60 56v8h116v-8c0 -77 -48 -121 -105 -141c-22 -7 -45 -11 -71 -11c-79 0 -140 35 -164 92c-8 19 -12 38 -12 60z" />
    <glyph glyph-name="uni04D7" unicode="&#x4d7;" horiz-adv-x="535" 
d="M18 246v19c0 124 59 214 150 253c31 13 66 20 105 20c161 0 241 -107 241 -262v-66h-336c10 -56 51 -91 120 -91c57 0 95 22 121 56l6 7l79 -89l-4 -5c-42 -58 -112 -98 -212 -98c-130 0 -215 65 -251 157c-12 31 -19 64 -19 99zM80 738v7h116v-7c0 -39 21 -57 61 -57
s61 20 61 57v7h116v-7c0 -77 -48 -122 -105 -142c-22 -7 -46 -11 -72 -11c-99 0 -177 52 -177 153zM180 322h180v4c0 53 -31 83 -88 83c-58 0 -84 -38 -92 -87z" />
    <glyph glyph-name="uni04D8" unicode="&#x4d8;" horiz-adv-x="668" 
d="M18 326v84h463c-5 109 -68 167 -189 167c-77 0 -136 -17 -195 -32l-26 134l5 2c37 19 86 28 136 35c24 3 51 5 80 5c170 0 285 -74 330 -199c14 -41 22 -85 22 -133v-70c0 -154 -79 -258 -190 -305c-38 -16 -79 -24 -123 -24c-159 0 -254 78 -293 198
c-13 41 -20 87 -20 138zM180 276c0 -96 52 -143 151 -143c93 0 137 66 149 151h-300v-8z" />
    <glyph glyph-name="uni04D9" unicode="&#x4d9;" horiz-adv-x="520" 
d="M20 231v85h317c-10 55 -46 94 -113 94c-66 0 -109 -17 -151 -41l-43 104c51 39 120 66 209 66c125 0 206 -67 240 -158c11 -32 17 -65 17 -101v-19c0 -122 -55 -212 -142 -251c-30 -14 -64 -20 -102 -19c-151 0 -232 93 -232 240zM174 208c0 -55 25 -89 78 -89
c52 0 76 44 84 93h-162v-4z" />
    <glyph glyph-name="uni04DA" unicode="&#x4da;" horiz-adv-x="668" 
d="M18 326v84h463c-5 109 -68 167 -189 167c-77 0 -136 -17 -195 -32l-26 134l5 2c37 19 86 28 136 35c24 3 51 5 80 5c170 0 285 -74 330 -199c14 -41 22 -85 22 -133v-70c0 -154 -79 -258 -190 -305c-38 -16 -79 -24 -123 -24c-159 0 -254 78 -293 198
c-13 41 -20 87 -20 138zM114 790c0 43 34 69 75 69s75 -27 75 -69c0 -43 -34 -70 -75 -70c-42 0 -75 26 -75 70zM180 276c0 -96 52 -143 151 -143c93 0 137 66 149 151h-300v-8zM352 790c0 43 34 69 75 69s75 -27 75 -69s-34 -71 -75 -71c-42 0 -75 28 -75 71z" />
    <glyph glyph-name="uni04DB" unicode="&#x4db;" horiz-adv-x="518" 
d="M20 231v85h317c-10 55 -46 94 -113 94c-66 0 -109 -17 -151 -41l-43 104c51 39 120 66 209 66c125 0 206 -67 240 -158c11 -32 17 -65 17 -101v-19c0 -122 -55 -212 -142 -251c-30 -14 -64 -20 -102 -19c-151 0 -232 93 -232 240zM60 660c0 43 35 69 76 69s74 -27 74 -69
c0 -43 -33 -70 -74 -70c-42 0 -76 26 -76 70zM174 208c0 -55 25 -89 78 -89c52 0 76 44 84 93h-162v-4zM298 660c0 43 35 69 76 69s74 -27 74 -69s-33 -71 -74 -71c-42 0 -76 28 -76 71z" />
    <glyph glyph-name="uni04DC" unicode="&#x4dc;" horiz-adv-x="1025" 
d="M4 0l226 380l-216 331h200l158 -279h62v279h162v-279h59l154 279h200l-212 -330l222 -381h-201l-151 290h-71v-290h-162v282h-75l-155 -282h-200zM314 812c0 43 35 70 76 70s74 -28 74 -70c0 -43 -33 -69 -74 -69c-42 0 -76 25 -76 69zM552 812c0 43 35 70 76 70
s74 -28 74 -70s-33 -70 -74 -70c-42 0 -76 27 -76 70z" />
    <glyph glyph-name="uni04DD" unicode="&#x4dd;" horiz-adv-x="861" 
d="M5 0l171 276l-170 252h193l110 -190h39v190h158v-190h40l111 190h192l-168 -249l172 -279h-191l-105 196h-51v-196h-158v188h-51l-105 -188h-187zM242 658c0 43 35 69 76 69s74 -27 74 -69c0 -43 -33 -70 -74 -70c-42 0 -76 26 -76 70zM480 658c0 43 35 69 76 69
s74 -27 74 -69s-33 -71 -74 -71c-42 0 -76 28 -76 71z" />
    <glyph glyph-name="uni04DE" unicode="&#x4de;" horiz-adv-x="589" 
d="M14 204v8h162v-8c0 -41 30 -62 65 -74c13 -5 30 -7 46 -7c55 0 95 18 111 50c5 9 8 21 8 32c0 68 -37 93 -111 93h-95v130h95c66 0 101 23 101 83c0 53 -47 76 -109 76c-45 0 -79 -17 -94 -44c-5 -9 -7 -19 -7 -31v-8h-162v8c0 72 37 122 80 153c44 33 110 55 183 55
c118 0 211 -36 251 -116c13 -26 20 -56 20 -89c0 -76 -48 -122 -99 -149c66 -28 109 -79 109 -164c0 -113 -78 -172 -169 -197c-34 -9 -71 -14 -112 -14c-126 0 -227 50 -261 146c-7 21 -12 42 -12 67zM96 814c0 43 34 70 75 70s75 -28 75 -70c0 -43 -34 -69 -75 -69
c-42 0 -75 25 -75 69zM334 814c0 43 34 70 75 70s75 -28 75 -70s-34 -70 -75 -70c-42 0 -75 27 -75 70z" />
    <glyph glyph-name="uni04DF" unicode="&#x4df;" horiz-adv-x="496" 
d="M14 164v7h156v-7c0 -35 36 -53 78 -53c43 0 72 17 72 53c0 41 -23 52 -72 52h-84v108h84c43 0 64 12 64 45c0 32 -24 47 -64 47s-70 -16 -70 -48v-7h-156v7c0 89 65 140 135 159c27 7 54 11 84 11c96 0 176 -27 211 -90c11 -20 16 -42 16 -67c0 -51 -34 -87 -71 -108
c48 -21 79 -58 79 -121c0 -57 -30 -96 -67 -120c-42 -27 -100 -42 -168 -42c-94 0 -170 35 -207 96c-14 22 -20 48 -20 78zM52 660c0 43 34 69 75 69s75 -27 75 -69c0 -43 -34 -70 -75 -70c-42 0 -75 26 -75 70zM290 660c0 43 34 69 75 69s75 -27 75 -69s-34 -71 -75 -71
c-42 0 -75 28 -75 71z" />
    <glyph glyph-name="uni04E0" unicode="&#x4e0;" horiz-adv-x="561" 
d="M14 204v8h162v-8c0 -40 26 -63 56 -75c11 -5 24 -7 39 -7c50 0 85 20 100 51c4 10 7 22 7 33c0 84 -40 120 -127 120h-73v100l154 151h-286v134h479l2 -106l-168 -178c111 -24 181 -99 181 -225c0 -112 -73 -173 -162 -198c-33 -9 -68 -14 -107 -14
c-110 0 -193 44 -234 118c-16 27 -23 59 -23 96z" />
    <glyph glyph-name="uni04E1" unicode="&#x4e1;" horiz-adv-x="554" 
d="M14 22v7h156v-7c0 -54 42 -86 98 -86c63 0 110 30 110 87c0 86 -40 121 -129 121h-73v98l154 157h-290v129h479l2 -101l-169 -183c111 -23 182 -97 182 -225c0 -111 -71 -173 -159 -198c-33 -9 -68 -14 -107 -14c-108 0 -192 43 -232 117c-15 27 -22 61 -22 98z" />
    <glyph glyph-name="uni04E2" unicode="&#x4e2;" horiz-adv-x="653" 
d="M28 0v711h162v-454l273 454h159v-711h-162v453l-274 -453h-158zM140 767v96h372v-96h-372z" />
    <glyph glyph-name="uni04E3" unicode="&#x4e3;" horiz-adv-x="532" 
d="M26 0v528h158v-303l165 303h153v-528h-156v304l-166 -304h-154zM82 612v96h372v-96h-372z" />
    <glyph glyph-name="uni04E4" unicode="&#x4e4;" horiz-adv-x="653" 
d="M28 0v711h162v-454l273 454h159v-711h-162v453l-274 -453h-158zM130 812c0 43 35 70 76 70s74 -28 74 -70c0 -43 -33 -69 -74 -69c-42 0 -76 25 -76 69zM368 812c0 43 35 70 76 70s74 -28 74 -70s-33 -70 -74 -70c-42 0 -76 27 -76 70z" />
    <glyph glyph-name="uni04E5" unicode="&#x4e5;" horiz-adv-x="531" 
d="M26 0v528h158v-303l165 303h153v-528h-156v304l-166 -304h-154zM72 658c0 43 34 69 75 69s75 -27 75 -69c0 -43 -34 -70 -75 -70c-42 0 -75 26 -75 70zM310 658c0 43 34 69 75 69s75 -27 75 -69s-34 -71 -75 -71c-42 0 -75 28 -75 71z" />
    <glyph glyph-name="uni04E6" unicode="&#x4e6;" horiz-adv-x="662" 
d="M18 339v32c0 162 69 275 185 325c38 16 80 25 126 25c100 0 175 -41 224 -95c53 -59 85 -146 85 -255v-32c0 -163 -67 -275 -183 -325c-38 -16 -79 -24 -125 -24c-99 0 -176 41 -225 95c-53 58 -87 146 -87 254zM134 810c0 43 34 70 75 70s75 -28 75 -70
c0 -43 -34 -69 -75 -69c-42 0 -75 25 -75 69zM182 340c0 -96 24 -170 85 -201c18 -9 39 -14 63 -14c107 0 146 94 146 215v31c0 122 -39 214 -147 214c-107 0 -147 -93 -147 -214v-31zM372 810c0 43 34 70 75 70s75 -28 75 -70s-34 -70 -75 -70c-42 0 -75 27 -75 70z" />
    <glyph glyph-name="uni04E7" unicode="&#x4e7;" horiz-adv-x="556" 
d="M18 259v10c0 124 58 210 149 249c32 14 68 20 109 20c128 0 208 -69 241 -163c11 -33 17 -67 17 -106v-10c0 -124 -56 -210 -147 -249c-32 -14 -69 -20 -110 -20c-128 0 -209 69 -242 163c-11 33 -17 67 -17 106zM80 660c0 43 35 69 76 69s74 -27 74 -69
c0 -43 -33 -70 -74 -70c-42 0 -76 26 -76 70zM174 259c0 -79 25 -140 103 -140c75 0 101 62 101 140v10c0 78 -26 140 -102 140c-75 0 -102 -63 -102 -140v-10zM318 660c0 43 35 69 76 69s74 -27 74 -69s-33 -71 -74 -71c-42 0 -76 28 -76 71z" />
    <glyph glyph-name="uni04E8" unicode="&#x4e8;" horiz-adv-x="662" 
d="M18 339v32c0 162 69 275 185 325c38 16 80 25 126 25c100 0 175 -41 224 -95c53 -59 85 -146 85 -255v-32c0 -162 -67 -275 -183 -325c-38 -16 -79 -24 -125 -24c-99 0 -176 41 -225 95c-53 58 -87 146 -87 254zM183 312c7 -107 47 -187 147 -187c98 0 137 82 144 187
h-291zM183 402h291c-7 105 -47 183 -145 183s-137 -78 -146 -183z" />
    <glyph glyph-name="uni04E9" unicode="&#x4e9;" horiz-adv-x="558" 
d="M20 259v10c0 124 56 211 147 249c32 14 69 20 109 20c128 0 209 -69 242 -163c11 -33 16 -67 16 -106v-10c0 -124 -57 -210 -148 -249c-32 -14 -68 -20 -109 -20c-128 0 -208 69 -241 163c-11 33 -16 67 -16 106zM179 218c10 -58 36 -99 98 -99s88 43 97 99h-195z
M179 314h196c-10 55 -36 95 -99 95s-88 -42 -97 -95z" />
    <glyph glyph-name="uni04EA" unicode="&#x4ea;" horiz-adv-x="662" 
d="M18 339v32c0 162 69 275 185 325c38 16 80 25 126 25c100 0 175 -41 224 -95c53 -59 85 -146 85 -255v-32c0 -162 -67 -275 -183 -325c-38 -16 -79 -24 -125 -24c-99 0 -176 41 -225 95c-53 58 -87 146 -87 254zM140 812c0 43 35 69 76 69s74 -27 74 -69
c0 -43 -33 -70 -74 -70c-42 0 -76 26 -76 70zM183 312c7 -107 47 -187 147 -187c98 0 137 82 144 187h-291zM183 402h291c-7 105 -47 183 -145 183s-137 -78 -146 -183zM378 812c0 43 35 69 76 69s74 -27 74 -69s-33 -71 -74 -71c-42 0 -76 28 -76 71z" />
    </font>
</defs>
</svg>
