<?xml version="1.0" standalone="no"?>
<!DOCTYPE svg PUBLIC "-//W3C//DTD SVG 20010904//EN"
 "http://www.w3.org/TR/2001/REC-SVG-20010904/DTD/svg10.dtd">
<svg version="1.0" xmlns="http://www.w3.org/2000/svg"
 width="16.000000pt" height="16.000000pt" viewBox="0 0 16.000000 16.000000"
 preserveAspectRatio="xMidYMid meet">
<metadata>
Created by potrace 1.11, written by Peter Selinger 2001-2013
</metadata>
<g transform="translate(0.000000,16.000000) scale(0.013445,-0.013445)"
fill="#000000" stroke="none">
<path d="M90 875 l0 -315 78 0 78 0 -1 120 c-1 80 3 121 10 124 6 2 66 4 133
4 68 -1 125 2 128 5 6 5 7 44 5 102 -1 20 -7 21 -136 20 -74 0 -135 2 -136 5
-1 3 -2 24 -3 48 -1 32 2 42 14 43 8 0 70 1 138 1 104 1 122 4 123 17 1 9 1
43 2 76 l0 60 -216 3 -217 2 0 -315z"/>
<path d="M650 1112 l0 -78 133 1 c72 1 137 0 142 -2 7 -2 10 -157 10 -441 l0
-437 -343 -1 c-243 -1 -342 2 -343 10 -1 6 -2 72 -3 146 l-1 135 -77 3 -78 3
0 -226 0 -225 500 0 500 0 0 595 0 595 -220 0 -220 0 0 -78z"/>
</g>
</svg>
